<svg viewBox="0 0 372 176" fill="none" xmlns="http://www.w3.org/2000/svg">
  <path
    fill="#1F1F1F"
    d="M360 72h2v2h-2zm-2 2h2v2h-2zm2 0h2v2h-2zm2 0h2v2h-2zm-6 2h2v2h-2zm2 0h2v2h-2zm2 0h2v2h-2zm2 0h2v2h-2zm2 0h2v2h-2zm-10 2h2v2h-2zm2 0h2v2h-2zm2 0h2v2h-2zm2 0h2v2h-2zm2 0h2v2h-2zm2 0h2v2h-2zm-12 2h2v2h-2zm2 0h2v2h-2zm2 0h2v2h-2zm2 0h2v2h-2zm2 0h2v2h-2zm2 0h2v2h-2zm2 0h2v2h-2zm-16 2h2v2h-2zm2 0h2v2h-2zm2 0h2v2h-2zm2 0h2v2h-2zm2 0h2v2h-2zm2 0h2v2h-2zm2 0h2v2h-2zm2 0h2v2h-2zm2 0h2v2h-2zm-16 2h2v2h-2zm2 0h2v2h-2zm2 0h2v2h-2zm2 0h2v2h-2zm2 0h2v2h-2zm2 0h2v2h-2zm2 0h2v2h-2zm2 0h2v2h-2zm2 0h2v2h-2zm2 0h2v2h-2zm-22 2h2v2h-2zm2 0h2v2h-2zm2 0h2v2h-2zm2 0h2v2h-2z"
  />
  <path fill="#362E24" d="M352 86h2v2h-2zm2 0h2v2h-2z" />
  <path
    fill="#1F1F1F"
    d="M356 86h2v2h-2zm2 0h2v2h-2zm2 0h2v2h-2zm2 0h2v2h-2zm2 0h2v2h-2zm2 0h2v2h-2zm-22 2h2v2h-2zm2 0h2v2h-2zm2 0h2v2h-2zm2 0h2v2h-2z"
  />
  <path fill="#362E24" d="M352 88h2v2h-2zm2 0h2v2h-2zm2 0h2v2h-2z" />
  <path
    fill="#1F1F1F"
    d="M358 88h2v2h-2zm2 0h2v2h-2zm2 0h2v2h-2zm2 0h2v2h-2zm2 0h2v2h-2zm-34 2h2v2h-2zm2 0h2v2h-2zm10 0h2v2h-2zm2 0h2v2h-2zm2 0h2v2h-2zm2 0h2v2h-2z"
  />
  <path
    fill="#362E24"
    d="M352 90h2v2h-2zm2 0h2v2h-2zm2 0h2v2h-2zm2 0h2v2h-2z"
  />
  <path
    fill="#1F1F1F"
    d="M360 90h2v2h-2zm2 0h2v2h-2zm2 0h2v2h-2zm2 0h2v2h-2zm-34 2h2v2h-2zm2 0h2v2h-2zm2 0h2v2h-2zm2 0h2v2h-2zm2 0h2v2h-2zm2 0h2v2h-2zm2 0h2v2h-2zm2 0h2v2h-2zm2 0h2v2h-2zm2 0h2v2h-2z"
  />
  <path
    fill="#362E24"
    d="M352 92h2v2h-2zm2 0h2v2h-2zm2 0h2v2h-2zm2 0h2v2h-2z"
  />
  <path
    fill="#1F1F1F"
    d="M360 92h2v2h-2zm2 0h2v2h-2zm2 0h2v2h-2zm2 0h2v2h-2zm-34 2h2v2h-2zm2 0h2v2h-2zm2 0h2v2h-2zm2 0h2v2h-2zm2 0h2v2h-2zm2 0h2v2h-2zm2 0h2v2h-2zm2 0h2v2h-2zm2 0h2v2h-2z"
  />
  <path
    fill="#362E24"
    d="M350 94h2v2h-2zm2 0h2v2h-2zm2 0h2v2h-2zm2 0h2v2h-2z"
  />
  <path
    fill="#1F1F1F"
    d="M358 94h2v2h-2zm2 0h2v2h-2zm2 0h2v2h-2zm2 0h2v2h-2zm2 0h2v2h-2zm-34 2h2v2h-2zm2 0h2v2h-2z"
  />
  <path fill="#362E24" d="M336 96h2v2h-2zm2 0h2v2h-2z" />
  <path
    fill="#1F1F1F"
    d="M340 96h2v2h-2zm2 0h2v2h-2zm2 0h2v2h-2zm2 0h2v2h-2zm2 0h2v2h-2z"
  />
  <path
    fill="#362E24"
    d="M350 96h2v2h-2zm2 0h2v2h-2zm2 0h2v2h-2zm2 0h2v2h-2z"
  />
  <path
    fill="#1F1F1F"
    d="M358 96h2v2h-2zm2 0h2v2h-2zm2 0h2v2h-2zm2 0h2v2h-2zm2 0h2v2h-2zm-34 2h2v2h-2zm2 0h2v2h-2z"
  />
  <path
    fill="#362E24"
    d="M336 98h2v2h-2zm2 0h2v2h-2zm2 0h2v2h-2zm2 0h2v2h-2zm2 0h2v2h-2z"
  />
  <path fill="#1F1F1F" d="M346 98h2v2h-2zm2 0h2v2h-2z" />
  <path fill="#362E24" d="M350 98h2v2h-2zm2 0h2v2h-2z" />
  <path fill="#1F1F1F" d="M354 98h2v2h-2zm2 0h2v2h-2z" />
  <path fill="#362E24" d="M358 98h2v2h-2z" />
  <path
    fill="#1F1F1F"
    d="M360 98h2v2h-2zm2 0h2v2h-2zm2 0h2v2h-2zm2 0h2v2h-2zm-46 2h2v2h-2zm2 0h2v2h-2zm2 0h2v2h-2zm8 0h2v2h-2z"
  />
  <path
    fill="#362E24"
    d="M334 100h2v2h-2zm2 0h2v2h-2zm2 0h2v2h-2zm2 0h2v2h-2zm2 0h2v2h-2zm2 0h2v2h-2z"
  />
  <path fill="#1F1F1F" d="M346 100h2v2h-2zm2 0h2v2h-2z" />
  <path fill="#362E24" d="M350 100h2v2h-2z" />
  <path fill="#1F1F1F" d="M352 100h2v2h-2zm2 0h2v2h-2z" />
  <path fill="#362E24" d="M356 100h2v2h-2zm2 0h2v2h-2z" />
  <path
    fill="#1F1F1F"
    d="M360 100h2v2h-2zm2 0h2v2h-2zm2 0h2v2h-2zm2 0h2v2h-2zm-46 2h2v2h-2zm2 0h2v2h-2zm2 0h2v2h-2zm2 0h2v2h-2zm2 0h2v2h-2zm2 0h2v2h-2zm2 0h2v2h-2z"
  />
  <path
    fill="#362E24"
    d="M334 102h2v2h-2zm2 0h2v2h-2zm2 0h2v2h-2zm2 0h2v2h-2z"
  />
  <path
    fill="#1F1F1F"
    d="M342 102h2v2h-2zm2 0h2v2h-2zm2 0h2v2h-2zm2 0h2v2h-2zm2 0h2v2h-2zm2 0h2v2h-2z"
  />
  <path fill="#362E24" d="M354 102h2v2h-2zm2 0h2v2h-2zm2 0h2v2h-2z" />
  <path
    fill="#1F1F1F"
    d="M360 102h2v2h-2zm2 0h2v2h-2zm2 0h2v2h-2zm2 0h2v2h-2zm-46 2h2v2h-2zm2 0h2v2h-2zm2 0h2v2h-2zm2 0h2v2h-2zm2 0h2v2h-2zm2 0h2v2h-2z"
  />
  <path
    fill="#362E24"
    d="M332 104h2v2h-2zm2 0h2v2h-2zm2 0h2v2h-2zm2 0h2v2h-2z"
  />
  <path
    fill="#1F1F1F"
    d="M340 104h2v2h-2zm2 0h2v2h-2zm2 0h2v2h-2zm2 0h2v2h-2zm2 0h2v2h-2zm2 0h2v2h-2z"
  />
  <path
    fill="#362E24"
    d="M352 104h2v2h-2zm2 0h2v2h-2zm2 0h2v2h-2zm2 0h2v2h-2z"
  />
  <path
    fill="#1F1F1F"
    d="M360 104h2v2h-2zm2 0h2v2h-2zm2 0h2v2h-2zm2 0h2v2h-2zm-48 2h2v2h-2zm2 0h2v2h-2zm2 0h2v2h-2zm2 0h2v2h-2zm2 0h2v2h-2z"
  />
  <path fill="#362E24" d="M328 106h2v2h-2zm2 0h2v2h-2zm2 0h2v2h-2z" />
  <path fill="#1F1F1F" d="M334 106h2v2h-2zm2 0h2v2h-2zm2 0h2v2h-2z" />
  <path fill="#362E24" d="M340 106h2v2h-2zm2 0h2v2h-2z" />
  <path fill="#1F1F1F" d="M344 106h2v2h-2zm2 0h2v2h-2zm2 0h2v2h-2z" />
  <path
    fill="#362E24"
    d="M350 106h2v2h-2zm2 0h2v2h-2zm2 0h2v2h-2zm2 0h2v2h-2z"
  />
  <path
    fill="#1F1F1F"
    d="M358 106h2v2h-2zm2 0h2v2h-2zm2 0h2v2h-2zm2 0h2v2h-2zm2 0h2v2h-2zm-48 2h2v2h-2zm2 0h2v2h-2zm2 0h2v2h-2zm2 0h2v2h-2zm2 0h2v2h-2z"
  />
  <path fill="#362E24" d="M328 108h2v2h-2zm2 0h2v2h-2zm2 0h2v2h-2z" />
  <path fill="#1F1F1F" d="M334 108h2v2h-2z" />
  <path
    fill="#362E24"
    d="M336 108h2v2h-2zm2 0h2v2h-2zm2 0h2v2h-2zm2 0h2v2h-2zm2 0h2v2h-2z"
  />
  <path fill="#1F1F1F" d="M346 108h2v2h-2zm2 0h2v2h-2zm2 0h2v2h-2z" />
  <path fill="#362E24" d="M352 108h2v2h-2zm2 0h2v2h-2z" />
  <path
    fill="#1F1F1F"
    d="M356 108h2v2h-2zm2 0h2v2h-2zm2 0h2v2h-2zm2 0h2v2h-2zm2 0h2v2h-2zm2 0h2v2h-2zm-68 2h2v2h-2zm2 0h2v2h-2zm2 0h2v2h-2zm2 0h2v2h-2zm2 0h2v2h-2zm2 0h2v2h-2zm8 0h2v2h-2zm2 0h2v2h-2zm2 0h2v2h-2zm2 0h2v2h-2zm2 0h2v2h-2zm2 0h2v2h-2z"
  />
  <path fill="#362E24" d="M328 110h2v2h-2zm2 0h2v2h-2z" />
  <path fill="#1F1F1F" d="M332 110h2v2h-2z" />
  <path
    fill="#362E24"
    d="M334 110h2v2h-2zm2 0h2v2h-2zm2 0h2v2h-2zm2 0h2v2h-2zm2 0h2v2h-2z"
  />
  <path
    fill="#1F1F1F"
    d="M344 110h2v2h-2zm2 0h2v2h-2zm2 0h2v2h-2zm2 0h2v2h-2zm2 0h2v2h-2zm2 0h2v2h-2zm2 0h2v2h-2zm2 0h2v2h-2zm2 0h2v2h-2zm2 0h2v2h-2zm2 0h2v2h-2zm-68 2h2v2h-2zm2 0h2v2h-2zm2 0h2v2h-2zm2 0h2v2h-2zm2 0h2v2h-2zm2 0h2v2h-2zm2 0h2v2h-2zm2 0h2v2h-2zm2 0h2v2h-2zm2 0h2v2h-2zm2 0h2v2h-2zm2 0h2v2h-2zm2 0h2v2h-2zm2 0h2v2h-2zm2 0h2v2h-2zm2 0h2v2h-2zm2 0h2v2h-2zm2 0h2v2h-2z"
  />
  <path
    fill="#362E24"
    d="M332 112h2v2h-2zm2 0h2v2h-2zm2 0h2v2h-2zm2 0h2v2h-2zm2 0h2v2h-2z"
  />
  <path
    fill="#1F1F1F"
    d="M342 112h2v2h-2zm2 0h2v2h-2zm2 0h2v2h-2zm2 0h2v2h-2zm2 0h2v2h-2zm2 0h2v2h-2zm2 0h2v2h-2zm2 0h2v2h-2zm2 0h2v2h-2zm2 0h2v2h-2zm-64 2h2v2h-2zm2 0h2v2h-2z"
  />
  <path
    fill="#362E24"
    d="M300 114h2v2h-2zm2 0h2v2h-2zm2 0h2v2h-2zm2 0h2v2h-2zm2 0h2v2h-2zm2 0h2v2h-2zm2 0h2v2h-2zm2 0h2v2h-2zm2 0h2v2h-2z"
  />
  <path
    fill="#1F1F1F"
    d="M318 114h2v2h-2zm4 0h2v2h-2zm2 0h2v2h-2zm2 0h2v2h-2zm2 0h2v2h-2z"
  />
  <path fill="#362E24" d="M330 114h2v2h-2zm2 0h2v2h-2zm2 0h2v2h-2z" />
  <path
    fill="#1F1F1F"
    d="M336 114h2v2h-2zm2 0h2v2h-2zm2 0h2v2h-2zm2 0h2v2h-2zm2 0h2v2h-2zm2 0h2v2h-2zm2 0h2v2h-2zm2 0h2v2h-2zm2 0h2v2h-2zm2 0h2v2h-2zm2 0h2v2h-2zm2 0h2v2h-2zm-78 2h2v2h-2zm16 0h2v2h-2z"
  />
  <path
    fill="#362E24"
    d="M298 116h2v2h-2zm2 0h2v2h-2zm2 0h2v2h-2zm2 0h2v2h-2zm2 0h2v2h-2zm2 0h2v2h-2zm2 0h2v2h-2z"
  />
  <path
    fill="#1F1F1F"
    d="M312 116h2v2h-2zm2 0h2v2h-2zm2 0h2v2h-2zm2 0h2v2h-2zm4 0h2v2h-2zm2 0h2v2h-2zm2 0h2v2h-2zm2 0h2v2h-2zm2 0h2v2h-2zm2 0h2v2h-2zm2 0h2v2h-2zm2 0h2v2h-2zm2 0h2v2h-2zm2 0h2v2h-2zm2 0h2v2h-2zm2 0h2v2h-2zm2 0h2v2h-2zm2 0h2v2h-2zm2 0h2v2h-2zm2 0h2v2h-2zm2 0h2v2h-2zm2 0h2v2h-2zm-76 2h2v2h-2zm16 0h2v2h-2z"
  />
  <path
    fill="#362E24"
    d="M298 118h2v2h-2zm2 0h2v2h-2zm2 0h2v2h-2zm2 0h2v2h-2z"
  />
  <path
    fill="#1F1F1F"
    d="M306 118h2v2h-2zm2 0h2v2h-2zm2 0h2v2h-2zm2 0h2v2h-2z"
  />
  <path fill="#362E24" d="M314 118h2v2h-2zm2 0h2v2h-2z" />
  <path
    fill="#1F1F1F"
    d="M318 118h2v2h-2zm4 0h2v2h-2zm2 0h2v2h-2zm2 0h2v2h-2zm2 0h2v2h-2zm2 0h2v2h-2zm2 0h2v2h-2zm2 0h2v2h-2zm2 0h2v2h-2zm2 0h2v2h-2zm2 0h2v2h-2zm2 0h2v2h-2zm2 0h2v2h-2zm2 0h2v2h-2zm2 0h2v2h-2zm2 0h2v2h-2zm2 0h2v2h-2zm2 0h2v2h-2zm-76 2h2v2h-2zm2 0h2v2h-2zm2 0h2v2h-2zm2 0h2v2h-2zm8 0h2v2h-2zm2 0h2v2h-2z"
  />
  <path
    fill="#362E24"
    d="M296 120h2v2h-2zm2 0h2v2h-2zm2 0h2v2h-2zm2 0h2v2h-2z"
  />
  <path fill="#1F1F1F" d="M304 120h2v2h-2zm2 0h2v2h-2zm2 0h2v2h-2z" />
  <path fill="#362E24" d="M310 120h2v2h-2zm4 0h2v2h-2zm2 0h2v2h-2z" />
  <path
    fill="#1F1F1F"
    d="M322 120h2v2h-2zm2 0h2v2h-2zm2 0h2v2h-2zm2 0h2v2h-2zm2 0h2v2h-2zm2 0h2v2h-2zm2 0h2v2h-2zm2 0h2v2h-2zm2 0h2v2h-2zm2 0h2v2h-2zm2 0h2v2h-2zm2 0h2v2h-2zm2 0h2v2h-2zm2 0h2v2h-2zm-70 2h2v2h-2zm2 0h2v2h-2zm2 0h2v2h-2zm2 0h2v2h-2zm2 0h2v2h-2zm2 0h2v2h-2zm2 0h2v2h-2zm2 0h2v2h-2z"
  />
  <path fill="#362E24" d="M294 122h2v2h-2zm2 0h2v2h-2zm2 0h2v2h-2z" />
  <path
    fill="#1F1F1F"
    d="M300 122h2v2h-2zm2 0h2v2h-2zm2 0h2v2h-2zm2 0h2v2h-2zm2 0h2v2h-2z"
  />
  <path fill="#362E24" d="M310 122h2v2h-2z" />
  <path
    fill="#1F1F1F"
    d="M320 122h2v2h-2zm2 0h2v2h-2zm2 0h2v2h-2zm2 0h2v2h-2zm2 0h2v2h-2zm2 0h2v2h-2zm-128 12h-2v2h2zm-52 2h2v2h-2zm110-12h2v2h-2zm8 0h2v2h-2zm2 0h2v2h-2zm2 0h2v2h-2zm2 0h2v2h-2zm2 0h2v2h-2zm2 0h2v2h-2zm2 0h2v2h-2z"
  />
  <path
    fill="#362E24"
    d="M282 124h2v2h-2zm2 0h2v2h-2zm2 0h2v2h-2zm2 0h2v2h-2zm2 0h2v2h-2z"
  />
  <path
    fill="#1F1F1F"
    d="M292 124h2v2h-2zm2 0h2v2h-2zm2 0h2v2h-2zm2 0h2v2h-2z"
  />
  <path fill="#362E24" d="M300 124h2v2h-2zm2 0h2v2h-2z" />
  <path fill="#1F1F1F" d="M304 124h2v2h-2zm2 0h2v2h-2zm2 0h2v2h-2z" />
  <path fill="#362E24" d="M310 124h2v2h-2z" />
  <path
    fill="#1F1F1F"
    d="M312 124h2v2h-2zm2 0h2v2h-2zm6 0h2v2h-2zm2 0h2v2h-2zm2 0h2v2h-2zm2 0h2v2h-2zm-122 12h-2v2h2zm-56 2h2v2h-2zm54-2h-2v2h2zm-52 2h2v2h-2zm50-2h-2v2h2zm-48 2h2v2h-2zm46-2h-2v2h2zm-44 2h2v2h-2zm42-2h-2v2h2zm-40 2h2v2h-2zm28-2h-2v2h2zm-16 2h2v2h-2zm42-12h2v2h-2zm2 0h2v2h-2zm2 0h2v2h-2zm2 0h2v2h-2zm2 0h2v2h-2zm42 0h2v2h-2zm2 0h2v2h-2zm2 0h2v2h-2zm2 0h2v2h-2zm2 0h2v2h-2zm2 0h2v2h-2zm2 0h2v2h-2zm2 0h2v2h-2z"
  />
  <path
    fill="#362E24"
    d="M276 126h2v2h-2zm2 0h2v2h-2zm2 0h2v2h-2zm2 0h2v2h-2zm2 0h2v2h-2zm2 0h2v2h-2zm2 0h2v2h-2zm2 0h2v2h-2z"
  />
  <path fill="#1F1F1F" d="M292 126h2v2h-2z" />
  <path
    fill="#362E24"
    d="M294 126h2v2h-2zm2 0h2v2h-2zm2 0h2v2h-2zm2 0h2v2h-2zm2 0h2v2h-2zm2 0h2v2h-2z"
  />
  <path
    fill="#1F1F1F"
    d="M306 126h2v2h-2zm2 0h2v2h-2zm2 0h2v2h-2zm2 0h2v2h-2zm2 0h2v2h-2zm2 0h2v2h-2zm2 0h2v2h-2zm2 0h2v2h-2zm2 0h2v2h-2zm2 0h2v2h-2zm-120 12h-2v2h2zm-56 2h2v2h-2z"
  />
  <path
    fill="#362E24"
    d="M202 138h-2v2h2zm-52 2h2v2h-2zm50-2h-2v2h2zm-48 2h2v2h-2zm46-2h-2v2h2zm-44 2h2v2h-2zm42-2h-2v2h2zm-40 2h2v2h-2z"
  />
  <path
    fill="#1F1F1F"
    d="M194 138h-2v2h2zm-36 2h2v2h-2zm28-2h-2v2h2zm-20 2h2v2h-2zm18-2h-2v2h2zm-16 2h2v2h-2zm40-12h2v2h-2zm-64 2h-2v2h2z"
  />
  <path
    fill="#362E24"
    d="M210 128h2v2h-2zm-68 2h-2v2h2zm70-2h2v2h-2zm-72 2h-2v2h2zm74-2h2v2h-2zm2 0h2v2h-2zm2 0h2v2h-2z"
  />
  <path
    fill="#1F1F1F"
    d="M260 128h2v2h-2zm2 0h2v2h-2zm2 0h2v2h-2zm2 0h2v2h-2zm2 0h2v2h-2zm2 0h2v2h-2zm2 0h2v2h-2zm2 0h2v2h-2z"
  />
  <path
    fill="#362E24"
    d="M276 128h2v2h-2zm2 0h2v2h-2zm2 0h2v2h-2zm2 0h2v2h-2z"
  />
  <path
    fill="#1F1F1F"
    d="M284 128h2v2h-2zm2 0h2v2h-2zm2 0h2v2h-2zm2 0h2v2h-2z"
  />
  <path
    fill="#362E24"
    d="M292 128h2v2h-2zm2 0h2v2h-2zm2 0h2v2h-2zm2 0h2v2h-2zm2 0h2v2h-2zm2 0h2v2h-2zm2 0h2v2h-2z"
  />
  <path
    fill="#1F1F1F"
    d="M306 128h2v2h-2zm2 0h2v2h-2zm2 0h2v2h-2zm2 0h2v2h-2zm2 0h2v2h-2zm2 0h2v2h-2zm2 0h2v2h-2zm2 0h2v2h-2zm2 0h2v2h-2zm-118 12h-2v2h2zm-56 2h2v2h-2z"
  />
  <path
    fill="#362E24"
    d="M202 140h-2v2h2zm-52 2h2v2h-2zm50-2h-2v2h2zm-48 2h2v2h-2zm46-2h-2v2h2zm-44 2h2v2h-2zm42-2h-2v2h2zm-40 2h2v2h-2zm38-2h-2v2h2zm-36 2h2v2h-2z"
  />
  <path
    fill="#1F1F1F"
    d="M192 140h-2v2h2zm-32 2h2v2h-2zm30-2h-2v2h2zm-28 2h2v2h-2zm26-2h-2v2h2zm-24 2h2v2h-2z"
  />
  <path fill="#362E24" d="M186 140h-2v2h2zm-20 2h2v2h-2z" />
  <path
    fill="#1F1F1F"
    d="M184 140h-2v2h2zm-16 2h2v2h-2zm14-2h-2v2h2zm-12 2h2v2h-2zm36-12h2v2h-2zm-60 2h-2v2h2z"
  />
  <path
    fill="#362E24"
    d="M208 130h2v2h-2zm-64 2h-2v2h2zm66-2h2v2h-2zm-68 2h-2v2h2zm70-2h2v2h-2zm-72 2h-2v2h2zm74-2h2v2h-2z"
  />
  <path
    fill="#1F1F1F"
    d="M248 130h2v2h-2zm10 0h2v2h-2zm2 0h2v2h-2zm2 0h2v2h-2zm2 0h2v2h-2zm2 0h2v2h-2zm2 0h2v2h-2zm2 0h2v2h-2zm2 0h2v2h-2zm2 0h2v2h-2z"
  />
  <path
    fill="#362E24"
    d="M276 130h2v2h-2zm2 0h2v2h-2zm2 0h2v2h-2zm2 0h2v2h-2z"
  />
  <path fill="#1F1F1F" d="M284 130h2v2h-2z" />
  <path
    fill="#362E24"
    d="M286 130h2v2h-2zm2 0h2v2h-2zm2 0h2v2h-2zm2 0h2v2h-2zm2 0h2v2h-2zm2 0h2v2h-2zm2 0h2v2h-2zm2 0h2v2h-2zm2 0h2v2h-2zm2 0h2v2h-2z"
  />
  <path
    fill="#1F1F1F"
    d="M306 130h2v2h-2zm2 0h2v2h-2zm2 0h2v2h-2zm2 0h2v2h-2zm2 0h2v2h-2zm2 0h2v2h-2zm2 0h2v2h-2zm2 0h2v2h-2zm-116 12h-2v2h2zm-56 2h2v2h-2z"
  />
  <path
    fill="#362E24"
    d="M202 142h-2v2h2zm-52 2h2v2h-2zm50-2h-2v2h2zm-48 2h2v2h-2zm46-2h-2v2h2zm-44 2h2v2h-2zm42-2h-2v2h2zm-40 2h2v2h-2zm38-2h-2v2h2zm-36 2h2v2h-2zm34-2h-2v2h2zm-32 2h2v2h-2zm30-2h-2v2h2zm-28 2h2v2h-2zm26-2h-2v2h2zm-24 2h2v2h-2zm22-2h-2v2h2zm-20 2h2v2h-2zm18-2h-2v2h2zm-16 2h2v2h-2z"
  />
  <path
    fill="#1F1F1F"
    d="M182 142h-2v2h2zm-12 2h2v2h-2zm10-2h-2v2h2zm-8 2h2v2h-2zm6-2h-2v2h2zm-4 2h2v2h-2zm30-12h2v2h-2zm-56 2h-2v2h2z"
  />
  <path
    fill="#362E24"
    d="M206 132h2v2h-2zm-60 2h-2v2h2zm62-2h2v2h-2zm-64 2h-2v2h2zm66-2h2v2h-2zm-68 2h-2v2h2zm70-2h2v2h-2zm-72 2h-2v2h2z"
  />
  <path
    fill="#1F1F1F"
    d="M248 132h2v2h-2zm2 0h2v2h-2zm2 0h2v2h-2zm2 0h2v2h-2zm2 0h2v2h-2zm2 0h2v2h-2zm2 0h2v2h-2zm2 0h2v2h-2zm2 0h2v2h-2z"
  />
  <path fill="#362E24" d="M266 132h2v2h-2z" />
  <path
    fill="#1F1F1F"
    d="M268 132h2v2h-2zm2 0h2v2h-2zm2 0h2v2h-2zm2 0h2v2h-2z"
  />
  <path fill="#362E24" d="M276 132h2v2h-2zm2 0h2v2h-2zm2 0h2v2h-2z" />
  <path fill="#1F1F1F" d="M282 132h2v2h-2z" />
  <path
    fill="#362E24"
    d="M284 132h2v2h-2zm2 0h2v2h-2zm2 0h2v2h-2zm2 0h2v2h-2zm2 0h2v2h-2zm2 0h2v2h-2zm2 0h2v2h-2zm2 0h2v2h-2zm2 0h2v2h-2z"
  />
  <path
    fill="#1F1F1F"
    d="M302 132h2v2h-2zm2 0h2v2h-2zm2 0h2v2h-2zm2 0h2v2h-2zm2 0h2v2h-2zm2 0h2v2h-2zm2 0h2v2h-2zm2 0h2v2h-2zm2 0h2v2h-2zm-114 12h-2v2h2zm-56 2h2v2h-2z"
  />
  <path
    fill="#362E24"
    d="M202 144h-2v2h2zm-52 2h2v2h-2zm50-2h-2v2h2zm-48 2h2v2h-2zm46-2h-2v2h2zm-44 2h2v2h-2zm42-2h-2v2h2zm-40 2h2v2h-2zm38-2h-2v2h2zm-36 2h2v2h-2zm34-2h-2v2h2zm-32 2h2v2h-2zm30-2h-2v2h2zm-28 2h2v2h-2zm26-2h-2v2h2zm-24 2h2v2h-2zm22-2h-2v2h2zm-20 2h2v2h-2zm18-2h-2v2h2zm-16 2h2v2h-2zm14-2h-2v2h2zm-12 2h2v2h-2zm10-2h-2v2h2zm-8 2h2v2h-2z"
  />
  <path
    fill="#1F1F1F"
    d="M178 144h-2v2h2zm-4 2h2v2h-2zm30-12h2v2h-2zm-56 2h-2v2h2z"
  />
  <path
    fill="#362E24"
    d="M206 134h2v2h-2zm-60 2h-2v2h2zm62-2h2v2h-2zm-64 2h-2v2h2zm66-2h2v2h-2zm-68 2h-2v2h2zm70-2h2v2h-2zm-72 2h-2v2h2z"
  />
  <path
    fill="#1F1F1F"
    d="M246 134h2v2h-2zm2 0h2v2h-2zm2 0h2v2h-2zm2 0h2v2h-2zm2 0h2v2h-2z"
  />
  <path
    fill="#362E24"
    d="M256 134h2v2h-2zm2 0h2v2h-2zm2 0h2v2h-2zm2 0h2v2h-2zm2 0h2v2h-2z"
  />
  <path
    fill="#1F1F1F"
    d="M266 134h2v2h-2zm2 0h2v2h-2zm2 0h2v2h-2zm2 0h2v2h-2zm2 0h2v2h-2zm2 0h2v2h-2zm2 0h2v2h-2zm2 0h2v2h-2z"
  />
  <path
    fill="#362E24"
    d="M282 134h2v2h-2zm2 0h2v2h-2zm2 0h2v2h-2zm2 0h2v2h-2zm2 0h2v2h-2zm2 0h2v2h-2zm2 0h2v2h-2zm2 0h2v2h-2zm2 0h2v2h-2z"
  />
  <path
    fill="#1F1F1F"
    d="M300 134h2v2h-2zm2 0h2v2h-2zm2 0h2v2h-2zm2 0h2v2h-2zm2 0h2v2h-2zm2 0h2v2h-2zm2 0h2v2h-2zm2 0h2v2h-2zm-110 12h-2v2h2zm-56 2h2v2h-2z"
  />
  <path
    fill="#362E24"
    d="M202 146h-2v2h2zm-52 2h2v2h-2zm50-2h-2v2h2zm-48 2h2v2h-2zm46-2h-2v2h2zm-44 2h2v2h-2zm42-2h-2v2h2zm-40 2h2v2h-2zm38-2h-2v2h2zm-36 2h2v2h-2zm34-2h-2v2h2zm-32 2h2v2h-2zm30-2h-2v2h2zm-28 2h2v2h-2zm26-2h-2v2h2zm-24 2h2v2h-2zm22-2h-2v2h2zm-20 2h2v2h-2zm18-2h-2v2h2zm-16 2h2v2h-2zm14-2h-2v2h2zm-12 2h2v2h-2zm10-2h-2v2h2zm-8 2h2v2h-2z"
  />
  <path
    fill="#1F1F1F"
    d="M178 146h-2v2h2zm-4 2h2v2h-2zm30-12h2v2h-2zm-56 2h-2v2h2z"
  />
  <path
    fill="#362E24"
    d="M206 136h2v2h-2zm-60 2h-2v2h2zm62-2h2v2h-2zm-64 2h-2v2h2zm66-2h2v2h-2zm-68 2h-2v2h2zm70-2h2v2h-2zm-72 2h-2v2h2zm74-2h2v2h-2z"
  />
  <path
    fill="#1F1F1F"
    d="M240 136h2v2h-2zm2 0h2v2h-2zm2 0h2v2h-2zm2 0h2v2h-2zm2 0h2v2h-2z"
  />
  <path fill="#362E24" d="M250 136h2v2h-2zm2 0h2v2h-2zm2 0h2v2h-2z" />
  <path fill="#1F1F1F" d="M256 136h2v2h-2z" />
  <path fill="#362E24" d="M258 136h2v2h-2zm2 0h2v2h-2zm2 0h2v2h-2z" />
  <path
    fill="#1F1F1F"
    d="M264 136h2v2h-2zm2 0h2v2h-2zm4 0h2v2h-2zm2 0h2v2h-2zm2 0h2v2h-2zm2 0h2v2h-2z"
  />
  <path
    fill="#362E24"
    d="M278 136h2v2h-2zm2 0h2v2h-2zm2 0h2v2h-2zm2 0h2v2h-2zm2 0h2v2h-2zm2 0h2v2h-2zm2 0h2v2h-2zm2 0h2v2h-2zm2 0h2v2h-2z"
  />
  <path
    fill="#1F1F1F"
    d="M296 136h2v2h-2zm2 0h2v2h-2zm2 0h2v2h-2zm2 0h2v2h-2zm2 0h2v2h-2zm2 0h2v2h-2zm2 0h2v2h-2zm2 0h2v2h-2zm2 0h2v2h-2zm-108 12h-2v2h2zm-56 2h2v2h-2z"
  />
  <path
    fill="#362E24"
    d="M202 148h-2v2h2zm-52 2h2v2h-2zm50-2h-2v2h2zm-48 2h2v2h-2zm46-2h-2v2h2zm-44 2h2v2h-2zm42-2h-2v2h2zm-40 2h2v2h-2zm38-2h-2v2h2zm-36 2h2v2h-2zm34-2h-2v2h2zm-32 2h2v2h-2zm30-2h-2v2h2zm-28 2h2v2h-2zm26-2h-2v2h2zm-24 2h2v2h-2zm22-2h-2v2h2zm-20 2h2v2h-2zm18-2h-2v2h2zm-16 2h2v2h-2zm14-2h-2v2h2zm-12 2h2v2h-2zm10-2h-2v2h2zm-8 2h2v2h-2z"
  />
  <path
    fill="#1F1F1F"
    d="M178 148h-2v2h2zm-4 2h2v2h-2zm30-12h2v2h-2zm-56 2h-2v2h2z"
  />
  <path
    fill="#362E24"
    d="M206 138h2v2h-2zm-60 2h-2v2h2zm62-2h2v2h-2zm-64 2h-2v2h2zm66-2h2v2h-2zm-68 2h-2v2h2zm70-2h2v2h-2zm-72 2h-2v2h2zm74-2h2v2h-2z"
  />
  <path fill="#1F1F1F" d="M240 138h2v2h-2zm2 0h2v2h-2z" />
  <path fill="#362E24" d="M244 138h2v2h-2z" />
  <path fill="#1F1F1F" d="M246 138h2v2h-2z" />
  <path
    fill="#362E24"
    d="M248 138h2v2h-2zm2 0h2v2h-2zm2 0h2v2h-2zm2 0h2v2h-2zm2 0h2v2h-2z"
  />
  <path fill="#1F1F1F" d="M258 138h2v2h-2zm2 0h2v2h-2zm2 0h2v2h-2z" />
  <path fill="#362E24" d="M264 138h2v2h-2z" />
  <path
    fill="#1F1F1F"
    d="M270 138h2v2h-2zm2 0h2v2h-2zm2 0h2v2h-2zm2 0h2v2h-2z"
  />
  <path
    fill="#362E24"
    d="M278 138h2v2h-2zm2 0h2v2h-2zm2 0h2v2h-2zm2 0h2v2h-2zm2 0h2v2h-2zm2 0h2v2h-2zm2 0h2v2h-2zm2 0h2v2h-2zm2 0h2v2h-2z"
  />
  <path
    fill="#1F1F1F"
    d="M296 138h2v2h-2zm2 0h2v2h-2zm2 0h2v2h-2zm2 0h2v2h-2zm2 0h2v2h-2zm2 0h2v2h-2zm2 0h2v2h-2zm2 0h2v2h-2zm-106 12h-2v2h2zm-56 2h2v2h-2z"
  />
  <path
    fill="#362E24"
    d="M202 150h-2v2h2zm-52 2h2v2h-2zm50-2h-2v2h2zm-48 2h2v2h-2zm46-2h-2v2h2zm-44 2h2v2h-2zm42-2h-2v2h2zm-40 2h2v2h-2zm38-2h-2v2h2zm-36 2h2v2h-2zm34-2h-2v2h2zm-32 2h2v2h-2zm30-2h-2v2h2zm-28 2h2v2h-2zm26-2h-2v2h2zm-24 2h2v2h-2zm22-2h-2v2h2zm-20 2h2v2h-2zm18-2h-2v2h2zm-16 2h2v2h-2zm14-2h-2v2h2zm-12 2h2v2h-2zm10-2h-2v2h2z"
  />
  <path
    fill="#1F1F1F"
    d="M172 152h2v2h-2zm6-2h-2v2h2zm-4 2h2v2h-2zm30-12h2v2h-2zm-56 2h-2v2h2z"
  />
  <path
    fill="#362E24"
    d="M208 140h2v2h-2zm-64 2h-2v2h2zm66-2h2v2h-2zm-68 2h-2v2h2zm70-2h2v2h-2zm-72 2h-2v2h2zm74-2h2v2h-2zm2 0h2v2h-2z"
  />
  <path fill="#1F1F1F" d="M238 140h2v2h-2zm2 0h2v2h-2z" />
  <path fill="#362E24" d="M242 140h2v2h-2z" />
  <path fill="#1F1F1F" d="M244 140h2v2h-2z" />
  <path
    fill="#362E24"
    d="M246 140h2v2h-2zm2 0h2v2h-2zm2 0h2v2h-2zm2 0h2v2h-2zm2 0h2v2h-2zm6 0h2v2h-2z"
  />
  <path
    fill="#1F1F1F"
    d="M268 140h2v2h-2zm2 0h2v2h-2zm2 0h2v2h-2zm2 0h2v2h-2zm2 0h2v2h-2zm2 0h2v2h-2zm2 0h2v2h-2zm2 0h2v2h-2zm2 0h2v2h-2zm2 0h2v2h-2zm2 0h2v2h-2zm2 0h2v2h-2zm2 0h2v2h-2zm2 0h2v2h-2zm2 0h2v2h-2zm2 0h2v2h-2zm2 0h2v2h-2zm2 0h2v2h-2zm2 0h2v2h-2zm2 0h2v2h-2zm2 0h2v2h-2zm-104 12h-2v2h2zm-56 2h2v2h-2z"
  />
  <path
    fill="#362E24"
    d="M202 152h-2v2h2zm-52 2h2v2h-2zm50-2h-2v2h2zm-48 2h2v2h-2zm46-2h-2v2h2zm-44 2h2v2h-2zm42-2h-2v2h2zm-40 2h2v2h-2zm38-2h-2v2h2zm-36 2h2v2h-2zm34-2h-2v2h2zm-32 2h2v2h-2zm30-2h-2v2h2zm-28 2h2v2h-2zm26-2h-2v2h2zm-24 2h2v2h-2zm22-2h-2v2h2zm-20 2h2v2h-2zm18-2h-2v2h2z"
  />
  <path fill="#1F1F1F" d="M168 154h2v2h-2zm14-2h-2v2h2zm-12 2h2v2h-2z" />
  <path
    fill="#362E24"
    d="M206 142h2v2h-2zm-60 2h-2v2h2zm62-2h2v2h-2zm-64 2h-2v2h2zm66-2h2v2h-2zm-68 2h-2v2h2zm70-2h2v2h-2zm-72 2h-2v2h2zm74-2h2v2h-2zm2 0h2v2h-2z"
  />
  <path fill="#1F1F1F" d="M230 142h2v2h-2zm2 0h2v2h-2zm2 0h2v2h-2z" />
  <path fill="#362E24" d="M236 142h2v2h-2zm2 0h2v2h-2zm2 0h2v2h-2z" />
  <path fill="#1F1F1F" d="M242 142h2v2h-2z" />
  <path
    fill="#362E24"
    d="M244 142h2v2h-2zm2 0h2v2h-2zm2 0h2v2h-2zm2 0h2v2h-2zm2 0h2v2h-2zm2 0h2v2h-2zm2 0h2v2h-2zm8 0h2v2h-2zm2 0h2v2h-2z"
  />
  <path
    fill="#1F1F1F"
    d="M268 142h2v2h-2zm2 0h2v2h-2zm2 0h2v2h-2zm2 0h2v2h-2zm2 0h2v2h-2zm2 0h2v2h-2zm2 0h2v2h-2zm2 0h2v2h-2zm2 0h2v2h-2zm2 0h2v2h-2zm2 0h2v2h-2zm2 0h2v2h-2zm2 0h2v2h-2zm2 0h2v2h-2zm2 0h2v2h-2zm2 0h2v2h-2zm2 0h2v2h-2zm2 0h2v2h-2zm2 0h2v2h-2zm-100 12h-2v2h2zm-56 2h2v2h-2z"
  />
  <path fill="#362E24" d="M202 154h-2v2h2z" />
  <path fill="#1F1F1F" d="M150 156h2v2h-2z" />
  <path
    fill="#362E24"
    d="M200 154h-2v2h2zm-48 2h2v2h-2zm46-2h-2v2h2zm-44 2h2v2h-2z"
  />
  <path
    fill="#1F1F1F"
    d="M196 154h-2v2h2zm-40 2h2v2h-2zm38-2h-2v2h2zm-36 2h2v2h-2zm34-2h-2v2h2zm-32 2h2v2h-2zm30-2h-2v2h2zm-28 2h2v2h-2zm26-2h-2v2h2zm-24 2h2v2h-2zm22-2h-2v2h2zm-20 2h2v2h-2zm18-2h-2v2h2z"
  />
  <path
    fill="#362E24"
    d="M168 156h2v2h-2zm14-2h-2v2h2zm-12 2h2v2h-2zm10-2h-2v2h2zm-8 2h2v2h-2zm34-12h2v2h-2zm-60 2h-2v2h2zm62-2h2v2h-2zm-64 2h-2v2h2zm66-2h2v2h-2zm-68 2h-2v2h2zm70-2h2v2h-2zm-72 2h-2v2h2zm74-2h2v2h-2zm2 0h2v2h-2zm2 0h2v2h-2z"
  />
  <path fill="#1F1F1F" d="M226 144h2v2h-2zm2 0h2v2h-2zm2 0h2v2h-2z" />
  <path fill="#362E24" d="M232 144h2v2h-2zm2 0h2v2h-2zm2 0h2v2h-2z" />
  <path fill="#1F1F1F" d="M238 144h2v2h-2zm2 0h2v2h-2z" />
  <path
    fill="#362E24"
    d="M242 144h2v2h-2zm2 0h2v2h-2zm2 0h2v2h-2zm2 0h2v2h-2zm2 0h2v2h-2zm2 0h2v2h-2zm2 0h2v2h-2zm2 0h2v2h-2zm2 0h2v2h-2zm4 0h2v2h-2zm2 0h2v2h-2zm2 0h2v2h-2z"
  />
  <path
    fill="#1F1F1F"
    d="M268 144h2v2h-2zm2 0h2v2h-2zm2 0h2v2h-2zm2 0h2v2h-2zm2 0h2v2h-2zm4 0h2v2h-2zm2 0h2v2h-2zm2 0h2v2h-2zm2 0h2v2h-2zm2 0h2v2h-2zm2 0h2v2h-2zm2 0h2v2h-2zm2 0h2v2h-2zm2 0h2v2h-2zm-92 12h-2v2h2zm-56 2h2v2h-2zm54-2h-2v2h2zm-52 2h2v2h-2zm50-2h-2v2h2zm-48 2h2v2h-2zm46-2h-2v2h2zm-44 2h2v2h-2z"
  />
  <path fill="#362E24" d="M196 156h-2v2h2z" />
  <path fill="#1F1F1F" d="M156 158h2v2h-2z" />
  <path
    fill="#362E24"
    d="M194 156h-2v2h2zm-36 2h2v2h-2zm34-2h-2v2h2zm-32 2h2v2h-2zm30-2h-2v2h2zm-28 2h2v2h-2zm26-2h-2v2h2zm-24 2h2v2h-2zm22-2h-2v2h2zm-20 2h2v2h-2zm18-2h-2v2h2zm-16 2h2v2h-2zm14-2h-2v2h2zm-12 2h2v2h-2zm10-2h-2v2h2zm-8 2h2v2h-2zm34-12h2v2h-2zm-60 2h-2v2h2zm62-2h2v2h-2zm-64 2h-2v2h2zm66-2h2v2h-2zm-68 2h-2v2h2zm70-2h2v2h-2zm-72 2h-2v2h2zm74-2h2v2h-2zm2 0h2v2h-2zm2 0h2v2h-2zm2 0h2v2h-2zm2 0h2v2h-2zm2 0h2v2h-2zm2 0h2v2h-2zm2 0h2v2h-2zm2 0h2v2h-2zm2 0h2v2h-2zm2 0h2v2h-2zm2 0h2v2h-2z"
  />
  <path fill="#1F1F1F" d="M238 146h2v2h-2z" />
  <path
    fill="#362E24"
    d="M240 146h2v2h-2zm2 0h2v2h-2zm2 0h2v2h-2zm2 0h2v2h-2zm2 0h2v2h-2zm2 0h2v2h-2zm2 0h2v2h-2zm2 0h2v2h-2zm2 0h2v2h-2zm2 0h2v2h-2zm4 0h2v2h-2zm2 0h2v2h-2z"
  />
  <path
    fill="#1F1F1F"
    d="M266 146h2v2h-2zm2 0h2v2h-2zm2 0h2v2h-2zm2 0h2v2h-2zm2 0h2v2h-2zm2 0h2v2h-2zm-72 12h-2v2h2zm-56 2h2v2h-2zm54-2h-2v2h2zm-52 2h2v2h-2zm50-2h-2v2h2zm-48 2h2v2h-2z"
  />
  <path
    fill="#362E24"
    d="M198 158h-2v2h2zm-44 2h2v2h-2zm42-2h-2v2h2zm-40 2h2v2h-2zm38-2h-2v2h2zm-36 2h2v2h-2zm34-2h-2v2h2zm-32 2h2v2h-2zm30-2h-2v2h2zm-28 2h2v2h-2zm26-2h-2v2h2zm-24 2h2v2h-2zm22-2h-2v2h2zm-20 2h2v2h-2zm18-2h-2v2h2zm-16 2h2v2h-2zm14-2h-2v2h2zm-12 2h2v2h-2zm10-2h-2v2h2zm-8 2h2v2h-2z"
  />
  <path
    fill="#1F1F1F"
    d="M178 158h-2v2h2zm-4 2h2v2h-2zm30-12h2v2h-2zm-56 2h-2v2h2z"
  />
  <path
    fill="#362E24"
    d="M206 148h2v2h-2zm-60 2h-2v2h2zm62-2h2v2h-2zm-64 2h-2v2h2zm66-2h2v2h-2zm-68 2h-2v2h2zm70-2h2v2h-2zm-72 2h-2v2h2zm74-2h2v2h-2zm2 0h2v2h-2zm2 0h2v2h-2zm2 0h2v2h-2zm2 0h2v2h-2zm2 0h2v2h-2zm2 0h2v2h-2zm2 0h2v2h-2zm2 0h2v2h-2zm2 0h2v2h-2z"
  />
  <path fill="#1F1F1F" d="M234 148h2v2h-2zm2 0h2v2h-2z" />
  <path
    fill="#362E24"
    d="M238 148h2v2h-2zm2 0h2v2h-2zm2 0h2v2h-2zm2 0h2v2h-2zm2 0h2v2h-2zm2 0h2v2h-2zm2 0h2v2h-2zm2 0h2v2h-2zm2 0h2v2h-2zm2 0h2v2h-2zm6 0h2v2h-2zm2 0h2v2h-2z"
  />
  <path
    fill="#1F1F1F"
    d="M266 148h2v2h-2zm2 0h2v2h-2zm2 0h2v2h-2zm2 0h2v2h-2zm2 0h2v2h-2zm2 0h2v2h-2zm-72 12h-2v2h2zm-56 2h2v2h-2zm54-2h-2v2h2zm-52 2h2v2h-2zm50-2h-2v2h2zm-48 2h2v2h-2z"
  />
  <path
    fill="#362E24"
    d="M198 160h-2v2h2zm-44 2h2v2h-2zm42-2h-2v2h2zm-40 2h2v2h-2zm38-2h-2v2h2zm-36 2h2v2h-2zm34-2h-2v2h2zm-32 2h2v2h-2zm30-2h-2v2h2zm-28 2h2v2h-2zm26-2h-2v2h2zm-24 2h2v2h-2zm22-2h-2v2h2zm-20 2h2v2h-2zm18-2h-2v2h2zm-16 2h2v2h-2zm14-2h-2v2h2zm-12 2h2v2h-2zm10-2h-2v2h2zm-8 2h2v2h-2z"
  />
  <path
    fill="#1F1F1F"
    d="M178 160h-2v2h2zm-4 2h2v2h-2zm30-12h2v2h-2zm-56 2h-2v2h2z"
  />
  <path
    fill="#362E24"
    d="M206 150h2v2h-2zm-60 2h-2v2h2zm62-2h2v2h-2zm-64 2h-2v2h2zm66-2h2v2h-2zm-68 2h-2v2h2zm70-2h2v2h-2z"
  />
  <path fill="#1F1F1F" d="M140 152h-2v2h2z" />
  <path
    fill="#362E24"
    d="M214 150h2v2h-2zm2 0h2v2h-2zm2 0h2v2h-2zm2 0h2v2h-2zm2 0h2v2h-2zm2 0h2v2h-2zm2 0h2v2h-2zm2 0h2v2h-2zm2 0h2v2h-2zm2 0h2v2h-2z"
  />
  <path fill="#1F1F1F" d="M234 150h2v2h-2zm2 0h2v2h-2z" />
  <path
    fill="#362E24"
    d="M238 150h2v2h-2zm2 0h2v2h-2zm2 0h2v2h-2zm2 0h2v2h-2zm2 0h2v2h-2zm2 0h2v2h-2zm2 0h2v2h-2zm2 0h2v2h-2zm2 0h2v2h-2zm2 0h2v2h-2zm4 0h2v2h-2zm2 0h2v2h-2zm2 0h2v2h-2z"
  />
  <path
    fill="#1F1F1F"
    d="M266 150h2v2h-2zm2 0h2v2h-2zm2 0h2v2h-2zm2 0h2v2h-2zm2 0h2v2h-2zm2 0h2v2h-2zm-72 12h-2v2h2zm-56 2h2v2h-2zm54-2h-2v2h2zm-52 2h2v2h-2zm50-2h-2v2h2zm-48 2h2v2h-2zm46-2h-2v2h2zm-44 2h2v2h-2zm42-2h-2v2h2zm-40 2h2v2h-2z"
  />
  <path
    fill="#362E24"
    d="M194 162h-2v2h2zm-36 2h2v2h-2zm34-2h-2v2h2zm-32 2h2v2h-2zm30-2h-2v2h2zm-28 2h2v2h-2zm26-2h-2v2h2zm-24 2h2v2h-2zm22-2h-2v2h2zm-20 2h2v2h-2zm18-2h-2v2h2zm-16 2h2v2h-2z"
  />
  <path
    fill="#1F1F1F"
    d="M182 162h-2v2h2zm-12 2h2v2h-2zm10-2h-2v2h2zm-8 2h2v2h-2zm6-2h-2v2h2zm-4 2h2v2h-2zm30-12h2v2h-2zm-56 2h-2v2h2z"
  />
  <path
    fill="#362E24"
    d="M206 152h2v2h-2zm-60 2h-2v2h2zm62-2h2v2h-2zm-64 2h-2v2h2zm66-2h2v2h-2z"
  />
  <path fill="#1F1F1F" d="M142 154h-2v2h2z" />
  <path fill="#362E24" d="M212 152h2v2h-2z" />
  <path fill="#1F1F1F" d="M140 154h-2v2h2z" />
  <path
    fill="#362E24"
    d="M214 152h2v2h-2zm2 0h2v2h-2zm2 0h2v2h-2zm2 0h2v2h-2zm2 0h2v2h-2zm2 0h2v2h-2zm2 0h2v2h-2zm2 0h2v2h-2zm2 0h2v2h-2zm2 0h2v2h-2z"
  />
  <path fill="#1F1F1F" d="M234 152h2v2h-2zm2 0h2v2h-2zm2 0h2v2h-2z" />
  <path
    fill="#362E24"
    d="M240 152h2v2h-2zm2 0h2v2h-2zm2 0h2v2h-2zm2 0h2v2h-2zm2 0h2v2h-2zm2 0h2v2h-2zm2 0h2v2h-2zm2 0h2v2h-2zm2 0h2v2h-2zm2 0h2v2h-2zm2 0h2v2h-2z"
  />
  <path
    fill="#1F1F1F"
    d="M262 152h2v2h-2zm2 0h2v2h-2zm2 0h2v2h-2zm2 0h2v2h-2zm2 0h2v2h-2zm2 0h2v2h-2zm2 0h2v2h-2zm-70 12h-2v2h2zm-56 2h2v2h-2zm50-2h-2v2h2zm-44 2h2v2h-2zm42-2h-2v2h2zm-40 2h2v2h-2zm38-2h-2v2h2zm-36 2h2v2h-2zm34-2h-2v2h2zm-32 2h2v2h-2zm30-2h-2v2h2zm-28 2h2v2h-2zm26-2h-2v2h2zm-24 2h2v2h-2zm22-2h-2v2h2zm-20 2h2v2h-2zm18-2h-2v2h2zm-16 2h2v2h-2zm14-2h-2v2h2zm-12 2h2v2h-2zm10-2h-2v2h2zm-8 2h2v2h-2zm6-2h-2v2h2zm-4 2h2v2h-2zm30-12h2v2h-2zm-56 2h-2v2h2zm58-2h2v2h-2zm-60 2h-2v2h2z"
  />
  <path fill="#362E24" d="M208 154h2v2h-2z" />
  <path fill="#1F1F1F" d="M144 156h-2v2h2z" />
  <path
    fill="#362E24"
    d="M210 154h2v2h-2zm-68 2h-2v2h2zm70-2h2v2h-2zm-72 2h-2v2h2zm74-2h2v2h-2zm2 0h2v2h-2zm2 0h2v2h-2zm2 0h2v2h-2z"
  />
  <path
    fill="#1F1F1F"
    d="M222 154h2v2h-2zm2 0h2v2h-2zm2 0h2v2h-2zm2 0h2v2h-2zm2 0h2v2h-2zm2 0h2v2h-2zm2 0h2v2h-2zm2 0h2v2h-2zm2 0h2v2h-2zm2 0h2v2h-2z"
  />
  <path
    fill="#362E24"
    d="M242 154h2v2h-2zm2 0h2v2h-2zm2 0h2v2h-2zm2 0h2v2h-2zm2 0h2v2h-2zm2 0h2v2h-2zm2 0h2v2h-2zm2 0h2v2h-2z"
  />
  <path
    fill="#1F1F1F"
    d="M258 154h2v2h-2zm2 0h2v2h-2zm2 0h2v2h-2zm2 0h2v2h-2zm2 0h2v2h-2zm2 0h2v2h-2zm2 0h2v2h-2zm-76 12h-2v2h2zm-36 2h2v2h-2zm34-2h-2v2h2zm-32 2h2v2h-2zm30-2h-2v2h2zm-28 2h2v2h-2zm26-2h-2v2h2zm-24 2h2v2h-2zm22-2h-2v2h2zm-20 2h2v2h-2zm18-2h-2v2h2zm-16 2h2v2h-2zm14-2h-2v2h2zm-12 2h2v2h-2zm10-2h-2v2h2zm-8 2h2v2h-2zm6-2h-2v2h2zm-4 2h2v2h-2zm30-12h2v2h-2zm-56 2h-2v2h2zm58-2h2v2h-2zm-60 2h-2v2h2zm62-2h2v2h-2zm-64 2h-2v2h2zm66-2h2v2h-2zm-68 2h-2v2h2zm70-2h2v2h-2z"
  />
  <path fill="#362E24" d="M140 158h-2v2h2z" />
  <path
    fill="#1F1F1F"
    d="M214 156h2v2h-2zm2 0h2v2h-2zm2 0h2v2h-2zm2 0h2v2h-2zm2 0h2v2h-2z"
  />
  <path fill="#362E24" d="M224 156h2v2h-2zm2 0h2v2h-2z" />
  <path
    fill="#1F1F1F"
    d="M228 156h2v2h-2zm2 0h2v2h-2zm2 0h2v2h-2zm2 0h2v2h-2zm2 0h2v2h-2zm2 0h2v2h-2zm2 0h2v2h-2zm2 0h2v2h-2zm2 0h2v2h-2z"
  />
  <path
    fill="#362E24"
    d="M246 156h2v2h-2zm2 0h2v2h-2zm2 0h2v2h-2zm2 0h2v2h-2zm2 0h2v2h-2z"
  />
  <path
    fill="#1F1F1F"
    d="M256 156h2v2h-2zm2 0h2v2h-2zm2 0h2v2h-2zm2 0h2v2h-2zm2 0h2v2h-2zm2 0h2v2h-2zm2 0h2v2h-2zm-74 12h-2v2h2zm-36 2h2v2h-2zm34-2h-2v2h2zm-32 2h2v2h-2zm30-2h-2v2h2zm-28 2h2v2h-2zm26-2h-2v2h2zm-24 2h2v2h-2zm22-2h-2v2h2zm-20 2h2v2h-2zm18-2h-2v2h2zm-16 2h2v2h-2zm14-2h-2v2h2zm-12 2h2v2h-2zm10-2h-2v2h2zm-8 2h2v2h-2zm6-2h-2v2h2zm-4 2h2v2h-2zm30-12h2v2h-2zm-56 2h-2v2h2zm58-2h2v2h-2zm-60 2h-2v2h2zm62-2h2v2h-2zm-64 2h-2v2h2zm66-2h2v2h-2zm-68 2h-2v2h2z"
  />
  <path
    fill="#362E24"
    d="M212 158h2v2h-2zm-72 2h-2v2h2zm74-2h2v2h-2zm2 0h2v2h-2zm2 0h2v2h-2zm2 0h2v2h-2zm2 0h2v2h-2zm2 0h2v2h-2zm2 0h2v2h-2z"
  />
  <path
    fill="#1F1F1F"
    d="M228 158h2v2h-2zm2 0h2v2h-2zm2 0h2v2h-2zm2 0h2v2h-2zm2 0h2v2h-2zm2 0h2v2h-2zm2 0h2v2h-2zm2 0h2v2h-2zm2 0h2v2h-2z"
  />
  <path fill="#362E24" d="M246 158h2v2h-2zm2 0h2v2h-2zm2 0h2v2h-2z" />
  <path
    fill="#1F1F1F"
    d="M252 158h2v2h-2zm2 0h2v2h-2zm2 0h2v2h-2zm2 0h2v2h-2zm2 0h2v2h-2zm2 0h2v2h-2zm2 0h2v2h-2zm2 0h2v2h-2zm2 0h2v2h-2zm-78 12h-2v2h2zm-28 2h2v2h-2zm26-2h-2v2h2zm-24 2h2v2h-2zm22-2h-2v2h2zm-20 2h2v2h-2zm18-2h-2v2h2zm-16 2h2v2h-2zm14-2h-2v2h2zm-12 2h2v2h-2zm10-2h-2v2h2zm-8 2h2v2h-2zm6-2h-2v2h2zm-4 2h2v2h-2zm30-12h2v2h-2zm-56 2h-2v2h2zm58-2h2v2h-2zm-60 2h-2v2h2zm62-2h2v2h-2zm-64 2h-2v2h2zm66-2h2v2h-2zm-68 2h-2v2h2zm70-2h2v2h-2zm-72 2h-2v2h2zm74-2h2v2h-2z"
  />
  <path
    fill="#362E24"
    d="M216 160h2v2h-2zm2 0h2v2h-2zm2 0h2v2h-2zm2 0h2v2h-2z"
  />
  <path
    fill="#1F1F1F"
    d="M224 160h2v2h-2zm2 0h2v2h-2zm2 0h2v2h-2zm2 0h2v2h-2zm2 0h2v2h-2zm2 0h2v2h-2zm2 0h2v2h-2zm2 0h2v2h-2zm2 0h2v2h-2zm2 0h2v2h-2zm2 0h2v2h-2zm2 0h2v2h-2zm2 0h2v2h-2zm2 0h2v2h-2zm2 0h2v2h-2zm2 0h2v2h-2zm2 0h2v2h-2zm2 0h2v2h-2zm2 0h2v2h-2zm2 0h2v2h-2zm2 0h2v2h-2zm2 0h2v2h-2zm-82 12h-2v2h2zm-16 2h2v2h-2zm14-2h-2v2h2zm-12 2h2v2h-2zm10-2h-2v2h2zm-8 2h2v2h-2zm6-2h-2v2h2zm-4 2h2v2h-2zm30-12h2v2h-2zm-56 2h-2v2h2zm58-2h2v2h-2zm-60 2h-2v2h2zm62-2h2v2h-2zm-64 2h-2v2h2zm66-2h2v2h-2zm-68 2h-2v2h2zm70-2h2v2h-2zm-72 2h-2v2h2zm74-2h2v2h-2zm2 0h2v2h-2zm2 0h2v2h-2zm2 0h2v2h-2zm2 0h2v2h-2zm2 0h2v2h-2zm2 0h2v2h-2zm2 0h2v2h-2zm2 0h2v2h-2zm2 0h2v2h-2zm2 0h2v2h-2zm2 0h2v2h-2zm2 0h2v2h-2zm2 0h2v2h-2zm2 0h2v2h-2zm2 0h2v2h-2zm2 0h2v2h-2zm2 0h2v2h-2zm2 0h2v2h-2zm2 0h2v2h-2zm2 0h2v2h-2zm2 0h2v2h-2zm2 0h2v2h-2zm2 0h2v2h-2zm2 0h2v2h-2zm2 0h2v2h-2zm-86 12h-2v2h2zm26-10h2v2h-2zm-56 2h-2v2h2zm58-2h2v2h-2zm-60 2h-2v2h2zm62-2h2v2h-2zm-64 2h-2v2h2zm66-2h2v2h-2zm-68 2h-2v2h2zm70-2h2v2h-2zm-72 2h-2v2h2zm74-2h2v2h-2zm2 0h2v2h-2zm2 0h2v2h-2zm2 0h2v2h-2zm2 0h2v2h-2zm2 0h2v2h-2zm2 0h2v2h-2zm2 0h2v2h-2zm2 0h2v2h-2zm12 0h2v2h-2zm2 0h2v2h-2zm2 0h2v2h-2zm2 0h2v2h-2zm2 0h2v2h-2zm2 0h2v2h-2zm2 0h2v2h-2zm2 0h2v2h-2zm2 0h2v2h-2zm-50 2h2v2h-2zm-64 2h-2v2h2zm66-2h2v2h-2zm-68 2h-2v2h2zm70-2h2v2h-2zm-72 2h-2v2h2zm74-2h2v2h-2zm2 0h2v2h-2zm2 0h2v2h-2zm2 0h2v2h-2zm2 0h2v2h-2zm2 0h2v2h-2zm2 0h2v2h-2zm2 0h2v2h-2zm2 0h2v2h-2zm-14 2h2v2h-2zm2 0h2v2h-2zm2 0h2v2h-2zm2 0h2v2h-2zm2 0h2v2h-2zm2 0h2v2h-2zm2 0h2v2h-2z"
  />
  <path
    fill="#24523B"
    d="M206 140h2v2h-2zm-60 2h-2v2h2zm58 0h2v2h-2zm-56 2h-2v2h2zm30 10h-2v4h2zm-4 2h2v4h-2zm30-12h2v4h-2zm-56 2h-2v4h2z"
  />
  <path fill="#1F1F1F" d="M180 152h-4v2h4zm-8 2h4v2h-4z" />
  <path
    fill="#24523B"
    d="M256 140h4v2h-4zm2 8h4v2h-4zm8-10h4v2h-4zm-4 2h6v2h-6zm-4 2h6v2h-6zm10-6h2v2h-2zm-8 8h2v2h-2zm0 2h2v2h-2zm-2 4h2v2h-2zm54-30h2v2h-2zm8-2h2v2h-2z"
  />
  <path fill="#1F1F1F" d="M320 116h2v2h-2z" />
  <path
    fill="#24523B"
    d="M320 114h2v2h-2zm-4 10h4v2h-4zm2-4h4v2h-4zm-6 2h8v2h-8z"
  />
  <path
    fill="#1F1F1F"
    d="M80 114h-2v2h2zm-2 0h-2v2h2zm-2 0h-2v2h2zm-10 0h-2v2h2zm-4 0h-2v2h2zm20 2h-2v2h2zm-2 0h-2v2h2zm-2 0h-2v2h2zm-2 0h-2v2h2zm-8 0h-2v2h2zm-2 0h-2v2h2zm-2 0h-2v2h2zm-2 0h-2v2h2zm24 2h-2v2h2zm-2 0h-2v2h2zm-2 0h-2v2h2zm-2 0h-2v2h2zm-2 0h-2v2h2zm-2 0h-2v2h2zm-2 0h-2v2h2zm-2 0h-2v2h2zm-2 0h-2v2h2zm-2 0h-2v2h2zm-2 0h-2v2h2zm-2 0h-2v2h2zm-2 0h-2v2h2zm32 2h-2v2h2zm-2 0h-2v2h2zm-2 0h-2v2h2zm-2 0h-2v2h2zm-2 0h-2v2h2zm-2 0h-2v2h2zm-2 0h-2v2h2zm-2 0h-2v2h2zm-2 0h-2v2h2zm-2 0h-2v2h2zm-2 0h-2v2h2zm-2 0h-2v2h2zm-2 0h-2v2h2zm-2 0h-2v2h2z"
  />
  <path fill="#362E24" d="M66 120h-2v2h2z" />
  <path
    fill="#1F1F1F"
    d="M64 120h-2v2h2zm-2 0h-2v2h2zm32 2h-2v2h2zm-2 0h-2v2h2zm-2 0h-2v2h2zm-2 0h-2v2h2zm-2 0h-2v2h2z"
  />
  <path fill="#362E24" d="M84 122h-2v2h2zm-2 0h-2v2h2z" />
  <path
    fill="#1F1F1F"
    d="M80 122h-2v2h2zm-2 0h-2v2h2zm-2 0h-2v2h2zm-2 0h-2v2h2zm-2 0h-2v2h2zm-2 0h-2v2h2z"
  />
  <path fill="#362E24" d="M68 122h-2v2h2zm-2 0h-2v2h2zm-2 0h-2v2h2z" />
  <path
    fill="#1F1F1F"
    d="M62 122h-2v2h2zm34 2h-2v2h2zm-2 0h-2v2h2zm-2 0h-2v2h2zm-2 0h-2v2h2zm-2 0h-2v2h2z"
  />
  <path fill="#362E24" d="M86 124h-2v2h2zm-2 0h-2v2h2zm-2 0h-2v2h2z" />
  <path
    fill="#1F1F1F"
    d="M80 124h-2v2h2zm-2 0h-2v2h2zm-2 0h-2v2h2zm-2 0h-2v2h2zm-2 0h-2v2h2z"
  />
  <path fill="#362E24" d="M70 124h-2v2h2zm-2 0h-2v2h2zm-2 0h-2v2h2z" />
  <path
    fill="#1F1F1F"
    d="M64 124h-2v2h2zm-2 0h-2v2h2zm34 2h-2v2h2zm-2 0h-2v2h2zm-2 0h-2v2h2zm-2 0h-2v2h2z"
  />
  <path
    fill="#362E24"
    d="M88 126h-2v2h2zm-2 0h-2v2h2zm-2 0h-2v2h2zm-2 0h-2v2h2zm-2 0h-2v2h2z"
  />
  <path fill="#1F1F1F" d="M78 126h-2v2h2zm-2 0h-2v2h2zm-2 0h-2v2h2z" />
  <path fill="#362E24" d="M72 126h-2v2h2z" />
  <path
    fill="#1F1F1F"
    d="M70 126h-2v2h2zm-2 0h-2v2h2zm-2 0h-2v2h2zm-2 0h-2v2h2zm-2 0h-2v2h2zm34 2h-2v2h2zm-2 0h-2v2h2zm-2 0h-2v2h2z"
  />
  <path
    fill="#362E24"
    d="M90 128h-2v2h2zm-2 0h-2v2h2zm-2 0h-2v2h2zm-2 0h-2v2h2zm-2 0h-2v2h2zm-2 0h-2v2h2zm-2 0h-2v2h2z"
  />
  <path fill="#1F1F1F" d="M76 128h-2v2h2z" />
  <path fill="#362E24" d="M74 128h-2v2h2z" />
  <path fill="#1F1F1F" d="M72 128h-2v2h2z" />
  <path fill="#362E24" d="M70 128h-2v2h2zm-2 0h-2v2h2zm-2 0h-2v2h2z" />
  <path
    fill="#1F1F1F"
    d="M64 128h-2v2h2zm-2 0h-2v2h2zm36 2h-2v2h2zm-2 0h-2v2h2zm-2 0h-2v2h2z"
  />
  <path
    fill="#362E24"
    d="M92 130h-2v2h2zm-2 0h-2v2h2zm-2 0h-2v2h2zm-2 0h-2v2h2zm-2 0h-2v2h2zm-2 0h-2v2h2zm-2 0h-2v2h2zm-2 0h-2v2h2z"
  />
  <path fill="#1F1F1F" d="M76 130h-2v2h2zm-2 0h-2v2h2z" />
  <path
    fill="#362E24"
    d="M72 130h-2v2h2zm-2 0h-2v2h2zm-2 0h-2v2h2zm-2 0h-2v2h2zm-2 0h-2v2h2z"
  />
  <path
    fill="#1F1F1F"
    d="M62 130h-2v2h2zm38 2h-2v2h2zm-2 0h-2v2h2zm-2 0h-2v2h2zm-2 0h-2v2h2z"
  />
  <path
    fill="#362E24"
    d="M92 132h-2v2h2zm-2 0h-2v2h2zm-2 0h-2v2h2zm-2 0h-2v2h2z"
  />
  <path
    fill="#1F1F1F"
    d="M84 132h-2v2h2zm-2 0h-2v2h2zm-2 0h-2v2h2zm-2 0h-2v2h2z"
  />
  <path
    fill="#362E24"
    d="M76 132h-2v2h2zm-2 0h-2v2h2zm-2 0h-2v2h2zm-2 0h-2v2h2zm-2 0h-2v2h2zm-2 0h-2v2h2zm-2 0h-2v2h2z"
  />
  <path
    fill="#1F1F1F"
    d="M62 132h-2v2h2zm42 2h-2v2h2zm-2 0h-2v2h2zm-2 0h-2v2h2zm-2 0h-2v2h2zm-2 0h-2v2h2z"
  />
  <path
    fill="#362E24"
    d="M94 134h-2v2h2zm-2 0h-2v2h2zm-4 0h-2v2h2zm-2 0h-2v2h2z"
  />
  <path fill="#1F1F1F" d="M84 134h-2v2h2z" />
  <path
    fill="#362E24"
    d="M82 134h-2v2h2zm-2 0h-2v2h2zm-2 0h-2v2h2zm-2 0h-2v2h2zm-2 0h-2v2h2zm-2 0h-2v2h2zm-2 0h-2v2h2zm-2 0h-2v2h2zm-2 0h-2v2h2zm-2 0h-2v2h2z"
  />
  <path
    fill="#1F1F1F"
    d="M62 134h-2v2h2zm76 2h-2v2h2zm-34 0h-2v2h2zm-2 0h-2v2h2zm-2 0h-2v2h2zm-2 0h-2v2h2z"
  />
  <path fill="#362E24" d="M96 136h-2v2h2zm-2 0h-2v2h2z" />
  <path fill="#1F1F1F" d="M88 136h-2v2h2zm-2 0h-2v2h2z" />
  <path
    fill="#362E24"
    d="M84 136h-2v2h2zm-2 0h-2v2h2zm-2 0h-2v2h2zm-2 0h-2v2h2zm-2 0h-2v2h2zm-2 0h-2v2h2zm-2 0h-2v2h2zm-2 0h-2v2h2zm-2 0h-2v2h2zm-2 0h-2v2h2zm-2 0h-2v2h2z"
  />
  <path
    fill="#1F1F1F"
    d="M62 136h-2v2h2zm76 2h-2v2h2zm-2 0h-2v2h2zm-8 0h-2v2h2z"
  />
  <path fill="#362E24" d="M116 138h-2v2h2z" />
  <path
    fill="#1F1F1F"
    d="M108 138h-2v2h2zm-2 0h-2v2h2zm-2 0h-2v2h2zm-2 0h-2v2h2zm-2 0h-2v2h2z"
  />
  <path fill="#362E24" d="M98 138h-2v2h2zm-2 0h-2v2h2zm-2 0h-2v2h2z" />
  <path fill="#1F1F1F" d="M90 138h-2v2h2z" />
  <path
    fill="#362E24"
    d="M88 138h-2v2h2zm-2 0h-2v2h2zm-2 0h-2v2h2zm-2 0h-2v2h2zm-2 0h-2v2h2zm-2 0h-2v2h2zm-2 0h-2v2h2zm-2 0h-2v2h2zm-2 0h-2v2h2zm-2 0h-2v2h2zm-2 0h-2v2h2zm-2 0h-2v2h2z"
  />
  <path
    fill="#1F1F1F"
    d="M64 138h-2v2h2zm-2 0h-2v2h2zm76 2h-2v2h2zm-2 0h-2v2h2zm-2 0h-2v2h2zm-2 0h-2v2h2zm-2 0h-2v2h2z"
  />
  <path
    fill="#362E24"
    d="M128 140h-2v2h2zm-2 0h-2v2h2zm-6 0h-2v2h2zm-2 0h-2v2h2zm-2 0h-2v2h2zm-2 0h-2v2h2zm-2 0h-2v2h2zm-2 0h-2v2h2z"
  />
  <path
    fill="#1F1F1F"
    d="M108 140h-2v2h2zm-2 0h-2v2h2zm-2 0h-2v2h2zm-2 0h-2v2h2zm-2 0h-2v2h2z"
  />
  <path
    fill="#362E24"
    d="M98 140h-2v2h2zm-2 0h-2v2h2zm-6 0h-2v2h2zm-2 0h-2v2h2zm-2 0h-2v2h2zm-2 0h-2v2h2zm-2 0h-2v2h2zm-2 0h-2v2h2zm-2 0h-2v2h2zm-2 0h-2v2h2zm-2 0h-2v2h2zm-2 0h-2v2h2zm-2 0h-2v2h2zm-2 0h-2v2h2zm-2 0h-2v2h2z"
  />
  <path
    fill="#1F1F1F"
    d="M64 140h-2v2h2zm-2 0h-2v2h2zm76 2h-2v2h2zm-2 0h-2v2h2zm-2 0h-2v2h2zm-2 0h-2v2h2zm-2 0h-2v2h2z"
  />
  <path fill="#362E24" d="M128 142h-2v2h2z" />
  <path fill="#1F1F1F" d="M126 142h-2v2h2zm-2 0h-2v2h2zm-2 0h-2v2h2z" />
  <path
    fill="#362E24"
    d="M120 142h-2v2h2zm-2 0h-2v2h2zm-2 0h-2v2h2zm-2 0h-2v2h2zm-2 0h-2v2h2z"
  />
  <path fill="#1F1F1F" d="M110 142h-2v2h2z" />
  <path fill="#362E24" d="M108 142h-2v2h2z" />
  <path
    fill="#1F1F1F"
    d="M106 142h-2v2h2zm-2 0h-2v2h2zm-2 0h-2v2h2zm-2 0h-2v2h2zm-2 0h-2v2h2zm-2 0h-2v2h2z"
  />
  <path
    fill="#362E24"
    d="M90 142h-2v2h2zm-2 0h-2v2h2zm-2 0h-2v2h2zm-2 0h-2v2h2zm-2 0h-2v2h2zm-2 0h-2v2h2zm-2 0h-2v2h2zm-2 0h-2v2h2zm-2 0h-2v2h2zm-2 0h-2v2h2zm-2 0h-2v2h2z"
  />
  <path
    fill="#1F1F1F"
    d="M68 142h-2v2h2zm-2 0h-2v2h2zm-2 0h-2v2h2zm-2 0h-2v2h2z"
  />
  <path
    fill="#362E24"
    d="M138 144h-2v2h2zm-2 0h-2v2h2zm-2 0h-2v2h2zm-2 0h-2v2h2z"
  />
  <path fill="#1F1F1F" d="M130 144h-2v2h2zm-2 0h-2v2h2z" />
  <path fill="#362E24" d="M126 144h-2v2h2zm-2 0h-2v2h2zm-2 0h-2v2h2z" />
  <path fill="#1F1F1F" d="M120 144h-2v2h2z" />
  <path fill="#362E24" d="M118 144h-2v2h2zm-2 0h-2v2h2zm-2 0h-2v2h2z" />
  <path fill="#1F1F1F" d="M112 144h-2v2h2z" />
  <path fill="#362E24" d="M110 144h-2v2h2z" />
  <path fill="#1F1F1F" d="M108 144h-2v2h2z" />
  <path fill="#362E24" d="M106 144h-2v2h2zm-2 0h-2v2h2zm-2 0h-2v2h2z" />
  <path fill="#1F1F1F" d="M100 144h-2v2h2zm-2 0h-2v2h2zm-2 0h-2v2h2z" />
  <path
    fill="#362E24"
    d="M92 144h-2v2h2zm-2 0h-2v2h2zm-2 0h-2v2h2zm-2 0h-2v2h2zm-6 0h-2v2h2zm-2 0h-2v2h2zm-2 0h-2v2h2zm-2 0h-2v2h2zm-2 0h-2v2h2z"
  />
  <path
    fill="#1F1F1F"
    d="M70 144h-2v2h2zm-2 0h-2v2h2zm-2 0h-2v2h2zm-2 0h-2v2h2zm-2 0h-2v2h2zm76 2h-2v2h2z"
  />
  <path fill="#362E24" d="M136 146h-2v2h2zm-2 0h-2v2h2zm-2 0h-2v2h2z" />
  <path fill="#1F1F1F" d="M130 146h-2v2h2z" />
  <path
    fill="#362E24"
    d="M128 146h-2v2h2zm-2 0h-2v2h2zm-2 0h-2v2h2zm-2 0h-2v2h2zm-2 0h-2v2h2z"
  />
  <path
    fill="#1F1F1F"
    d="M118 146h-2v2h2zm-2 0h-2v2h2zm-2 0h-2v2h2zm-2 0h-2v2h2z"
  />
  <path
    fill="#362E24"
    d="M110 146h-2v2h2zm-2 0h-2v2h2zm-2 0h-2v2h2zm-2 0h-2v2h2zm-2 0h-2v2h2zm-2 0h-2v2h2z"
  />
  <path fill="#1F1F1F" d="M98 146h-2v2h2zm-2 0h-2v2h2z" />
  <path
    fill="#362E24"
    d="M82 146h-2v2h2zm-2 0h-2v2h2zm-2 0h-2v2h2zm-2 0h-2v2h2zm-2 0h-2v2h2zm-2 0h-2v2h2z"
  />
  <path
    fill="#1F1F1F"
    d="M70 146h-2v2h2zm-2 0h-2v2h2zm-2 0h-2v2h2zm-2 0h-2v2h2zm-2 0h-2v2h2zm76 2h-2v2h2z"
  />
  <path fill="#362E24" d="M136 148h-2v2h2zm-2 0h-2v2h2z" />
  <path fill="#1F1F1F" d="M132 148h-2v2h2z" />
  <path
    fill="#362E24"
    d="M130 148h-2v2h2zm-2 0h-2v2h2zm-2 0h-2v2h2zm-2 0h-2v2h2zm-2 0h-2v2h2zm-2 0h-2v2h2z"
  />
  <path fill="#1F1F1F" d="M118 148h-2v2h2zm-2 0h-2v2h2zm-2 0h-2v2h2z" />
  <path
    fill="#362E24"
    d="M112 148h-2v2h2zm-2 0h-2v2h2zm-2 0h-2v2h2zm-2 0h-2v2h2zm-2 0h-2v2h2zm-2 0h-2v2h2zm-2 0h-2v2h2z"
  />
  <path fill="#1F1F1F" d="M98 148h-2v2h2zm-6 0h-2v2h2z" />
  <path
    fill="#362E24"
    d="M90 148h-2v2h2zm-2 0h-2v2h2zm-2 0h-2v2h2zm-2 0h-2v2h2zm-2 0h-2v2h2zm-2 0h-2v2h2zm-2 0h-2v2h2zm-2 0h-2v2h2zm-2 0h-2v2h2z"
  />
  <path
    fill="#1F1F1F"
    d="M72 148h-2v2h2zm-2 0h-2v2h2zm-2 0h-2v2h2zm-2 0h-2v2h2zm72 2h-2v2h2z"
  />
  <path fill="#362E24" d="M136 150h-2v2h2z" />
  <path fill="#1F1F1F" d="M134 150h-2v2h2z" />
  <path
    fill="#362E24"
    d="M132 150h-2v2h2zm-2 0h-2v2h2zm-2 0h-2v2h2zm-2 0h-2v2h2zm-2 0h-2v2h2zm-2 0h-2v2h2zm-2 0h-2v2h2z"
  />
  <path fill="#1F1F1F" d="M118 150h-2v2h2zm-2 0h-2v2h2z" />
  <path
    fill="#362E24"
    d="M114 150h-2v2h2zm-2 0h-2v2h2zm-2 0h-2v2h2zm-2 0h-2v2h2zm-2 0h-2v2h2z"
  />
  <path
    fill="#1F1F1F"
    d="M94 150h-2v2h2zm-2 0h-2v2h2zm-2 0h-2v2h2zm-2 0h-2v2h2zm-2 0h-2v2h2zm-2 0h-2v2h2zm-2 0h-2v2h2zm-2 0h-2v2h2zm-2 0h-2v2h2zm-2 0h-2v2h2zm-2 0h-2v2h2zm-2 0h-2v2h2zm-2 0h-2v2h2zm-2 0h-2v2h2zm70 2h-2v2h2zm-2 0h-2v2h2z"
  />
  <path
    fill="#362E24"
    d="M134 152h-2v2h2zm-2 0h-2v2h2zm-2 0h-2v2h2zm-2 0h-2v2h2zm-2 0h-2v2h2zm-2 0h-2v2h2zm-2 0h-2v2h2zm-2 0h-2v2h2zm-2 0h-2v2h2zm-2 0h-2v2h2zm-2 0h-2v2h2zm-2 0h-2v2h2zm-2 0h-2v2h2zm-2 0h-2v2h2zm-2 0h-2v2h2zm-2 0h-2v2h2zm-2 0h-2v2h2zm-2 0h-2v2h2zm-2 0h-2v2h2z"
  />
  <path
    fill="#1F1F1F"
    d="M96 152h-2v2h2zm-2 0h-2v2h2zm-2 0h-2v2h2zm-2 0h-2v2h2zm-2 0h-2v2h2zm-2 0h-2v2h2zm-2 0h-2v2h2zm-2 0h-2v2h2zm-2 0h-2v2h2zm-2 0h-2v2h2zm-2 0h-2v2h2zm-2 0h-2v2h2zm-2 0h-2v2h2zm66 2h-2v2h2zm-2 0h-2v2h2z"
  />
  <path
    fill="#362E24"
    d="M134 154h-2v2h2zm-2 0h-2v2h2zm-2 0h-2v2h2zm-2 0h-2v2h2zm-2 0h-2v2h2zm-2 0h-2v2h2zm-2 0h-2v2h2zm-2 0h-2v2h2zm-2 0h-2v2h2zm-2 0h-2v2h2zm-2 0h-2v2h2zm-2 0h-2v2h2zm-2 0h-2v2h2zm-2 0h-2v2h2zm-2 0h-2v2h2zm-2 0h-2v2h2zm-2 0h-2v2h2zm-2 0h-2v2h2zm-2 0h-2v2h2z"
  />
  <path
    fill="#1F1F1F"
    d="M96 154h-2v2h2zm-2 0h-2v2h2zm-2 0h-2v2h2zm-2 0h-2v2h2zm-2 0h-2v2h2zm-2 0h-2v2h2zm-2 0h-2v2h2zm-2 0h-2v2h2zm-2 0h-2v2h2zm-2 0h-2v2h2zm60 2h-2v2h2zm-2 0h-2v2h2z"
  />
  <path
    fill="#362E24"
    d="M134 156h-2v2h2zm-2 0h-2v2h2zm-2 0h-2v2h2zm-2 0h-2v2h2zm-2 0h-2v2h2zm-2 0h-2v2h2zm-2 0h-2v2h2zm-2 0h-2v2h2zm-2 0h-2v2h2zm-2 0h-2v2h2zm-2 0h-2v2h2zm-2 0h-2v2h2zm-2 0h-2v2h2zm-2 0h-2v2h2zm-2 0h-2v2h2zm-2 0h-2v2h2zm-2 0h-2v2h2zm-2 0h-2v2h2zm-2 0h-2v2h2z"
  />
  <path
    fill="#1F1F1F"
    d="M96 156h-2v2h2zm-2 0h-2v2h2zm-2 0h-2v2h2zm-2 0h-2v2h2zm-2 0h-2v2h2zm-2 0h-2v2h2zm-2 0h-2v2h2zm-2 0h-2v2h2zm56 2h-2v2h2zm-2 0h-2v2h2z"
  />
  <path
    fill="#362E24"
    d="M134 158h-2v2h2zm-2 0h-2v2h2zm-2 0h-2v2h2zm-2 0h-2v2h2zm-2 0h-2v2h2zm-2 0h-2v2h2zm-2 0h-2v2h2zm-2 0h-2v2h2zm-2 0h-2v2h2zm-2 0h-2v2h2zm-2 0h-2v2h2zm-2 0h-2v2h2zm-2 0h-2v2h2zm-2 0h-2v2h2zm-2 0h-2v2h2zm-2 0h-2v2h2zm-2 0h-2v2h2zm-2 0h-2v2h2z"
  />
  <path
    fill="#1F1F1F"
    d="M98 158h-2v2h2zm-2 0h-2v2h2zm-2 0h-2v2h2zm-2 0h-2v2h2zm-2 0h-2v2h2zm-2 0h-2v2h2zm-2 0h-2v2h2zm-2 0h-2v2h2zm-2 0h-2v2h2zm56 2h-2v2h2zm-2 0h-2v2h2zm-2 0h-2v2h2z"
  />
  <path
    fill="#362E24"
    d="M132 160h-2v2h2zm-2 0h-2v2h2zm-2 0h-2v2h2zm-2 0h-2v2h2zm-2 0h-2v2h2zm-2 0h-2v2h2zm-2 0h-2v2h2zm-2 0h-2v2h2zm-2 0h-2v2h2zm-2 0h-2v2h2zm-2 0h-2v2h2zm-2 0h-2v2h2zm-2 0h-2v2h2zm-2 0h-2v2h2zm-2 0h-2v2h2zm-2 0h-2v2h2zm-2 0h-2v2h2z"
  />
  <path
    fill="#1F1F1F"
    d="M98 160h-2v2h2zm-2 0h-2v2h2zm-2 0h-2v2h2zm-2 0h-2v2h2zm-2 0h-2v2h2zm-2 0h-2v2h2zm-2 0h-2v2h2zm52 2h-2v2h2zm-2 0h-2v2h2zm-2 0h-2v2h2zm-2 0h-2v2h2z"
  />
  <path
    fill="#362E24"
    d="M130 162h-2v2h2zm-2 0h-2v2h2zm-2 0h-2v2h2zm-2 0h-2v2h2zm-2 0h-2v2h2zm-2 0h-2v2h2zm-2 0h-2v2h2zm-2 0h-2v2h2zm-2 0h-2v2h2zm-2 0h-2v2h2zm-2 0h-2v2h2zm-2 0h-2v2h2zm-2 0h-2v2h2zm-2 0h-2v2h2zm-2 0h-2v2h2z"
  />
  <path
    fill="#1F1F1F"
    d="M100 162h-2v2h2zm-2 0h-2v2h2zm-2 0h-2v2h2zm-2 0h-2v2h2zm-2 0h-2v2h2zm-2 0h-2v2h2zm-2 0h-2v2h2zm50 2h-2v2h2zm-2 0h-2v2h2zm-2 0h-2v2h2zm-2 0h-2v2h2zm-2 0h-2v2h2zm-2 0h-2v2h2zm-2 0h-2v2h2zm-2 0h-2v2h2zm-2 0h-2v2h2zm-2 0h-2v2h2zm-2 0h-2v2h2z"
  />
  <path
    fill="#362E24"
    d="M116 164h-2v2h2zm-2 0h-2v2h2zm-2 0h-2v2h2zm-2 0h-2v2h2zm-2 0h-2v2h2zm-2 0h-2v2h2zm-2 0h-2v2h2zm-2 0h-2v2h2z"
  />
  <path
    fill="#1F1F1F"
    d="M100 164h-2v2h2zm-2 0h-2v2h2zm-2 0h-2v2h2zm-2 0h-2v2h2zm-2 0h-2v2h2zm46 2h-2v2h2zm-2 0h-2v2h2zm-2 0h-2v2h2zm-2 0h-2v2h2zm-2 0h-2v2h2zm-2 0h-2v2h2zm-2 0h-2v2h2zm-2 0h-2v2h2zm-2 0h-2v2h2zm-2 0h-2v2h2zm-2 0h-2v2h2zm-2 0h-2v2h2zm-2 0h-2v2h2zm-2 0h-2v2h2z"
  />
  <path fill="#362E24" d="M110 166h-2v2h2zm-2 0h-2v2h2zm-2 0h-2v2h2z" />
  <path
    fill="#1F1F1F"
    d="M104 166h-2v2h2zm-2 0h-2v2h2zm-2 0h-2v2h2zm-2 0h-2v2h2zm-2 0h-2v2h2zm-2 0h-2v2h2zm44 2h-2v2h2zm-8 0h-2v2h2zm-2 0h-2v2h2zm-2 0h-2v2h2zm-2 0h-2v2h2zm-2 0h-2v2h2zm-2 0h-2v2h2zm-2 0h-2v2h2zm-2 0h-2v2h2zm-2 0h-2v2h2zm-2 0h-2v2h2zm-2 0h-2v2h2zm-2 0h-2v2h2zm-2 0h-2v2h2zm-2 0h-2v2h2zm-2 0h-2v2h2zm-2 0h-2v2h2zm-2 0h-2v2h2zm-2 0h-2v2h2zm28 2h-2v2h2zm-2 0h-2v2h2zm-2 0h-2v2h2zm-2 0h-2v2h2zm-2 0h-2v2h2zm-2 0h-2v2h2zm-2 0h-2v2h2zm-2 0h-2v2h2zm-2 0h-2v2h2zm-2 0h-2v2h2zm-2 0h-2v2h2zm-2 0h-2v2h2zm-2 0h-2v2h2zm-2 0h-2v2h2zm18 2h-2v2h2zm-2 0h-2v2h2zm-2 0h-2v2h2z"
  />
  <path
    fill="#24523B"
    d="M104 150H94v2h10zm-10-4H82v2h12zm2 2h-4v2h4zm-12-4h-4v2h4z"
  />
  <path fill="#362E24" d="M94 142h-4v2h4z" />
  <path fill="#24523B" d="M94 144h-2v2h2z" />
  <path fill="#1F1F1F" d="M92 138h-2v2h2z" />
  <path fill="#24523B" d="M90 134h-2v2h2z" />
  <path fill="#1F1F1F" d="M94 140h-4v2h4z" />
  <path fill="#24523B" d="M92 136h-4v2h4z" />
  <path
    fill="#1F1F1F"
    d="M12 82h-2v2h2zm2 2h-2v2h2zm-2 0h-2v2h2zm-2 0H8v2h2zm6 2h-2v2h2zm-2 0h-2v2h2zm-2 0h-2v2h2zm-2 0H8v2h2zm-2 0H6v2h2zm10 2h-2v2h2zm-2 0h-2v2h2zm-2 0h-2v2h2zm-2 0h-2v2h2zm-2 0H8v2h2zm-2 0H6v2h2zm12 2h-2v2h2zm-2 0h-2v2h2zm-2 0h-2v2h2zm-2 0h-2v2h2zm-2 0h-2v2h2zm-2 0H8v2h2zm-2 0H6v2h2zm16 2h-2v2h2zm-2 0h-2v2h2zm-2 0h-2v2h2zm-2 0h-2v2h2zm-2 0h-2v2h2zm-2 0h-2v2h2zm-2 0h-2v2h2zm-2 0H8v2h2zm-2 0H6v2h2zm16 2h-2v2h2zm-2 0h-2v2h2zm-2 0h-2v2h2zm-2 0h-2v2h2zm-2 0h-2v2h2zm-2 0h-2v2h2zm-2 0h-2v2h2zm-2 0H8v2h2zm-2 0H6v2h2zm-2 0H4v2h2zm0-2H4v2h2zm22 4h-2v2h2zm-2 0h-2v2h2zm-2 0h-2v2h2zm-2 0h-2v2h2z"
  />
  <path fill="#362E24" d="M20 96h-2v2h2zm-2 0h-2v2h2z" />
  <path
    fill="#1F1F1F"
    d="M16 96h-2v2h2zm-2 0h-2v2h2zm-2 0h-2v2h2zm-2 0H8v2h2zm-2 0H6v2h2zm-2 0H4v2h2zm22 2h-2v2h2zm-2 0h-2v2h2zm-2 0h-2v2h2zm-2 0h-2v2h2z"
  />
  <path fill="#362E24" d="M20 98h-2v2h2zm-2 0h-2v2h2zm-2 0h-2v2h2z" />
  <path
    fill="#1F1F1F"
    d="M14 98h-2v2h2zm-2 0h-2v2h2zm-2 0H8v2h2zm-2 0H6v2h2zm-2 0H4v2h2zm34 2h-2v2h2zm-2 0h-2v2h2zm-10 0h-2v2h2zm-2 0h-2v2h2zm-2 0h-2v2h2zm-2 0h-2v2h2z"
  />
  <path fill="#362E24" d="M20 100h-2v2h2zm-2 0h-2v2h2zm-2 0h-2v2h2z" />
  <path
    fill="#1F1F1F"
    d="M14 100h-2v2h2zm-2 0h-2v2h2zm-2 0H8v2h2zm-2 0H6v2h2zm-2 0H4v2h2zm34 2h-2v2h2zm-2 0h-2v2h2zm-2 0h-2v2h2zm-2 0h-2v2h2zm-2 0h-2v2h2zm-2 0h-2v2h2zm-2 0h-2v2h2zm-2 0h-2v2h2zm-2 0h-2v2h2zm-2 0h-2v2h2z"
  />
  <path fill="#362E24" d="M20 102h-2v2h2z" />
  <path
    fill="#1F1F1F"
    d="M18 102h-2v2h2zm-2 0h-2v2h2zm-2 0h-2v2h2zm-2 0h-2v2h2zm-2 0H8v2h2zm-2 0H6v2h2zm-2 0H4v2h2zm34 2h-2v2h2zm-2 0h-2v2h2zm-2 0h-2v2h2zm-2 0h-2v2h2zm-2 0h-2v2h2zm-2 0h-2v2h2zm-2 0h-2v2h2zm-2 0h-2v2h2zm-2 0h-2v2h2z"
  />
  <path fill="#362E24" d="M22 104h-2v2h2zm-2 0h-2v2h2z" />
  <path
    fill="#1F1F1F"
    d="M18 104h-2v2h2zm-2 0h-2v2h2zm-2 0h-2v2h2zm-2 0h-2v2h2zm-2 0H8v2h2zm-2 0H6v2h2zm-2 0H4v2h2zm34 2h-2v2h2zm-2 0h-2v2h2z"
  />
  <path fill="#362E24" d="M36 106h-2v2h2zm-2 0h-2v2h2z" />
  <path
    fill="#1F1F1F"
    d="M32 106h-2v2h2zm-2 0h-2v2h2zm-2 0h-2v2h2zm-2 0h-2v2h2zm-2 0h-2v2h2zm-2 0h-2v2h2zm-2 0h-2v2h2zm-2 0h-2v2h2z"
  />
  <path fill="#362E24" d="M16 106h-2v2h2zm-2 0h-2v2h2z" />
  <path
    fill="#1F1F1F"
    d="M12 106h-2v2h2zm-2 0H8v2h2zm-2 0H6v2h2zm-2 0H4v2h2zm34 2h-2v2h2zm-2 0h-2v2h2z"
  />
  <path
    fill="#362E24"
    d="M36 108h-2v2h2zm-2 0h-2v2h2zm-2 0h-2v2h2zm-2 0h-2v2h2zm-2 0h-2v2h2z"
  />
  <path fill="#1F1F1F" d="M26 108h-2v2h2zm-2 0h-2v2h2zm-2 0h-2v2h2z" />
  <path
    fill="#362E24"
    d="M20 108h-2v2h2zm-2 0h-2v2h2zm-2 0h-2v2h2zm-2 0h-2v2h2z"
  />
  <path
    fill="#1F1F1F"
    d="M12 108h-2v2h2zm-2 0H8v2h2zm-2 0H6v2h2zm-2 0H4v2h2zm46 2h-2v2h2zm-2 0h-2v2h2zm-2 0h-2v2h2zm-8 0h-2v2h2z"
  />
  <path fill="#362E24" d="M38 110h-2v2h2zm-2 0h-2v2h2z" />
  <path
    fill="#1F1F1F"
    d="M34 110h-2v2h2zm-2 0h-2v2h2zm-2 0h-2v2h2zm-2 0h-2v2h2zm-2 0h-2v2h2zm-2 0h-2v2h2z"
  />
  <path
    fill="#362E24"
    d="M22 110h-2v2h2zm-2 0h-2v2h2zm-2 0h-2v2h2zm-2 0h-2v2h2zm-2 0h-2v2h2z"
  />
  <path
    fill="#1F1F1F"
    d="M12 110h-2v2h2zm-2 0H8v2h2zm-2 0H6v2h2zm-2 0H4v2h2zm46 2h-2v2h2zm-2 0h-2v2h2zm-2 0h-2v2h2zm-2 0h-2v2h2zm-2 0h-2v2h2zm-2 0h-2v2h2zm-2 0h-2v2h2z"
  />
  <path fill="#362E24" d="M38 112h-2v2h2z" />
  <path fill="#1F1F1F" d="M36 112h-2v2h2z" />
  <path fill="#362E24" d="M34 112h-2v2h2zm-2 0h-2v2h2zm-2 0h-2v2h2z" />
  <path fill="#1F1F1F" d="M28 112h-2v2h2zm-2 0h-2v2h2zm-2 0h-2v2h2z" />
  <path
    fill="#362E24"
    d="M22 112h-2v2h2zm-2 0h-2v2h2zm-2 0h-2v2h2zm-2 0h-2v2h2zm-2 0h-2v2h2z"
  />
  <path
    fill="#1F1F1F"
    d="M12 112h-2v2h2zm-2 0H8v2h2zm-2 0H6v2h2zm-2 0H4v2h2zm46 2h-2v2h2zm-2 0h-2v2h2zm-2 0h-2v2h2zm-2 0h-2v2h2zm-2 0h-2v2h2zm-2 0h-2v2h2zm-2 0h-2v2h2zm-2 0h-2v2h2z"
  />
  <path
    fill="#362E24"
    d="M36 114h-2v2h2zm-2 0h-2v2h2zm-2 0h-2v2h2zm-2 0h-2v2h2zm-2 0h-2v2h2z"
  />
  <path fill="#1F1F1F" d="M26 114h-2v2h2zm-2 0h-2v2h2z" />
  <path
    fill="#362E24"
    d="M22 114h-2v2h2zm-2 0h-2v2h2zm-2 0h-2v2h2zm-2 0h-2v2h2zm-2 0h-2v2h2z"
  />
  <path
    fill="#1F1F1F"
    d="M12 114h-2v2h2zm-2 0H8v2h2zm-2 0H6v2h2zm-2 0H4v2h2zm48 2h-2v2h2zm-2 0h-2v2h2zm-2 0h-2v2h2zm-2 0h-2v2h2zm-2 0h-2v2h2z"
  />
  <path fill="#362E24" d="M44 116h-2v2h2z" />
  <path fill="#1F1F1F" d="M42 116h-2v2h2z" />
  <path
    fill="#362E24"
    d="M40 116h-2v2h2zm-2 0h-2v2h2zm-2 0h-2v2h2zm-2 0h-2v2h2zm-2 0h-2v2h2zm-2 0h-2v2h2zm-2 0h-2v2h2z"
  />
  <path fill="#1F1F1F" d="M26 116h-2v2h2zm-2 0h-2v2h2z" />
  <path
    fill="#362E24"
    d="M22 116h-2v2h2zm-2 0h-2v2h2zm-2 0h-2v2h2zm-2 0h-2v2h2z"
  />
  <path
    fill="#1F1F1F"
    d="M14 116h-2v2h2zm-2 0h-2v2h2zm-2 0H8v2h2zm-2 0H6v2h2zm-2 0H4v2h2zm48 2h-2v2h2zm-2 0h-2v2h2zm-2 0h-2v2h2zm-2 0h-2v2h2zm-2 0h-2v2h2zm-2 0h-2v2h2z"
  />
  <path
    fill="#362E24"
    d="M42 118h-2v2h2zm-2 0h-2v2h2zm-2 0h-2v2h2zm-2 0h-2v2h2zm-2 0h-2v2h2zm-2 0h-2v2h2zm-2 0h-2v2h2zm-2 0h-2v2h2z"
  />
  <path fill="#1F1F1F" d="M26 118h-2v2h2zm-2 0h-2v2h2zm-2 0h-2v2h2z" />
  <path fill="#362E24" d="M20 118h-2v2h2zm-2 0h-2v2h2z" />
  <path
    fill="#1F1F1F"
    d="M16 118h-2v2h2zm-2 0h-2v2h2zm-2 0h-2v2h2zm-2 0H8v2h2zm-2 0H6v2h2zm-2 0H4v2h2zm50 2h-2v2h2zm-2 0h-2v2h2zm-2 0h-2v2h2zm-2 0h-2v2h2zm-2 0h-2v2h2zm-2 0h-2v2h2z"
  />
  <path
    fill="#362E24"
    d="M44 120h-2v2h2zm-2 0h-2v2h2zm-2 0h-2v2h2zm-2 0h-2v2h2zm-2 0h-2v2h2zm-2 0h-2v2h2zm-2 0h-2v2h2zm-2 0h-2v2h2z"
  />
  <path
    fill="#1F1F1F"
    d="M28 120h-2v2h2zm-2 0h-2v2h2zm-2 0h-2v2h2zm-2 0h-2v2h2zm-2 0h-2v2h2zm-2 0h-2v2h2zm-2 0h-2v2h2zm-2 0h-2v2h2zm-2 0h-2v2h2zm-2 0H8v2h2zm-2 0H6v2h2zm52 2h-2v2h2zm-2 0h-2v2h2zm-2 0h-2v2h2zm-2 0h-2v2h2zm-2 0h-2v2h2zm-2 0h-2v2h2zm-2 0h-2v2h2zm-2 0h-2v2h2z"
  />
  <path
    fill="#362E24"
    d="M44 122h-2v2h2zm-2 0h-2v2h2zm-2 0h-2v2h2zm-2 0h-2v2h2zm-2 0h-2v2h2zm-2 0h-2v2h2zm-2 0h-2v2h2z"
  />
  <path
    fill="#1F1F1F"
    d="M30 122h-2v2h2zm-2 0h-2v2h2zm-2 0h-2v2h2zm-2 0h-2v2h2zm-2 0h-2v2h2zm-2 0h-2v2h2zm-2 0h-2v2h2zm-2 0h-2v2h2zm-2 0h-2v2h2zm-2 0h-2v2h2zm48 2h-2v2h2zm-2 0h-2v2h2zm-2 0h-2v2h2zm-2 0h-2v2h2zm-4 0h-2v2h2zm-2 0h-2v2h2zm-2 0h-2v2h2zm-2 0h-2v2h2z"
  />
  <path fill="#362E24" d="M42 124h-2v2h2zm-2 0h-2v2h2zm-2 0h-2v2h2z" />
  <path
    fill="#1F1F1F"
    d="M36 124h-2v2h2zm-2 0h-2v2h2zm-2 0h-2v2h2zm-2 0h-2v2h2zm-2 0h-2v2h2zm-2 0h-2v2h2zm-2 0h-2v2h2zm-2 0h-2v2h2zm-2 0h-2v2h2zm-2 0h-2v2h2zm-2 0h-2v2h2zm-2 0h-2v2h2z"
  />
  <path fill="#362E24" d="M60 126h-2v2h2zm-2 0h-2v2h2zm-2 0h-2v2h2z" />
  <path
    fill="#1F1F1F"
    d="M54 126h-2v2h2zm-4 0h-2v2h2zm-2 0h-2v2h2zm-2 0h-2v2h2zm-2 0h-2v2h2zm-2 0h-2v2h2zm-2 0h-2v2h2zm-2 0h-2v2h2zm-2 0h-2v2h2zm-2 0h-2v2h2zm-2 0h-2v2h2zm-2 0h-2v2h2zm-2 0h-2v2h2zm-2 0h-2v2h2zm-2 0h-2v2h2zm-2 0h-2v2h2zm-2 0h-2v2h2zm-2 0h-2v2h2zm-2 0h-2v2h2z"
  />
  <path fill="#362E24" d="M60 128h-2v2h2zm-2 0h-2v2h2zm-2 0h-2v2h2z" />
  <path
    fill="#1F1F1F"
    d="M54 128h-2v2h2zm-4 0h-2v2h2zm-2 0h-2v2h2zm-2 0h-2v2h2zm-2 0h-2v2h2zm-2 0h-2v2h2zm-2 0h-2v2h2zm-2 0h-2v2h2zm-2 0h-2v2h2zm-2 0h-2v2h2zm-2 0h-2v2h2zm-2 0h-2v2h2zm-2 0h-2v2h2zm-2 0h-2v2h2zm-2 0h-2v2h2zm-2 0h-2v2h2zm-2 0h-2v2h2zm-2 0h-2v2h2z"
  />
  <path fill="#362E24" d="M58 130h-2v2h2zm-2 0h-2v2h2z" />
  <path
    fill="#1F1F1F"
    d="M50 130h-2v2h2zm-2 0h-2v2h2zm-2 0h-2v2h2zm-2 0h-2v2h2zm-2 0h-2v2h2zm-2 0h-2v2h2zm-2 0h-2v2h2zm-2 0h-2v2h2zm-2 0h-2v2h2zm-2 0h-2v2h2zm-2 0h-2v2h2zm-2 0h-2v2h2zm-2 0h-2v2h2zm-2 0h-2v2h2zm28 2h-2v2h2zm-2 0h-2v2h2zm-2 0h-2v2h2zm-2 0h-2v2h2zm-2 0h-2v2h2zm-2 0h-2v2h2zm18 2h-2v2h2zm-2 0h-2v2h2zm-6 0h-2v2h2zm-2 0h-2v2h2zm-2 0h-2v2h2zm-2 0h-2v2h2zm14 2h-2v2h2zm-2 0h-2v2h2zm-2 0h-2v2h2zm-2 0h-2v2h2zm-2 0h-2v2h2zm-2 0h-2v2h2zm-2 0h-2v2h2zm12 2h-2v2h2zm-2 0h-2v2h2zm-2 0h-2v2h2zm-2 0h-2v2h2zm-2 0h-2v2h2zm-2 0h-2v2h2zm10 2h-2v2h2zm-2 0h-2v2h2zm-2 0h-2v2h2zm-2 0h-2v2h2zm-2 0h-2v2h2zm8 2h-2v2h2zm-2 0h-2v2h2zm-2 0h-2v2h2zm-2 0h-2v2h2zm6 2h-2v2h2zm-2 0h-2v2h2zm2 2h-2v2h2z"
  />
  <path fill="#24523B" d="M60 130h-2v2h2zm-8-2h-2v2h2z" />
  <path fill="#1F1F1F" d="M52 126h-2v2h2z" />
  <path
    fill="#24523B"
    d="M52 124h-2v2h2zm4 10h-4v2h4zm-2-4h-4v2h4zm6 2h-8v2h8z"
  />
  <g fill="#588829">
    <path
      d="M250 128h2v4h4v2h-6v2h-2v2h-2v2h-2v2h-2v2h-4v4h-4v6h-12v2h-10v2h-4v-2h-12v-2h-14v-2h-10v2h-4v2h-12v2h-4v-2h-10v-2h-2v-2h-6v-2h-2v-2h-2v-2h-2v-2h-2v-2h-6v2h-2v2h-6v-2h-2v-2h-2v2h-2v-2H94v-2h4v-2h6v2h8v2h2v2h2v-2h4v-2h4v-4h2v-2h12v2h-8v2h-2v4h2v2h2v2h2v2h2v2h2v-10h2v10h2v2h2v2h2v-2h2v-4h2v2h2v4h6v-4h2v-2h2v2h6v-2h4v-2h4v2h4v2h4v2h2v-2h2v-4h4v2h4v2h6v-2h2v2h2v4h6v-4h2v-2h2v4h2v2h2v-2h2v-2h2v-10h2v12h6v-6h4v-4h4v-2h2v-2h2v-2h2v-2h2v-4h-2v-2h-10v-2h14zm-178-2h2v2h4v2h8v4h4v-2h2v2h2v6h-2v-4h-8v-4h-8v-2h-4v-2h-2v-2h-6v-2h8zm206 6h4v2h-12v2h-2v-2h-2v2h-2v2h-6v-2h-2v-2h4v2h2v-2h2v-2h8v-2h6zm34-14h-6v2h-2v2h-4v2h-8v4h-8v4h-2v-6h2v-2h2v2h4v-4h8v-2h4v-2h2v-2h8zm-244-4h-2v4h-2v6h-8v-2h4v-2h2v-4h2v-4h4zM8 92h2v2h2v2h2v2h2v2h4v4h2v-6h4v4h-2v4h2v2h6v-6h2v-4h2v12h4v2h2v-2h2v4h2v4h6v-4h2v6h2v2h-4v-2h-8v-2h-2v-4h-6v-2h-2v-2H24v-2h-2v-2h-4v-4h-4v-2h-2v-2h-2v-2H8v-2H6v-2H2v-4h6zm304 16h2v4h2v2h4v2h-8v-6h-2v-4h-2v-2h4zm44-40h2v2h2v2h2v2h2v2h6v2h2v6h-2v2h-2v2h-2v2h-2v2h-2v2h-4v4h-4v2h-2v2h-10v2h-2v2h-6v4h-2v2h-8v2h-4v-2h2v-6h2v4h6v-4h2v-4h2v2h2v-2h4V90h2v4h2v6h6v-2h2v-4h-2v-4h4v6h2v-4h4v-2h2v-2h2v-2h2v-2h2v-4h-2v-2h-10v-2h2v-2h-2v-4h-4v-2h-2v4h-8v-2h6v-2h2v-2h6zM4 80H2v8H0V78h4zm4-6H6v4H4v-6h4zm12-10h-2v2h-2v2h-2v2h-4v2H8v-4h4v-2h2v-2h2v-2h2v-2h2zm318 6h-2v-2h2zm4 0h-2v-2h2zm-6-2h-12v-2h12zm4 0h-2v-2h2zm-40-16h2v2h4v2h8v4h8v4h2v2h-4v-4h-8v-4h-8v-2h-4v-2h-2v-2h-4v-2h6zM28 62h6v2h-8v-4h2zm8 0h-2v-2h2zm4 0h-2v-2h2zm-14-2h-6v-2h6zm12 0h-2v-2h2zm14 0H40v-2h12zm30-16h-4v2h-2v2h-4v2h-8v4h-8v4h-4v-2h2v-4h8v-4h8v-2h4v-2h2v-2h6zm212 6h-8v-2h8zm-8-2h-4v-2h4zm-4-2h-8v-2h8zm-8-2h-2v-2h2zM90 42h-8v-2h8zm182 0h-2v-2h-4v-2h6zM94 40h-4v-2h4zm8-2h-8v-2h8zm164 0h-2v-2h2zm-162-2h-2v-2h2zm160 0h-10v-2h10zm-154-4h-4v2h-2v-4h6zm144 2h-2v-2h2zm-2-2h-4v-2h4zm-140-2h-2v-2h2zm136 0h-2v-2h-2v-2h4zm-126-2h-10v-2h10zm2-2h-2v-2h2zm120 0h-2v-2h2zm-116-2h-4v-2h4zm114 0h-2v-2h2zm-110-4h-2v2h-2v-4h4zm108 2h-2v-2h2zm-2-2h-2v-2h2zm-104-2h-2v-2h2zm102 0h-4v-2h4zm-100-2h-2v-2h2zm96 0h-2v-4h2zm-94-2h-2v-2h2zm2-2h-2v-2h2zm90 0h-2V4h-6V2h8zm-88-2h-2V8h2zm10-4h-8v2h-2V4h10zm4 2h-4V6h4zm56 0h-4V6h4zm-44-2h-12V4h12zm40 0h-12V4h12zm14 0h-10V4h10zm-50-2h-4V2h4zm24 0h-14V2h14zm-14-2h-10V0h10z"
    />
    <path
      d="M250 128h2v4h4v2h4v2h2v-2h2v-2h8v-2h6v2h4v-6h2v-2h2v2h4v-4h8v-2h4v-2h2v-2h8v-6h-2v-4h-2v-2h4v4h2v4h2v2h4v-2h2v-6h2v4h6v-4h2v-4h2v2h2v-2h4V90h2v4h2v6h6v-2h2v-4h-2v-4h4v6h2v-4h4v-2h2v-2h2v-2h2v-2h2v-4h-2v-2h-10v-2h2v-2h-2v-4h-4v-2h-2v4h-8v-2h-2v-2h-2v2h-2v-2h-12v-2h-4v-4h-8v-4h-8v-2h-4v-2h-2v-2h-4v-2h-8v-2h-4v-2h-8v-2h-2v-2h-2v-2h-4v-2h-2v-2h-10v-2h-2v-2h-4v-2h-2v-2h-2v-2h-2v-2h-2v-2h-2v-2h-2v-2h-4v-2h-2v-4h-2V4h-6v2h-10v2h-4V6h-12V4h-14V2h-10v2h-4v2h-12v2h-4V6h-8v2h-2v2h-2v2h-2v2h-2v2h-2v2h-2v2h-2v2h-2v2h-4v2h-2v2h-10v2h-2v2h-4v2h-2v2h-2v2h-8v2h-4v2h-8v2h-4v2h-2v2h-4v2h-8v4h-8v4h-4v2H40v2h-2v-2h-2v2h-2v2h-8v-4h-6v4h-2v2h-2v2h-2v2h-4v2H8v2H6v4H4v2H2v8h6v4h2v2h2v2h2v2h2v2h4v4h2v-6h4v4h-2v4h2v2h6v-6h2v-4h2v12h4v2h2v-2h2v4h2v4h6v-4h2v6h2v2h4v-2h2v-4h2v-4h4v2h-2v4h-2v6h8v2h2v2h4v2h8v4h4v-2h2v2h2v6h4v-2h6v2h8v2h2v2h2v-2h4v-2h4v-4h2v-2h12v2h-8v2h-2v4h2v2h2v2h2v2h2v2h2v-10h2v10h2v2h2v2h2v-2h2v-4h2v2h2v4h6v-4h2v-2h2v2h6v-2h4v-2h4v2h4v2h4v2h2v-2h2v-4h4v2h4v2h6v-2h2v2h2v4h6v-4h2v-2h2v4h2v2h2v-2h2v-2h2v-10h2v12h6v-6h4v-4h4v-2h2v-2h2v-2h2v-2h2v-4h-2v-2h-10v-2h14z"
    />
  </g>
  <path fill="#24523B" d="M138 140h2v2h-2zm88 0h-2v2h2z" />
  <path
    fill="#297621"
    d="M166 140h2v2h-2zm32 0h-2v2h2zm-24 0h2v2h-2zm16 0h-2v2h2z"
  />
  <path fill="#24523B" d="M138 142h2v2h-2zm88 0h-2v2h2z" />
  <path
    fill="#297621"
    d="M140 142h2v2h-2zm84 0h-2v2h2zm-74 0h2v2h-2zm64 0h-2v2h2zm-62 0h2v2h-2zm60 0h-2v2h2zm-46 0h2v2h-2zm32 0h-2v2h2zm-24 0h2v2h-2zm16 0h-2v2h2z"
  />
  <path fill="#24523B" d="M138 144h2v2h-2zm88 0h-2v2h2z" />
  <path
    fill="#297621"
    d="M140 144h2v2h-2zm84 0h-2v2h2zm-74 0h2v2h-2zm64 0h-2v2h2zm-50 0h2v2h-2zm36 0h-2v2h2zm-34 0h2v2h-2zm32 0h-2v2h2zm-26 0h2v2h-2zm20 0h-2v2h2zm-18 0h2v2h-2zm16 0h-2v2h2z"
  />
  <path fill="#24523B" d="M138 146h2v2h-2zm88 0h-2v2h2z" />
  <path
    fill="#297621"
    d="M140 146h2v2h-2zm84 0h-2v2h2zm-78 0h2v2h-2zm72 0h-2v2h2zm-70 0h2v2h-2zm68 0h-2v2h2zm-66 0h2v2h-2zm64 0h-2v2h2zm-62 0h2v2h-2zm60 0h-2v2h2zm-48 0h2v2h-2zm36 0h-2v2h2zm-34 0h2v2h-2zm32 0h-2v2h2zm-30 0h2v2h-2zm28 0h-2v2h2zm-26 0h2v2h-2zm24 0h-2v2h2z"
  />
  <path
    fill="#24523B"
    d="M172 146h2v2h-2zm20 0h-2v2h2zm-18 0h2v2h-2zm16 0h-2v2h2zm-52 2h2v2h-2zm88 0h-2v2h2z"
  />
  <path
    fill="#297621"
    d="M140 148h2v2h-2zm84 0h-2v2h2zm-82 0h2v2h-2zm80 0h-2v2h2zm-78 0h2v2h-2zm76 0h-2v2h2zm-74 0h2v2h-2zm72 0h-2v2h2z"
  />
  <path fill="#24523B" d="M148 148h2v2h-2zm68 0h-2v2h2z" />
  <path
    fill="#297621"
    d="M150 148h2v2h-2zm64 0h-2v2h2zm-62 0h2v2h-2zm60 0h-2v2h2zm-54 0h2v2h-2zm48 0h-2v2h2z"
  />
  <path fill="#24523B" d="M160 148h2v2h-2zm44 0h-2v2h2z" />
  <path
    fill="#297621"
    d="M162 148h2v2h-2zm40 0h-2v2h2zm-38 0h2v2h-2zm36 0h-2v2h2zm-34 0h2v2h-2zm32 0h-2v2h2z"
  />
  <path
    fill="#24523B"
    d="M168 148h2v2h-2zm28 0h-2v2h2zm-26 0h2v2h-2zm24 0h-2v2h2zm-22 0h2v2h-2zm0 2h2v2h-2zm6 0h2v2h-2zm14-2h-2v2h2zm0 2h-2v2h2zm-18-2h2v2h-2zm0 2h2v2h-2zm6 0h2v2h-2zm10-2h-2v2h2zm0 2h-2v2h2zm-52 0h2v2h-2zm88 0h-2v2h2zm-86 0h2v2h-2zm84 0h-2v2h2z"
  />
  <path
    fill="#297621"
    d="M142 150h2v2h-2zm80 0h-2v2h2zm-78 0h2v2h-2zm76 0h-2v2h2zm-74 0h2v2h-2zm72 0h-2v2h2z"
  />
  <path
    fill="#24523B"
    d="M148 150h2v2h-2zm68 0h-2v2h2zm-66 0h2v2h-2zm64 0h-2v2h2z"
  />
  <path
    fill="#297621"
    d="M152 150h2v2h-2zm60 0h-2v2h2zm-58 0h2v2h-2zm56 0h-2v2h2zm-54 0h2v2h-2zm52 0h-2v2h2z"
  />
  <path
    fill="#24523B"
    d="M158 150h2v2h-2zm48 0h-2v2h2zm-46 0h2v2h-2zm44 0h-2v2h2zm-42 0h2v2h-2zm40 0h-2v2h2zm-38 0h2v2h-2zm36 0h-2v2h2zm-34 0h2v2h-2zm32 0h-2v2h2zm-30 0h2v2h-2zm28 0h-2v2h2zm-26 0h2v2h-2zm6 0h2v2h-2zm18 0h-2v2h2zm-54 2h2v2h-2zm84 0h-2v2h2zm2 0h-2v2h2zm-84 0h2v2h-2zm80 0h-2v2h2z"
  />
  <path fill="#297621" d="M144 152h2v2h-2zm76 0h-2v2h2z" />
  <path
    fill="#24523B"
    d="M146 152h2v2h-2zm72 0h-2v2h2zm-70 0h2v2h-2zm68 0h-2v2h2zm-66 0h2v2h-2zm64 0h-2v2h2z"
  />
  <path
    fill="#297621"
    d="M152 152h2v2h-2zm60 0h-2v2h2zm-58 0h2v2h-2zm56 0h-2v2h2zm-54 0h2v2h-2zm52 0h-2v2h2z"
  />
  <path
    fill="#24523B"
    d="M158 152h2v2h-2zm48 0h-2v2h2zm-46 0h2v2h-2zm44 0h-2v2h2zm-42 0h2v2h-2zm40 0h-2v2h2zm-38 0h2v2h-2zm36 0h-2v2h2zm-34 0h2v2h-2zm32 0h-2v2h2zm-30 0h2v2h-2zm28 0h-2v2h2zm-26 0h2v2h-2zm24 0h-2v2h2zm-52 2h2v2h-2zm80 0h-2v2h2zm-78 0h2v2h-2zm76 0h-2v2h2zm-74 0h2v2h-2zm72 0h-2v2h2zm-70 0h2v2h-2zm68 0h-2v2h2zm-66 0h2v2h-2zm64 0h-2v2h2zm-62 0h2v2h-2zm60 0h-2v2h2zm-58 0h2v2h-2zm56 0h-2v2h2zm-54 0h2v2h-2zm52 0h-2v2h2zm-50 0h2v2h-2zm48 0h-2v2h2zm-46 0h2v2h-2zm44 0h-2v2h2zm-42 0h2v2h-2zm40 0h-2v2h2zm-38 0h2v2h-2zm36 0h-2v2h2zm-34 0h2v2h-2zm32 0h-2v2h2zm-46 2h2v2h-2zm60 0h-2v2h2zm-58 0h2v2h-2zm56 0h-2v2h2z"
  />
  <path
    fill="#297621"
    d="M228 126h2v2h-2zm2 0h2v2h-2zm2 0h2v2h-2zm2 0h2v2h-2z"
  />
  <path
    fill="#24523B"
    d="M236 126h2v2h-2zm2 0h2v2h-2zm2 0h2v2h-2zm2 0h2v2h-2zm2 0h2v2h-2zm2 0h2v2h-2zm2 0h2v2h-2z"
  />
  <path
    fill="#297621"
    d="M226 128h2v2h-2zm2 0h2v2h-2zm2 0h2v2h-2zm2 0h2v2h-2zm8 0h2v2h-2zm2 0h2v2h-2zm2 0h2v2h-2z"
  />
  <path fill="#24523B" d="M246 128h2v2h-2zm2 0h2v2h-2zm2 0h2v2h-2z" />
  <path fill="#297621" d="M244 130h2v2h-2zm2 0h2v2h-2z" />
  <path fill="#24523B" d="M248 130h2v2h-2zm2 0h2v2h-2z" />
  <path fill="#297621" d="M244 132h2v2h-2zm2 0h2v2h-2z" />
  <path fill="#24523B" d="M248 132h2v2h-2zm2 0h2v2h-2z" />
  <path fill="#297621" d="M244 134h2v2h-2z" />
  <path
    fill="#24523B"
    d="M246 134h2v2h-2zm2 0h2v2h-2zm-4 2h2v2h-2zm2 0h2v2h-2z"
  />
  <path fill="#297621" d="M230 138h2v2h-2zm2 0h2v2h-2zm2 0h2v2h-2z" />
  <path fill="#24523B" d="M242 138h2v2h-2zm2 0h2v2h-2z" />
  <path fill="#297621" d="M232 140h2v2h-2zm2 0h2v2h-2z" />
  <path fill="#24523B" d="M240 140h2v2h-2zm2 0h2v2h-2z" />
  <path fill="#297621" d="M234 142h2v2h-2z" />
  <path
    fill="#24523B"
    d="M236 142h2v2h-2zm2 0h2v2h-2zm2 0h2v2h-2zm-4 2h2v2h-2zm-4 2h2v2h-2zm2 0h2v2h-2zm2 0h2v2h-2z"
  />
  <path fill="#297621" d="M228 148h2v2h-2zm2 0h2v2h-2z" />
  <path fill="#24523B" d="M232 148h2v2h-2z" />
  <path fill="#297621" d="M226 150h2v2h-2zm2 0h2v2h-2zm2 0h2v2h-2z" />
  <path
    fill="#24523B"
    d="M232 150h2v2h-2zm-6 2h2v2h-2zm2 0h2v2h-2zm2 0h2v2h-2zm2 0h2v2h-2zm-56-4h2v2h-2zm2 0h2v2h-2z"
  />
  <path fill="#297621" d="M180 148h2v2h-2zm2 0h2v2h-2zm2 0h2v2h-2z" />
  <path fill="#24523B" d="M182 150h2v2h-2z" />
  <path fill="#297621" d="M184 150h2v2h-2z" />
  <path
    fill="#24523B"
    d="M186 150h2v2h-2zm-4 2h2v2h-2zm2 0h2v2h-2zm2 0h2v2h-2zm2 0h2v2h-2zm2 0h2v2h-2z"
  />
  <path
    fill="#297621"
    d="M278 126h2v2h-2zm-10 2h2v2h-2zm10 0h2v2h-2zm-10 2h2v2h-2zm2 0h2v2h-2z"
  />
  <path
    fill="#24523B"
    d="M272 130h2v2h-2zm2 0h2v2h-2zm0 2h2v2h-2zm2-2h2v2h-2z"
  />
  <path fill="#297621" d="M278 130h2v2h-2zm2 0h2v2h-2z" />
  <path fill="#24523B" d="M252 132h2v2h-2zm2 0h2v2h-2z" />
  <path fill="#297621" d="M256 132h2v2h-2z" />
  <path fill="#24523B" d="M256 134h2v2h-2z" />
  <path fill="#297621" d="M258 132h2v2h-2zm2 0h2v2h-2z" />
  <path
    fill="#24523B"
    d="M264 132h2v2h-2zm2 0h2v2h-2zm2 0h2v2h-2zm2 0h2v2h-2zm2 0h2v2h-2zm4 0h2v2h-2zm2 0h2v2h-2zm2 0h2v2h-2zm-22 2h2v2h-2z"
  />
  <path fill="#297621" d="M260 134h2v2h-2z" />
  <path fill="#24523B" d="M262 134h2v2h-2zm2 0h2v2h-2z" />
  <path fill="#1F1F1F" d="M268 134h2v2h-2z" />
  <path fill="#24523B" d="M258 136h2v2h-2zm2 0h2v2h-2zm2 0h2v2h-2z" />
  <path
    fill="#297621"
    d="M296 112h2v2h-2zm0 2h2v2h-2zm2 0h2v2h-2zm2 0h2v2h-2zm-2 2h2v2h-2zm2 0h2v2h-2z"
  />
  <path
    fill="#24523B"
    d="M304 116h2v2h-2zm2 0h2v2h-2zm2 0h2v2h-2zm2 0h2v2h-2z"
  />
  <path fill="#297621" d="M300 118h2v2h-2z" />
  <path fill="#24523B" d="M302 118h2v2h-2zm2 0h2v2h-2z" />
  <path fill="#297621" d="M280 120h2v2h-2z" />
  <path fill="#24523B" d="M298 120h2v2h-2zm2 0h2v2h-2zm2 0h2v2h-2z" />
  <path fill="#297621" d="M280 122h2v2h-2zm2 0h2v2h-2z" />
  <path
    fill="#24523B"
    d="M290 122h2v2h-2zm2 0h2v2h-2zm2 0h2v2h-2zm2 0h2v2h-2zm2 0h2v2h-2z"
  />
  <path fill="#297621" d="M282 124h2v2h-2z" />
  <path
    fill="#24523B"
    d="M284 124h2v2h-2zm6 0h2v2h-2zm-6 2h2v2h-2zm-2 0h2v2h-2zm0 2h2v2h-2zm0 2h2v2h-2zm4-4h2v2h-2zm2 0h2v2h-2zm2 0h2v2h-2z"
  />
  <path
    fill="#297621"
    d="M348 86h2v2h-2zm-10 2h2v2h-2zm10 0h2v2h-2zm2 0h2v2h-2zm-12 2h2v2h-2z"
  />
  <path
    fill="#24523B"
    d="M340 90h2v2h-2zm10 0h2v2h-2zm2 0h2v2h-2zm-12 2h2v2h-2zm10 0h2v2h-2zm2 0h2v2h-2z"
  />
  <path fill="#297621" d="M330 94h2v2h-2z" />
  <path fill="#24523B" d="M340 94h2v2h-2zm2 0h2v2h-2z" />
  <path fill="#297621" d="M350 94h2v2h-2z" />
  <path fill="#24523B" d="M352 94h2v2h-2z" />
  <path fill="#297621" d="M326 96h2v2h-2zm4 0h2v2h-2zm6 0h2v2h-2z" />
  <path fill="#24523B" d="M340 96h2v2h-2zm2 0h2v2h-2z" />
  <path fill="#297621" d="M346 96h2v2h-2zm2 0h2v2h-2zm2 0h2v2h-2z" />
  <path fill="#24523B" d="M352 96h2v2h-2z" />
  <path
    fill="#297621"
    d="M326 98h2v2h-2zm2 0h2v2h-2zm2 0h2v2h-2zm6 0h2v2h-2zm2 0h2v2h-2z"
  />
  <path fill="#24523B" d="M340 98h2v2h-2zm2 0h2v2h-2z" />
  <path fill="#297621" d="M344 98h2v2h-2zm2 0h2v2h-2zm2 0h2v2h-2z" />
  <path fill="#24523B" d="M350 98h2v2h-2zm2 0h2v2h-2z" />
  <path
    fill="#297621"
    d="M326 100h2v2h-2zm2 0h2v2h-2zm2 0h2v2h-2zm4 0h2v2h-2zm2 0h2v2h-2zm2 0h2v2h-2z"
  />
  <path
    fill="#24523B"
    d="M340 100h2v2h-2zm2 0h2v2h-2zm2 0h2v2h-2zm2 0h2v2h-2zm2 0h2v2h-2zm2 0h2v2h-2z"
  />
  <path fill="#297621" d="M328 102h2v2h-2zm2 0h2v2h-2z" />
  <path fill="#24523B" d="M332 102h2v2h-2z" />
  <path fill="#297621" d="M334 102h2v2h-2z" />
  <path
    fill="#24523B"
    d="M336 102h2v2h-2zm2 0h2v2h-2zm2 0h2v2h-2zm-32 2h2v2h-2zm2 0h2v2h-2z"
  />
  <path
    fill="#297621"
    d="M312 104h2v2h-2zm8 0h2v2h-2zm8 0h2v2h-2zm2 0h2v2h-2z"
  />
  <path
    fill="#24523B"
    d="M332 104h2v2h-2zm2 0h2v2h-2zm2 0h2v2h-2zm2 0h2v2h-2zm-28 2h2v2h-2z"
  />
  <path fill="#297621" d="M312 106h2v2h-2zm2 0h2v2h-2zm6 0h2v2h-2z" />
  <path fill="#24523B" d="M322 106h2v2h-2z" />
  <path fill="#297621" d="M328 106h2v2h-2z" />
  <path
    fill="#24523B"
    d="M330 106h2v2h-2zm2 0h2v2h-2zm-22 2h2v2h-2zm2 0h2v2h-2z"
  />
  <path fill="#297621" d="M314 108h2v2h-2zm6 0h2v2h-2z" />
  <path fill="#24523B" d="M322 108h2v2h-2z" />
  <path fill="#297621" d="M324 108h2v2h-2zm2 0h2v2h-2zm2 0h2v2h-2z" />
  <path fill="#24523B" d="M330 108h2v2h-2zm2 0h2v2h-2zm-20 2h2v2h-2z" />
  <path
    fill="#297621"
    d="M314 110h2v2h-2zm2 0h2v2h-2zm2 0h2v2h-2zm2 0h2v2h-2z"
  />
  <path
    fill="#24523B"
    d="M322 110h2v2h-2zm2 0h2v2h-2zm2 0h2v2h-2zm2 0h2v2h-2zm2 0h2v2h-2zm-18 2h2v2h-2zm2 0h2v2h-2z"
  />
  <path fill="#297621" d="M316 112h2v2h-2zm2 0h2v2h-2z" />
  <path
    fill="#24523B"
    d="M320 112h2v2h-2zm2 0h2v2h-2zm-8 2h2v2h-2zm-2 0h2v2h-2zm4 0h2v2h-2zm2 0h2v2h-2zm32-48h2v2h-2zm2 0h2v2h-2zm2 0h2v2h-2zm-2 2h2v2h-2zm2 0h2v2h-2zm2 0h2v2h-2zm0 2h2v2h-2zm0 2h2v2h-2zm2 2h2v2h-2z"
  />
  <path
    fill="#297621"
    d="M348 76h2v2h-2zm2 0h2v2h-2zm2 0h2v2h-2zm2 0h2v2h-2z"
  />
  <path
    fill="#24523B"
    d="M356 76h2v2h-2zm2 0h2v2h-2zm2 0h2v2h-2zm2 0h2v2h-2zm2 0h2v2h-2zm2 0h2v2h-2zm2 0h2v2h-2z"
  />
  <path
    fill="#297621"
    d="M344 78h2v2h-2zm2 0h2v2h-2zm2 0h2v2h-2zm2 0h2v2h-2zm2 0h2v2h-2zm8 0h2v2h-2zm2 0h2v2h-2zm2 0h2v2h-2z"
  />
  <path fill="#24523B" d="M366 78h2v2h-2zm2 0h2v2h-2zm2 0h2v2h-2z" />
  <path fill="#297621" d="M364 80h2v2h-2zm2 0h2v2h-2z" />
  <path fill="#24523B" d="M368 80h2v2h-2zm2 0h2v2h-2z" />
  <path fill="#297621" d="M364 82h2v2h-2zm2 0h2v2h-2z" />
  <path fill="#24523B" d="M368 82h2v2h-2zm2 0h2v2h-2z" />
  <path fill="#297621" d="M364 84h2v2h-2z" />
  <path
    fill="#24523B"
    d="M366 84h2v2h-2zm2 0h2v2h-2zm-4 2h2v2h-2zm2 0h2v2h-2z"
  />
  <path fill="#297621" d="M354 88h2v2h-2z" />
  <path fill="#24523B" d="M362 88h2v2h-2zm2 0h2v2h-2z" />
  <path fill="#297621" d="M354 90h2v2h-2z" />
  <path fill="#24523B" d="M360 90h2v2h-2zm2 0h2v2h-2z" />
  <path fill="#297621" d="M354 92h2v2h-2z" />
  <path
    fill="#24523B"
    d="M356 92h2v2h-2zm2 0h2v2h-2zm2 0h2v2h-2zm-4 2h2v2h-2zm-2 2h2v2h-2zm2 0h2v2h-2zm-218 38h-2v2h2zm-2 0h-2v2h2zm-2 0h-2v2h2zm-2 0h-2v2h2zm-2 0h-2v2h2zm-2 0h-2v2h2z"
  />
  <path fill="#297621" d="M136 136h-2v2h2zm-2 0h-2v2h2zm-2 0h-2v2h2z" />
  <path fill="#24523B" d="M130 136h-2v2h2zm-2 0h-2v2h2zm-2 0h-2v2h2z" />
  <path fill="#297621" d="M132 138h-2v2h2zm-2 0h-2v2h2z" />
  <path fill="#24523B" d="M128 138h-2v2h2zm-2 0h-2v2h2z" />
  <path fill="#297621" d="M132 140h-2v2h2zm-2 0h-2v2h2z" />
  <path fill="#24523B" d="M128 140h-2v2h2zm-2 0h-2v2h2z" />
  <path fill="#297621" d="M132 142h-2v2h2z" />
  <path
    fill="#24523B"
    d="M130 142h-2v2h2zm-2 0h-2v2h2zm4 2h-2v2h2zm-2 0h-2v2h2zm4 2h-2v2h2zm-2 0h-2v2h2zm4 2h-2v2h2zm-2 0h-2v2h2zm4 2h-2v2h2zm-2 0h-2v2h2z"
  />
  <path
    fill="#297621"
    d="M98 134h-2v2h2zm10 2h-2v2h2zm-10 0h-2v2h2zm10 2h-2v2h2zm-2 0h-2v2h2z"
  />
  <path
    fill="#24523B"
    d="M104 138h-2v2h2zm-2 0h-2v2h2zm0 2h-2v2h2zm-2-2h-2v2h2z"
  />
  <path fill="#297621" d="M98 138h-2v2h2zm-2 0h-2v2h2z" />
  <path fill="#24523B" d="M124 140h-2v2h2zm-2 0h-2v2h2z" />
  <path fill="#297621" d="M120 140h-2v2h2z" />
  <path fill="#24523B" d="M120 142h-2v2h2z" />
  <path fill="#297621" d="M118 140h-2v2h2zm-2 0h-2v2h2z" />
  <path
    fill="#24523B"
    d="M112 140h-2v2h2zm-2 0h-2v2h2zm-2 0h-2v2h2zm-2 0h-2v2h2zm-2 0h-2v2h2zm-4 0h-2v2h2zm-2 0h-2v2h2zm-2 0h-2v2h2zm22 2h-2v2h2z"
  />
  <path fill="#297621" d="M116 142h-2v2h2z" />
  <path
    fill="#24523B"
    d="M114 142h-2v2h2zm-2 0h-2v2h2zm-4 0h-2v2h2zm10 2h-2v2h2zm-2 0h-2v2h2zm-2 0h-2v2h2z"
  />
  <path
    fill="#297621"
    d="M80 120h-2v2h2zm0 2h-2v2h2zm-2 0h-2v2h2zm-2 0h-2v2h2zm2 2h-2v2h2zm-2 0h-2v2h2z"
  />
  <path
    fill="#24523B"
    d="M72 124h-2v2h2zm-2 0h-2v2h2zm-2 0h-2v2h2zm-2 0h-2v2h2z"
  />
  <path fill="#297621" d="M76 126h-2v2h2z" />
  <path fill="#24523B" d="M74 126h-2v2h2zm-2 0h-2v2h2z" />
  <path fill="#297621" d="M96 128h-2v2h2z" />
  <path fill="#24523B" d="M78 128h-2v2h2zm-2 0h-2v2h2zm-2 0h-2v2h2z" />
  <path fill="#297621" d="M96 130h-2v2h2zm-2 0h-2v2h2z" />
  <path
    fill="#24523B"
    d="M86 130h-2v2h2zm-2 0h-2v2h2zm-2 0h-2v2h2zm-2 0h-2v2h2zm-2 0h-2v2h2z"
  />
  <path fill="#297621" d="M94 132h-2v2h2z" />
  <path
    fill="#24523B"
    d="M92 132h-2v2h2zm-6 0h-2v2h2zm6 2h-2v2h2zm2 0h-2v2h2zm0 2h-2v2h2zm0 2h-2v2h2zm-4-4h-2v2h2zm-2 0h-2v2h2zm-2 0h-2v2h2z"
  />
  <path
    fill="#297621"
    d="M28 94h-2v2h2zm10 2h-2v2h2zm-10 0h-2v2h2zm-2 0h-2v2h2zm12 2h-2v2h2z"
  />
  <path
    fill="#24523B"
    d="M36 98h-2v2h2zm-10 0h-2v2h2zm-2 0h-2v2h2zm12 2h-2v2h2zm-10 0h-2v2h2zm-2 0h-2v2h2z"
  />
  <path fill="#297621" d="M46 102h-2v2h2z" />
  <path fill="#24523B" d="M36 102h-2v2h2zm-2 0h-2v2h2z" />
  <path fill="#297621" d="M26 102h-2v2h2z" />
  <path fill="#24523B" d="M24 102h-2v2h2z" />
  <path fill="#297621" d="M50 104h-2v2h2zm-4 0h-2v2h2zm-6 0h-2v2h2z" />
  <path fill="#24523B" d="M36 104h-2v2h2zm-2 0h-2v2h2z" />
  <path fill="#297621" d="M30 104h-2v2h2zm-2 0h-2v2h2zm-2 0h-2v2h2z" />
  <path fill="#24523B" d="M24 104h-2v2h2z" />
  <path
    fill="#297621"
    d="M50 106h-2v2h2zm-2 0h-2v2h2zm-2 0h-2v2h2zm-6 0h-2v2h2zm-2 0h-2v2h2z"
  />
  <path fill="#24523B" d="M36 106h-2v2h2zm-2 0h-2v2h2z" />
  <path fill="#297621" d="M32 106h-2v2h2zm-2 0h-2v2h2zm-2 0h-2v2h2z" />
  <path fill="#24523B" d="M26 106h-2v2h2zm-2 0h-2v2h2z" />
  <path
    fill="#297621"
    d="M50 108h-2v2h2zm-2 0h-2v2h2zm-2 0h-2v2h2zm-4 0h-2v2h2zm-2 0h-2v2h2zm-2 0h-2v2h2z"
  />
  <path
    fill="#24523B"
    d="M36 108h-2v2h2zm-2 0h-2v2h2zm-2 0h-2v2h2zm-2 0h-2v2h2zm-2 0h-2v2h2zm-2 0h-2v2h2z"
  />
  <path fill="#297621" d="M48 110h-2v2h2zm-2 0h-2v2h2z" />
  <path fill="#24523B" d="M44 110h-2v2h2z" />
  <path fill="#297621" d="M42 110h-2v2h2z" />
  <path
    fill="#24523B"
    d="M40 110h-2v2h2zm-2 0h-2v2h2zm-2 0h-2v2h2zm32 2h-2v2h2zm-2 0h-2v2h2z"
  />
  <path
    fill="#297621"
    d="M64 112h-2v2h2zm-8 0h-2v2h2zm-8 0h-2v2h2zm-2 0h-2v2h2z"
  />
  <path
    fill="#24523B"
    d="M44 112h-2v2h2zm-2 0h-2v2h2zm-2 0h-2v2h2zm-2 0h-2v2h2zm28 2h-2v2h2z"
  />
  <path fill="#297621" d="M64 114h-2v2h2zm-2 0h-2v2h2zm-6 0h-2v2h2z" />
  <path fill="#24523B" d="M54 114h-2v2h2z" />
  <path fill="#297621" d="M48 114h-2v2h2z" />
  <path
    fill="#24523B"
    d="M46 114h-2v2h2zm-2 0h-2v2h2zm22 2h-2v2h2zm-2 0h-2v2h2z"
  />
  <path fill="#297621" d="M62 116h-2v2h2zm-6 0h-2v2h2z" />
  <path fill="#24523B" d="M54 116h-2v2h2z" />
  <path fill="#297621" d="M52 116h-2v2h2zm-2 0h-2v2h2zm-2 0h-2v2h2z" />
  <path fill="#24523B" d="M46 116h-2v2h2zm-2 0h-2v2h2zm20 2h-2v2h2z" />
  <path
    fill="#297621"
    d="M62 118h-2v2h2zm-2 0h-2v2h2zm-2 0h-2v2h2zm-2 0h-2v2h2z"
  />
  <path
    fill="#24523B"
    d="M54 118h-2v2h2zm-2 0h-2v2h2zm-2 0h-2v2h2zm-2 0h-2v2h2zm-2 0h-2v2h2zm18 2h-2v2h2zm-2 0h-2v2h2z"
  />
  <path fill="#297621" d="M60 120h-2v2h2zm-2 0h-2v2h2z" />
  <path
    fill="#24523B"
    d="M56 120h-2v2h2zm-2 0h-2v2h2zm8 2h-2v2h2zm2 0h-2v2h2zm-4 0h-2v2h2zm-2 0h-2v2h2z"
  />
  <path fill="#297621" d="M12 88h-2v2h2zm-4-2H6v2h2zm2 2H8v2h2zm-4-2H4v2h2z" />
  <path fill="#24523B" d="M8 88H6v2h2zm-2 0H4v2h2z" />
  <path fill="#297621" d="M12 90h-2v2h2zm-2 0H8v2h2z" />
  <path fill="#24523B" d="M8 90H6v2h2zm-2 0H4v2h2z" />
  <path fill="#297621" d="M12 92h-2v2h2z" />
  <path fill="#24523B" d="M10 92H8v2h2zm-2 0H6v2h2zm4 2h-2v2h2zm-2 0H8v2h2z" />
  <path fill="#297621" d="M22 96h-2v2h2z" />
  <path fill="#24523B" d="M14 96h-2v2h2zm-2 0h-2v2h2z" />
  <path fill="#297621" d="M22 98h-2v2h2z" />
  <path fill="#24523B" d="M16 98h-2v2h2zm-2 0h-2v2h2z" />
  <path fill="#297621" d="M22 100h-2v2h2z" />
  <path
    fill="#24523B"
    d="M20 100h-2v2h2zm-2 0h-2v2h2zm-2 0h-2v2h2zm4 2h-2v2h2zm2 2h-2v2h2zm-2 0h-2v2h2zm336-38h-2v2h2zm-2 0h-2v2h2zm4 2h-2v2h2zm-2 0h-2v2h2zm4 2h-2v2h2zm-2 0h-2v2h2zm4 2h-2v2h2zm-2 0h-2v2h2zm4 2h-2v2h2zm-2 0h-2v2h2zm6 2h-2v2h2zm-2 0h-2v2h2zm4 0h-2v2h2zm-38-10h-2v2h2zm20 0h-2v2h2zm-12 0h-2v2h2zm-4 0h-2v2h2zm-2 0h-2v2h2zm-4 0h-2v2h2zm-2 0h-2v2h2zm-2 0h-2v2h2zm-2-2h-2v2h2zm18 4h-2v2h2zm-4 0h-2v2h2zm10 2h-2v2h2zm2 0h-2v2h2zm0-2h-2v2h2zm-4 2h-2v2h2zm-2 0h-2v2h2zm-44-20h-2v2h2zm-2 0h-2v2h2zm-2 0h-2v2h2zm6 2h-2v2h2zm-2 0h-2v2h2zm6 2h-2v2h2zm-2 0h-2v2h2zm-2 0h-2v2h2zm12 2h-2v2h2zm-2 0h-2v2h2zm-2 0h-2v2h2zm-2 0h-2v2h2zm-2 0h-2v2h2zm8 2h-2v2h2zm6 2h-2v2h2zm2 0h-2v2h2zm0 2h-2v2h2zm0 2h-2v2h2zm-4-4h-2v2h2zm-2 0h-2v2h2zm-2 0h-2v2h2zm-60-28h-2v2h2zm10 2h-2v2h2zm-2 0h-2v2h2zm-2 0h-2v2h2zm-2 0h-2v2h2zm-2 0h-2v2h2zm10 2h-2v2h2zm6 2h-2v2h2zm-2 0h-2v2h2zm-2 0h-2v2h2zm4 2h-2v2h2zm2 2h-2v2h2zm8 2h-2v2h2zm-2 0h-2v2h2zm-2 0h-2v2h2zm-2 0h-2v2h2zm10 2h-2v2h2zm-2 0h-2v2h2zm8 2h-2v2h2zm2 0h-2v2h2zm-4 0h-2v2h2zm-2 0h-2v2h2zm-52-32h-2v2h2zm2 2h-2v2h2zm2 2h-2v2h2zm2 2h-2v2h2zm2 2h-2v2h2zm4 2h-2v2h2zm-2 0h-2v2h2zm6 4h-2v2h2zm-2 0h-2v2h2zm-2-2h-2v2h2zM172 0h2v2h-2zm6 0h2v2h-2zm-4 0h2v2h-2zm6 0h2v2h-2zm-4 0h2v2h-2zm48 2h-2v2h2zm2 0h-2v2h2zm-58 0h2v2h-2zm28 0h-2v2h2zm-26 0h2v2h-2zm24 0h-2v2h2zm-52 2h2v2h-2zm0 2h2v2h-2zm80-2h-2v2h2zm-78 0h2v2h-2zm76 0h-2v2h2zm-74 0h2v2h-2zm72 0h-2v2h2zm-70 0h2v2h-2zm68 0h-2v2h2zm-66 0h2v2h-2zm64 0h-2v2h2zm-58 0h2v2h-2zm52 0h-2v2h2zm-50 0h2v2h-2zm48 0h-2v2h2zm-46 0h2v2h-2zm44 0h-2v2h2zm-42 0h2v2h-2zm40 0h-2v2h2zm-38 0h2v2h-2zm36 0h-2v2h2zm-34 0h2v2h-2zm32 0h-2v2h2zm-46 2h2v2h-2zm60 0h-2v2h2zm-58 0h2v2h-2zm56 0h-2v2h2zm16-4h2v2h-2zm2 0h2v2h-2zm0 2h2v2h-2zm0 2h2v2h-2zm0 2h2v2h-2zm0 2h2v2h-2zm-46-8h2v2h-2zm2 0h2v2h-2zm2 0h2v2h-2zm2 0h2v2h-2zm2 0h2v2h-2zm40 10h2v2h-2zm0 2h2v2h-2zm2 2h2v2h-2zM18 60h2v2h-2zm2-2h2v2h-2zm-4 4h2v2h-2zm2 0h2v2h-2zm-4 2h2v2h-2zm2 0h2v2h-2zm-4 2h2v2h-2zm2 0h2v2h-2zm-4 2h2v2h-2zm2 0h2v2h-2zm-4 2h2v2H8zm-2 2h2v2H6zm2-4h2v2H8zm-4 4h2v2H4zm0 2h2v2H4zm0 2h2v2H4zm-2 2h2v2H2zm42-20h2v2h-2zm-22 0h2v2h-2zm2 0h2v2h-2zm12 0h2v2h-2zm4 0h2v2h-2zm2 0h2v2h-2zm4 0h2v2h-2zm2 0h2v2h-2zm2 0h2v2h-2zm2-2h2v2h-2zm-18 4h2v2h-2zm4 0h2v2h-2zm-10 2h2v2h-2zm-2 0h2v2h-2zm0-2h2v2h-2zm4 2h2v2h-2zm2 0h2v2h-2zm44-20h2v2h-2zm2 0h2v2h-2zm2 0h2v2h-2zm-6 2h2v2h-2zm2 0h2v2h-2zm-6 2h2v2h-2zm2 0h2v2h-2zm2 0h2v2h-2zm-12 2h2v2h-2zm2 0h2v2h-2zm2 0h2v2h-2zm2 0h2v2h-2zm2 0h2v2h-2zm-8 2h2v2h-2zm-6 2h2v2h-2zm-2 0h2v2h-2zm0 2h2v2h-2zm0 2h2v2h-2zm4-4h2v2h-2zm2 0h2v2h-2zm2 0h2v2h-2zm60-28h2v2h-2zm-10 2h2v2h-2zm2 0h2v2h-2zm2 0h2v2h-2zm2 0h2v2h-2zm2 0h2v2h-2zm-10 2h2v2h-2zm-6 2h2v2h-2zm2 0h2v2h-2zm2 0h2v2h-2zm-4 2h2v2h-2zm-2 2h2v2h-2zm-8 2h2v2h-2zm2 0h2v2h-2zm2 0h2v2h-2zm2 0h2v2h-2zm-10 2h2v2h-2zm2 0h2v2h-2zm-8 2h2v2h-2zm-2 0h2v2h-2zm4 0h2v2h-2zm2 0h2v2h-2zm48-28h2v2h-2zm-2 2h2v2h-2zm-2 2h2v2h-2zm-4 2h2v2h-2zm2 0h2v2h-2zm-6 4h2v2h-2zm2 0h2v2h-2zm2-2h2v2h-2zM0 78h2v2H0zm0 2h2v2H0zm0 2h2v2H0zm0 2h2v2H0zm0 2h2v2H0zm2 2h2v2H2zm0 2h2v2H2zM140 8h2v2h-2zm-2 2h2v2h-2z"
  />
  <path
    fill="#949460"
    d="M152 30h2v2h-2zm2 0h2v2h-2zm2 0h2v2h-2zm2 0h2v2h-2zm-8 2h2v2h-2zm2 0h2v2h-2zm2 0h2v2h-2zm2 0h2v2h-2zm2 0h2v2h-2z"
  />
  <path fill="#645D48" d="M160 32h2v2h-2z" />
  <path fill="#949460" d="M144 34h2v2h-2zm2 0h2v2h-2zm2 0h2v2h-2z" />
  <path fill="#5B5344" d="M150 34h2v2h-2zm2 0h2v2h-2z" />
  <path fill="#949460" d="M154 34h2v2h-2zm2 0h2v2h-2z" />
  <path fill="#645D48" d="M158 34h2v2h-2zm2 0h2v2h-2z" />
  <path
    fill="#949460"
    d="M142 36h2v2h-2zm2 0h2v2h-2zm2 0h2v2h-2zm2 0h2v2h-2zm2 0h2v2h-2z"
  />
  <path fill="#362E24" d="M152 36h2v2h-2z" />
  <path fill="#5B5344" d="M154 36h2v2h-2zm2 0h2v2h-2z" />
  <path fill="#645D48" d="M158 36h2v2h-2zm2 0h2v2h-2z" />
  <path fill="#24523B" d="M162 36h2v2h-2z" />
  <path fill="#807D4E" d="M142 38h2v2h-2zm2 0h2v2h-2z" />
  <path fill="#949460" d="M146 38h2v2h-2zm2 0h2v2h-2z" />
  <path fill="#24523B" d="M150 38h2v2h-2z" />
  <path
    fill="#362E24"
    d="M152 38h2v2h-2zm2 0h2v2h-2zm2 0h2v2h-2zm2 0h2v2h-2z"
  />
  <path fill="#5B5344" d="M160 38h2v2h-2z" />
  <path fill="#24523B" d="M162 38h2v2h-2z" />
  <path fill="#645D48" d="M144 40h2v2h-2zm2 0h2v2h-2zm2 0h2v2h-2z" />
  <path fill="#24523B" d="M150 40h2v2h-2zm2 0h2v2h-2z" />
  <path fill="#362E24" d="M154 40h2v2h-2z" />
  <path
    fill="#24523B"
    d="M156 40h2v2h-2zm2 0h2v2h-2zm2 0h2v2h-2zm2 0h2v2h-2zm2 0h2v2h-2zm-20 2h2v2h-2zm2 0h2v2h-2zm2 0h2v2h-2zm2 0h2v2h-2zm2 0h2v2h-2zm2 0h2v2h-2zm2 0h2v2h-2zm2 0h2v2h-2zm2 0h2v2h-2zm2 0h2v2h-2zm-14 2h2v2h-2zm2 0h2v2h-2zm2 0h2v2h-2zm2 0h2v2h-2zm2 0h2v2h-2zm2 0h2v2h-2zm2 0h2v2h-2zm2 0h2v2h-2z"
  />
  <path
    d="M234 50h4v2h-4zm4 2h8v2h-8zm6-2h8v2h-8zm-2 4h2v2h-2zm10 62h2v2h-2zm6-2h2v2h-2zm6 0h2v2h-2zm-12 0h4v2h-4zm8-4h4v2h-4zm-6 2h12v2h-12zm-42-98h4v2h-4zm8-2h4v2h-4zm-2 2h4v2h-4zm-2 4h4v2h-4zm0 2h4v2h-4zm-2-4h6v2h-6z"
    fill="#297621"
  />
  <path fill="#807D4E" d="M136 38h2v2h-2zm2 0h2v2h-2zm2 0h2v2h-2z" />
  <path fill="#949460" d="M134 40h2v2h-2zm2 0h2v2h-2z" />
  <path fill="#807D4E" d="M138 40h2v2h-2z" />
  <path fill="#362E24" d="M140 40h2v2h-2z" />
  <path fill="#5B5344" d="M142 40h2v2h-2z" />
  <path fill="#949460" d="M134 42h2v2h-2z" />
  <path fill="#5B5344" d="M136 42h2v2h-2z" />
  <path fill="#362E24" d="M138 42h2v2h-2zm2 0h2v2h-2z" />
  <path fill="#5B5344" d="M142 42h2v2h-2z" />
  <path
    fill="#24523B"
    d="M136 44h2v2h-2zm-2 0h2v2h-2zm4 0h2v2h-2zm2 0h2v2h-2zm2 0h2v2h-2zm-2 2h2v2h-2zm-2 0h2v2h-2z"
  />
  <path
    d="M194 28h-2v2h2zm-2 0h-2v2h2zm-2 0h-2v2h2zm6 2h-2v2h2zm-6 0h-2v2h2zm-2 0h-2v2h2zm-2 0h-2v2h2zm10 2h-2v2h2zm-6 0h-2v2h2zm-4 0h-2v2h2zm4 2h-2v2h2z"
    fill="#297621"
  />
  <path
    fill="#949460"
    d="M192 100h2v2h-2zm2 0h2v2h-2zm2 0h2v2h-2zm2 0h2v2h-2zm2 0h2v2h-2z"
  />
  <path fill="#5B5344" d="M192 102h2v2h-2z" />
  <path
    fill="#949460"
    d="M194 102h2v2h-2zm2 0h2v2h-2zm2 0h2v2h-2zm2 0h2v2h-2zm2 0h2v2h-2z"
  />
  <path fill="#5B5344" d="M190 104h2v2h-2zm2 0h2v2h-2z" />
  <path
    fill="#949460"
    d="M194 104h2v2h-2zm2 0h2v2h-2zm2 0h2v2h-2zm2 0h2v2h-2zm2 0h2v2h-2zm2 0h2v2h-2zm2 0h2v2h-2zm-34 2h2v2h-2zm2 0h2v2h-2zm2 0h2v2h-2zm2 0h2v2h-2zm2 0h2v2h-2zm2 0h2v2h-2zm2 0h2v2h-2zm2 0h2v2h-2zm2 0h2v2h-2z"
  />
  <path fill="#5B5344" d="M190 106h2v2h-2zm2 0h2v2h-2zm2 0h2v2h-2z" />
  <path
    fill="#949460"
    d="M196 106h2v2h-2zm2 0h2v2h-2zm2 0h2v2h-2zm2 0h2v2h-2z"
  />
  <path fill="#807D4E" d="M204 106h2v2h-2zm2 0h2v2h-2zm2 0h2v2h-2z" />
  <path
    fill="#949460"
    d="M170 108h2v2h-2zm2 0h2v2h-2zm2 0h2v2h-2zm2 0h2v2h-2zm2 0h2v2h-2zm2 0h2v2h-2zm2 0h2v2h-2zm2 0h2v2h-2zm2 0h2v2h-2z"
  />
  <path
    fill="#5B5344"
    d="M188 108h2v2h-2zm2 0h2v2h-2zm2 0h2v2h-2zm2 0h2v2h-2z"
  />
  <path fill="#645D48" d="M196 108h2v2h-2z" />
  <path
    fill="#807D4E"
    d="M198 108h2v2h-2zm2 0h2v2h-2zm2 0h2v2h-2zm2 0h2v2h-2zm2 0h2v2h-2zm2 0h2v2h-2z"
  />
  <path
    fill="#949460"
    d="M168 110h2v2h-2zm2 0h2v2h-2zm2 0h2v2h-2zm2 0h2v2h-2zm2 0h2v2h-2zm2 0h2v2h-2zm2 0h2v2h-2zm2 0h2v2h-2zm2 0h2v2h-2z"
  />
  <path
    fill="#5B5344"
    d="M186 110h2v2h-2zm2 0h2v2h-2zm2 0h2v2h-2zm2 0h2v2h-2zm2 0h2v2h-2z"
  />
  <path fill="#645D48" d="M196 110h2v2h-2z" />
  <path
    fill="#807D4E"
    d="M198 110h2v2h-2zm2 0h2v2h-2zm2 0h2v2h-2zm2 0h2v2h-2zm2 0h2v2h-2z"
  />
  <path fill="#362E24" d="M208 110h2v2h-2zm2 0h2v2h-2z" />
  <path
    fill="#949460"
    d="M166 112h2v2h-2zm2 0h2v2h-2zm2 0h2v2h-2zm2 0h2v2h-2zm2 0h2v2h-2zm2 0h2v2h-2zm2 0h2v2h-2zm2 0h2v2h-2zm2 0h2v2h-2z"
  />
  <path
    fill="#5B5344"
    d="M184 112h2v2h-2zm2 0h2v2h-2zm2 0h2v2h-2zm2 0h2v2h-2zm2 0h2v2h-2zm2 0h2v2h-2zm2 0h2v2h-2zm2 0h2v2h-2zm2 0h2v2h-2zm2 0h2v2h-2z"
  />
  <path
    fill="#362E24"
    d="M204 112h2v2h-2zm2 0h2v2h-2zm2 0h2v2h-2zm2 0h2v2h-2zm2 0h2v2h-2z"
  />
  <path
    fill="#807D4E"
    d="M164 114h2v2h-2zm2 0h2v2h-2zm2 0h2v2h-2zm2 0h2v2h-2z"
  />
  <path
    fill="#949460"
    d="M172 114h2v2h-2zm2 0h2v2h-2zm2 0h2v2h-2zm2 0h2v2h-2zm2 0h2v2h-2zm2 0h2v2h-2z"
  />
  <path
    fill="#5B5344"
    d="M184 114h2v2h-2zm2 0h2v2h-2zm2 0h2v2h-2zm2 0h2v2h-2zm2 0h2v2h-2zm2 0h2v2h-2z"
  />
  <path fill="#362E24" d="M196 114h2v2h-2z" />
  <path fill="#5B5344" d="M198 114h2v2h-2zm2 0h2v2h-2z" />
  <path
    fill="#362E24"
    d="M202 114h2v2h-2zm2 0h2v2h-2zm2 0h2v2h-2zm2 0h2v2h-2zm2 0h2v2h-2zm2 0h2v2h-2z"
  />
  <path fill="#24523B" d="M214 114h2v2h-2z" />
  <path
    fill="#807D4E"
    d="M162 116h2v2h-2zm2 0h2v2h-2zm2 0h2v2h-2zm2 0h2v2h-2zm2 0h2v2h-2zm2 0h2v2h-2zm2 0h2v2h-2zm2 0h2v2h-2zm2 0h2v2h-2zm2 0h2v2h-2z"
  />
  <path fill="#645D48" d="M182 116h2v2h-2z" />
  <path
    fill="#5B5344"
    d="M184 116h2v2h-2zm2 0h2v2h-2zm2 0h2v2h-2zm2 0h2v2h-2zm2 0h2v2h-2z"
  />
  <path fill="#362E24" d="M194 116h2v2h-2zm2 0h2v2h-2zm2 0h2v2h-2z" />
  <path fill="#5B5344" d="M200 116h2v2h-2z" />
  <path
    fill="#362E24"
    d="M202 116h2v2h-2zm2 0h2v2h-2zm2 0h2v2h-2zm2 0h2v2h-2zm2 0h2v2h-2z"
  />
  <path fill="#24523B" d="M212 116h2v2h-2zm2 0h2v2h-2z" />
  <path
    fill="#807D4E"
    d="M160 118h2v2h-2zm2 0h2v2h-2zm2 0h2v2h-2zm2 0h2v2h-2zm2 0h2v2h-2zm2 0h2v2h-2zm2 0h2v2h-2z"
  />
  <path
    fill="#362E24"
    d="M174 118h2v2h-2zm2 0h2v2h-2zm2 0h2v2h-2zm2 0h2v2h-2zm2 0h2v2h-2z"
  />
  <path
    fill="#5B5344"
    d="M184 118h2v2h-2zm2 0h2v2h-2zm2 0h2v2h-2zm2 0h2v2h-2z"
  />
  <path fill="#362E24" d="M192 118h2v2h-2zm2 0h2v2h-2z" />
  <path fill="#24523B" d="M196 118h2v2h-2z" />
  <path
    fill="#362E24"
    d="M198 118h2v2h-2zm2 0h2v2h-2zm2 0h2v2h-2zm2 0h2v2h-2zm2 0h2v2h-2zm2 0h2v2h-2z"
  />
  <path fill="#24523B" d="M210 118h2v2h-2zm2 0h2v2h-2zm2 0h2v2h-2z" />
  <path fill="#807D4E" d="M160 120h2v2h-2zm2 0h2v2h-2zm2 0h2v2h-2z" />
  <path
    fill="#645D48"
    d="M166 120h2v2h-2zm2 0h2v2h-2zm2 0h2v2h-2zm2 0h2v2h-2z"
  />
  <path
    fill="#362E24"
    d="M174 120h2v2h-2zm2 0h2v2h-2zm2 0h2v2h-2zm2 0h2v2h-2zm2 0h2v2h-2z"
  />
  <path fill="#5B5344" d="M184 120h2v2h-2zm2 0h2v2h-2zm2 0h2v2h-2z" />
  <path fill="#362E24" d="M190 120h2v2h-2zm2 0h2v2h-2zm2 0h2v2h-2z" />
  <path fill="#24523B" d="M196 120h2v2h-2z" />
  <path fill="#362E24" d="M198 120h2v2h-2z" />
  <path fill="#24523B" d="M200 120h2v2h-2z" />
  <path fill="#362E24" d="M202 120h2v2h-2zm2 0h2v2h-2z" />
  <path
    fill="#24523B"
    d="M206 120h2v2h-2zm2 0h2v2h-2zm2 0h2v2h-2zm2 0h2v2h-2zm2 0h2v2h-2z"
  />
  <path
    fill="#5B5344"
    d="M158 122h2v2h-2zm2 0h2v2h-2zm2 0h2v2h-2zm2 0h2v2h-2z"
  />
  <path fill="#645D48" d="M166 122h2v2h-2zm2 0h2v2h-2z" />
  <path
    fill="#362E24"
    d="M170 122h2v2h-2zm2 0h2v2h-2zm2 0h2v2h-2zm2 0h2v2h-2zm2 0h2v2h-2zm2 0h2v2h-2zm2 0h2v2h-2zm2 0h2v2h-2zm2 0h2v2h-2zm2 0h2v2h-2zm2 0h2v2h-2zm2 0h2v2h-2zm2 0h2v2h-2z"
  />
  <path fill="#24523B" d="M196 122h2v2h-2z" />
  <path fill="#362E24" d="M198 122h2v2h-2z" />
  <path
    fill="#24523B"
    d="M200 122h2v2h-2zm2 0h2v2h-2zm2 0h2v2h-2zm2 0h2v2h-2zm2 0h2v2h-2zm2 0h2v2h-2zm2 0h2v2h-2zm2 0h2v2h-2z"
  />
  <path
    fill="#5B5344"
    d="M158 124h2v2h-2zm2 0h2v2h-2zm2 0h2v2h-2zm2 0h2v2h-2zm2 0h2v2h-2z"
  />
  <path
    fill="#362E24"
    d="M168 124h2v2h-2zm2 0h2v2h-2zm2 0h2v2h-2zm2 0h2v2h-2zm2 0h2v2h-2z"
  />
  <path fill="#24523B" d="M178 124h2v2h-2z" />
  <path
    fill="#362E24"
    d="M180 124h2v2h-2zm2 0h2v2h-2zm2 0h2v2h-2zm2 0h2v2h-2zm2 0h2v2h-2zm2 0h2v2h-2zm2 0h2v2h-2zm2 0h2v2h-2z"
  />
  <path
    fill="#24523B"
    d="M196 124h2v2h-2zm2 0h2v2h-2zm2 0h2v2h-2zm2 0h2v2h-2zm2 0h2v2h-2zm2 0h2v2h-2zm2 0h2v2h-2zm2 0h2v2h-2zm2 0h2v2h-2z"
  />
  <path
    fill="#5B5344"
    d="M156 126h2v2h-2zm2 0h2v2h-2zm2 0h2v2h-2zm2 0h2v2h-2zm2 0h2v2h-2z"
  />
  <path fill="#362E24" d="M166 126h2v2h-2zm2 0h2v2h-2zm2 0h2v2h-2z" />
  <path fill="#24523B" d="M172 126h2v2h-2zm2 0h2v2h-2z" />
  <path fill="#362E24" d="M176 126h2v2h-2z" />
  <path fill="#24523B" d="M178 126h2v2h-2z" />
  <path
    fill="#362E24"
    d="M180 126h2v2h-2zm2 0h2v2h-2zm2 0h2v2h-2zm2 0h2v2h-2zm2 0h2v2h-2z"
  />
  <path
    fill="#24523B"
    d="M190 126h2v2h-2zm2 0h2v2h-2zm2 0h2v2h-2zm2 0h2v2h-2zm2 0h2v2h-2zm2 0h2v2h-2zm2 0h2v2h-2zm2 0h2v2h-2zm2 0h2v2h-2zm2 0h2v2h-2zm2 0h2v2h-2z"
  />
  <path
    fill="#5B5344"
    d="M156 128h2v2h-2zm2 0h2v2h-2zm2 0h2v2h-2zm2 0h2v2h-2zm2 0h2v2h-2z"
  />
  <path
    fill="#362E24"
    d="M166 128h2v2h-2zm2 0h2v2h-2zm2 0h2v2h-2zm2 0h2v2h-2z"
  />
  <path fill="#24523B" d="M174 128h2v2h-2zm2 0h2v2h-2zm2 0h2v2h-2z" />
  <path fill="#362E24" d="M180 128h2v2h-2z" />
  <path
    fill="#24523B"
    d="M182 128h2v2h-2zm2 0h2v2h-2zm2 0h2v2h-2zm2 0h2v2h-2zm2 0h2v2h-2zm2 0h2v2h-2zm2 0h2v2h-2zm2 0h2v2h-2zm2 0h2v2h-2zm2 0h2v2h-2zm2 0h2v2h-2zm2 0h2v2h-2zm2 0h2v2h-2zm2 0h2v2h-2z"
  />
  <path fill="#5B5344" d="M158 130h2v2h-2zm2 0h2v2h-2zm2 0h2v2h-2z" />
  <path
    fill="#24523B"
    d="M164 130h2v2h-2zm2 0h2v2h-2zm2 0h2v2h-2zm2 0h2v2h-2zm2 0h2v2h-2zm2 0h2v2h-2zm2 0h2v2h-2zm2 0h2v2h-2zm2 0h2v2h-2zm2 0h2v2h-2zm2 0h2v2h-2zm2 0h2v2h-2zm2 0h2v2h-2zm2 0h2v2h-2zm2 0h2v2h-2zm2 0h2v2h-2zm2 0h2v2h-2zm2 0h2v2h-2zm2 0h2v2h-2zm2 0h2v2h-2zm2 0h2v2h-2zm-44 2h2v2h-2zm2 0h2v2h-2zm2 0h2v2h-2zm2 0h2v2h-2zm2 0h2v2h-2zm2 0h2v2h-2zm2 0h2v2h-2zm2 0h2v2h-2zm2 0h2v2h-2zm2 0h2v2h-2zm2 0h2v2h-2zm2 0h2v2h-2zm2 0h2v2h-2zm2 0h2v2h-2zm2 0h2v2h-2zm2 0h2v2h-2zm2 0h2v2h-2zm-26 2h2v2h-2zm2 0h2v2h-2zm2 0h2v2h-2zm2 0h2v2h-2zm2 0h2v2h-2zm2 0h2v2h-2zm2 0h2v2h-2z"
  />
</svg>
