<svg
  width="300"
  height="520"
  viewBox="0 0 300 520"
  fill="none"
  xmlns="http://www.w3.org/2000/svg"
>
  <path d="M220 0H210V10H220V0Z" fill="#0A0911" />
  <path d="M230 0H220V10H230V0Z" fill="#09080D" />
  <path d="M40 10H30V20H40V10Z" fill="#05060B" />
  <path d="M50 10H40V20H50V10Z" fill="#0A0911" />
  <path d="M60 10H50V20H60V10Z" fill="#0D0711" />
  <path d="M210 10H200V20H210V10Z" fill="#11120A" />
  <path d="M230 10H210V20H230V10Z" fill="#E8C170" />
  <path d="M240 10H230V20H240V10Z" fill="#03060B" />
  <path d="M30 20H20V30H30V20Z" fill="#110A12" />
  <path d="M50 20H30V70H50V20Z" fill="#BE772B" />
  <path d="M60 20H50V30H60V20Z" fill="#DE9E41" />
  <path d="M70 20H60V30H70V20Z" fill="#0B050F" />
  <path d="M120 20H110V30H120V20Z" fill="#0F0E14" />
  <path d="M130 20H120V30H130V20Z" fill="#0A0A12" />
  <path d="M140 20H130V30H140V20Z" fill="#0E0E16" />
  <path d="M160 20H140V30H160V20Z" fill="#090911" />
  <path d="M170 20H160V30H170V20Z" fill="#0C0B13" />
  <path d="M200 20H190V30H200V20Z" fill="#0B0F0E" />
  <path d="M220 20H200V30H220V20Z" fill="#E8C170" />
  <path d="M230 20H220V50H230V20Z" fill="#BE772B" />
  <path d="M240 20H230V40H240V20Z" fill="#E8C170" />
  <path d="M250 20H240V30H250V20Z" fill="#090C11" />
  <path d="M30 30H20V40H30V30Z" fill="#050E15" />
  <path d="M60 30H50V60H60V30Z" fill="#BE772B" />
  <path d="M70 30H60V40H70V30Z" fill="#DE9E41" />
  <path d="M80 30H70V40H80V30Z" fill="#0A0614" />
  <path d="M100 30H90V40H100V30Z" fill="#0E0E10" />
  <path d="M110 30H100V40H110V30Z" fill="#060C0C" />
  <path d="M120 30H110V40H120V30Z" fill="#DE9E41" />
  <path d="M160 30H120V90H160V30Z" fill="#E8C170" />
  <path d="M170 30H160V40H170V30Z" fill="#DE9E41" />
  <path d="M180 30H170V40H180V30Z" fill="#080E0C" />
  <path d="M190 30H180V40H190V30Z" fill="#060C0A" />
  <path d="M200 30H190V40H200V30Z" fill="#160518" />
  <path d="M210 30H200V40H210V30Z" fill="#E8C170" />
  <path d="M220 30H210V50H220V30Z" fill="#BE772B" />
  <path d="M250 30H240V40H250V30Z" fill="#080516" />
  <path d="M20 40H10V50H20V40Z" fill="#060814" />
  <path d="M30 40H20V60H30V40Z" fill="#BE772B" />
  <path d="M70 40H60V180H70V40Z" fill="#E8C170" />
  <path d="M80 40H70V50H80V40Z" fill="#0D0D19" />
  <path d="M90 40H80V50H90V40Z" fill="#08051A" />
  <path d="M100 40H90V50H100V40Z" fill="#DE9E41" />
  <path d="M120 40H100V90H120V40Z" fill="#E8C170" />
  <path d="M180 40H160V130H180V40Z" fill="#E8C170" />
  <path d="M190 40H180V50H190V40Z" fill="#DE9E41" />
  <path d="M200 40H190V50H200V40Z" fill="#050C1F" />
  <path d="M210 40H200V50H210V40Z" fill="#090915" />
  <path d="M240 40H230V50H240V40Z" fill="#DE9E41" />
  <path d="M250 40H240V50H250V40Z" fill="#0D0A13" />
  <path d="M10 50H0V60H10V50Z" fill="#120612" />
  <path d="M20 50H10V70H20V50Z" fill="#DE9E41" />
  <path d="M80 50H70V60H80V50Z" fill="#DE9E41" />
  <path d="M100 50H80V110H100V50Z" fill="#E8C170" />
  <path d="M200 50H180V100H200V50Z" fill="#E8C170" />
  <path d="M210 50H200V60H210V50Z" fill="#DE9E41" />
  <path d="M220 50H210V60H220V50Z" fill="#0D0D17" />
  <path d="M230 50H220V60H230V50Z" fill="#DE9E41" />
  <path d="M240 50H230V60H240V50Z" fill="#0C070E" />
  <path d="M10 60H0V70H10V60Z" fill="#0A0B0F" />
  <path d="M30 60H20V80H30V60Z" fill="#DE9E41" />
  <path d="M60 60H50V90H60V60Z" fill="#E8C170" />
  <path d="M80 60H70V190H80V60Z" fill="#E8C170" />
  <path d="M210 60H200V90H210V60Z" fill="#E8C170" />
  <path d="M220 60H210V70H220V60Z" fill="#DE9E41" />
  <path d="M230 60H220V70H230V60Z" fill="#020318" />
  <path d="M20 70H10V80H20V70Z" fill="#130914" />
  <path d="M40 70H30V90H40V70Z" fill="#DE9E41" />
  <path d="M50 70H40V80H50V70Z" fill="#E8C170" />
  <path d="M220 70H210V90H220V70Z" fill="#E8C170" />
  <path d="M230 70H220V80H230V70Z" fill="#0A0B0D" />
  <path d="M30 80H20V90H30V80Z" fill="#100B05" />
  <path d="M50 80H40V180H50V80Z" fill="#DE9E41" />
  <path d="M230 80H220V90H230V80Z" fill="#DE9E41" />
  <path d="M240 80H230V90H240V80Z" fill="#06040F" />
  <path d="M40 90H30V100H40V90Z" fill="#190D17" />
  <path d="M60 90H50V130H60V90Z" fill="#DE9E41" />
  <path d="M110 90H100V100H110V90Z" fill="#E8C170" />
  <path d="M130 90H110V100H130V90Z" fill="#EBEDE9" />
  <path d="M150 90H130V100H150V90Z" fill="#090A14" />
  <path d="M160 90H150V100H160V90Z" fill="#E8C170" />
  <path d="M210 90H200V110H210V90Z" fill="#090A14" />
  <path d="M220 90H210V100H220V90Z" fill="#04090F" />
  <path d="M230 90H220V100H230V90Z" fill="#EBEDE9" />
  <path d="M240 90H230V100H240V90Z" fill="#0A0A14" />
  <path d="M40 100H30V110H40V100Z" fill="#0F0A11" />
  <path d="M120 100H100V120H120V100Z" fill="#EBEDE9" />
  <path d="M130 100H120V120H130V100Z" fill="#090A14" />
  <path d="M140 100H130V110H140V100Z" fill="#E3E1E6" />
  <path d="M160 100H140V110H160V100Z" fill="#090A14" />
  <path d="M190 100H180V130H190V100Z" fill="#E8C170" />
  <path d="M200 100H190V120H200V100Z" fill="#090A14" />
  <path d="M220 100H210V110H220V100Z" fill="#EBEDE9" />
  <path d="M230 100H220V110H230V100Z" fill="#0D091A" />
  <path d="M240 100H230V120H240V100Z" fill="#EBEDE9" />
  <path d="M250 100H240V110H250V100Z" fill="#060411" />
  <path d="M30 110H20V120H30V110Z" fill="#050E15" />
  <path d="M40 110H30V160H40V110Z" fill="#DE9E41" />
  <path d="M90 110H80V190H90V110Z" fill="#E8C170" />
  <path d="M100 110H90V130H100V110Z" fill="#EBEDE9" />
  <path d="M140 110H130V120H140V110Z" fill="#090A14" />
  <path d="M150 110H140V120H150V110Z" fill="#E7E6E1" />
  <path d="M160 110H150V120H160V110Z" fill="#090A14" />
  <path d="M210 110H200V120H210V110Z" fill="#EBEDE9" />
  <path d="M220 110H210V120H220V110Z" fill="#0D0A11" />
  <path d="M230 110H220V120H230V110Z" fill="#0F0C15" />
  <path d="M250 110H240V130H250V110Z" fill="#EBEDE9" />
  <path d="M260 110H250V120H260V110Z" fill="#0B091E" />
  <path d="M30 120H20V150H30V120Z" fill="#0C0914" />
  <path d="M110 120H100V130H110V120Z" fill="#EBEDE9" />
  <path d="M160 120H110V160H160V120Z" fill="#E8C170" />
  <path d="M240 120H190V160H240V120Z" fill="#E8C170" />
  <path d="M260 120H250V130H260V120Z" fill="#07070F" />
  <path d="M60 130H50V160H60V130Z" fill="#E8C170" />
  <path d="M110 130H90V190H110V130Z" fill="#E8C170" />
  <path d="M170 130H160V170H170V130Z" fill="#E8C170" />
  <path d="M190 130H170V140H190V130Z" fill="#090A14" />
  <path d="M260 130H240V160H260V130Z" fill="#E8C170" />
  <path d="M270 130H260V140H270V130Z" fill="#0A0816" />
  <path d="M180 140H170V170H180V140Z" fill="#E8C170" />
  <path d="M190 140H180V150H190V140Z" fill="#090A14" />
  <path d="M270 140H260V150H270V140Z" fill="#01100B" />
  <path d="M30 150H20V160H30V150Z" fill="#0C0B10" />
  <path d="M190 150H180V170H190V150Z" fill="#E8C170" />
  <path d="M270 150H260V160H270V150Z" fill="#0A0A14" />
  <path d="M40 160H30V170H40V160Z" fill="#13101B" />
  <path d="M60 160H50V200H60V160Z" fill="#DE9E41" />
  <path d="M130 160H110V200H130V160Z" fill="#E8C170" />
  <path d="M140 160H130V170H140V160Z" fill="#090A14" />
  <path d="M160 160H140V170H160V160Z" fill="#E8C170" />
  <path d="M210 160H190V170H210V160Z" fill="#E8C170" />
  <path d="M220 160H210V170H220V160Z" fill="#090A14" />
  <path d="M250 160H220V180H250V160Z" fill="#E8C170" />
  <path d="M260 160H250V170H260V160Z" fill="#DE9E41" />
  <path d="M270 160H260V170H270V160Z" fill="#0B0A12" />
  <path d="M40 170H30V180H40V170Z" fill="#0A0813" />
  <path d="M140 170H130V180H140V170Z" fill="#73BED3" />
  <path d="M210 170H140V180H210V170Z" fill="#090A14" />
  <path d="M220 170H210V210H220V170Z" fill="#E8C170" />
  <path d="M260 170H250V180H260V170Z" fill="#080B1C" />
  <path d="M50 180H40V190H50V180Z" fill="#110C12" />
  <path d="M70 180H60V210H70V180Z" fill="#DE9E41" />
  <path d="M140 180H130V210H140V180Z" fill="#E8C170" />
  <path d="M170 180H140V190H170V180Z" fill="#73BED3" />
  <path d="M210 180H170V210H210V180Z" fill="#E8C170" />
  <path d="M240 180H220V190H240V180Z" fill="#E8C170" />
  <path d="M250 180H240V190H250V180Z" fill="#DE9E41" />
  <path d="M260 180H250V190H260V180Z" fill="#060D17" />
  <path d="M50 190H40V200H50V190Z" fill="#0D0C12" />
  <path d="M100 190H70V210H100V190Z" fill="#DE9E41" />
  <path d="M110 190H100V200H110V190Z" fill="#E8C170" />
  <path d="M150 190H140V210H150V190Z" fill="#E8C170" />
  <path d="M160 190H150V200H160V190Z" fill="#73BED3" />
  <path d="M170 190H160V210H170V190Z" fill="#E8C170" />
  <path d="M230 190H220V200H230V190Z" fill="#E8C170" />
  <path d="M240 190H230V200H240V190Z" fill="#DE9E41" />
  <path d="M250 190H240V200H250V190Z" fill="#090B18" />
  <path d="M60 200H50V210H60V200Z" fill="#0A0A0A" />
  <path d="M130 200H100V220H130V200Z" fill="#DE9E41" />
  <path d="M160 200H150V210H160V200Z" fill="#E8C170" />
  <path d="M230 200H220V210H230V200Z" fill="#DE9E41" />
  <path d="M240 200H230V210H240V200Z" fill="#0F0607" />
  <path d="M60 210H50V220H60V210Z" fill="#11031A" />
  <path d="M70 210H60V220H70V210Z" fill="#0B0715" />
  <path d="M80 210H70V220H80V210Z" fill="#0B0917" />
  <path d="M90 210H80V220H90V210Z" fill="#040716" />
  <path d="M100 210H90V220H100V210Z" fill="#DE9E41" />
  <path d="M220 210H130V220H220V210Z" fill="#DE9E41" />
  <path d="M230 210H220V220H230V210Z" fill="#050D1A" />
  <path d="M50 220H40V230H50V220Z" fill="#0A0B10" />
  <path d="M60 220H50V240H60V220Z" fill="#A8B5B2" />
  <path d="M80 220H60V230H80V220Z" fill="#752438" />
  <path d="M90 220H80V230H90V220Z" fill="#A8B5B2" />
  <path d="M100 220H90V230H100V220Z" fill="#0A0B10" />
  <path d="M110 220H100V230H110V220Z" fill="#080B12" />
  <path d="M120 220H110V230H120V220Z" fill="#080B14" />
  <path d="M130 220H120V230H130V220Z" fill="#0C0912" />
  <path d="M200 220H130V230H200V220Z" fill="#DE9E41" />
  <path d="M210 220H200V230H210V220Z" fill="#100F1F" />
  <path d="M220 220H210V230H220V220Z" fill="#0A070E" />
  <path d="M230 220H220V240H230V220Z" fill="#A8B5B2" />
  <path d="M240 220H230V230H240V220Z" fill="#13101B" />
  <path d="M40 230H30V240H40V230Z" fill="#0B0B13" />
  <path d="M50 230H40V260H50V230Z" fill="#A8B5B2" />
  <path d="M70 230H60V250H70V230Z" fill="#A8B5B2" />
  <path d="M90 230H70V250H90V230Z" fill="#752438" />
  <path d="M100 230H90V250H100V230Z" fill="#A8B5B2" />
  <path d="M110 230H100V250H110V230Z" fill="#EBEDE9" />
  <path d="M130 230H110V240H130V230Z" fill="#A8B5B2" />
  <path d="M140 230H130V240H140V230Z" fill="#040612" />
  <path d="M150 230H140V240H150V230Z" fill="#0B0A1A" />
  <path d="M160 230H150V240H160V230Z" fill="#020808" />
  <path d="M180 230H160V240H180V230Z" fill="#DE9E41" />
  <path d="M190 230H180V240H190V230Z" fill="#060702" />
  <path d="M200 230H190V240H200V230Z" fill="#0F0818" />
  <path d="M210 230H200V240H210V230Z" fill="#752438" />
  <path d="M220 230H210V240H220V230Z" fill="#0D091A" />
  <path d="M240 230H230V240H240V230Z" fill="#EBEDE9" />
  <path d="M250 230H240V240H250V230Z" fill="#0A0813" />
  <path d="M40 240H30V250H40V240Z" fill="#12121C" />
  <path d="M60 240H50V340H60V240Z" fill="#EBEDE9" />
  <path d="M150 240H110V250H150V240Z" fill="#EBEDE9" />
  <path d="M160 240H150V270H160V240Z" fill="#A8B5B2" />
  <path d="M170 240H160V250H170V240Z" fill="#080B12" />
  <path d="M180 240H170V250H180V240Z" fill="#0A0A14" />
  <path d="M190 240H180V270H190V240Z" fill="#A8B5B2" />
  <path d="M200 240H190V250H200V240Z" fill="#EBEDE9" />
  <path d="M210 240H200V250H210V240Z" fill="#A53030" />
  <path d="M220 240H210V250H220V240Z" fill="#752438" />
  <path d="M230 240H220V250H230V240Z" fill="#030F0F" />
  <path d="M240 240H230V260H240V240Z" fill="#A8B5B2" />
  <path d="M250 240H240V260H250V240Z" fill="#EBEDE9" />
  <path d="M260 240H250V250H260V240Z" fill="#080C15" />
  <path d="M30 250H20V260H30V250Z" fill="#0B0A10" />
  <path d="M40 250H30V300H40V250Z" fill="#A8B5B2" />
  <path d="M70 250H60V340H70V250Z" fill="#EBEDE9" />
  <path d="M80 250H70V270H80V250Z" fill="#A8B5B2" />
  <path d="M90 250H80V260H90V250Z" fill="#E8C170" />
  <path d="M100 250H90V260H100V250Z" fill="#DE9E41" />
  <path d="M110 250H100V270H110V250Z" fill="#A8B5B2" />
  <path d="M120 250H110V270H120V250Z" fill="#EBEDE9" />
  <path d="M150 250H120V260H150V250Z" fill="#A8B5B2" />
  <path d="M180 250H160V270H180V250Z" fill="#EBEDE9" />
  <path d="M200 250H190V260H200V250Z" fill="#A8B5B2" />
  <path d="M210 250H200V270H210V250Z" fill="#EBEDE9" />
  <path d="M220 250H210V260H220V250Z" fill="#E8C170" />
  <path d="M230 250H220V260H230V250Z" fill="#070713" />
  <path d="M260 250H250V260H260V250Z" fill="#090913" />
  <path d="M30 260H20V270H30V260Z" fill="#0B0914" />
  <path d="M50 260H40V340H50V260Z" fill="#EBEDE9" />
  <path d="M90 260H80V270H90V260Z" fill="#DE9E41" />
  <path d="M100 260H90V270H100V260Z" fill="#E8C170" />
  <path d="M140 260H120V270H140V260Z" fill="#EBEDE9" />
  <path d="M150 260H140V270H150V260Z" fill="#A8B5B2" />
  <path d="M200 260H190V270H200V260Z" fill="#EBEDE9" />
  <path d="M220 260H210V270H220V260Z" fill="#DE9E41" />
  <path d="M230 260H220V270H230V260Z" fill="#E8C170" />
  <path d="M240 260H230V270H240V260Z" fill="#070C0F" />
  <path d="M250 260H240V280H250V260Z" fill="#A8B5B2" />
  <path d="M260 260H250V280H260V260Z" fill="#EBEDE9" />
  <path d="M270 260H260V270H270V260Z" fill="#0A0A16" />
  <path d="M30 270H20V280H30V270Z" fill="#0A0A12" />
  <path d="M80 270H70V300H80V270Z" fill="#EBEDE9" />
  <path d="M90 270H80V280H90V270Z" fill="#A8B5B2" />
  <path d="M170 270H90V290H170V270Z" fill="#752438" />
  <path d="M180 270H170V280H180V270Z" fill="#712734" />
  <path d="M230 270H180V290H230V270Z" fill="#A53030" />
  <path d="M240 270H230V280H240V270Z" fill="#0A0917" />
  <path d="M270 270H260V280H270V270Z" fill="#0A0A14" />
  <path d="M20 280H10V290H20V280Z" fill="#090C13" />
  <path d="M30 280H20V340H30V280Z" fill="#A8B5B2" />
  <path d="M90 280H80V290H90V280Z" fill="#0E0313" />
  <path d="M180 280H170V290H180V280Z" fill="#752438" />
  <path d="M240 280H230V370H240V280Z" fill="#A53030" />
  <path d="M250 280H240V290H250V280Z" fill="#0B0B15" />
  <path d="M260 280H250V310H260V280Z" fill="#A8B5B2" />
  <path d="M270 280H260V310H270V280Z" fill="#EBEDE9" />
  <path d="M280 280H270V290H280V280Z" fill="#0C0A15" />
  <path d="M20 290H10V310H20V290Z" fill="#0B0B17" />
  <path d="M90 290H80V300H90V290Z" fill="#0A0A16" />
  <path d="M140 290H90V370H140V290Z" fill="#752438" />
  <path d="M180 290H140V330H180V290Z" fill="#A53030" />
  <path d="M220 290H180V310H220V290Z" fill="#CF573C" />
  <path d="M230 290H220V360H230V290Z" fill="#A53030" />
  <path d="M250 290H240V310H250V290Z" fill="#090C13" />
  <path d="M280 290H270V310H280V290Z" fill="#0B0914" />
  <path d="M40 300H30V340H40V300Z" fill="#EBEDE9" />
  <path d="M80 300H70V320H80V300Z" fill="#A8B5B2" />
  <path d="M90 300H80V310H90V300Z" fill="#080A16" />
  <path d="M20 310H10V320H20V310Z" fill="#060610" />
  <path d="M90 310H80V320H90V310Z" fill="#0C0B13" />
  <path d="M190 310H180V340H190V310Z" fill="#A53030" />
  <path d="M220 310H190V330H220V310Z" fill="#CF573C" />
  <path d="M250 310H240V370H250V310Z" fill="#A53030" />
  <path d="M260 310H250V360H260V310Z" fill="#0A0917" />
  <path d="M270 310H260V340H270V310Z" fill="#A8B5B2" />
  <path d="M280 310H270V320H280V310Z" fill="#000005" />
  <path d="M10 320H0V330H10V320Z" fill="#0A090F" />
  <path d="M20 320H10V340H20V320Z" fill="#A8B5B2" />
  <path d="M80 320H70V330H80V320Z" fill="#0B0B13" />
  <path d="M90 320H80V340H90V320Z" fill="#752438" />
  <path d="M280 320H270V340H280V320Z" fill="#EBEDE9" />
  <path d="M290 320H280V330H290V320Z" fill="#0A090F" />
  <path d="M10 330H0V340H10V330Z" fill="#0D0A03" />
  <path d="M80 330H70V340H80V330Z" fill="#050D18" />
  <path d="M150 330H140V370H150V330Z" fill="#752438" />
  <path d="M180 330H150V340H180V330Z" fill="#A53030" />
  <path d="M210 330H190V340H210V330Z" fill="#CF573C" />
  <path d="M220 330H210V340H220V330Z" fill="#752438" />
  <path d="M290 330H280V340H290V330Z" fill="#141126" />
  <path d="M10 340H0V350H10V340Z" fill="#060B05" />
  <path d="M30 340H10V400H30V340Z" fill="#DE9E41" />
  <path d="M70 340H30V390H70V340Z" fill="#E8C170" />
  <path d="M80 340H70V370H80V340Z" fill="#DE9E41" />
  <path d="M90 340H80V350H90V340Z" fill="#060D15" />
  <path d="M210 340H150V350H210V340Z" fill="#752438" />
  <path d="M220 340H210V360H220V340Z" fill="#A53030" />
  <path d="M280 340H260V390H280V340Z" fill="#E8C170" />
  <path d="M290 340H280V370H290V340Z" fill="#DE9E41" />
  <path d="M300 340H290V350H300V340Z" fill="#071017" />
  <path d="M10 350H0V360H10V350Z" fill="#080C0F" />
  <path d="M90 350H80V360H90V350Z" fill="#0C0819" />
  <path d="M190 350H150V360H190V350Z" fill="#752438" />
  <path d="M210 350H190V360H210V350Z" fill="#A53030" />
  <path d="M300 350H290V360H300V350Z" fill="#050819" />
  <path d="M10 360H0V380H10V360Z" fill="#0E0717" />
  <path d="M90 360H80V370H90V360Z" fill="#010F12" />
  <path d="M230 360H150V370H230V360Z" fill="#DE9E41" />
  <path d="M260 360H250V370H260V360Z" fill="#0C0A0F" />
  <path d="M300 360H290V370H300V360Z" fill="#0C0B11" />
  <path d="M80 370H70V380H80V370Z" fill="#08060B" />
  <path d="M110 370H80V380H110V370Z" fill="#752438" />
  <path d="M160 370H110V380H160V370Z" fill="#DE9E41" />
  <path d="M220 370H160V400H220V370Z" fill="#E8C170" />
  <path d="M250 370H220V380H250V370Z" fill="#DE9E41" />
  <path d="M260 370H250V380H260V370Z" fill="#0A0A16" />
  <path d="M290 370H280V380H290V370Z" fill="#0F0E16" />
  <path d="M10 380H0V390H10V380Z" fill="#080B14" />
  <path d="M80 380H70V390H80V380Z" fill="#0C101C" />
  <path d="M150 380H80V390H150V380Z" fill="#DE9E41" />
  <path d="M160 380H150V400H160V380Z" fill="#E8C170" />
  <path d="M230 380H220V400H230V380Z" fill="#E8C170" />
  <path d="M240 380H230V400H240V380Z" fill="#DE9E41" />
  <path d="M250 380H240V390H250V380Z" fill="#030E12" />
  <path d="M260 380H250V400H260V380Z" fill="#DE9E41" />
  <path d="M290 380H280V390H290V380Z" fill="#090913" />
  <path d="M10 390H0V400H10V390Z" fill="#080614" />
  <path d="M70 390H30V400H70V390Z" fill="#DE9E41" />
  <path d="M80 390H70V400H80V390Z" fill="#0B0A0F" />
  <path d="M90 390H80V400H90V390Z" fill="#090418" />
  <path d="M150 390H90V410H150V390Z" fill="#DE9E41" />
  <path d="M250 390H240V400H250V390Z" fill="#040E0F" />
  <path d="M280 390H260V400H280V390Z" fill="#DE9E41" />
  <path d="M290 390H280V400H290V390Z" fill="#07080D" />
  <path d="M20 400H10V410H20V400Z" fill="#0C0910" />
  <path d="M30 400H20V410H30V400Z" fill="#0A0A16" />
  <path d="M40 400H30V410H40V400Z" fill="#0A0A14" />
  <path d="M50 400H40V410H50V400Z" fill="#0A0A16" />
  <path d="M60 400H50V410H60V400Z" fill="#080B12" />
  <path d="M70 400H60V410H70V400Z" fill="#080D13" />
  <path d="M90 400H70V480H90V400Z" fill="#DE9E41" />
  <path d="M160 400H150V420H160V400Z" fill="#DE9E41" />
  <path d="M210 400H160V410H210V400Z" fill="#E8C170" />
  <path d="M230 400H210V410H230V400Z" fill="#DE9E41" />
  <path d="M240 400H230V410H240V400Z" fill="#030720" />
  <path d="M250 400H240V410H250V400Z" fill="#0B0B13" />
  <path d="M260 400H250V410H260V400Z" fill="#080E1A" />
  <path d="M270 400H260V410H270V400Z" fill="#0B0B15" />
  <path d="M280 400H270V410H280V400Z" fill="#12121A" />
  <path d="M70 410H60V420H70V410Z" fill="#040C0E" />
  <path d="M110 410H90V450H110V410Z" fill="#DE9E41" />
  <path d="M120 410H110V420H120V410Z" fill="#070700" />
  <path d="M150 410H120V420H150V410Z" fill="#DE9E41" />
  <path d="M210 410H160V420H210V410Z" fill="#DE9E41" />
  <path d="M220 410H210V420H220V410Z" fill="#0C091E" />
  <path d="M230 410H220V420H230V410Z" fill="#0D0A13" />
  <path d="M240 410H230V420H240V410Z" fill="#DE9E41" />
  <path d="M250 410H240V420H250V410Z" fill="#0E0A18" />
  <path d="M70 420H60V430H70V420Z" fill="#060E11" />
  <path d="M120 420H110V440H120V420Z" fill="#DE9E41" />
  <path d="M130 420H120V430H130V420Z" fill="#050716" />
  <path d="M140 420H130V430H140V420Z" fill="#0C0817" />
  <path d="M150 420H140V430H150V420Z" fill="#0A0A14" />
  <path d="M160 420H150V430H160V420Z" fill="#080A16" />
  <path d="M190 420H160V430H190V420Z" fill="#0B0914" />
  <path d="M200 420H190V430H200V420Z" fill="#0E0719" />
  <path d="M210 420H200V430H210V420Z" fill="#0E0613" />
  <path d="M230 420H210V430H230V420Z" fill="#DE9E41" />
  <path d="M240 420H230V500H240V420Z" fill="#E8C170" />
  <path d="M250 420H240V430H250V420Z" fill="#0F0D10" />
  <path d="M70 430H60V500H70V430Z" fill="#060D13" />
  <path d="M130 430H120V440H130V430Z" fill="#DE9E41" />
  <path d="M140 430H130V440H140V430Z" fill="#030617" />
  <path d="M180 430H170V440H180V430Z" fill="#080A19" />
  <path d="M210 430H180V500H210V430Z" fill="#DE9E41" />
  <path d="M230 430H210V460H230V430Z" fill="#E8C170" />
  <path d="M250 430H240V450H250V430Z" fill="#080B14" />
  <path d="M130 440H110V510H130V440Z" fill="#E8C170" />
  <path d="M140 440H130V450H140V440Z" fill="#060D13" />
  <path d="M180 440H170V450H180V440Z" fill="#080A16" />
  <path d="M100 450H90V480H100V450Z" fill="#DE9E41" />
  <path d="M110 450H100V510H110V450Z" fill="#E8C170" />
  <path d="M140 450H130V470H140V450Z" fill="#0B0914" />
  <path d="M180 450H170V500H180V450Z" fill="#080B14" />
  <path d="M250 450H240V460H250V450Z" fill="#080C0F" />
  <path d="M220 460H210V500H220V460Z" fill="#DE9E41" />
  <path d="M230 460H220V500H230V460Z" fill="#E8C170" />
  <path d="M250 460H240V500H250V460Z" fill="#E8C170" />
  <path d="M260 460H250V480H260V460Z" fill="#0A0A16" />
  <path d="M140 470H130V480H140V470Z" fill="#0C0E1B" />
  <path d="M80 480H70V510H80V480Z" fill="#DE9E41" />
  <path d="M100 480H80V510H100V480Z" fill="#E8C170" />
  <path d="M140 480H130V510H140V480Z" fill="#E8C170" />
  <path d="M150 480H140V500H150V480Z" fill="#0B0914" />
  <path d="M260 480H250V500H260V480Z" fill="#080B14" />
  <path d="M70 500H60V510H70V500Z" fill="#0C0A17" />
  <path d="M150 500H140V510H150V500Z" fill="#0B0A12" />
  <rect x="70" y="510" width="70" height="10" fill="#0B0914" />
  <rect x="180" y="500" width="70" height="10" fill="#0B0914" />
</svg>
