<svg
  width="132"
  height="128"
  viewBox="0 0 132 128"
  fill="none"
  xmlns="http://www.w3.org/2000/svg"
>
  <rect x="60" width="4" height="4" fill="#010407" />
  <rect x="64" width="4" height="4" fill="#000104" />
  <rect x="68" width="4" height="4" fill="#000104" />
  <rect x="72" width="4" height="4" fill="#000104" />
  <rect x="76" width="4" height="4" fill="#010105" />
  <rect x="44" y="4" width="4" height="4" fill="#010307" />
  <rect x="48" y="4" width="4" height="4" fill="#010207" />
  <rect x="52" y="4" width="4" height="4" fill="#010207" />
  <rect x="56" y="4" width="4" height="4" fill="#000309" />
  <rect x="60" y="4" width="4" height="4" fill="#2E2723" />
  <rect x="64" y="4" width="4" height="4" fill="#2E2723" />
  <rect x="68" y="4" width="4" height="4" fill="#2E2723" />
  <rect x="72" y="4" width="4" height="4" fill="#2E2723" />
  <rect x="76" y="4" width="4" height="4" fill="#2E2723" />
  <rect x="80" y="4" width="4" height="4" fill="#000308" />
  <rect x="84" y="4" width="4" height="4" fill="#010306" />
  <rect x="88" y="4" width="4" height="4" fill="#010002" />
  <rect x="40" y="8" width="4" height="4" fill="#03050F" />
  <rect x="44" y="8" width="4" height="4" fill="#2E2723" />
  <rect x="48" y="8" width="4" height="4" fill="#2E2723" />
  <rect x="52" y="8" width="4" height="4" fill="#2E2723" />
  <rect x="56" y="8" width="4" height="4" fill="#2E2723" />
  <rect x="60" y="8" width="4" height="4" fill="#2E2723" />
  <rect x="64" y="8" width="4" height="4" fill="#2E2723" />
  <rect x="68" y="8" width="4" height="4" fill="#2E2723" />
  <rect x="72" y="8" width="4" height="4" fill="#2E2723" />
  <rect x="76" y="8" width="4" height="4" fill="#2E2723" />
  <rect x="80" y="8" width="4" height="4" fill="#2E2723" />
  <rect x="84" y="8" width="4" height="4" fill="#2E2723" />
  <rect x="88" y="8" width="4" height="4" fill="#010308" />
  <rect x="92" y="8" width="4" height="4" fill="#010001" />
  <rect x="36" y="12" width="4" height="4" fill="#020104" />
  <rect x="40" y="12" width="4" height="4" fill="#2E2723" />
  <rect x="44" y="12" width="4" height="4" fill="#2E2723" />
  <rect x="48" y="12" width="4" height="4" fill="#2E2723" />
  <rect x="52" y="12" width="4" height="4" fill="#2E2723" />
  <rect x="56" y="12" width="4" height="4" fill="#2E2723" />
  <rect x="60" y="12" width="4" height="4" fill="#2E2723" />
  <rect x="64" y="12" width="4" height="4" fill="#2E2723" />
  <rect x="68" y="12" width="4" height="4" fill="#2E2723" />
  <rect x="72" y="12" width="4" height="4" fill="#AEB1C5" />
  <rect x="76" y="12" width="4" height="4" fill="#FEFFFE" />
  <rect x="80" y="12" width="4" height="4" fill="#FEFFFE" />
  <rect x="84" y="12" width="4" height="4" fill="#1D1616" />
  <rect x="88" y="12" width="4" height="4" fill="#1D1616" />
  <rect x="92" y="12" width="4" height="4" fill="#03070F" />
  <rect x="96" y="12" width="4" height="4" fill="#020408" />
  <rect x="32" y="16" width="4" height="4" fill="#030104" />
  <rect x="36" y="16" width="4" height="4" fill="#02050A" />
  <rect x="40" y="16" width="4" height="4" fill="#2E2723" />
  <rect x="44" y="16" width="4" height="4" fill="#2E2723" />
  <rect x="48" y="16" width="4" height="4" fill="#2E2723" />
  <rect x="52" y="16" width="4" height="4" fill="#2E2723" />
  <rect x="56" y="16" width="4" height="4" fill="#2E2723" />
  <rect x="60" y="16" width="4" height="4" fill="#2E2723" />
  <rect x="64" y="16" width="4" height="4" fill="#2E2723" />
  <rect x="68" y="16" width="4" height="4" fill="#A0A9C3" />
  <rect x="72" y="16" width="4" height="4" fill="#FAFBFB" />
  <rect x="76" y="16" width="4" height="4" fill="#FFFFFE" />
  <rect x="80" y="16" width="4" height="4" fill="white" />
  <rect x="84" y="16" width="4" height="4" fill="#F0F5F7" />
  <rect x="88" y="16" width="4" height="4" fill="#1D1616" />
  <rect x="92" y="16" width="4" height="4" fill="#1D1616" />
  <rect x="96" y="16" width="4" height="4" fill="#1D1616" />
  <rect x="100" y="16" width="4" height="4" fill="#010205" />
  <rect x="28" y="20" width="4" height="4" fill="#080A13" />
  <rect x="32" y="20" width="4" height="4" fill="#050B11" />
  <rect x="36" y="20" width="4" height="4" fill="#1D1616" />
  <rect x="40" y="20" width="4" height="4" fill="#1D1616" />
  <rect x="44" y="20" width="4" height="4" fill="#1D1616" />
  <rect x="48" y="20" width="4" height="4" fill="#1D1616" />
  <rect x="52" y="20" width="4" height="4" fill="#1D1616" />
  <rect x="56" y="20" width="4" height="4" fill="#2E2723" />
  <rect x="60" y="20" width="4" height="4" fill="#2E2723" />
  <rect x="64" y="20" width="4" height="4" fill="#2E2723" />
  <rect x="68" y="20" width="4" height="4" fill="#1D1616" />
  <rect x="72" y="20" width="4" height="4" fill="#A0A7C0" />
  <rect x="76" y="20" width="4" height="4" fill="#EEF4F7" />
  <rect x="80" y="20" width="4" height="4" fill="#EFF4F7" />
  <rect x="84" y="20" width="4" height="4" fill="#1D1616" />
  <rect x="88" y="20" width="4" height="4" fill="#1D1616" />
  <rect x="92" y="20" width="4" height="4" fill="#1D1616" />
  <rect x="96" y="20" width="4" height="4" fill="#1D1616" />
  <rect x="100" y="20" width="4" height="4" fill="#020207" />
  <rect x="24" y="24" width="4" height="4" fill="#030409" />
  <rect x="28" y="24" width="4" height="4" fill="#2E2723" />
  <rect x="32" y="24" width="4" height="4" fill="#2E2723" />
  <rect x="36" y="24" width="4" height="4" fill="#2E2723" />
  <rect x="40" y="24" width="4" height="4" fill="#2E2723" />
  <rect x="44" y="24" width="4" height="4" fill="#1D1616" />
  <rect x="48" y="24" width="4" height="4" fill="#1D1616" />
  <rect x="52" y="24" width="4" height="4" fill="#1D1616" />
  <rect x="56" y="24" width="4" height="4" fill="#1D1616" />
  <rect x="60" y="24" width="4" height="4" fill="#1D1616" />
  <rect x="64" y="24" width="4" height="4" fill="#1D1616" />
  <rect x="68" y="24" width="4" height="4" fill="#1D1616" />
  <rect x="72" y="24" width="4" height="4" fill="#1D1616" />
  <rect x="76" y="24" width="4" height="4" fill="#1D1616" />
  <rect x="80" y="24" width="4" height="4" fill="#1D1616" />
  <rect x="84" y="24" width="4" height="4" fill="#1D1616" />
  <rect x="88" y="24" width="4" height="4" fill="#1D1616" />
  <rect x="92" y="24" width="4" height="4" fill="#1D1616" />
  <rect x="96" y="24" width="4" height="4" fill="#010307" />
  <rect x="100" y="24" width="4" height="4" fill="#150B15" />
  <rect x="24" y="28" width="4" height="4" fill="#020308" />
  <rect x="28" y="28" width="4" height="4" fill="#2E2723" />
  <rect x="32" y="28" width="4" height="4" fill="#2E2723" />
  <rect x="36" y="28" width="4" height="4" fill="#2E2723" />
  <rect x="40" y="28" width="4" height="4" fill="#2E2723" />
  <rect x="44" y="28" width="4" height="4" fill="#2E2723" />
  <rect x="48" y="28" width="4" height="4" fill="#2E2723" />
  <rect x="52" y="28" width="4" height="4" fill="#03060B" />
  <rect x="56" y="28" width="4" height="4" fill="#000101" />
  <rect x="60" y="28" width="4" height="4" fill="#000101" />
  <rect x="64" y="28" width="4" height="4" fill="#000101" />
  <rect x="68" y="28" width="4" height="4" fill="#000101" />
  <rect x="72" y="28" width="4" height="4" fill="#101013" />
  <rect x="76" y="28" width="4" height="4" fill="#161717" />
  <rect x="80" y="28" width="4" height="4" fill="#161717" />
  <rect x="84" y="28" width="4" height="4" fill="#161617" />
  <rect x="88" y="28" width="4" height="4" fill="#000101" />
  <rect x="92" y="28" width="4" height="4" fill="#000101" />
  <rect x="96" y="28" width="4" height="4" fill="#010202" />
  <rect x="24" y="32" width="4" height="4" fill="#000101" />
  <rect x="28" y="32" width="4" height="4" fill="#000101" />
  <rect x="32" y="32" width="4" height="4" fill="#1D1616" />
  <rect x="36" y="32" width="4" height="4" fill="#1D1616" />
  <rect x="40" y="32" width="4" height="4" fill="#1D1616" />
  <rect x="44" y="32" width="4" height="4" fill="#000103" />
  <rect x="48" y="32" width="4" height="4" fill="#000102" />
  <rect x="52" y="32" width="4" height="4" fill="black" />
  <rect x="56" y="32" width="4" height="4" fill="black" />
  <rect x="60" y="32" width="4" height="4" fill="black" />
  <rect x="64" y="32" width="4" height="4" fill="black" />
  <rect x="68" y="32" width="4" height="4" fill="black" />
  <rect x="72" y="32" width="4" height="4" fill="#9D9DAD" />
  <rect x="76" y="32" width="4" height="4" fill="#F5F5F7" />
  <rect x="80" y="32" width="4" height="4" fill="#FEFEFE" />
  <rect x="84" y="32" width="4" height="4" fill="#FEFEFE" />
  <rect x="88" y="32" width="4" height="4" fill="#1A1A1A" />
  <rect x="92" y="32" width="4" height="4" fill="black" />
  <rect x="96" y="32" width="4" height="4" fill="#000102" />
  <rect x="32" y="36" width="4" height="4" fill="#000101" />
  <rect x="36" y="36" width="4" height="4" fill="#000101" />
  <rect x="40" y="36" width="4" height="4" fill="#0C0707" />
  <rect x="44" y="36" width="4" height="4" fill="#130C0A" />
  <rect x="48" y="36" width="4" height="4" fill="#130C0A" />
  <rect x="52" y="36" width="4" height="4" fill="#130C0A" />
  <rect x="56" y="36" width="4" height="4" fill="#130C0A" />
  <rect x="60" y="36" width="4" height="4" fill="black" />
  <rect x="64" y="36" width="4" height="4" fill="black" />
  <rect x="68" y="36" width="4" height="4" fill="black" />
  <rect x="72" y="36" width="4" height="4" fill="#010101" />
  <rect x="76" y="36" width="4" height="4" fill="#9A9BAC" />
  <rect x="80" y="36" width="4" height="4" fill="#E2E3E3" />
  <rect x="84" y="36" width="4" height="4" fill="#E2E2E2" />
  <rect x="88" y="36" width="4" height="4" fill="#E2E2E2" />
  <rect x="92" y="36" width="4" height="4" fill="#0B0B0B" />
  <rect x="96" y="36" width="4" height="4" fill="black" />
  <rect x="100" y="36" width="4" height="4" fill="#000202" />
  <rect x="36" y="40" width="4" height="4" fill="#000100" />
  <rect x="40" y="40" width="4" height="4" fill="#6F3731" />
  <rect x="44" y="40" width="4" height="4" fill="#A5604E" />
  <rect x="48" y="40" width="4" height="4" fill="#A5604E" />
  <rect x="52" y="40" width="4" height="4" fill="#A5604E" />
  <rect x="56" y="40" width="4" height="4" fill="#A4614F" />
  <rect x="60" y="40" width="4" height="4" fill="#030101" />
  <rect x="64" y="40" width="4" height="4" fill="black" />
  <rect x="68" y="40" width="4" height="4" fill="#010000" />
  <rect x="72" y="40" width="4" height="4" fill="#020000" />
  <rect x="76" y="40" width="4" height="4" fill="#020101" />
  <rect x="80" y="40" width="4" height="4" fill="#020101" />
  <rect x="84" y="40" width="4" height="4" fill="#010101" />
  <rect x="88" y="40" width="4" height="4" fill="#010101" />
  <rect x="92" y="40" width="4" height="4" fill="black" />
  <rect x="96" y="40" width="4" height="4" fill="#000100" />
  <rect x="100" y="40" width="4" height="4" fill="#000301" />
  <rect x="36" y="44" width="4" height="4" fill="#030201" />
  <rect x="40" y="44" width="4" height="4" fill="#6F3832" />
  <rect x="44" y="44" width="4" height="4" fill="#A6614E" />
  <rect x="48" y="44" width="4" height="4" fill="#060201" />
  <rect x="52" y="44" width="4" height="4" fill="#060201" />
  <rect x="56" y="44" width="4" height="4" fill="#060201" />
  <rect x="60" y="44" width="4" height="4" fill="#060201" />
  <rect x="64" y="44" width="4" height="4" fill="#030201" />
  <rect x="68" y="44" width="4" height="4" fill="#060201" />
  <rect x="72" y="44" width="4" height="4" fill="#060201" />
  <rect x="76" y="44" width="4" height="4" fill="#A5614E" />
  <rect x="80" y="44" width="4" height="4" fill="#A5614E" />
  <rect x="84" y="44" width="4" height="4" fill="#060201" />
  <rect x="88" y="44" width="4" height="4" fill="#060201" />
  <rect x="92" y="44" width="4" height="4" fill="#060201" />
  <rect x="32" y="48" width="4" height="4" fill="#020101" />
  <rect x="36" y="48" width="4" height="4" fill="#060201" />
  <rect x="40" y="48" width="4" height="4" fill="#060201" />
  <rect x="44" y="48" width="4" height="4" fill="#060201" />
  <rect x="48" y="48" width="4" height="4" fill="#060201" />
  <rect x="52" y="48" width="4" height="4" fill="#696C78" />
  <rect x="56" y="48" width="4" height="4" fill="#060201" />
  <rect x="60" y="48" width="4" height="4" fill="#060201" />
  <rect x="64" y="48" width="4" height="4" fill="#060201" />
  <rect x="68" y="48" width="4" height="4" fill="#060201" />
  <rect x="72" y="48" width="4" height="4" fill="#060201" />
  <rect x="76" y="48" width="4" height="4" fill="#060201" />
  <rect x="80" y="48" width="4" height="4" fill="#060201" />
  <rect x="84" y="48" width="4" height="4" fill="#060201" />
  <rect x="88" y="48" width="4" height="4" fill="#060201" />
  <rect x="92" y="48" width="4" height="4" fill="#060201" />
  <rect x="96" y="48" width="4" height="4" fill="#080502" />
  <rect x="32" y="52" width="4" height="4" fill="#060403" />
  <rect x="36" y="52" width="4" height="4" fill="#6E3832" />
  <rect x="40" y="52" width="4" height="4" fill="#713830" />
  <rect x="44" y="52" width="4" height="4" fill="#A6614E" />
  <rect x="48" y="52" width="4" height="4" fill="#060201" />
  <rect x="52" y="52" width="4" height="4" fill="#696C78" />
  <rect x="56" y="52" width="4" height="4" fill="#696C78" />
  <rect x="60" y="52" width="4" height="4" fill="#696C78" />
  <rect x="64" y="52" width="4" height="4" fill="#060201" />
  <rect x="68" y="52" width="4" height="4" fill="#060201" />
  <rect x="72" y="52" width="4" height="4" fill="#060201" />
  <rect x="76" y="52" width="4" height="4" fill="#6E3731" />
  <rect x="80" y="52" width="4" height="4" fill="#6B3630" />
  <rect x="84" y="52" width="4" height="4" fill="#060201" />
  <rect x="88" y="52" width="4" height="4" fill="#696C78" />
  <rect x="92" y="52" width="4" height="4" fill="#696C78" />
  <rect x="96" y="52" width="4" height="4" fill="#060201" />
  <rect x="100" y="52" width="4" height="4" fill="#040401" />
  <rect x="28" y="56" width="4" height="4" fill="#050502" />
  <rect x="32" y="56" width="4" height="4" fill="#6F3832" />
  <rect x="36" y="56" width="4" height="4" fill="#713830" />
  <rect x="40" y="56" width="4" height="4" fill="#A6614E" />
  <rect x="44" y="56" width="4" height="4" fill="#A6614C" />
  <rect x="48" y="56" width="4" height="4" fill="#A6614D" />
  <rect x="52" y="56" width="4" height="4" fill="#060201" />
  <rect x="56" y="56" width="4" height="4" fill="#060201" />
  <rect x="60" y="56" width="4" height="4" fill="#060201" />
  <rect x="64" y="56" width="4" height="4" fill="#060201" />
  <rect x="68" y="56" width="4" height="4" fill="#060201" />
  <rect x="72" y="56" width="4" height="4" fill="#6F3731" />
  <rect x="76" y="56" width="4" height="4" fill="#6E3832" />
  <rect x="80" y="56" width="4" height="4" fill="#060402" />
  <rect x="84" y="56" width="4" height="4" fill="#000100" />
  <rect x="88" y="56" width="4" height="4" fill="#000100" />
  <rect x="92" y="56" width="4" height="4" fill="#010100" />
  <rect x="96" y="56" width="4" height="4" fill="#6B3731" />
  <rect x="100" y="56" width="4" height="4" fill="#0C0706" />
  <rect x="28" y="60" width="4" height="4" fill="#040302" />
  <rect x="32" y="60" width="4" height="4" fill="#703730" />
  <rect x="36" y="60" width="4" height="4" fill="#A6614E" />
  <rect x="40" y="60" width="4" height="4" fill="#A6614D" />
  <rect x="44" y="60" width="4" height="4" fill="#A6614D" />
  <rect x="48" y="60" width="4" height="4" fill="#A6614D" />
  <rect x="52" y="60" width="4" height="4" fill="#A6614D" />
  <rect x="56" y="60" width="4" height="4" fill="#A6614D" />
  <rect x="60" y="60" width="4" height="4" fill="#703730" />
  <rect x="64" y="60" width="4" height="4" fill="#6F3730" />
  <rect x="68" y="60" width="4" height="4" fill="#6F3731" />
  <rect x="72" y="60" width="4" height="4" fill="#6F3731" />
  <rect x="76" y="60" width="4" height="4" fill="#6F3731" />
  <rect x="80" y="60" width="4" height="4" fill="#6E3833" />
  <rect x="84" y="60" width="4" height="4" fill="#070404" />
  <rect x="88" y="60" width="4" height="4" fill="black" />
  <rect x="92" y="60" width="4" height="4" fill="#080404" />
  <rect x="96" y="60" width="4" height="4" fill="#6B3630" />
  <rect x="100" y="60" width="4" height="4" fill="#A46250" />
  <rect x="104" y="60" width="4" height="4" fill="#020404" />
  <rect x="28" y="64" width="4" height="4" fill="#040302" />
  <rect x="32" y="64" width="4" height="4" fill="#6F3731" />
  <rect x="36" y="64" width="4" height="4" fill="#A25E4C" />
  <rect x="40" y="64" width="4" height="4" fill="#A6614D" />
  <rect x="44" y="64" width="4" height="4" fill="#A6614D" />
  <rect x="48" y="64" width="4" height="4" fill="#A6614D" />
  <rect x="52" y="64" width="4" height="4" fill="#A6614D" />
  <rect x="56" y="64" width="4" height="4" fill="#A6614D" />
  <rect x="60" y="64" width="4" height="4" fill="#743B32" />
  <rect x="64" y="64" width="4" height="4" fill="#6F3731" />
  <rect x="68" y="64" width="4" height="4" fill="#6F3731" />
  <rect x="72" y="64" width="4" height="4" fill="#6F3731" />
  <rect x="76" y="64" width="4" height="4" fill="#6F3731" />
  <rect x="80" y="64" width="4" height="4" fill="#6F3731" />
  <rect x="84" y="64" width="4" height="4" fill="#6D3833" />
  <rect x="88" y="64" width="4" height="4" fill="#020001" />
  <rect x="92" y="64" width="4" height="4" fill="#6A3630" />
  <rect x="96" y="64" width="4" height="4" fill="#6E3730" />
  <rect x="100" y="64" width="4" height="4" fill="#A5614E" />
  <rect x="104" y="64" width="4" height="4" fill="#010202" />
  <rect x="28" y="68" width="4" height="4" fill="#111817" />
  <rect x="32" y="68" width="4" height="4" fill="#66332E" />
  <rect x="36" y="68" width="4" height="4" fill="#6F3630" />
  <rect x="40" y="68" width="4" height="4" fill="#A6614E" />
  <rect x="44" y="68" width="4" height="4" fill="#A6614D" />
  <rect x="48" y="68" width="4" height="4" fill="#A6614D" />
  <rect x="52" y="68" width="4" height="4" fill="#A6614D" />
  <rect x="56" y="68" width="4" height="4" fill="#A6614D" />
  <rect x="60" y="68" width="4" height="4" fill="#A6614E" />
  <rect x="64" y="68" width="4" height="4" fill="#743B33" />
  <rect x="68" y="68" width="4" height="4" fill="#6F3731" />
  <rect x="72" y="68" width="4" height="4" fill="#6F3731" />
  <rect
    width="4"
    height="4"
    transform="matrix(1 0 0 -1 76 76)"
    fill="#66332E"
  />
  <rect x="80" y="68" width="4" height="4" fill="#66332E" />
  <rect x="84" y="68" width="4" height="4" fill="#66342E" />
  <rect x="88" y="68" width="4" height="4" fill="#020001" />
  <rect x="92" y="68" width="4" height="4" fill="#0A0605" />
  <rect x="96" y="68" width="4" height="4" fill="#733A33" />
  <rect x="100" y="68" width="4" height="4" fill="#A4614E" />
  <rect x="104" y="68" width="4" height="4" fill="#050003" />
  <rect x="32" y="72" width="4" height="4" fill="#010202" />
  <rect x="36" y="72" width="4" height="4" fill="#6F3731" />
  <rect x="40" y="72" width="4" height="4" fill="#A25D4A" />
  <rect x="44" y="72" width="4" height="4" fill="#A6614D" />
  <rect x="48" y="72" width="4" height="4" fill="#A6614D" />
  <rect x="52" y="72" width="4" height="4" fill="#A6614D" />
  <rect x="56" y="72" width="4" height="4" fill="#A6614D" />
  <rect x="60" y="72" width="4" height="4" fill="#A6614D" />
  <rect x="64" y="72" width="4" height="4" fill="#A4604E" />
  <rect x="68" y="72" width="4" height="4" fill="#753A34" />
  <rect x="72" y="72" width="4" height="4" fill="#743A35" />
  <rect
    width="4"
    height="4"
    transform="matrix(1 0 0 -1 76 80)"
    fill="#65312E"
  />
  <rect x="80" y="72" width="4" height="4" fill="#0C0606" />
  <rect x="84" y="72" width="4" height="4" fill="#0B0605" />
  <rect x="88" y="72" width="4" height="4" fill="#0A0605" />
  <rect x="92" y="72" width="4" height="4" fill="#2E2723" />
  <rect x="96" y="72" width="4" height="4" fill="#2E2723" />
  <rect x="100" y="72" width="4" height="4" fill="#2E2723" />
  <rect x="104" y="72" width="4" height="4" fill="#2E2723" />
  <rect x="108" y="72" width="4" height="4" fill="#FF5D00" />
  <rect x="116" y="68" width="8" height="4" fill="white" />
  <rect x="120" y="64" width="8" height="4" fill="white" />
  <rect x="116" y="40" width="8" height="4" fill="white" />
  <rect x="124" y="60" width="4" height="4" fill="white" />
  <rect x="128" y="56" width="4" height="4" fill="white" />
  <rect x="116" y="36" width="4" height="4" fill="white" />
  <rect x="124" y="48" width="4" height="4" fill="white" />
  <rect x="128" y="52" width="4" height="4" fill="white" />
  <rect x="116" y="32" width="4" height="4" fill="white" />
  <rect x="116" y="28" width="4" height="4" fill="white" />
  <rect x="120" y="24" width="4" height="4" fill="white" />
  <rect x="128" y="12" width="4" height="4" fill="white" />
  <rect x="124" y="44" width="4" height="4" fill="white" />
  <rect y="76" width="4" height="4" fill="#030100" />
  <rect x="4" y="76" width="4" height="4" fill="#010103" />
  <rect x="32" y="76" width="4" height="4" fill="#010102" />
  <rect x="36" y="76" width="4" height="4" fill="#6E3732" />
  <rect x="40" y="76" width="4" height="4" fill="#703730" />
  <rect x="44" y="76" width="4" height="4" fill="#A5614D" />
  <rect x="48" y="76" width="4" height="4" fill="#A6614D" />
  <rect x="52" y="76" width="4" height="4" fill="#A6614D" />
  <rect x="56" y="76" width="4" height="4" fill="#A6614D" />
  <rect x="60" y="76" width="4" height="4" fill="#A6614D" />
  <rect x="64" y="76" width="4" height="4" fill="#A6614D" />
  <rect x="68" y="76" width="4" height="4" fill="#A5614D" />
  <rect x="72" y="76" width="4" height="4" fill="#A4624E" />
  <rect x="76" y="68" width="4" height="4" fill="#030101" />
  <rect x="80" y="76" width="4" height="4" fill="#6D3731" />
  <rect x="84" y="76" width="4" height="4" fill="#6E3731" />
  <rect x="88" y="76" width="4" height="4" fill="#6E3730" />
  <rect x="92" y="76" width="4" height="4" fill="#A35F4D" />
  <rect x="96" y="76" width="4" height="4" fill="#A7634F" />
  <rect x="100" y="76" width="4" height="4" fill="#080104" />
  <rect y="80" width="4" height="4" fill="#010000" />
  <rect x="4" y="80" width="4" height="4" fill="#030000" />
  <rect x="28" y="80" width="4" height="4" fill="#030103" />
  <rect x="32" y="80" width="4" height="4" fill="#010001" />
  <rect x="36" y="80" width="4" height="4" fill="#010001" />
  <rect x="40" y="80" width="4" height="4" fill="#6E3832" />
  <rect x="44" y="80" width="4" height="4" fill="#A5614F" />
  <rect x="48" y="80" width="4" height="4" fill="#A5614E" />
  <rect x="52" y="80" width="4" height="4" fill="#A6614D" />
  <rect x="56" y="80" width="4" height="4" fill="#A6614D" />
  <rect x="60" y="80" width="4" height="4" fill="#A6614D" />
  <rect x="64" y="80" width="4" height="4" fill="#A6614D" />
  <rect x="68" y="80" width="4" height="4" fill="#A6614D" />
  <rect x="72" y="80" width="4" height="4" fill="#A6614D" />
  <rect x="76" y="80" width="4" height="4" fill="#A5614E" />
  <rect x="80" y="80" width="4" height="4" fill="#A7614D" />
  <rect x="84" y="80" width="4" height="4" fill="#A7614D" />
  <rect x="88" y="80" width="4" height="4" fill="#A6614D" />
  <rect x="92" y="80" width="4" height="4" fill="#A5624E" />
  <rect x="96" y="80" width="4" height="4" fill="#090405" />
  <rect y="84" width="4" height="4" fill="#040100" />
  <rect x="4" y="84" width="4" height="4" fill="black" />
  <rect x="8" y="84" width="4" height="4" fill="#040100" />
  <rect x="20" y="84" width="4" height="4" fill="#020202" />
  <rect x="24" y="84" width="4" height="4" fill="#010101" />
  <rect x="28" y="84" width="4" height="4" fill="#010000" />
  <rect x="32" y="84" width="4" height="4" fill="black" />
  <rect x="36" y="84" width="4" height="4" fill="black" />
  <rect x="40" y="84" width="4" height="4" fill="#010001" />
  <rect x="44" y="84" width="4" height="4" fill="#010001" />
  <rect x="48" y="84" width="4" height="4" fill="#020001" />
  <rect x="52" y="84" width="4" height="4" fill="#9E5F4C" />
  <rect x="56" y="84" width="4" height="4" fill="#A4614E" />
  <rect x="60" y="84" width="4" height="4" fill="#A4614E" />
  <rect x="64" y="84" width="4" height="4" fill="#A6614D" />
  <rect x="68" y="84" width="4" height="4" fill="#A6614D" />
  <rect x="72" y="84" width="4" height="4" fill="#A6614D" />
  <rect x="76" y="84" width="4" height="4" fill="#A6614D" />
  <rect x="80" y="84" width="4" height="4" fill="#A6614D" />
  <rect x="84" y="84" width="4" height="4" fill="#A6614D" />
  <rect x="88" y="84" width="4" height="4" fill="#A6614D" />
  <rect x="92" y="84" width="4" height="4" fill="#A46250" />
  <rect x="96" y="84" width="4" height="4" fill="#080304" />
  <rect x="4" y="88" width="4" height="4" fill="#010000" />
  <rect x="8" y="88" width="4" height="4" fill="#040000" />
  <rect x="20" y="88" width="4" height="4" fill="#040202" />
  <rect x="24" y="88" width="4" height="4" fill="#2E2725" />
  <rect x="28" y="88" width="4" height="4" fill="#2D2623" />
  <rect x="32" y="88" width="4" height="4" fill="#020101" />
  <rect x="36" y="88" width="4" height="4" fill="black" />
  <rect x="40" y="88" width="4" height="4" fill="black" />
  <rect x="44" y="88" width="4" height="4" fill="black" />
  <rect x="48" y="88" width="4" height="4" fill="black" />
  <rect x="52" y="88" width="4" height="4" fill="#010000" />
  <rect x="56" y="88" width="4" height="4" fill="#010100" />
  <rect x="60" y="88" width="4" height="4" fill="#030101" />
  <rect x="64" y="88" width="4" height="4" fill="#A2614E" />
  <rect x="68" y="88" width="4" height="4" fill="#A6614D" />
  <rect x="72" y="88" width="4" height="4" fill="#A6614D" />
  <rect x="76" y="88" width="4" height="4" fill="#A6614D" />
  <rect x="80" y="88" width="4" height="4" fill="#A6614D" />
  <rect x="84" y="88" width="4" height="4" fill="#A6614D" />
  <rect x="88" y="88" width="4" height="4" fill="#A3624F" />
  <rect x="92" y="88" width="4" height="4" fill="#080504" />
  <rect x="96" y="88" width="4" height="4" fill="#010000" />
  <rect x="100" y="88" width="4" height="4" fill="#020001" />
  <rect x="4" y="92" width="4" height="4" fill="#0A0504" />
  <rect x="8" y="92" width="4" height="4" fill="black" />
  <rect x="12" y="92" width="4" height="4" fill="#010001" />
  <rect x="16" y="92" width="4" height="4" fill="#2E2723" />
  <rect x="20" y="92" width="4" height="4" fill="#302824" />
  <rect x="24" y="92" width="4" height="4" fill="#020101" />
  <rect x="28" y="92" width="4" height="4" fill="#1C1716" />
  <rect x="32" y="92" width="4" height="4" fill="#1D1616" />
  <rect x="36" y="92" width="4" height="4" fill="black" />
  <rect x="40" y="92" width="4" height="4" fill="black" />
  <rect x="44" y="92" width="4" height="4" fill="#1B1716" />
  <rect x="48" y="92" width="4" height="4" fill="#010101" />
  <rect x="52" y="92" width="4" height="4" fill="#010000" />
  <rect x="56" y="92" width="4" height="4" fill="#1C1616" />
  <rect x="60" y="92" width="4" height="4" fill="#1B1515" />
  <rect x="64" y="92" width="4" height="4" fill="#050303" />
  <rect x="68" y="92" width="4" height="4" fill="#A1604E" />
  <rect x="72" y="92" width="4" height="4" fill="#A25F4D" />
  <rect x="76" y="92" width="4" height="4" fill="#A25F4D" />
  <rect x="80" y="92" width="4" height="4" fill="#A25F4D" />
  <rect x="84" y="92" width="4" height="4" fill="#A1604E" />
  <rect x="88" y="92" width="4" height="4" fill="#010101" />
  <rect x="92" y="92" width="4" height="4" fill="#010101" />
  <rect x="96" y="92" width="4" height="4" fill="black" />
  <rect x="100" y="92" width="4" height="4" fill="#010001" />
  <rect x="8" y="96" width="4" height="4" fill="#010101" />
  <rect x="12" y="96" width="4" height="4" fill="black" />
  <rect x="16" y="96" width="4" height="4" fill="#010101" />
  <rect x="20" y="96" width="4" height="4" fill="#1C1716" />
  <rect x="24" y="96" width="4" height="4" fill="#020201" />
  <rect x="28" y="96" width="4" height="4" fill="#040302" />
  <rect x="32" y="96" width="4" height="4" fill="#1E1816" />
  <rect x="36" y="96" width="4" height="4" fill="#020101" />
  <rect x="40" y="96" width="4" height="4" fill="black" />
  <rect x="44" y="96" width="4" height="4" fill="#010000" />
  <rect x="48" y="96" width="4" height="4" fill="#1B1716" />
  <rect x="52" y="96" width="4" height="4" fill="#020101" />
  <rect x="56" y="96" width="4" height="4" fill="#1C1615" />
  <rect x="60" y="96" width="4" height="4" fill="#1D1616" />
  <rect x="64" y="96" width="4" height="4" fill="#1C1615" />
  <rect x="68" y="96" width="4" height="4" fill="#030202" />
  <rect x="72" y="96" width="4" height="4" fill="#020102" />
  <rect x="76" y="96" width="4" height="4" fill="#010001" />
  <rect x="80" y="96" width="4" height="4" fill="#010001" />
  <rect x="84" y="96" width="4" height="4" fill="#020101" />
  <rect x="88" y="96" width="4" height="4" fill="#010101" />
  <rect x="92" y="96" width="4" height="4" fill="#1B1616" />
  <rect x="96" y="96" width="4" height="4" fill="#020101" />
  <rect x="100" y="96" width="4" height="4" fill="#070708" />
  <rect x="104" y="96" width="4" height="4" fill="#050000" />
  <rect x="8" y="100" width="4" height="4" fill="#010000" />
  <rect x="12" y="100" width="4" height="4" fill="#010000" />
  <rect x="16" y="100" width="4" height="4" fill="#1C1716" />
  <rect x="20" y="100" width="4" height="4" fill="#1C1616" />
  <rect x="24" y="100" width="4" height="4" fill="#2D2723" />
  <rect x="28" y="100" width="4" height="4" fill="#2E2723" />
  <rect x="32" y="100" width="4" height="4" fill="#2E2623" />
  <rect x="36" y="100" width="4" height="4" fill="#2E2724" />
  <rect x="40" y="100" width="4" height="4" fill="#010000" />
  <rect x="44" y="100" width="4" height="4" fill="#010101" />
  <rect x="48" y="100" width="4" height="4" fill="black" />
  <rect x="52" y="100" width="4" height="4" fill="#010000" />
  <rect x="56" y="100" width="4" height="4" fill="#1A1514" />
  <rect x="60" y="100" width="4" height="4" fill="#1C1515" />
  <rect x="64" y="100" width="4" height="4" fill="#1B1515" />
  <rect x="68" y="100" width="4" height="4" fill="#1B1515" />
  <rect x="72" y="100" width="4" height="4" fill="#1C1716" />
  <rect x="76" y="100" width="4" height="4" fill="#020101" />
  <rect x="80" y="100" width="4" height="4" fill="black" />
  <rect x="84" y="100" width="4" height="4" fill="#1D1717" />
  <rect x="88" y="100" width="4" height="4" fill="#1C1515" />
  <rect x="92" y="100" width="4" height="4" fill="#1C1515" />
  <rect x="96" y="100" width="4" height="4" fill="#1A1515" />
  <rect x="100" y="100" width="4" height="4" fill="#A2A2B3" />
  <rect x="104" y="100" width="4" height="4" fill="#050102" />
  <rect x="8" y="104" width="4" height="4" fill="#110E0A" />
  <rect x="12" y="104" width="4" height="4" fill="black" />
  <rect x="16" y="104" width="4" height="4" fill="#1A1615" />
  <rect x="20" y="104" width="4" height="4" fill="#010100" />
  <rect x="24" y="104" width="4" height="4" fill="#050505" />
  <rect x="28" y="104" width="4" height="4" fill="#050505" />
  <rect x="32" y="104" width="4" height="4" fill="#070708" />
  <rect x="36" y="104" width="4" height="4" fill="#070708" />
  <rect x="40" y="104" width="4" height="4" fill="black" />
  <rect x="44" y="104" width="4" height="4" fill="#1B1616" />
  <rect x="48" y="104" width="4" height="4" fill="#010000" />
  <rect x="52" y="104" width="4" height="4" fill="#020101" />
  <rect x="56" y="104" width="4" height="4" fill="#020101" />
  <rect x="60" y="104" width="4" height="4" fill="#020101" />
  <rect x="64" y="104" width="4" height="4" fill="#020101" />
  <rect x="68" y="104" width="4" height="4" fill="#030101" />
  <rect x="72" y="104" width="4" height="4" fill="#1B1515" />
  <rect x="76" y="104" width="4" height="4" fill="#1C1616" />
  <rect x="80" y="104" width="4" height="4" fill="black" />
  <rect x="84" y="104" width="4" height="4" fill="#1C1616" />
  <rect x="88" y="104" width="4" height="4" fill="#010101" />
  <rect x="92" y="104" width="4" height="4" fill="#010101" />
  <rect x="96" y="104" width="4" height="4" fill="#010101" />
  <rect x="100" y="104" width="4" height="4" fill="#000001" />
  <rect x="104" y="104" width="4" height="4" fill="black" />
  <rect x="108" y="104" width="4" height="4" fill="#010101" />
  <rect x="12" y="108" width="4" height="4" fill="#010000" />
  <rect x="16" y="108" width="4" height="4" fill="#010101" />
  <rect x="20" y="108" width="4" height="4" fill="#010101" />
  <rect x="24" y="108" width="4" height="4" fill="#4F4E50" />
  <rect x="28" y="108" width="4" height="4" fill="#555457" />
  <rect x="32" y="108" width="4" height="4" fill="#6A6974" />
  <rect x="36" y="108" width="4" height="4" fill="#6B6C78" />
  <rect x="40" y="108" width="4" height="4" fill="#090A0A" />
  <rect x="44" y="108" width="4" height="4" fill="#010000" />
  <rect x="48" y="108" width="4" height="4" fill="#030202" />
  <rect x="52" y="108" width="4" height="4" fill="#1A1514" />
  <rect x="56" y="108" width="4" height="4" fill="#1B1515" />
  <rect x="60" y="108" width="4" height="4" fill="#1B1515" />
  <rect x="64" y="108" width="4" height="4" fill="#1B1515" />
  <rect x="68" y="108" width="4" height="4" fill="#1A1615" />
  <rect x="72" y="108" width="4" height="4" fill="#010101" />
  <rect x="76" y="108" width="4" height="4" fill="#1A1514" />
  <rect x="80" y="108" width="4" height="4" fill="black" />
  <rect x="84" y="108" width="4" height="4" fill="#010000" />
  <rect x="88" y="108" width="4" height="4" fill="#1C1616" />
  <rect x="92" y="108" width="4" height="4" fill="#1B1515" />
  <rect x="96" y="108" width="4" height="4" fill="#1B1615" />
  <rect x="100" y="108" width="4" height="4" fill="#010101" />
  <rect x="104" y="108" width="4" height="4" fill="black" />
  <rect x="108" y="108" width="4" height="4" fill="black" />
  <rect x="12" y="112" width="4" height="4" fill="#010100" />
  <rect x="16" y="112" width="4" height="4" fill="black" />
  <rect x="20" y="112" width="4" height="4" fill="black" />
  <rect x="24" y="112" width="4" height="4" fill="#020202" />
  <rect x="28" y="112" width="4" height="4" fill="#565457" />
  <rect x="32" y="112" width="4" height="4" fill="#555357" />
  <rect x="36" y="112" width="4" height="4" fill="#6B6B76" />
  <rect x="40" y="112" width="4" height="4" fill="#6B6B76" />
  <rect x="44" y="112" width="4" height="4" fill="#010000" />
  <rect x="48" y="112" width="4" height="4" fill="#1C1616" />
  <rect x="52" y="112" width="4" height="4" fill="#020101" />
  <rect x="56" y="112" width="4" height="4" fill="black" />
  <rect x="60" y="112" width="4" height="4" fill="black" />
  <rect x="64" y="112" width="4" height="4" fill="black" />
  <rect x="68" y="112" width="4" height="4" fill="black" />
  <rect x="72" y="112" width="4" height="4" fill="black" />
  <rect x="76" y="112" width="4" height="4" fill="#010000" />
  <rect x="80" y="112" width="4" height="4" fill="black" />
  <rect x="84" y="112" width="4" height="4" fill="#000001" />
  <rect x="88" y="112" width="4" height="4" fill="#010000" />
  <rect x="92" y="112" width="4" height="4" fill="black" />
  <rect x="96" y="112" width="4" height="4" fill="black" />
  <rect x="100" y="112" width="4" height="4" fill="black" />
  <rect x="104" y="112" width="4" height="4" fill="black" />
  <rect x="108" y="112" width="4" height="4" fill="black" />
  <rect x="112" y="112" width="4" height="4" fill="#020100" />
  <rect x="12" y="116" width="4" height="4" fill="#010100" />
  <rect x="16" y="116" width="4" height="4" fill="black" />
  <rect x="20" y="116" width="4" height="4" fill="black" />
  <rect x="24" y="116" width="4" height="4" fill="#010000" />
  <rect x="28" y="116" width="4" height="4" fill="#010101" />
  <rect x="32" y="116" width="4" height="4" fill="#010101" />
  <rect x="36" y="116" width="4" height="4" fill="#2E2926" />
  <rect x="40" y="116" width="4" height="4" fill="#2F2926" />
  <rect x="44" y="116" width="4" height="4" fill="#2F2825" />
  <rect x="48" y="116" width="4" height="4" fill="#020001" />
  <rect x="52" y="116" width="4" height="4" fill="#1C1515" />
  <rect x="56" y="116" width="4" height="4" fill="#1C1616" />
  <rect x="60" y="116" width="4" height="4" fill="#1C1615" />
  <rect x="64" y="116" width="4" height="4" fill="#1C1616" />
  <rect x="68" y="116" width="4" height="4" fill="#1C1616" />
  <rect x="72" y="116" width="4" height="4" fill="#FEFDFD" />
  <rect x="76" y="116" width="4" height="4" fill="#FEFEFE" />
  <rect x="80" y="116" width="4" height="4" fill="#FEFDFD" />
  <rect x="84" y="116" width="4" height="4" fill="#ADADBE" />
  <rect x="88" y="116" width="4" height="4" fill="#1B1715" />
  <rect x="92" y="116" width="4" height="4" fill="#1D1717" />
  <rect x="96" y="116" width="4" height="4" fill="#1C1717" />
  <rect x="100" y="116" width="4" height="4" fill="#010100" />
  <rect x="104" y="116" width="4" height="4" fill="#1C1717" />
  <rect x="108" y="116" width="4" height="4" fill="#1C1716" />
  <rect x="112" y="116" width="4" height="4" fill="#010001" />
  <rect x="12" y="120" width="4" height="4" fill="#010100" />
  <rect x="16" y="120" width="4" height="4" fill="black" />
  <rect x="20" y="120" width="4" height="4" fill="black" />
  <rect x="24" y="120" width="4" height="4" fill="#1C1716" />
  <rect x="28" y="120" width="4" height="4" fill="#1D1716" />
  <rect x="32" y="120" width="4" height="4" fill="#1C1716" />
  <rect x="36" y="120" width="4" height="4" fill="#010100" />
  <rect x="40" y="120" width="4" height="4" fill="#000100" />
  <rect x="44" y="120" width="4" height="4" fill="#000100" />
  <rect x="48" y="120" width="4" height="4" fill="#010000" />
  <rect x="52" y="120" width="4" height="4" fill="#1C1515" />
  <rect x="56" y="120" width="4" height="4" fill="#1D1616" />
  <rect x="60" y="120" width="4" height="4" fill="#1D1616" />
  <rect x="64" y="120" width="4" height="4" fill="#1D1616" />
  <rect x="68" y="120" width="4" height="4" fill="#1D1616" />
  <rect x="72" y="120" width="4" height="4" fill="#1D1717" />
  <rect x="76" y="120" width="4" height="4" fill="#1D1717" />
  <rect x="80" y="120" width="4" height="4" fill="#1D1717" />
  <rect x="84" y="120" width="4" height="4" fill="#1D1717" />
  <rect x="88" y="120" width="4" height="4" fill="#1D1616" />
  <rect x="92" y="120" width="4" height="4" fill="#1D1616" />
  <rect x="96" y="120" width="4" height="4" fill="#1D1716" />
  <rect x="100" y="120" width="4" height="4" fill="#010100" />
  <rect x="104" y="120" width="4" height="4" fill="black" />
  <rect x="108" y="120" width="4" height="4" fill="black" />
  <rect x="112" y="120" width="4" height="4" fill="black" />
  <rect x="12" y="124" width="4" height="4" fill="#010101" />
  <rect x="16" y="124" width="4" height="4" fill="#010101" />
  <rect x="20" y="124" width="4" height="4" fill="#010101" />
  <rect x="24" y="124" width="4" height="4" fill="#010101" />
  <rect x="28" y="124" width="4" height="4" fill="#010101" />
  <rect x="32" y="124" width="4" height="4" fill="#010101" />
  <rect x="36" y="124" width="4" height="4" fill="#1C1716" />
  <rect x="40" y="124" width="4" height="4" fill="#1D1616" />
  <rect x="44" y="124" width="4" height="4" fill="#2F2824" />
  <rect x="48" y="124" width="4" height="4" fill="#302824" />
  <rect x="52" y="124" width="4" height="4" fill="#030201" />
  <rect x="56" y="124" width="4" height="4" fill="#1B1615" />
  <rect x="60" y="124" width="4" height="4" fill="#010101" />
  <rect x="64" y="124" width="4" height="4" fill="#010101" />
  <rect x="68" y="124" width="4" height="4" fill="#010101" />
  <rect x="72" y="124" width="4" height="4" fill="#010101" />
  <rect x="76" y="124" width="4" height="4" fill="#010101" />
  <rect x="80" y="124" width="4" height="4" fill="#010101" />
  <rect x="84" y="124" width="4" height="4" fill="#010101" />
  <rect x="88" y="124" width="4" height="4" fill="#010101" />
  <rect x="92" y="124" width="4" height="4" fill="#010101" />
  <rect x="96" y="124" width="4" height="4" fill="#1C1716" />
  <rect x="100" y="124" width="4" height="4" fill="#010101" />
  <rect x="104" y="124" width="4" height="4" fill="#1D1817" />
  <rect x="108" y="124" width="4" height="4" fill="#1D1717" />
  <rect x="112" y="124" width="4" height="4" fill="#010101" />
  <rect x="92" y="76" width="4" height="4" fill="#1D1616" />
  <rect x="96" y="76" width="4" height="4" fill="#1D1616" />
  <rect x="100" y="76" width="4" height="4" fill="#1D1616" />
  <rect x="104" y="76" width="4" height="4" fill="#1D1616" />
  <rect x="108" y="76" width="4" height="4" fill="#FF5D00" />
</svg>
