<svg width="14" height="28" viewBox="0 0 14 28" fill="none" xmlns="http://www.w3.org/2000/svg">
<g filter="url(#filter0_d_3483_255654)">
<mask id="path-1-outside-1_3483_255654" maskUnits="userSpaceOnUse" x="0" y="0" width="14" height="26" fill="black">
<rect fill="white" width="14" height="26"/>
<path d="M12 18V20H10V22H8V24H6V22H4V20H2V18H12ZM8 16H6V2H8V16Z"/>
</mask>
<path d="M12 18V20H10V22H8V24H6V22H4V20H2V18H12ZM8 16H6V2H8V16Z" fill="white"/>
<path d="M12 18H14V16H12V18ZM12 20V22H14V20H12ZM10 20V18H8V20H10ZM10 22V24H12V22H10ZM8 22V20H6V22H8ZM8 24V26H10V24H8ZM6 24H4V26H6V24ZM6 22H8V20H6V22ZM4 22H2V24H4V22ZM4 20H6V18H4V20ZM2 20H0V22H2V20ZM2 18V16H0V18H2ZM8 16V18H10V16H8ZM6 16H4V18H6V16ZM6 2V0H4V2H6ZM8 2H10V0H8V2ZM12 18H10V20H12H14V18H12ZM12 20V18H10V20V22H12V20ZM10 20H8V22H10H12V20H10ZM10 22V20H8V22V24H10V22ZM8 22H6V24H8H10V22H8ZM8 24V22H6V24V26H8V24ZM6 24H8V22H6H4V24H6ZM6 22V20H4V22V24H6V22ZM4 22H6V20H4H2V22H4ZM4 20V18H2V20V22H4V20ZM2 20H4V18H2H0V20H2ZM2 18V20H12V18V16H2V18ZM8 16V14H6V16V18H8V16ZM6 16H8V2H6H4V16H6ZM6 2V4H8V2V0H6V2ZM8 2H6V16H8H10V2H8Z" fill="#743320" mask="url(#path-1-outside-1_3483_255654)"/>
</g>
<defs>
<filter id="filter0_d_3483_255654" x="0" y="0" width="14" height="28" filterUnits="userSpaceOnUse" color-interpolation-filters="sRGB">
<feFlood flood-opacity="0" result="BackgroundImageFix"/>
<feColorMatrix in="SourceAlpha" type="matrix" values="0 0 0 0 0 0 0 0 0 0 0 0 0 0 0 0 0 0 127 0" result="hardAlpha"/>
<feOffset dy="2"/>
<feComposite in2="hardAlpha" operator="out"/>
<feColorMatrix type="matrix" values="0 0 0 0 0.454902 0 0 0 0 0.2 0 0 0 0 0.12549 0 0 0 1 0"/>
<feBlend mode="normal" in2="BackgroundImageFix" result="effect1_dropShadow_3483_255654"/>
<feBlend mode="normal" in="SourceGraphic" in2="effect1_dropShadow_3483_255654" result="shape"/>
</filter>
</defs>
</svg>
