<svg width="22" height="24" viewBox="0 0 22 24" fill="none" xmlns="http://www.w3.org/2000/svg">
<g filter="url(#filter0_d_3506_463450)">
<mask id="path-1-outside-1_3506_463450" maskUnits="userSpaceOnUse" x="0" y="0" width="22" height="22" fill="black">
<rect fill="white" width="22" height="22"/>
<path d="M14 18V16H16V14H18V8H16V6H14V4H8V6H6V8H4V14H6V16H8V18H14ZM12 16H10V10H12V16ZM12 8H10V6H12V8ZM16 20H6V18H4V16H2V6H4V4H6V2H16V4H18V6H20V16H18V18H16V20Z"/>
</mask>
<path d="M14 18V16H16V14H18V8H16V6H14V4H8V6H6V8H4V14H6V16H8V18H14ZM12 16H10V10H12V16ZM12 8H10V6H12V8ZM16 20H6V18H4V16H2V6H4V4H6V2H16V4H18V6H20V16H18V18H16V20Z" fill="white"/>
<path d="M14 18V20H16V18H14ZM14 16V14H12V16H14ZM16 16V18H18V16H16ZM16 14V12H14V14H16ZM18 14V16H20V14H18ZM18 8H20V6H18V8ZM16 8H14V10H16V8ZM16 6H18V4H16V6ZM14 6H12V8H14V6ZM14 4H16V2H14V4ZM8 4V2H6V4H8ZM8 6V8H10V6H8ZM6 6V4H4V6H6ZM6 8V10H8V8H6ZM4 8V6H2V8H4ZM4 14H2V16H4V14ZM6 14H8V12H6V14ZM6 16H4V18H6V16ZM8 16H10V14H8V16ZM8 18H6V20H8V18ZM12 16V18H14V16H12ZM10 16H8V18H10V16ZM10 10V8H8V10H10ZM12 10H14V8H12V10ZM12 8V10H14V8H12ZM10 8H8V10H10V8ZM10 6V4H8V6H10ZM12 6H14V4H12V6ZM16 20V22H18V20H16ZM6 20H4V22H6V20ZM6 18H8V16H6V18ZM4 18H2V20H4V18ZM4 16H6V14H4V16ZM2 16H0V18H2V16ZM2 6V4H0V6H2ZM4 6V8H6V6H4ZM4 4V2H2V4H4ZM6 4V6H8V4H6ZM6 2V0H4V2H6ZM16 2H18V0H16V2ZM16 4H14V6H16V4ZM18 4H20V2H18V4ZM18 6H16V8H18V6ZM20 6H22V4H20V6ZM20 16V18H22V16H20ZM18 16V14H16V16H18ZM18 18V20H20V18H18ZM16 18V16H14V18H16ZM14 18H16V16H14H12V18H14ZM14 16V18H16V16V14H14V16ZM16 16H18V14H16H14V16H16ZM16 14V16H18V14V12H16V14ZM18 14H20V8H18H16V14H18ZM18 8V6H16V8V10H18V8ZM16 8H18V6H16H14V8H16ZM16 6V4H14V6V8H16V6ZM14 6H16V4H14H12V6H14ZM14 4V2H8V4V6H14V4ZM8 4H6V6H8H10V4H8ZM8 6V4H6V6V8H8V6ZM6 6H4V8H6H8V6H6ZM6 8V6H4V8V10H6V8ZM4 8H2V14H4H6V8H4ZM4 14V16H6V14V12H4V14ZM6 14H4V16H6H8V14H6ZM6 16V18H8V16V14H6V16ZM8 16H6V18H8H10V16H8ZM8 18V20H14V18V16H8V18ZM12 16V14H10V16V18H12V16ZM10 16H12V10H10H8V16H10ZM10 10V12H12V10V8H10V10ZM12 10H10V16H12H14V10H12ZM12 8V6H10V8V10H12V8ZM10 8H12V6H10H8V8H10ZM10 6V8H12V6V4H10V6ZM12 6H10V8H12H14V6H12ZM16 20V18H6V20V22H16V20ZM6 20H8V18H6H4V20H6ZM6 18V16H4V18V20H6V18ZM4 18H6V16H4H2V18H4ZM4 16V14H2V16V18H4V16ZM2 16H4V6H2H0V16H2ZM2 6V8H4V6V4H2V6ZM4 6H6V4H4H2V6H4ZM4 4V6H6V4V2H4V4ZM6 4H8V2H6H4V4H6ZM6 2V4H16V2V0H6V2ZM16 2H14V4H16H18V2H16ZM16 4V6H18V4V2H16V4ZM18 4H16V6H18H20V4H18ZM18 6V8H20V6V4H18V6ZM20 6H18V16H20H22V6H20ZM20 16V14H18V16V18H20V16ZM18 16H16V18H18H20V16H18ZM18 18V16H16V18V20H18V18ZM16 18H14V20H16H18V18H16Z" fill="#743320" mask="url(#path-1-outside-1_3506_463450)"/>
</g>
<defs>
<filter id="filter0_d_3506_463450" x="0" y="0" width="22" height="24" filterUnits="userSpaceOnUse" color-interpolation-filters="sRGB">
<feFlood flood-opacity="0" result="BackgroundImageFix"/>
<feColorMatrix in="SourceAlpha" type="matrix" values="0 0 0 0 0 0 0 0 0 0 0 0 0 0 0 0 0 0 127 0" result="hardAlpha"/>
<feOffset dy="2"/>
<feComposite in2="hardAlpha" operator="out"/>
<feColorMatrix type="matrix" values="0 0 0 0 0.454902 0 0 0 0 0.2 0 0 0 0 0.12549 0 0 0 1 0"/>
<feBlend mode="normal" in2="BackgroundImageFix" result="effect1_dropShadow_3506_463450"/>
<feBlend mode="normal" in="SourceGraphic" in2="effect1_dropShadow_3506_463450" result="shape"/>
</filter>
</defs>
</svg>
