<svg
  width="24"
  height="30"
  viewBox="0 0 24 30"
  fill="none"
  xmlns="http://www.w3.org/2000/svg"
>
  <g filter="url(#filter0_d_3559_194100)">
    <mask
      id="path-1-outside-1_3559_194100"
      maskUnits="userSpaceOnUse"
      x="1"
      y="0"
      width="22"
      height="28"
      fill="black"
    >
      <rect fill="white" x="1" width="22" height="28" />
      <path
        d="M13 2H11V4H9V6H7V8H5V10H3V12H9V26H15V12H21V10H19V8H17V6H15V4H13V2Z"
      />
    </mask>
    <path
      d="M13 2H11V4H9V6H7V8H5V10H3V12H9V26H15V12H21V10H19V8H17V6H15V4H13V2Z"
      fill="white"
    />
    <path
      d="M13 2V0H15V2H13ZM11 2H9V0H11V2ZM11 4H13V6H11V4ZM9 4H7V2H9V4ZM9 6H11V8H9V6ZM7 6H5V4H7V6ZM7 8H9V10H7V8ZM5 8H3V6H5V8ZM5 10H7V12H5V10ZM3 10H1V8H3V10ZM3 12V14H1V12H3ZM9 12V10H11V12H9ZM9 26V28H7V26H9ZM15 26H17V28H15V26ZM15 12H13V10H15V12ZM21 12H23V14H21V12ZM21 10V8H23V10H21ZM19 10V12H17V10H19ZM19 8V6H21V8H19ZM17 8V10H15V8H17ZM17 6V4H19V6H17ZM15 6V8H13V6H15ZM15 4V2H17V4H15ZM13 4V6H11V4H13ZM13 2V4H11V2V0H13V2ZM11 2H13V4H11H9V2H11ZM11 4V6H9V4V2H11V4ZM9 4H11V6H9H7V4H9ZM9 6V8H7V6V4H9V6ZM7 6H9V8H7H5V6H7ZM7 8V10H5V8V6H7V8ZM5 8H7V10H5H3V8H5ZM5 10V12H3V10V8H5V10ZM3 10H5V12H3H1V10H3ZM3 12V10H9V12V14H3V12ZM9 12H11V26H9H7V12H9ZM9 26V24H15V26V28H9V26ZM15 26H13V12H15H17V26H15ZM15 12V10H21V12V14H15V12ZM21 12H19V10H21H23V12H21ZM21 10V12H19V10V8H21V10ZM19 10H17V8H19H21V10H19ZM19 8V10H17V8V6H19V8ZM17 8H15V6H17H19V8H17ZM17 6V8H15V6V4H17V6ZM15 6H13V4H15H17V6H15ZM15 4V6H13V4V2H15V4ZM13 4H11V2H13H15V4H13Z"
      fill="#743320"
      mask="url(#path-1-outside-1_3559_194100)"
    />
  </g>
  <defs>
    <filter
      id="filter0_d_3559_194100"
      x="1"
      y="0"
      width="22"
      height="30"
      filterUnits="userSpaceOnUse"
      color-interpolation-filters="sRGB"
    >
      <feFlood flood-opacity="0" result="BackgroundImageFix" />
      <feColorMatrix
        in="SourceAlpha"
        type="matrix"
        values="0 0 0 0 0 0 0 0 0 0 0 0 0 0 0 0 0 0 127 0"
        result="hardAlpha"
      />
      <feOffset dy="2" />
      <feComposite in2="hardAlpha" operator="out" />
      <feColorMatrix
        type="matrix"
        values="0 0 0 0 0.454902 0 0 0 0 0.2 0 0 0 0 0.12549 0 0 0 1 0"
      />
      <feBlend
        mode="normal"
        in2="BackgroundImageFix"
        result="effect1_dropShadow_3559_194100"
      />
      <feBlend
        mode="normal"
        in="SourceGraphic"
        in2="effect1_dropShadow_3559_194100"
        result="shape"
      />
    </filter>
  </defs>
</svg>
