<svg
  width="26"
  height="26"
  viewBox="0 0 26 26"
  fill="none"
  xmlns="http://www.w3.org/2000/svg"
>
  <g filter="url(#filter0_d_3643_199548)">
    <mask
      id="path-1-outside-1_3643_199548"
      maskUnits="userSpaceOnUse"
      x="-8.74228e-07"
      y="1"
      width="26"
      height="22"
      fill="black"
    >
      <rect fill="white" x="-8.74228e-07" y="1" width="26" height="22" />
      <path
        d="M14 15L14 21L16 21L16 19L18 19L18 17L20 17L20 15L22 15L22 13L24 13L24 11L22 11L22 9L20 9L20 7L18 7L18 5L16 5L16 3L14 3L14 9L8 9L8 15L14 15ZM8 21L8 19L4 19L4 5L8 5L8 3L2 3L2 21L8 21Z"
      />
    </mask>
    <path
      d="M14 15L14 21L16 21L16 19L18 19L18 17L20 17L20 15L22 15L22 13L24 13L24 11L22 11L22 9L20 9L20 7L18 7L18 5L16 5L16 3L14 3L14 9L8 9L8 15L14 15ZM8 21L8 19L4 19L4 5L8 5L8 3L2 3L2 21L8 21Z"
      fill="white"
    />
    <path
      d="M14 15L14 13L16 13L16 15L14 15ZM14 21L14 23L12 23L12 21L14 21ZM16 21L18 21L18 23L16 23L16 21ZM16 19L14 19L14 17L16 17L16 19ZM18 19L20 19L20 21L18 21L18 19ZM18 17L16 17L16 15L18 15L18 17ZM20 17L22 17L22 19L20 19L20 17ZM20 15L18 15L18 13L20 13L20 15ZM22 15L24 15L24 17L22 17L22 15ZM22 13L20 13L20 11L22 11L22 13ZM24 13L26 13L26 15L24 15L24 13ZM24 11L24 9L26 9L26 11L24 11ZM22 11L22 13L20 13L20 11L22 11ZM22 9L22 7L24 7L24 9L22 9ZM20 9L20 11L18 11L18 9L20 9ZM20 7L20 5L22 5L22 7L20 7ZM18 7L18 9L16 9L16 7L18 7ZM18 5L18 3L20 3L20 5L18 5ZM16 5L16 7L14 7L14 5L16 5ZM16 3L16 1L18 1L18 3L16 3ZM14 3L12 3L12 1L14 1L14 3ZM14 9L16 9L16 11L14 11L14 9ZM8 9L6 9L6 7L8 7L8 9ZM8 15L8 17L6 17L6 15L8 15ZM8 21L10 21L10 23L8 23L8 21ZM8 19L8 17L10 17L10 19L8 19ZM4 19L4 21L2 21L2 19L4 19ZM4 5L2 5L2 3L4 3L4 5ZM8 5L10 5L10 7L8 7L8 5ZM8 3L8 1L10 1L10 3L8 3ZM2 3L0 3L8.74228e-08 1L2 1L2 3ZM2 21L2 23L-8.74228e-07 23L-7.86805e-07 21L2 21ZM14 15L16 15L16 21L14 21L12 21L12 15L14 15ZM14 21L14 19L16 19L16 21L16 23L14 23L14 21ZM16 21L14 21L14 19L16 19L18 19L18 21L16 21ZM16 19L16 17L18 17L18 19L18 21L16 21L16 19ZM18 19L16 19L16 17L18 17L20 17L20 19L18 19ZM18 17L18 15L20 15L20 17L20 19L18 19L18 17ZM20 17L18 17L18 15L20 15L22 15L22 17L20 17ZM20 15L20 13L22 13L22 15L22 17L20 17L20 15ZM22 15L20 15L20 13L22 13L24 13L24 15L22 15ZM22 13L22 11L24 11L24 13L24 15L22 15L22 13ZM24 13L22 13L22 11L24 11L26 11L26 13L24 13ZM24 11L24 13L22 13L22 11L22 9L24 9L24 11ZM22 11L20 11L20 9L22 9L24 9L24 11L22 11ZM22 9L22 11L20 11L20 9L20 7L22 7L22 9ZM20 9L18 9L18 7L20 7L22 7L22 9L20 9ZM20 7L20 9L18 9L18 7L18 5L20 5L20 7ZM18 7L16 7L16 5L18 5L20 5L20 7L18 7ZM18 5L18 7L16 7L16 5L16 3L18 3L18 5ZM16 5L14 5L14 3L16 3L18 3L18 5L16 5ZM16 3L16 5L14 5L14 3L14 1L16 1L16 3ZM14 3L16 3L16 9L14 9L12 9L12 3L14 3ZM14 9L14 11L8 11L8 9L8 7L14 7L14 9ZM8 9L10 9L10 15L8 15L6 15L6 9L8 9ZM8 15L8 13L14 13L14 15L14 17L8 17L8 15ZM8 21L6 21L6 19L8 19L10 19L10 21L8 21ZM8 19L8 21L4 21L4 19L4 17L8 17L8 19ZM4 19L2 19L2 5L4 5L6 5L6 19L4 19ZM4 5L4 3L8 3L8 5L8 7L4 7L4 5ZM8 5L6 5L6 3L8 3L10 3L10 5L8 5ZM8 3L8 5L2 5L2 3L2 1L8 1L8 3ZM2 3L4 3L4 21L2 21L-7.86805e-07 21L0 3L2 3ZM2 21L2 19L8 19L8 21L8 23L2 23L2 21Z"
      fill="#743320"
      mask="url(#path-1-outside-1_3643_199548)"
    />
  </g>
  <defs>
    <filter
      id="filter0_d_3643_199548"
      x="0"
      y="1"
      width="26"
      height="24"
      filterUnits="userSpaceOnUse"
      color-interpolation-filters="sRGB"
    >
      <feFlood flood-opacity="0" result="BackgroundImageFix" />
      <feColorMatrix
        in="SourceAlpha"
        type="matrix"
        values="0 0 0 0 0 0 0 0 0 0 0 0 0 0 0 0 0 0 127 0"
        result="hardAlpha"
      />
      <feOffset dy="2" />
      <feComposite in2="hardAlpha" operator="out" />
      <feColorMatrix
        type="matrix"
        values="0 0 0 0 0.454902 0 0 0 0 0.2 0 0 0 0 0.12549 0 0 0 1 0"
      />
      <feBlend
        mode="normal"
        in2="BackgroundImageFix"
        result="effect1_dropShadow_3643_199548"
      />
      <feBlend
        mode="normal"
        in="SourceGraphic"
        in2="effect1_dropShadow_3643_199548"
        result="shape"
      />
    </filter>
  </defs>
</svg>
