<svg width="24" height="26" viewBox="0 0 24 26" fill="none" xmlns="http://www.w3.org/2000/svg">
<g filter="url(#filter0_d_3255_50088)">
<mask id="path-1-outside-1_3255_50088" maskUnits="userSpaceOnUse" x="1" y="0" width="22" height="24" fill="black">
<rect fill="white" x="1" width="22" height="24"/>
<path d="M13 22H11V20H9V18H7V16H5V14H3V6H5V4H7V2H17V4H19V6H21V14H19V16H17V18H15V20H13V22ZM9 6H7V12H9V14H15V12H17V6H15V4H9V6Z"/>
</mask>
<path d="M13 22H11V20H9V18H7V16H5V14H3V6H5V4H7V2H17V4H19V6H21V14H19V16H17V18H15V20H13V22ZM9 6H7V12H9V14H15V12H17V6H15V4H9V6Z" fill="white"/>
<path d="M13 22V24H15V22H13ZM11 22H9V24H11V22ZM11 20H13V18H11V20ZM9 20H7V22H9V20ZM9 18H11V16H9V18ZM7 18H5V20H7V18ZM7 16H9V14H7V16ZM5 16H3V18H5V16ZM5 14H7V12H5V14ZM3 14H1V16H3V14ZM3 6V4H1V6H3ZM5 6V8H7V6H5ZM5 4V2H3V4H5ZM7 4V6H9V4H7ZM7 2V0H5V2H7ZM17 2H19V0H17V2ZM17 4H15V6H17V4ZM19 4H21V2H19V4ZM19 6H17V8H19V6ZM21 6H23V4H21V6ZM21 14V16H23V14H21ZM19 14V12H17V14H19ZM19 16V18H21V16H19ZM17 16V14H15V16H17ZM17 18V20H19V18H17ZM15 18V16H13V18H15ZM15 20V22H17V20H15ZM13 20V18H11V20H13ZM9 6V8H11V6H9ZM7 6V4H5V6H7ZM7 12H5V14H7V12ZM9 12H11V10H9V12ZM9 14H7V16H9V14ZM15 14V16H17V14H15ZM15 12V10H13V12H15ZM17 12V14H19V12H17ZM17 6H19V4H17V6ZM15 6H13V8H15V6ZM15 4H17V2H15V4ZM9 4V2H7V4H9ZM13 22V20H11V22V24H13V22ZM11 22H13V20H11H9V22H11ZM11 20V18H9V20V22H11V20ZM9 20H11V18H9H7V20H9ZM9 18V16H7V18V20H9V18ZM7 18H9V16H7H5V18H7ZM7 16V14H5V16V18H7V16ZM5 16H7V14H5H3V16H5ZM5 14V12H3V14V16H5V14ZM3 14H5V6H3H1V14H3ZM3 6V8H5V6V4H3V6ZM5 6H7V4H5H3V6H5ZM5 4V6H7V4V2H5V4ZM7 4H9V2H7H5V4H7ZM7 2V4H17V2V0H7V2ZM17 2H15V4H17H19V2H17ZM17 4V6H19V4V2H17V4ZM19 4H17V6H19H21V4H19ZM19 6V8H21V6V4H19V6ZM21 6H19V14H21H23V6H21ZM21 14V12H19V14V16H21V14ZM19 14H17V16H19H21V14H19ZM19 16V14H17V16V18H19V16ZM17 16H15V18H17H19V16H17ZM17 18V16H15V18V20H17V18ZM15 18H13V20H15H17V18H15ZM15 20V18H13V20V22H15V20ZM13 20H11V22H13H15V20H13ZM9 6V4H7V6V8H9V6ZM7 6H5V12H7H9V6H7ZM7 12V14H9V12V10H7V12ZM9 12H7V14H9H11V12H9ZM9 14V16H15V14V12H9V14ZM15 14H17V12H15H13V14H15ZM15 12V14H17V12V10H15V12ZM17 12H19V6H17H15V12H17ZM17 6V4H15V6V8H17V6ZM15 6H17V4H15H13V6H15ZM15 4V2H9V4V6H15V4ZM9 4H7V6H9H11V4H9Z" fill="#15175E" mask="url(#path-1-outside-1_3255_50088)"/>
</g>
<defs>
<filter id="filter0_d_3255_50088" x="1" y="0" width="22" height="26" filterUnits="userSpaceOnUse" color-interpolation-filters="sRGB">
<feFlood flood-opacity="0" result="BackgroundImageFix"/>
<feColorMatrix in="SourceAlpha" type="matrix" values="0 0 0 0 0 0 0 0 0 0 0 0 0 0 0 0 0 0 127 0" result="hardAlpha"/>
<feOffset dy="2"/>
<feComposite in2="hardAlpha" operator="out"/>
<feColorMatrix type="matrix" values="0 0 0 0 0.0823529 0 0 0 0 0.0901961 0 0 0 0 0.368627 0 0 0 1 0"/>
<feBlend mode="normal" in2="BackgroundImageFix" result="effect1_dropShadow_3255_50088"/>
<feBlend mode="normal" in="SourceGraphic" in2="effect1_dropShadow_3255_50088" result="shape"/>
</filter>
</defs>
</svg>
