<svg
  width="32"
  height="33"
  viewBox="0 0 32 33"
  fill="none"
  xmlns="http://www.w3.org/2000/svg"
>
  <g clip-path="url(#clip0_3483_496332)" filter="url(#filter0_ii_3483_496332)">
    <g filter="url(#filter1_d_3483_496332)">
      <path
        fill-rule="evenodd"
        clip-rule="evenodd"
        d="M12.5374 15.4883H14.4672H16.4906H18.5697H20.548H22.5588H24.5V17.5085V19.5329H22.5187V21.4958V23.473V25.4827V27.4599V29.5602H20.4953V31.4982H18.5697H16.5265H14.5157H12.5374H10.5047V29.5602H8.52342V27.4599V25.4827V23.473V21.4958V19.5329H6.5V17.5085V15.4883H8.54829H10.5266H12.5374Z"
        fill="#FFFADD"
      />
      <path d="M26.5 3.5H24.5V5.5H26.5V3.5Z" fill="#FFFADD" />
      <path
        d="M22.4641 3.47685H24.5V1.5H22.4964H20.4928H18.4892V3.47685H16.518H14.5144V5.48611H12.5108V3.47685H10.5718H8.53591H6.5V5.48611H8.50359V7.52778H10.5395V9.50463H12.5108V11.4815V13.4583V15.5H14.5144H16.4856V13.4583V11.4815V9.47222V7.52778H18.5215H20.4605V5.48611H22.4641V3.47685Z"
        fill="#FFFADD"
      />
      <path d="M6.5 5.5H4.5V7.5H6.5V5.5Z" fill="#FFFADD" />
    </g>
  </g>
  <defs>
    <filter
      id="filter0_ii_3483_496332"
      x="0"
      y="0.5"
      width="32"
      height="32"
      filterUnits="userSpaceOnUse"
      color-interpolation-filters="sRGB"
    >
      <feFlood flood-opacity="0" result="BackgroundImageFix" />
      <feBlend
        mode="normal"
        in="SourceGraphic"
        in2="BackgroundImageFix"
        result="shape"
      />
      <feColorMatrix
        in="SourceAlpha"
        type="matrix"
        values="0 0 0 0 0 0 0 0 0 0 0 0 0 0 0 0 0 0 127 0"
        result="hardAlpha"
      />
      <feOffset dy="-2" />
      <feComposite in2="hardAlpha" operator="arithmetic" k2="-1" k3="1" />
      <feColorMatrix
        type="matrix"
        values="0 0 0 0 0 0 0 0 0 0 0 0 0 0 0 0 0 0 0.1 0"
      />
      <feBlend
        mode="normal"
        in2="shape"
        result="effect1_innerShadow_3483_496332"
      />
      <feColorMatrix
        in="SourceAlpha"
        type="matrix"
        values="0 0 0 0 0 0 0 0 0 0 0 0 0 0 0 0 0 0 127 0"
        result="hardAlpha"
      />
      <feOffset dy="2" />
      <feComposite in2="hardAlpha" operator="arithmetic" k2="-1" k3="1" />
      <feColorMatrix
        type="matrix"
        values="0 0 0 0 1 0 0 0 0 1 0 0 0 0 1 0 0 0 0.2 0"
      />
      <feBlend
        mode="normal"
        in2="effect1_innerShadow_3483_496332"
        result="effect2_innerShadow_3483_496332"
      />
    </filter>
    <filter
      id="filter1_d_3483_496332"
      x="4.5"
      y="1.5"
      width="22"
      height="32"
      filterUnits="userSpaceOnUse"
      color-interpolation-filters="sRGB"
    >
      <feFlood flood-opacity="0" result="BackgroundImageFix" />
      <feColorMatrix
        in="SourceAlpha"
        type="matrix"
        values="0 0 0 0 0 0 0 0 0 0 0 0 0 0 0 0 0 0 127 0"
        result="hardAlpha"
      />
      <feOffset dy="2" />
      <feComposite in2="hardAlpha" operator="out" />
      <feColorMatrix
        type="matrix"
        values="0 0 0 0 0 0 0 0 0 0 0 0 0 0 0 0 0 0 0.1 0"
      />
      <feBlend
        mode="normal"
        in2="BackgroundImageFix"
        result="effect1_dropShadow_3483_496332"
      />
      <feBlend
        mode="normal"
        in="SourceGraphic"
        in2="effect1_dropShadow_3483_496332"
        result="shape"
      />
    </filter>
    <clipPath id="clip0_3483_496332">
      <rect width="32" height="32" fill="white" transform="translate(0 0.5)" />
    </clipPath>
  </defs>
</svg>
