<svg
  width="26"
  height="30"
  viewBox="0 0 26 30"
  fill="none"
  xmlns="http://www.w3.org/2000/svg"
>
  <g filter="url(#filter0_d_3556_158176)">
    <mask
      id="path-1-outside-1_3556_158176"
      maskUnits="userSpaceOnUse"
      x="0"
      y="0"
      width="26"
      height="28"
      fill="black"
    >
      <rect fill="white" width="26" height="28" />
      <path
        d="M24 14H22V18H20V20H18V22H16V24H14V26H12V24H10V22H8V20H6V18H4V14H2V6H6V4H10V2H16V4H20V6H24V14Z"
      />
    </mask>
    <path
      d="M24 14H22V18H20V20H18V22H16V24H14V26H12V24H10V22H8V20H6V18H4V14H2V6H6V4H10V2H16V4H20V6H24V14Z"
      fill="white"
    />
    <path
      d="M24 14V16H26V14H24ZM22 14V12H20V14H22ZM22 18V20H24V18H22ZM20 18V16H18V18H20ZM20 20V22H22V20H20ZM18 20V18H16V20H18ZM18 22V24H20V22H18ZM16 22V20H14V22H16ZM16 24V26H18V24H16ZM14 24V22H12V24H14ZM14 26V28H16V26H14ZM12 26H10V28H12V26ZM12 24H14V22H12V24ZM10 24H8V26H10V24ZM10 22H12V20H10V22ZM8 22H6V24H8V22ZM8 20H10V18H8V20ZM6 20H4V22H6V20ZM6 18H8V16H6V18ZM4 18H2V20H4V18ZM4 14H6V12H4V14ZM2 14H0V16H2V14ZM2 6V4H0V6H2ZM6 6V8H8V6H6ZM6 4V2H4V4H6ZM10 4V6H12V4H10ZM10 2V0H8V2H10ZM16 2H18V0H16V2ZM16 4H14V6H16V4ZM20 4H22V2H20V4ZM20 6H18V8H20V6ZM24 6H26V4H24V6ZM24 14V12H22V14V16H24V14ZM22 14H20V18H22H24V14H22ZM22 18V16H20V18V20H22V18ZM20 18H18V20H20H22V18H20ZM20 20V18H18V20V22H20V20ZM18 20H16V22H18H20V20H18ZM18 22V20H16V22V24H18V22ZM16 22H14V24H16H18V22H16ZM16 24V22H14V24V26H16V24ZM14 24H12V26H14H16V24H14ZM14 26V24H12V26V28H14V26ZM12 26H14V24H12H10V26H12ZM12 24V22H10V24V26H12V24ZM10 24H12V22H10H8V24H10ZM10 22V20H8V22V24H10V22ZM8 22H10V20H8H6V22H8ZM8 20V18H6V20V22H8V20ZM6 20H8V18H6H4V20H6ZM6 18V16H4V18V20H6V18ZM4 18H6V14H4H2V18H4ZM4 14V12H2V14V16H4V14ZM2 14H4V6H2H0V14H2ZM2 6V8H6V6V4H2V6ZM6 6H8V4H6H4V6H6ZM6 4V6H10V4V2H6V4ZM10 4H12V2H10H8V4H10ZM10 2V4H16V2V0H10V2ZM16 2H14V4H16H18V2H16ZM16 4V6H20V4V2H16V4ZM20 4H18V6H20H22V4H20ZM20 6V8H24V6V4H20V6ZM24 6H22V14H24H26V6H24Z"
      fill="#743320"
      mask="url(#path-1-outside-1_3556_158176)"
    />
  </g>
  <defs>
    <filter
      id="filter0_d_3556_158176"
      x="0"
      y="0"
      width="26"
      height="30"
      filterUnits="userSpaceOnUse"
      color-interpolation-filters="sRGB"
    >
      <feFlood flood-opacity="0" result="BackgroundImageFix" />
      <feColorMatrix
        in="SourceAlpha"
        type="matrix"
        values="0 0 0 0 0 0 0 0 0 0 0 0 0 0 0 0 0 0 127 0"
        result="hardAlpha"
      />
      <feOffset dy="2" />
      <feComposite in2="hardAlpha" operator="out" />
      <feColorMatrix
        type="matrix"
        values="0 0 0 0 0.454902 0 0 0 0 0.2 0 0 0 0 0.12549 0 0 0 1 0"
      />
      <feBlend
        mode="normal"
        in2="BackgroundImageFix"
        result="effect1_dropShadow_3556_158176"
      />
      <feBlend
        mode="normal"
        in="SourceGraphic"
        in2="effect1_dropShadow_3556_158176"
        result="shape"
      />
    </filter>
  </defs>
</svg>
