<svg
  width="24"
  height="28"
  viewBox="0 0 24 28"
  fill="none"
  xmlns="http://www.w3.org/2000/svg"
>
  <g filter="url(#filter0_d_3559_194495)">
    <mask
      id="path-1-outside-1_3559_194495"
      maskUnits="userSpaceOnUse"
      x="1"
      y="0"
      width="22"
      height="26"
      fill="black"
    >
      <rect fill="white" x="1" width="22" height="26" />
      <path
        d="M13 6H17V8H19V10H21V20H19V22H17V24H7V22H5V20H3V12H5V18H7V20H9V22H15V20H17V18H19V12H17V10H15V8H13V12H11V10H9V8H7V6H9V4H11V2H13V6ZM7 12H5V10H7V12Z"
      />
    </mask>
    <path
      d="M13 6H17V8H19V10H21V20H19V22H17V24H7V22H5V20H3V12H5V18H7V20H9V22H15V20H17V18H19V12H17V10H15V8H13V12H11V10H9V8H7V6H9V4H11V2H13V6ZM7 12H5V10H7V12Z"
      fill="white"
    />
    <path
      d="M13 6H11V8H13V6ZM17 6H19V4H17V6ZM17 8H15V10H17V8ZM19 8H21V6H19V8ZM19 10H17V12H19V10ZM21 10H23V8H21V10ZM21 20V22H23V20H21ZM19 20V18H17V20H19ZM19 22V24H21V22H19ZM17 22V20H15V22H17ZM17 24V26H19V24H17ZM7 24H5V26H7V24ZM7 22H9V20H7V22ZM5 22H3V24H5V22ZM5 20H7V18H5V20ZM3 20H1V22H3V20ZM3 12V10H1V12H3ZM5 18H3V20H5V18ZM7 18H9V16H7V18ZM7 20H5V22H7V20ZM9 20H11V18H9V20ZM9 22H7V24H9V22ZM15 22V24H17V22H15ZM15 20V18H13V20H15ZM17 20V22H19V20H17ZM17 18V16H15V18H17ZM19 18V20H21V18H19ZM19 12H21V10H19V12ZM17 12H15V14H17V12ZM17 10H19V8H17V10ZM15 10H13V12H15V10ZM15 8H17V6H15V8ZM13 8V6H11V8H13ZM13 12V14H15V12H13ZM11 12H9V14H11V12ZM11 10H13V8H11V10ZM9 10H7V12H9V10ZM9 8H11V6H9V8ZM7 8H5V10H7V8ZM7 6V4H5V6H7ZM9 6V8H11V6H9ZM9 4V2H7V4H9ZM11 4V6H13V4H11ZM11 2V0H9V2H11ZM13 2H15V0H13V2ZM7 12V14H9V12H7ZM5 10V8H3V10H5ZM7 10H9V8H7V10ZM13 6V8H17V6V4H13V6ZM17 6H15V8H17H19V6H17ZM17 8V10H19V8V6H17V8ZM19 8H17V10H19H21V8H19ZM19 10V12H21V10V8H19V10ZM21 10H19V20H21H23V10H21ZM21 20V18H19V20V22H21V20ZM19 20H17V22H19H21V20H19ZM19 22V20H17V22V24H19V22ZM17 22H15V24H17H19V22H17ZM17 24V22H7V24V26H17V24ZM7 24H9V22H7H5V24H7ZM7 22V20H5V22V24H7V22ZM5 22H7V20H5H3V22H5ZM5 20V18H3V20V22H5V20ZM3 20H5V12H3H1V20H3ZM3 12V14H5V12V10H3V12ZM5 12H3V18H5H7V12H5ZM5 18V20H7V18V16H5V18ZM7 18H5V20H7H9V18H7ZM7 20V22H9V20V18H7V20ZM9 20H7V22H9H11V20H9ZM9 22V24H15V22V20H9V22ZM15 22H17V20H15H13V22H15ZM15 20V22H17V20V18H15V20ZM17 20H19V18H17H15V20H17ZM17 18V20H19V18V16H17V18ZM19 18H21V12H19H17V18H19ZM19 12V10H17V12V14H19V12ZM17 12H19V10H17H15V12H17ZM17 10V8H15V10V12H17V10ZM15 10H17V8H15H13V10H15ZM15 8V6H13V8V10H15V8ZM13 8H11V12H13H15V8H13ZM13 12V10H11V12V14H13V12ZM11 12H13V10H11H9V12H11ZM11 10V8H9V10V12H11V10ZM9 10H11V8H9H7V10H9ZM9 8V6H7V8V10H9V8ZM7 8H9V6H7H5V8H7ZM7 6V8H9V6V4H7V6ZM9 6H11V4H9H7V6H9ZM9 4V6H11V4V2H9V4ZM11 4H13V2H11H9V4H11ZM11 2V4H13V2V0H11V2ZM13 2H11V6H13H15V2H13ZM7 12V10H5V12V14H7V12ZM5 12H7V10H5H3V12H5ZM5 10V12H7V10V8H5V10ZM7 10H5V12H7H9V10H7Z"
      fill="#743320"
      mask="url(#path-1-outside-1_3559_194495)"
    />
  </g>
  <defs>
    <filter
      id="filter0_d_3559_194495"
      x="1"
      y="0"
      width="22"
      height="28"
      filterUnits="userSpaceOnUse"
      color-interpolation-filters="sRGB"
    >
      <feFlood flood-opacity="0" result="BackgroundImageFix" />
      <feColorMatrix
        in="SourceAlpha"
        type="matrix"
        values="0 0 0 0 0 0 0 0 0 0 0 0 0 0 0 0 0 0 127 0"
        result="hardAlpha"
      />
      <feOffset dy="2" />
      <feComposite in2="hardAlpha" operator="out" />
      <feColorMatrix
        type="matrix"
        values="0 0 0 0 0.454902 0 0 0 0 0.2 0 0 0 0 0.12549 0 0 0 1 0"
      />
      <feBlend
        mode="normal"
        in2="BackgroundImageFix"
        result="effect1_dropShadow_3559_194495"
      />
      <feBlend
        mode="normal"
        in="SourceGraphic"
        in2="effect1_dropShadow_3559_194495"
        result="shape"
      />
    </filter>
  </defs>
</svg>
