<svg viewBox="0 0 168 168" fill="none" xmlns="http://www.w3.org/2000/svg">
  <path d="M67.9998 30H64V33.9998H67.9998V30Z" fill="black" />
  <path d="M71.9998 30H68V33.9998H71.9998V30Z" fill="black" />
  <path d="M75.9998 30H72V33.9998H75.9998V30Z" fill="black" />
  <path d="M79.9998 30H76V33.9998H79.9998V30Z" fill="black" />
  <path d="M83.9998 30H80V33.9998H83.9998V30Z" fill="black" />
  <path d="M87.9998 30H84V33.9998H87.9998V30Z" fill="black" />
  <path d="M35.9998 34H32V37.9998H35.9998V34Z" fill="black" />
  <path d="M39.9998 34H36V37.9998H39.9998V34Z" fill="black" />
  <path d="M43.9998 34H40V37.9998H43.9998V34Z" fill="black" />
  <path d="M47.9998 34H44V37.9998H47.9998V34Z" fill="black" />
  <path d="M51.9998 34H48V37.9998H51.9998V34Z" fill="black" />
  <path d="M55.9998 34H52V37.9998H55.9998V34Z" fill="black" />
  <path d="M59.9998 34H56V37.9998H59.9998V34Z" fill="black" />
  <path d="M63.9998 34H60V37.9998H63.9998V34Z" fill="black" />
  <path d="M67.9998 34H64V37.9998H67.9998V34Z" fill="#4B692F" />
  <path d="M71.9998 34H68V37.9998H71.9998V34Z" fill="#37946E" />
  <path d="M75.9998 34H72V37.9998H75.9998V34Z" fill="#37946E" />
  <path d="M79.9998 34H76V37.9998H79.9998V34Z" fill="#37946E" />
  <path d="M83.9998 34H80V37.9998H83.9998V34Z" fill="#37946E" />
  <path d="M87.9998 34H84V37.9998H87.9998V34Z" fill="#4B692F" />
  <path d="M91.9998 34H88V37.9998H91.9998V34Z" fill="black" />
  <path d="M95.9998 34H92V37.9998H95.9998V34Z" fill="black" />
  <path d="M3.99976 38H0V41.9998H3.99976V38Z" fill="black" />
  <path d="M7.99976 38H4V41.9998H7.99976V38Z" fill="black" />
  <path d="M11.9998 38H8V41.9998H11.9998V38Z" fill="black" />
  <path d="M15.9998 38H12V41.9998H15.9998V38Z" fill="black" />
  <path d="M19.9998 38H16V41.9998H19.9998V38Z" fill="black" />
  <path d="M23.9998 38H20V41.9998H23.9998V38Z" fill="black" />
  <path d="M27.9998 38H24V41.9998H27.9998V38Z" fill="black" />
  <path d="M31.9998 38H28V41.9998H31.9998V38Z" fill="black" />
  <path d="M35.9998 38H32V41.9998H35.9998V38Z" fill="#4B692F" />
  <path d="M39.9998 38H36V41.9998H39.9998V38Z" fill="#37946E" />
  <path d="M43.9998 38H40V41.9998H43.9998V38Z" fill="#37946E" />
  <path d="M47.9998 38H44V41.9998H47.9998V38Z" fill="#37946E" />
  <path d="M51.9998 38H48V41.9998H51.9998V38Z" fill="#37946E" />
  <path d="M55.9998 38H52V41.9998H55.9998V38Z" fill="#37946E" />
  <path d="M59.9998 38H56V41.9998H59.9998V38Z" fill="#37946E" />
  <path d="M63.9998 38H60V41.9998H63.9998V38Z" fill="#37946E" />
  <path d="M67.9998 38H64V41.9998H67.9998V38Z" fill="#37946E" />
  <path d="M71.9998 38H68V41.9998H71.9998V38Z" fill="#37946E" />
  <path d="M75.9998 38H72V41.9998H75.9998V38Z" fill="#37946E" />
  <path d="M79.9998 38H76V41.9998H79.9998V38Z" fill="#37946E" />
  <path d="M83.9998 38H80V41.9998H83.9998V38Z" fill="#37946E" />
  <path d="M87.9998 38H84V41.9998H87.9998V38Z" fill="#37946E" />
  <path d="M91.9998 38H88V41.9998H91.9998V38Z" fill="#37946E" />
  <path d="M95.9998 38H92V41.9998H95.9998V38Z" fill="#4B692F" />
  <path d="M99.9998 38H96V41.9998H99.9998V38Z" fill="black" />
  <path d="M104 38H100V41.9998H104V38Z" fill="black" />
  <path d="M3.99976 42H0V45.9998H3.99976V42Z" fill="black" />
  <path d="M7.99976 42H4V45.9998H7.99976V42Z" fill="#4B692F" />
  <path d="M11.9998 42H8V45.9998H11.9998V42Z" fill="#4B692F" />
  <path d="M15.9998 42H12V45.9998H15.9998V42Z" fill="#4B692F" />
  <path d="M19.9998 42H16V45.9998H19.9998V42Z" fill="#4B692F" />
  <path d="M23.9998 42H20V45.9998H23.9998V42Z" fill="#37946E" />
  <path d="M27.9998 42H24V45.9998H27.9998V42Z" fill="#37946E" />
  <path d="M31.9998 42H28V45.9998H31.9998V42Z" fill="#37946E" />
  <path d="M35.9998 42H32V45.9998H35.9998V42Z" fill="#37946E" />
  <path d="M39.9998 42H36V45.9998H39.9998V42Z" fill="#37946E" />
  <path d="M43.9998 42H40V45.9998H43.9998V42Z" fill="#37946E" />
  <path d="M47.9998 42H44V45.9998H47.9998V42Z" fill="#37946E" />
  <path d="M51.9998 42H48V45.9998H51.9998V42Z" fill="#37946E" />
  <path d="M55.9998 42H52V45.9998H55.9998V42Z" fill="#37946E" />
  <path d="M59.9998 42H56V45.9998H59.9998V42Z" fill="#37946E" />
  <path d="M63.9998 42H60V45.9998H63.9998V42Z" fill="#37946E" />
  <path d="M67.9998 42H64V45.9998H67.9998V42Z" fill="#37946E" />
  <path d="M71.9998 42H68V45.9998H71.9998V42Z" fill="#37946E" />
  <path d="M75.9998 42H72V45.9998H75.9998V42Z" fill="#37946E" />
  <path d="M79.9998 42H76V45.9998H79.9998V42Z" fill="#37946E" />
  <path d="M83.9998 42H80V45.9998H83.9998V42Z" fill="#FBF236" />
  <path d="M87.9998 42H84V45.9998H87.9998V42Z" fill="#FBF236" />
  <path d="M91.9998 42H88V45.9998H91.9998V42Z" fill="#99E550" />
  <path d="M95.9998 42H92V45.9998H95.9998V42Z" fill="#37946E" />
  <path d="M99.9998 42H96V45.9998H99.9998V42Z" fill="#37946E" />
  <path d="M104 42H100V45.9998H104V42Z" fill="#4B692F" />
  <path d="M108 42H104V45.9998H108V42Z" fill="black" />
  <path d="M3.99976 46H0V49.9998H3.99976V46Z" fill="black" />
  <path d="M7.99976 46H4V49.9998H7.99976V46Z" fill="black" />
  <path d="M11.9998 46H8V49.9998H11.9998V46Z" fill="#4B692F" />
  <path d="M15.9998 46H12V49.9998H15.9998V46Z" fill="#37946E" />
  <path d="M19.9998 46H16V49.9998H19.9998V46Z" fill="#6ABE30" />
  <path d="M23.9998 46H20V49.9998H23.9998V46Z" fill="#37946E" />
  <path d="M27.9998 46H24V49.9998H27.9998V46Z" fill="#37946E" />
  <path d="M31.9998 46H28V49.9998H31.9998V46Z" fill="#37946E" />
  <path d="M35.9998 46H32V49.9998H35.9998V46Z" fill="#37946E" />
  <path d="M39.9998 46H36V49.9998H39.9998V46Z" fill="#37946E" />
  <path d="M43.9998 46H40V49.9998H43.9998V46Z" fill="#37946E" />
  <path d="M47.9998 46H44V49.9998H47.9998V46Z" fill="#37946E" />
  <path d="M51.9998 46H48V49.9998H51.9998V46Z" fill="#37946E" />
  <path d="M55.9998 46H52V49.9998H55.9998V46Z" fill="#37946E" />
  <path d="M59.9998 46H56V49.9998H59.9998V46Z" fill="#37946E" />
  <path d="M63.9998 46H60V49.9998H63.9998V46Z" fill="#37946E" />
  <path d="M67.9998 46H64V49.9998H67.9998V46Z" fill="#FBF236" />
  <path d="M71.9998 46H68V49.9998H71.9998V46Z" fill="#FBF236" />
  <path d="M75.9998 46H72V49.9998H75.9998V46Z" fill="#FBF236" />
  <path d="M79.9998 46H76V49.9998H79.9998V46Z" fill="#FBF236" />
  <path d="M83.9998 46H80V49.9998H83.9998V46Z" fill="#37946E" />
  <path d="M87.9998 46H84V49.9998H87.9998V46Z" fill="#37946E" />
  <path d="M91.9998 46H88V49.9998H91.9998V46Z" fill="#37946E" />
  <path d="M95.9998 46H92V49.9998H95.9998V46Z" fill="#37946E" />
  <path d="M99.9998 46H96V49.9998H99.9998V46Z" fill="#37946E" />
  <path d="M104 46H100V49.9998H104V46Z" fill="#37946E" />
  <path d="M108 46H104V49.9998H108V46Z" fill="#37946E" />
  <path d="M112 46H108V49.9998H112V46Z" fill="black" />
  <path d="M7.99976 50H4V53.9998H7.99976V50Z" fill="black" />
  <path d="M11.9998 50H8V53.9998H11.9998V50Z" fill="black" />
  <path d="M15.9998 50H12V53.9998H15.9998V50Z" fill="#4B692F" />
  <path d="M19.9998 50H16V53.9998H19.9998V50Z" fill="#37946E" />
  <path d="M23.9998 50H20V53.9998H23.9998V50Z" fill="#6ABE30" />
  <path d="M27.9998 50H24V53.9998H27.9998V50Z" fill="#37946E" />
  <path d="M31.9998 50H28V53.9998H31.9998V50Z" fill="#37946E" />
  <path d="M35.9998 50H32V53.9998H35.9998V50Z" fill="#37946E" />
  <path d="M39.9998 50H36V53.9998H39.9998V50Z" fill="#37946E" />
  <path d="M43.9998 50H40V53.9998H43.9998V50Z" fill="#37946E" />
  <path d="M47.9998 50H44V53.9998H47.9998V50Z" fill="#37946E" />
  <path d="M51.9998 50H48V53.9998H51.9998V50Z" fill="#FBF236" />
  <path d="M55.9998 50H52V53.9998H55.9998V50Z" fill="#FBF236" />
  <path d="M59.9998 50H56V53.9998H59.9998V50Z" fill="#FBF236" />
  <path d="M63.9998 50H60V53.9998H63.9998V50Z" fill="#FBF236" />
  <path d="M67.9998 50H64V53.9998H67.9998V50Z" fill="#37946E" />
  <path d="M71.9998 50H68V53.9998H71.9998V50Z" fill="#37946E" />
  <path d="M75.9998 50H72V53.9998H75.9998V50Z" fill="#37946E" />
  <path d="M79.9998 50H76V53.9998H79.9998V50Z" fill="#37946E" />
  <path d="M83.9998 50H80V53.9998H83.9998V50Z" fill="#37946E" />
  <path d="M87.9998 50H84V53.9998H87.9998V50Z" fill="#37946E" />
  <path d="M91.9998 50H88V53.9998H91.9998V50Z" fill="#37946E" />
  <path d="M95.9998 50H92V53.9998H95.9998V50Z" fill="#FBF236" />
  <path d="M99.9998 50H96V53.9998H99.9998V50Z" fill="#FBF236" />
  <path d="M104 50H100V53.9998H104V50Z" fill="#99E550" />
  <path d="M108 50H104V53.9998H108V50Z" fill="#37946E" />
  <path d="M112 50H108V53.9998H112V50Z" fill="#37946E" />
  <path d="M116 50H112V53.9998H116V50Z" fill="black" />
  <path d="M120 50H116V53.9998H120V50Z" fill="black" />
  <path d="M7.99976 54H4V57.9998H7.99976V54Z" fill="black" />
  <path d="M11.9998 54H8V57.9998H11.9998V54Z" fill="black" />
  <path d="M15.9998 54H12V57.9998H15.9998V54Z" fill="black" />
  <path d="M19.9998 54H16V57.9998H19.9998V54Z" fill="#4B692F" />
  <path d="M23.9998 54H20V57.9998H23.9998V54Z" fill="#37946E" />
  <path d="M27.9998 54H24V57.9998H27.9998V54Z" fill="#6ABE30" />
  <path d="M31.9998 54H28V57.9998H31.9998V54Z" fill="#37946E" />
  <path d="M35.9998 54H32V57.9998H35.9998V54Z" fill="#37946E" />
  <path d="M39.9998 54H36V57.9998H39.9998V54Z" fill="#99E550" />
  <path d="M43.9998 54H40V57.9998H43.9998V54Z" fill="#FBF236" />
  <path d="M47.9998 54H44V57.9998H47.9998V54Z" fill="#FBF236" />
  <path d="M51.9998 54H48V57.9998H51.9998V54Z" fill="#37946E" />
  <path d="M55.9998 54H52V57.9998H55.9998V54Z" fill="#37946E" />
  <path d="M59.9998 54H56V57.9998H59.9998V54Z" fill="#37946E" />
  <path d="M63.9998 54H60V57.9998H63.9998V54Z" fill="#37946E" />
  <path d="M67.9998 54H64V57.9998H67.9998V54Z" fill="#37946E" />
  <path d="M71.9998 54H68V57.9998H71.9998V54Z" fill="#37946E" />
  <path d="M75.9998 54H72V57.9998H75.9998V54Z" fill="#37946E" />
  <path d="M79.9998 54H76V57.9998H79.9998V54Z" fill="#FBF236" />
  <path d="M83.9998 54H80V57.9998H83.9998V54Z" fill="#FBF236" />
  <path d="M87.9998 54H84V57.9998H87.9998V54Z" fill="#FBF236" />
  <path d="M91.9998 54H88V57.9998H91.9998V54Z" fill="#FBF236" />
  <path d="M95.9998 54H92V57.9998H95.9998V54Z" fill="#37946E" />
  <path d="M99.9998 54H96V57.9998H99.9998V54Z" fill="#37946E" />
  <path d="M104 54H100V57.9998H104V54Z" fill="#37946E" />
  <path d="M108 54H104V57.9998H108V54Z" fill="#37946E" />
  <path d="M112 54H108V57.9998H112V54Z" fill="#37946E" />
  <path d="M116 54H112V57.9998H116V54Z" fill="#37946E" />
  <path d="M120 54H116V57.9998H120V54Z" fill="#4B692F" />
  <path d="M124 54H120V57.9998H124V54Z" fill="black" />
  <path d="M7.99976 58H4V61.9998H7.99976V58Z" fill="black" />
  <path d="M11.9998 58H8V61.9998H11.9998V58Z" fill="#222034" />
  <path d="M15.9998 58H12V61.9998H15.9998V58Z" fill="#9BADB7" />
  <path d="M19.9998 58H16V61.9998H19.9998V58Z" fill="black" />
  <path d="M23.9998 58H20V61.9998H23.9998V58Z" fill="#4B692F" />
  <path d="M27.9998 58H24V61.9998H27.9998V58Z" fill="#37946E" />
  <path d="M31.9998 58H28V61.9998H31.9998V58Z" fill="#6ABE30" />
  <path d="M35.9998 58H32V61.9998H35.9998V58Z" fill="#37946E" />
  <path d="M39.9998 58H36V61.9998H39.9998V58Z" fill="#37946E" />
  <path d="M43.9998 58H40V61.9998H43.9998V58Z" fill="#37946E" />
  <path d="M47.9998 58H44V61.9998H47.9998V58Z" fill="#37946E" />
  <path d="M51.9998 58H48V61.9998H51.9998V58Z" fill="#37946E" />
  <path d="M55.9998 58H52V61.9998H55.9998V58Z" fill="#37946E" />
  <path d="M59.9998 58H56V61.9998H59.9998V58Z" fill="#37946E" />
  <path d="M63.9998 58H60V61.9998H63.9998V58Z" fill="#FBF236" />
  <path d="M67.9998 58H64V61.9998H67.9998V58Z" fill="#FBF236" />
  <path d="M71.9998 58H68V61.9998H71.9998V58Z" fill="#FBF236" />
  <path d="M75.9998 58H72V61.9998H75.9998V58Z" fill="#FBF236" />
  <path d="M79.9998 58H76V61.9998H79.9998V58Z" fill="#37946E" />
  <path d="M83.9998 58H80V61.9998H83.9998V58Z" fill="#37946E" />
  <path d="M87.9998 58H84V61.9998H87.9998V58Z" fill="#37946E" />
  <path d="M91.9998 58H88V61.9998H91.9998V58Z" fill="#37946E" />
  <path d="M95.9998 58H92V61.9998H95.9998V58Z" fill="#37946E" />
  <path d="M99.9998 58H96V61.9998H99.9998V58Z" fill="#37946E" />
  <path d="M104 58H100V61.9998H104V58Z" fill="#37946E" />
  <path d="M108 58H104V61.9998H108V58Z" fill="#FBF236" />
  <path d="M112 58H108V61.9998H112V58Z" fill="#FBF236" />
  <path d="M116 58H112V61.9998H116V58Z" fill="#99E550" />
  <path d="M120 58H116V61.9998H120V58Z" fill="#6ABE30" />
  <path d="M124 58H120V61.9998H124V58Z" fill="#37946E" />
  <path d="M128 58H124V61.9998H128V58Z" fill="black" />
  <path d="M132 58H128V61.9998H132V58Z" fill="black" />
  <path d="M7.99976 62H4V65.9998H7.99976V62Z" fill="black" />
  <path d="M11.9998 62H8V65.9998H11.9998V62Z" fill="#595652" />
  <path d="M15.9998 62H12V65.9998H15.9998V62Z" fill="#222034" />
  <path d="M19.9998 62H16V65.9998H19.9998V62Z" fill="#9BADB7" />
  <path d="M23.9998 62H20V65.9998H23.9998V62Z" fill="#847E87" />
  <path d="M27.9998 62H24V65.9998H27.9998V62Z" fill="#222034" />
  <path d="M31.9998 62H28V65.9998H31.9998V62Z" fill="#37946E" />
  <path d="M35.9998 62H32V65.9998H35.9998V62Z" fill="#6ABE30" />
  <path d="M39.9998 62H36V65.9998H39.9998V62Z" fill="#37946E" />
  <path d="M43.9998 62H40V65.9998H43.9998V62Z" fill="#37946E" />
  <path d="M47.9998 62H44V65.9998H47.9998V62Z" fill="#37946E" />
  <path d="M51.9998 62H48V65.9998H51.9998V62Z" fill="#99E550" />
  <path d="M55.9998 62H52V65.9998H55.9998V62Z" fill="#FBF236" />
  <path d="M59.9998 62H56V65.9998H59.9998V62Z" fill="#FBF236" />
  <path d="M63.9998 62H60V65.9998H63.9998V62Z" fill="#37946E" />
  <path d="M67.9998 62H64V65.9998H67.9998V62Z" fill="#37946E" />
  <path d="M71.9998 62H68V65.9998H71.9998V62Z" fill="#37946E" />
  <path d="M75.9998 62H72V65.9998H75.9998V62Z" fill="#37946E" />
  <path d="M79.9998 62H76V65.9998H79.9998V62Z" fill="#37946E" />
  <path d="M83.9998 62H80V65.9998H83.9998V62Z" fill="#37946E" />
  <path d="M87.9998 62H84V65.9998H87.9998V62Z" fill="#FBF236" />
  <path d="M91.9998 62H88V65.9998H91.9998V62Z" fill="#FBF236" />
  <path d="M95.9998 62H92V65.9998H95.9998V62Z" fill="#FBF236" />
  <path d="M99.9998 62H96V65.9998H99.9998V62Z" fill="#FBF236" />
  <path d="M104 62H100V65.9998H104V62Z" fill="#FBF236" />
  <path d="M108 62H104V65.9998H108V62Z" fill="#37946E" />
  <path d="M112 62H108V65.9998H112V62Z" fill="#37946E" />
  <path d="M116 62H112V65.9998H116V62Z" fill="#37946E" />
  <path d="M120 62H116V65.9998H120V62Z" fill="#37946E" />
  <path d="M124 62H120V65.9998H124V62Z" fill="#6ABE30" />
  <path d="M128 62H124V65.9998H128V62Z" fill="#37946E" />
  <path d="M132 62H128V65.9998H132V62Z" fill="#4B692F" />
  <path d="M136 62H132V65.9998H136V62Z" fill="black" />
  <path d="M3.99976 66H0V69.9998H3.99976V66Z" fill="black" />
  <path d="M7.99976 66H4V69.9998H7.99976V66Z" fill="black" />
  <path d="M11.9998 66H8V69.9998H11.9998V66Z" fill="#222034" />
  <path d="M15.9998 66H12V69.9998H15.9998V66Z" fill="#595652" />
  <path d="M19.9998 66H16V69.9998H19.9998V66Z" fill="#222034" />
  <path d="M23.9998 66H20V69.9998H23.9998V66Z" fill="#9BADB7" />
  <path d="M27.9998 66H24V69.9998H27.9998V66Z" fill="#847E87" />
  <path d="M31.9998 66H28V69.9998H31.9998V66Z" fill="#222034" />
  <path d="M35.9998 66H32V69.9998H35.9998V66Z" fill="#4B692F" />
  <path d="M39.9998 66H36V69.9998H39.9998V66Z" fill="#6ABE30" />
  <path d="M43.9998 66H40V69.9998H43.9998V66Z" fill="#6ABE30" />
  <path d="M47.9998 66H44V69.9998H47.9998V66Z" fill="#37946E" />
  <path d="M51.9998 66H48V69.9998H51.9998V66Z" fill="#37946E" />
  <path d="M55.9998 66H52V69.9998H55.9998V66Z" fill="#37946E" />
  <path d="M59.9998 66H56V69.9998H59.9998V66Z" fill="#37946E" />
  <path d="M63.9998 66H60V69.9998H63.9998V66Z" fill="#37946E" />
  <path d="M67.9998 66H64V69.9998H67.9998V66Z" fill="#FBF236" />
  <path d="M71.9998 66H68V69.9998H71.9998V66Z" fill="#FBF236" />
  <path d="M75.9998 66H72V69.9998H75.9998V66Z" fill="#FBF236" />
  <path d="M79.9998 66H76V69.9998H79.9998V66Z" fill="#FBF236" />
  <path d="M83.9998 66H80V69.9998H83.9998V66Z" fill="#FBF236" />
  <path d="M87.9998 66H84V69.9998H87.9998V66Z" fill="#37946E" />
  <path d="M91.9998 66H88V69.9998H91.9998V66Z" fill="#37946E" />
  <path d="M95.9998 66H92V69.9998H95.9998V66Z" fill="#37946E" />
  <path d="M99.9998 66H96V69.9998H99.9998V66Z" fill="#37946E" />
  <path d="M104 66H100V69.9998H104V66Z" fill="#37946E" />
  <path d="M108 66H104V69.9998H108V66Z" fill="#37946E" />
  <path d="M112 66H108V69.9998H112V66Z" fill="#37946E" />
  <path d="M116 66H112V69.9998H116V66Z" fill="#37946E" />
  <path d="M120 66H116V69.9998H120V66Z" fill="#37946E" />
  <path d="M124 66H120V69.9998H124V66Z" fill="#37946E" />
  <path d="M128 66H124V69.9998H128V66Z" fill="#FBF236" />
  <path d="M132 66H128V69.9998H132V66Z" fill="#37946E" />
  <path d="M136 66H132V69.9998H136V66Z" fill="#6ABE30" />
  <path d="M140 66H136V69.9998H140V66Z" fill="black" />
  <path d="M144 66H140V69.9998H144V66Z" fill="black" />
  <path d="M3.99976 70H0V73.9998H3.99976V70Z" fill="black" />
  <path d="M7.99976 70H4V73.9998H7.99976V70Z" fill="#4B692F" />
  <path d="M11.9998 70H8V73.9998H11.9998V70Z" fill="#847E87" />
  <path d="M15.9998 70H12V73.9998H15.9998V70Z" fill="#222034" />
  <path d="M19.9998 70H16V73.9998H19.9998V70Z" fill="#9BADB7" />
  <path d="M23.9998 70H20V73.9998H23.9998V70Z" fill="#222034" />
  <path d="M27.9998 70H24V73.9998H27.9998V70Z" fill="#595652" />
  <path d="M31.9998 70H28V73.9998H31.9998V70Z" fill="#847E87" />
  <path d="M35.9998 70H32V73.9998H35.9998V70Z" fill="#222034" />
  <path d="M39.9998 70H36V73.9998H39.9998V70Z" fill="#4B692F" />
  <path d="M43.9998 70H40V73.9998H43.9998V70Z" fill="#6ABE30" />
  <path d="M47.9998 70H44V73.9998H47.9998V70Z" fill="#6ABE30" />
  <path d="M51.9998 70H48V73.9998H51.9998V70Z" fill="#37946E" />
  <path d="M55.9998 70H52V73.9998H55.9998V70Z" fill="#37946E" />
  <path d="M59.9998 70H56V73.9998H59.9998V70Z" fill="#99E550" />
  <path d="M63.9998 70H60V73.9998H63.9998V70Z" fill="#FBF236" />
  <path d="M67.9998 70H64V73.9998H67.9998V70Z" fill="#37946E" />
  <path d="M71.9998 70H68V73.9998H71.9998V70Z" fill="#37946E" />
  <path d="M75.9998 70H72V73.9998H75.9998V70Z" fill="#37946E" />
  <path d="M79.9998 70H76V73.9998H79.9998V70Z" fill="#37946E" />
  <path d="M83.9998 70H80V73.9998H83.9998V70Z" fill="#37946E" />
  <path d="M87.9998 70H84V73.9998H87.9998V70Z" fill="#37946E" />
  <path d="M91.9998 70H88V73.9998H91.9998V70Z" fill="#37946E" />
  <path d="M95.9998 70H92V73.9998H95.9998V70Z" fill="#37946E" />
  <path d="M99.9998 70H96V73.9998H99.9998V70Z" fill="#37946E" />
  <path d="M104 70H100V73.9998H104V70Z" fill="#37946E" />
  <path d="M108 70H104V73.9998H108V70Z" fill="#37946E" />
  <path d="M112 70H108V73.9998H112V70Z" fill="#37946E" />
  <path d="M116 70H112V73.9998H116V70Z" fill="#37946E" />
  <path d="M120 70H116V73.9998H120V70Z" fill="#37946E" />
  <path d="M124 70H120V73.9998H124V70Z" fill="#37946E" />
  <path d="M128 70H124V73.9998H128V70Z" fill="#37946E" />
  <path d="M132 70H128V73.9998H132V70Z" fill="#FBF236" />
  <path d="M136 70H132V73.9998H136V70Z" fill="#37946E" />
  <path d="M140 70H136V73.9998H140V70Z" fill="#6ABE30" />
  <path d="M144 70H140V73.9998H144V70Z" fill="#4B692F" />
  <path d="M148 70H144V73.9998H148V70Z" fill="black" />
  <path d="M7.99976 74H4V77.9998H7.99976V74Z" fill="black" />
  <path d="M11.9998 74H8V77.9998H11.9998V74Z" fill="#4B692F" />
  <path d="M15.9998 74H12V77.9998H15.9998V74Z" fill="#847E87" />
  <path d="M19.9998 74H16V77.9998H19.9998V74Z" fill="#222034" />
  <path d="M23.9998 74H20V77.9998H23.9998V74Z" fill="#9BADB7" />
  <path d="M27.9998 74H24V77.9998H27.9998V74Z" fill="#847E87" />
  <path d="M31.9998 74H28V77.9998H31.9998V74Z" fill="#9BADB7" />
  <path d="M35.9998 74H32V77.9998H35.9998V74Z" fill="#595652" />
  <path d="M39.9998 74H36V77.9998H39.9998V74Z" fill="#847E87" />
  <path d="M43.9998 74H40V77.9998H43.9998V74Z" fill="#222034" />
  <path d="M47.9998 74H44V77.9998H47.9998V74Z" fill="#6ABE30" />
  <path d="M51.9998 74H48V77.9998H51.9998V74Z" fill="#6ABE30" />
  <path d="M55.9998 74H52V77.9998H55.9998V74Z" fill="#37946E" />
  <path d="M59.9998 74H56V77.9998H59.9998V74Z" fill="#37946E" />
  <path d="M63.9998 74H60V77.9998H63.9998V74Z" fill="#37946E" />
  <path d="M67.9998 74H64V77.9998H67.9998V74Z" fill="#37946E" />
  <path d="M71.9998 74H68V77.9998H71.9998V74Z" fill="#37946E" />
  <path d="M75.9998 74H72V77.9998H75.9998V74Z" fill="#37946E" />
  <path d="M79.9998 74H76V77.9998H79.9998V74Z" fill="#37946E" />
  <path d="M83.9998 74H80V77.9998H83.9998V74Z" fill="#37946E" />
  <path d="M87.9998 74H84V77.9998H87.9998V74Z" fill="#37946E" />
  <path d="M91.9998 74H88V77.9998H91.9998V74Z" fill="#37946E" />
  <path d="M95.9998 74H92V77.9998H95.9998V74Z" fill="#37946E" />
  <path d="M99.9998 74H96V77.9998H99.9998V74Z" fill="#37946E" />
  <path d="M104 74H100V77.9998H104V74Z" fill="#37946E" />
  <path d="M108 74H104V77.9998H108V74Z" fill="#37946E" />
  <path d="M112 74H108V77.9998H112V74Z" fill="#37946E" />
  <path d="M116 74H112V77.9998H116V74Z" fill="#37946E" />
  <path d="M120 74H116V77.9998H120V74Z" fill="#37946E" />
  <path d="M124 74H120V77.9998H124V74Z" fill="#37946E" />
  <path d="M128 74H124V77.9998H128V74Z" fill="#37946E" />
  <path d="M132 74H128V77.9998H132V74Z" fill="#37946E" />
  <path d="M136 74H132V77.9998H136V74Z" fill="#FBF236" />
  <path d="M140 74H136V77.9998H140V74Z" fill="#37946E" />
  <path d="M144 74H140V77.9998H144V74Z" fill="#6ABE30" />
  <path d="M148 74H144V77.9998H148V74Z" fill="#6ABE30" />
  <path d="M152 74H148V77.9998H152V74Z" fill="black" />
  <path d="M156 74H152V77.9998H156V74Z" fill="black" />
  <path d="M11.9998 78H8V81.9998H11.9998V78Z" fill="black" />
  <path d="M15.9998 78H12V81.9998H15.9998V78Z" fill="#4B692F" />
  <path d="M19.9998 78H16V81.9998H19.9998V78Z" fill="#9BADB7" />
  <path d="M23.9998 78H20V81.9998H23.9998V78Z" fill="#222034" />
  <path d="M27.9998 78H24V81.9998H27.9998V78Z" fill="#595652" />
  <path d="M31.9998 78H28V81.9998H31.9998V78Z" fill="#9BADB7" />
  <path d="M35.9998 78H32V81.9998H35.9998V78Z" fill="#9BADB7" />
  <path d="M39.9998 78H36V81.9998H39.9998V78Z" fill="#595652" />
  <path d="M43.9998 78H40V81.9998H43.9998V78Z" fill="#847E87" />
  <path d="M47.9998 78H44V81.9998H47.9998V78Z" fill="#222034" />
  <path d="M51.9998 78H48V81.9998H51.9998V78Z" fill="#6ABE30" />
  <path d="M55.9998 78H52V81.9998H55.9998V78Z" fill="#6ABE30" />
  <path d="M59.9998 78H56V81.9998H59.9998V78Z" fill="#37946E" />
  <path d="M63.9998 78H60V81.9998H63.9998V78Z" fill="#37946E" />
  <path d="M67.9998 78H64V81.9998H67.9998V78Z" fill="#99E550" />
  <path d="M71.9998 78H68V81.9998H71.9998V78Z" fill="#37946E" />
  <path d="M75.9998 78H72V81.9998H75.9998V78Z" fill="#37946E" />
  <path d="M79.9998 78H76V81.9998H79.9998V78Z" fill="#37946E" />
  <path d="M83.9998 78H80V81.9998H83.9998V78Z" fill="#37946E" />
  <path d="M87.9998 78H84V81.9998H87.9998V78Z" fill="#37946E" />
  <path d="M91.9998 78H88V81.9998H91.9998V78Z" fill="#37946E" />
  <path d="M95.9998 78H92V81.9998H95.9998V78Z" fill="#37946E" />
  <path d="M99.9998 78H96V81.9998H99.9998V78Z" fill="#37946E" />
  <path d="M104 78H100V81.9998H104V78Z" fill="#37946E" />
  <path d="M108 78H104V81.9998H108V78Z" fill="#37946E" />
  <path d="M112 78H108V81.9998H112V78Z" fill="#37946E" />
  <path d="M116 78H112V81.9998H116V78Z" fill="#37946E" />
  <path d="M120 78H116V81.9998H120V78Z" fill="#37946E" />
  <path d="M124 78H120V81.9998H124V78Z" fill="#37946E" />
  <path d="M128 78H124V81.9998H128V78Z" fill="#37946E" />
  <path d="M132 78H128V81.9998H132V78Z" fill="#37946E" />
  <path d="M136 78H132V81.9998H136V78Z" fill="#37946E" />
  <path d="M140 78H136V81.9998H140V78Z" fill="#FBF236" />
  <path d="M144 78H140V81.9998H144V78Z" fill="#37946E" />
  <path d="M148 78H144V81.9998H148V78Z" fill="#6ABE30" />
  <path d="M152 78H148V81.9998H152V78Z" fill="#6ABE30" />
  <path d="M156 78H152V81.9998H156V78Z" fill="#4B692F" />
  <path d="M160 78H156V81.9998H160V78Z" fill="black" />
  <path d="M15.9998 82H12V85.9998H15.9998V82Z" fill="black" />
  <path d="M19.9998 82H16V85.9998H19.9998V82Z" fill="#4B692F" />
  <path d="M23.9998 82H20V85.9998H23.9998V82Z" fill="#9BADB7" />
  <path d="M27.9998 82H24V85.9998H27.9998V82Z" fill="#9BADB7" />
  <path d="M31.9998 82H28V85.9998H31.9998V82Z" fill="#595652" />
  <path d="M35.9998 82H32V85.9998H35.9998V82Z" fill="#9BADB7" />
  <path d="M39.9998 82H36V85.9998H39.9998V82Z" fill="#9BADB7" />
  <path d="M43.9998 82H40V85.9998H43.9998V82Z" fill="#595652" />
  <path d="M47.9998 82H44V85.9998H47.9998V82Z" fill="#847E87" />
  <path d="M51.9998 82H48V85.9998H51.9998V82Z" fill="#222034" />
  <path d="M55.9998 82H52V85.9998H55.9998V82Z" fill="#4B692F" />
  <path d="M59.9998 82H56V85.9998H59.9998V82Z" fill="#6ABE30" />
  <path d="M63.9998 82H60V85.9998H63.9998V82Z" fill="#37946E" />
  <path d="M67.9998 82H64V85.9998H67.9998V82Z" fill="#37946E" />
  <path d="M71.9998 82H68V85.9998H71.9998V82Z" fill="#FBF236" />
  <path d="M75.9998 82H72V85.9998H75.9998V82Z" fill="#37946E" />
  <path d="M79.9998 82H76V85.9998H79.9998V82Z" fill="#37946E" />
  <path d="M83.9998 82H80V85.9998H83.9998V82Z" fill="#37946E" />
  <path d="M87.9998 82H84V85.9998H87.9998V82Z" fill="#37946E" />
  <path d="M91.9998 82H88V85.9998H91.9998V82Z" fill="#37946E" />
  <path d="M95.9998 82H92V85.9998H95.9998V82Z" fill="#37946E" />
  <path d="M99.9998 82H96V85.9998H99.9998V82Z" fill="#37946E" />
  <path d="M104 82H100V85.9998H104V82Z" fill="#37946E" />
  <path d="M108 82H104V85.9998H108V82Z" fill="#37946E" />
  <path d="M112 82H108V85.9998H112V82Z" fill="#FBF236" />
  <path d="M116 82H112V85.9998H116V82Z" fill="#FBF236" />
  <path d="M120 82H116V85.9998H120V82Z" fill="#FBF236" />
  <path d="M124 82H120V85.9998H124V82Z" fill="#FBF236" />
  <path d="M128 82H124V85.9998H128V82Z" fill="#FBF236" />
  <path d="M132 82H128V85.9998H132V82Z" fill="#99E550" />
  <path d="M136 82H132V85.9998H136V82Z" fill="#37946E" />
  <path d="M140 82H136V85.9998H140V82Z" fill="#37946E" />
  <path d="M144 82H140V85.9998H144V82Z" fill="#6ABE30" />
  <path d="M148 82H144V85.9998H148V82Z" fill="#6ABE30" />
  <path d="M152 82H148V85.9998H152V82Z" fill="#6ABE30" />
  <path d="M156 82H152V85.9998H156V82Z" fill="#6ABE30" />
  <path d="M160 82H156V85.9998H160V82Z" fill="#4B692F" />
  <path d="M164 82H160V85.9998H164V82Z" fill="#222034" />
  <path d="M19.9998 86H16V89.9998H19.9998V86Z" fill="black" />
  <path d="M23.9998 86H20V89.9998H23.9998V86Z" fill="#4B692F" />
  <path d="M27.9998 86H24V89.9998H27.9998V86Z" fill="#222034" />
  <path d="M31.9998 86H28V89.9998H31.9998V86Z" fill="#9BADB7" />
  <path d="M35.9998 86H32V89.9998H35.9998V86Z" fill="#9BADB7" />
  <path d="M39.9998 86H36V89.9998H39.9998V86Z" fill="#595652" />
  <path d="M43.9998 86H40V89.9998H43.9998V86Z" fill="#9BADB7" />
  <path d="M47.9998 86H44V89.9998H47.9998V86Z" fill="#9BADB7" />
  <path d="M51.9998 86H48V89.9998H51.9998V86Z" fill="#595652" />
  <path d="M55.9998 86H52V89.9998H55.9998V86Z" fill="#222034" />
  <path d="M59.9998 86H56V89.9998H59.9998V86Z" fill="#4B692F" />
  <path d="M63.9998 86H60V89.9998H63.9998V86Z" fill="#6ABE30" />
  <path d="M67.9998 86H64V89.9998H67.9998V86Z" fill="#6ABE30" />
  <path d="M71.9998 86H68V89.9998H71.9998V86Z" fill="#37946E" />
  <path d="M75.9998 86H72V89.9998H75.9998V86Z" fill="#FBF236" />
  <path d="M79.9998 86H76V89.9998H79.9998V86Z" fill="#37946E" />
  <path d="M83.9998 86H80V89.9998H83.9998V86Z" fill="#37946E" />
  <path d="M87.9998 86H84V89.9998H87.9998V86Z" fill="#37946E" />
  <path d="M91.9998 86H88V89.9998H91.9998V86Z" fill="#FBF236" />
  <path d="M95.9998 86H92V89.9998H95.9998V86Z" fill="#FBF236" />
  <path d="M99.9998 86H96V89.9998H99.9998V86Z" fill="#FBF236" />
  <path d="M104 86H100V89.9998H104V86Z" fill="#FBF236" />
  <path d="M108 86H104V89.9998H108V86Z" fill="#FBF236" />
  <path d="M112 86H108V89.9998H112V86Z" fill="#37946E" />
  <path d="M116 86H112V89.9998H116V86Z" fill="#37946E" />
  <path d="M120 86H116V89.9998H120V86Z" fill="#6ABE30" />
  <path d="M124 86H120V89.9998H124V86Z" fill="#6ABE30" />
  <path d="M128 86H124V89.9998H128V86Z" fill="#6ABE30" />
  <path d="M132 86H128V89.9998H132V86Z" fill="#6ABE30" />
  <path d="M136 86H132V89.9998H136V86Z" fill="#6ABE30" />
  <path d="M140 86H136V89.9998H140V86Z" fill="#222034" />
  <path d="M144 86H140V89.9998H144V86Z" fill="#222034" />
  <path d="M148 86H144V89.9998H148V86Z" fill="#222034" />
  <path d="M152 86H148V89.9998H152V86Z" fill="#222034" />
  <path d="M156 86H152V89.9998H156V86Z" fill="#222034" />
  <path d="M160 86H156V89.9998H160V86Z" fill="#222034" />
  <path d="M164 86H160V89.9998H164V86Z" fill="#4B692F" />
  <path d="M168 86H164V89.9998H168V86Z" fill="black" />
  <path d="M23.9998 90H20V93.9998H23.9998V90Z" fill="black" />
  <path d="M27.9998 90H24V93.9998H27.9998V90Z" fill="#4B692F" />
  <path d="M31.9998 90H28V93.9998H31.9998V90Z" fill="#222034" />
  <path d="M35.9998 90H32V93.9998H35.9998V90Z" fill="#9BADB7" />
  <path d="M39.9998 90H36V93.9998H39.9998V90Z" fill="#9BADB7" />
  <path d="M43.9998 90H40V93.9998H43.9998V90Z" fill="#595652" />
  <path d="M47.9998 90H44V93.9998H47.9998V90Z" fill="#9BADB7" />
  <path d="M51.9998 90H48V93.9998H51.9998V90Z" fill="#9BADB7" />
  <path d="M55.9998 90H52V93.9998H55.9998V90Z" fill="#595652" />
  <path d="M59.9998 90H56V93.9998H59.9998V90Z" fill="#222034" />
  <path d="M63.9998 90H60V93.9998H63.9998V90Z" fill="#4B692F" />
  <path d="M67.9998 90H64V93.9998H67.9998V90Z" fill="#6ABE30" />
  <path d="M71.9998 90H68V93.9998H71.9998V90Z" fill="#6ABE30" />
  <path d="M75.9998 90H72V93.9998H75.9998V90Z" fill="#6ABE30" />
  <path d="M79.9998 90H76V93.9998H79.9998V90Z" fill="#FBF236" />
  <path d="M83.9998 90H80V93.9998H83.9998V90Z" fill="#FBF236" />
  <path d="M87.9998 90H84V93.9998H87.9998V90Z" fill="#FBF236" />
  <path d="M91.9998 90H88V93.9998H91.9998V90Z" fill="#37946E" />
  <path d="M95.9998 90H92V93.9998H95.9998V90Z" fill="#6ABE30" />
  <path d="M99.9998 90H96V93.9998H99.9998V90Z" fill="#6ABE30" />
  <path d="M104 90H100V93.9998H104V90Z" fill="#6ABE30" />
  <path d="M108 90H104V93.9998H108V90Z" fill="#6ABE30" />
  <path d="M112 90H108V93.9998H112V90Z" fill="#6ABE30" />
  <path d="M116 90H112V93.9998H116V90Z" fill="#222034" />
  <path d="M120 90H116V93.9998H120V90Z" fill="#222034" />
  <path d="M124 90H120V93.9998H124V90Z" fill="#222034" />
  <path d="M128 90H124V93.9998H128V90Z" fill="#222034" />
  <path d="M132 90H128V93.9998H132V90Z" fill="#222034" />
  <path d="M136 90H132V93.9998H136V90Z" fill="#222034" />
  <path d="M140 90H136V93.9998H140V90Z" fill="white" />
  <path d="M144 90H140V93.9998H144V90Z" fill="white" />
  <path d="M148 90H144V93.9998H148V90Z" fill="#9BADB7" />
  <path d="M152 90H148V93.9998H152V90Z" fill="#9BADB7" />
  <path d="M156 90H152V93.9998H156V90Z" fill="#847E87" />
  <path d="M160 90H156V93.9998H160V90Z" fill="#222034" />
  <path d="M164 90H160V93.9998H164V90Z" fill="#6ABE30" />
  <path d="M168 90H164V93.9998H168V90Z" fill="black" />
  <path d="M27.9998 94H24V97.9998H27.9998V94Z" fill="black" />
  <path d="M31.9998 94H28V97.9998H31.9998V94Z" fill="#4B692F" />
  <path d="M35.9998 94H32V97.9998H35.9998V94Z" fill="#222034" />
  <path d="M39.9998 94H36V97.9998H39.9998V94Z" fill="#9BADB7" />
  <path d="M43.9998 94H40V97.9998H43.9998V94Z" fill="#9BADB7" />
  <path d="M47.9998 94H44V97.9998H47.9998V94Z" fill="#595652" />
  <path d="M51.9998 94H48V97.9998H51.9998V94Z" fill="#9BADB7" />
  <path d="M55.9998 94H52V97.9998H55.9998V94Z" fill="#9BADB7" />
  <path d="M59.9998 94H56V97.9998H59.9998V94Z" fill="#595652" />
  <path d="M63.9998 94H60V97.9998H63.9998V94Z" fill="#222034" />
  <path d="M67.9998 94H64V97.9998H67.9998V94Z" fill="#4B692F" />
  <path d="M71.9998 94H68V97.9998H71.9998V94Z" fill="#6ABE30" />
  <path d="M75.9998 94H72V97.9998H75.9998V94Z" fill="#6ABE30" />
  <path d="M79.9998 94H76V97.9998H79.9998V94Z" fill="#6ABE30" />
  <path d="M83.9998 94H80V97.9998H83.9998V94Z" fill="#6ABE30" />
  <path d="M87.9998 94H84V97.9998H87.9998V94Z" fill="#6ABE30" />
  <path d="M91.9998 94H88V97.9998H91.9998V94Z" fill="#222034" />
  <path d="M95.9998 94H92V97.9998H95.9998V94Z" fill="#222034" />
  <path d="M99.9998 94H96V97.9998H99.9998V94Z" fill="#222034" />
  <path d="M104 94H100V97.9998H104V94Z" fill="#222034" />
  <path d="M108 94H104V97.9998H108V94Z" fill="#222034" />
  <path d="M112 94H108V97.9998H112V94Z" fill="#222034" />
  <path d="M116 94H112V97.9998H116V94Z" fill="white" />
  <path d="M120 94H116V97.9998H120V94Z" fill="white" />
  <path d="M124 94H120V97.9998H124V94Z" fill="white" />
  <path d="M128 94H124V97.9998H128V94Z" fill="#9BADB7" />
  <path d="M132 94H128V97.9998H132V94Z" fill="#9BADB7" />
  <path d="M136 94H132V97.9998H136V94Z" fill="#9BADB7" />
  <path d="M140 94H136V97.9998H140V94Z" fill="#9BADB7" />
  <path d="M144 94H140V97.9998H144V94Z" fill="#9BADB7" />
  <path d="M148 94H144V97.9998H148V94Z" fill="white" />
  <path d="M152 94H148V97.9998H152V94Z" fill="white" />
  <path d="M156 94H152V97.9998H156V94Z" fill="white" />
  <path d="M160 94H156V97.9998H160V94Z" fill="#222034" />
  <path d="M164 94H160V97.9998H164V94Z" fill="#6ABE30" />
  <path d="M168 94H164V97.9998H168V94Z" fill="black" />
  <path d="M31.9998 98H28V102H31.9998V98Z" fill="black" />
  <path d="M35.9998 98H32V102H35.9998V98Z" fill="#4B692F" />
  <path d="M39.9998 98H36V102H39.9998V98Z" fill="#4B692F" />
  <path d="M43.9998 98H40V102H43.9998V98Z" fill="#9BADB7" />
  <path d="M47.9998 98H44V102H47.9998V98Z" fill="#9BADB7" />
  <path d="M51.9998 98H48V102H51.9998V98Z" fill="#595652" />
  <path d="M55.9998 98H52V102H55.9998V98Z" fill="#9BADB7" />
  <path d="M59.9998 98H56V102H59.9998V98Z" fill="#9BADB7" />
  <path d="M63.9998 98H60V102H63.9998V98Z" fill="#595652" />
  <path d="M67.9998 98H64V102H67.9998V98Z" fill="#222034" />
  <path d="M71.9998 98H68V102H71.9998V98Z" fill="#4B692F" />
  <path d="M75.9998 98H72V102H75.9998V98Z" fill="#4B692F" />
  <path d="M79.9998 98H76V102H79.9998V98Z" fill="#222034" />
  <path d="M83.9998 98H80V102H83.9998V98Z" fill="#222034" />
  <path d="M87.9998 98H84V102H87.9998V98Z" fill="#222034" />
  <path d="M91.9998 98H88V102H91.9998V98Z" fill="white" />
  <path d="M95.9998 98H92V102H95.9998V98Z" fill="white" />
  <path d="M99.9998 98H96V102H99.9998V98Z" fill="white" />
  <path d="M104 98H100V102H104V98Z" fill="white" />
  <path d="M108 98H104V102H108V98Z" fill="white" />
  <path d="M112 98H108V102H112V98Z" fill="#9BADB7" />
  <path d="M116 98H112V102H116V98Z" fill="#9BADB7" />
  <path d="M120 98H116V102H120V98Z" fill="#9BADB7" />
  <path d="M124 98H120V102H124V98Z" fill="#9BADB7" />
  <path d="M128 98H124V102H128V98Z" fill="white" />
  <path d="M132 98H128V102H132V98Z" fill="white" />
  <path d="M136 98H132V102H136V98Z" fill="white" />
  <path d="M140 98H136V102H140V98Z" fill="white" />
  <path d="M144 98H140V102H144V98Z" fill="white" />
  <path d="M148 98H144V102H148V98Z" fill="#9BADB7" />
  <path d="M152 98H148V102H152V98Z" fill="#9BADB7" />
  <path d="M156 98H152V102H156V98Z" fill="#9BADB7" />
  <path d="M160 98H156V102H160V98Z" fill="#222034" />
  <path d="M164 98H160V102H164V98Z" fill="#6ABE30" />
  <path d="M168 98H164V102H168V98Z" fill="black" />
  <path d="M35.9998 102H32V106H35.9998V102Z" fill="black" />
  <path d="M39.9998 102H36V106H39.9998V102Z" fill="black" />
  <path d="M43.9998 102H40V106H43.9998V102Z" fill="#4B692F" />
  <path d="M47.9998 102H44V106H47.9998V102Z" fill="#9BADB7" />
  <path d="M51.9998 102H48V106H51.9998V102Z" fill="#9BADB7" />
  <path d="M55.9998 102H52V106H55.9998V102Z" fill="#9BADB7" />
  <path d="M59.9998 102H56V106H59.9998V102Z" fill="#595652" />
  <path d="M63.9998 102H60V106H63.9998V102Z" fill="#9BADB7" />
  <path d="M67.9998 102H64V106H67.9998V102Z" fill="#9BADB7" />
  <path d="M71.9998 102H68V106H71.9998V102Z" fill="#222034" />
  <path d="M75.9998 102H72V106H75.9998V102Z" fill="#222034" />
  <path d="M79.9998 102H76V106H79.9998V102Z" fill="white" />
  <path d="M83.9998 102H80V106H83.9998V102Z" fill="white" />
  <path d="M87.9998 102H84V106H87.9998V102Z" fill="white" />
  <path d="M91.9998 102H88V106H91.9998V102Z" fill="#9BADB7" />
  <path d="M95.9998 102H92V106H95.9998V102Z" fill="#9BADB7" />
  <path d="M99.9998 102H96V106H99.9998V102Z" fill="#9BADB7" />
  <path d="M104 102H100V106H104V102Z" fill="#9BADB7" />
  <path d="M108 102H104V106H108V102Z" fill="#9BADB7" />
  <path d="M112 102H108V106H112V102Z" fill="white" />
  <path d="M116 102H112V106H116V102Z" fill="white" />
  <path d="M120 102H116V106H120V102Z" fill="white" />
  <path d="M124 102H120V106H124V102Z" fill="white" />
  <path d="M128 102H124V106H128V102Z" fill="#9BADB7" />
  <path d="M132 102H128V106H132V102Z" fill="#9BADB7" />
  <path d="M136 102H132V106H136V102Z" fill="#9BADB7" />
  <path d="M140 102H136V106H140V102Z" fill="#9BADB7" />
  <path d="M144 102H140V106H144V102Z" fill="#9BADB7" />
  <path d="M148 102H144V106H148V102Z" fill="white" />
  <path d="M152 102H148V106H152V102Z" fill="white" />
  <path d="M156 102H152V106H156V102Z" fill="#222034" />
  <path d="M160 102H156V106H160V102Z" fill="#222034" />
  <path d="M164 102H160V106H164V102Z" fill="#6ABE30" />
  <path d="M168 102H164V106H168V102Z" fill="black" />
  <path d="M43.9998 106H40V110H43.9998V106Z" fill="black" />
  <path d="M47.9998 106H44V110H47.9998V106Z" fill="#4B692F" />
  <path d="M51.9998 106H48V110H51.9998V106Z" fill="#222034" />
  <path d="M55.9998 106H52V110H55.9998V106Z" fill="#9BADB7" />
  <path d="M59.9998 106H56V110H59.9998V106Z" fill="#9BADB7" />
  <path d="M63.9998 106H60V110H63.9998V106Z" fill="#595652" />
  <path d="M67.9998 106H64V110H67.9998V106Z" fill="#9BADB7" />
  <path d="M71.9998 106H68V110H71.9998V106Z" fill="#9BADB7" />
  <path d="M75.9998 106H72V110H75.9998V106Z" fill="#595652" />
  <path d="M79.9998 106H76V110H79.9998V106Z" fill="#9BADB7" />
  <path d="M83.9998 106H80V110H83.9998V106Z" fill="#9BADB7" />
  <path d="M87.9998 106H84V110H87.9998V106Z" fill="#9BADB7" />
  <path d="M91.9998 106H88V110H91.9998V106Z" fill="white" />
  <path d="M95.9998 106H92V110H95.9998V106Z" fill="white" />
  <path d="M99.9998 106H96V110H99.9998V106Z" fill="white" />
  <path d="M104 106H100V110H104V106Z" fill="white" />
  <path d="M108 106H104V110H108V106Z" fill="white" />
  <path d="M112 106H108V110H112V106Z" fill="#9BADB7" />
  <path d="M116 106H112V110H116V106Z" fill="#9BADB7" />
  <path d="M120 106H116V110H120V106Z" fill="#9BADB7" />
  <path d="M124 106H120V110H124V106Z" fill="#9BADB7" />
  <path d="M128 106H124V110H128V106Z" fill="white" />
  <path d="M132 106H128V110H132V106Z" fill="white" />
  <path d="M136 106H132V110H136V106Z" fill="white" />
  <path d="M140 106H136V110H140V106Z" fill="white" />
  <path d="M144 106H140V110H144V106Z" fill="#222034" />
  <path d="M148 106H144V110H148V106Z" fill="#222034" />
  <path d="M152 106H148V110H152V106Z" fill="#6ABE30" />
  <path d="M156 106H152V110H156V106Z" fill="#6ABE30" />
  <path d="M160 106H156V110H160V106Z" fill="#4B692F" />
  <path d="M164 106H160V110H164V106Z" fill="black" />
  <path d="M47.9998 110H44V114H47.9998V110Z" fill="black" />
  <path d="M51.9998 110H48V114H51.9998V110Z" fill="#4B692F" />
  <path d="M55.9998 110H52V114H55.9998V110Z" fill="#222034" />
  <path d="M59.9998 110H56V114H59.9998V110Z" fill="#9BADB7" />
  <path d="M63.9998 110H60V114H63.9998V110Z" fill="#9BADB7" />
  <path d="M67.9998 110H64V114H67.9998V110Z" fill="#595652" />
  <path d="M71.9998 110H68V114H71.9998V110Z" fill="#9BADB7" />
  <path d="M75.9998 110H72V114H75.9998V110Z" fill="#9BADB7" />
  <path d="M79.9998 110H76V114H79.9998V110Z" fill="white" />
  <path d="M83.9998 110H80V114H83.9998V110Z" fill="white" />
  <path d="M87.9998 110H84V114H87.9998V110Z" fill="white" />
  <path d="M91.9998 110H88V114H91.9998V110Z" fill="white" />
  <path d="M95.9998 110H92V114H95.9998V110Z" fill="#9BADB7" />
  <path d="M99.9998 110H96V114H99.9998V110Z" fill="#9BADB7" />
  <path d="M104 110H100V114H104V110Z" fill="#9BADB7" />
  <path d="M108 110H104V114H108V110Z" fill="#9BADB7" />
  <path d="M112 110H108V114H112V110Z" fill="white" />
  <path d="M116 110H112V114H116V110Z" fill="white" />
  <path d="M120 110H116V114H120V110Z" fill="white" />
  <path d="M124 110H120V114H124V110Z" fill="white" />
  <path d="M128 110H124V114H128V110Z" fill="#222034" />
  <path d="M132 110H128V114H132V110Z" fill="#222034" />
  <path d="M136 110H132V114H136V110Z" fill="#6ABE30" />
  <path d="M140 110H136V114H140V110Z" fill="#6ABE30" />
  <path d="M144 110H140V114H144V110Z" fill="#6ABE30" />
  <path d="M148 110H144V114H148V110Z" fill="#6ABE30" />
  <path d="M160 110H156V114H160V110Z" fill="black" />
  <path d="M164 110H160V114H164V110Z" fill="black" />
  <path d="M152 110H148V114H152V110Z" fill="black" />
  <path d="M156 110H152V114H156V110Z" fill="black" />
  <path d="M51.9998 114H48V118H51.9998V114Z" fill="black" />
  <path d="M55.9998 114H52V118H55.9998V114Z" fill="#4B692F" />
  <path d="M59.9998 114H56V118H59.9998V114Z" fill="#222034" />
  <path d="M63.9998 114H60V118H63.9998V114Z" fill="#9BADB7" />
  <path d="M67.9998 114H64V118H67.9998V114Z" fill="#9BADB7" />
  <path d="M71.9998 114H68V118H71.9998V114Z" fill="#595652" />
  <path d="M75.9998 114H72V118H75.9998V114Z" fill="#595652" />
  <path d="M79.9998 114H76V118H79.9998V114Z" fill="white" />
  <path d="M83.9998 114H80V118H83.9998V114Z" fill="#9BADB7" />
  <path d="M87.9998 114H84V118H87.9998V114Z" fill="#9BADB7" />
  <path d="M91.9998 114H88V118H91.9998V114Z" fill="#9BADB7" />
  <path d="M95.9998 114H92V118H95.9998V114Z" fill="white" />
  <path d="M99.9998 114H96V118H99.9998V114Z" fill="white" />
  <path d="M104 114H100V118H104V114Z" fill="white" />
  <path d="M108 114H104V118H108V114Z" fill="white" />
  <path d="M112 114H108V118H112V114Z" fill="#222034" />
  <path d="M116 114H112V118H116V114Z" fill="#222034" />
  <path d="M120 114H116V118H120V114Z" fill="#222034" />
  <path d="M124 114H120V118H124V114Z" fill="#6ABE30" />
  <path d="M128 114H124V118H128V114Z" fill="#6ABE30" />
  <path d="M132 114H128V118H132V114Z" fill="#6ABE30" />
  <path d="M136 114H132V118H136V114Z" fill="#37946E" />
  <path d="M55.9998 118H52V122H55.9998V118Z" fill="black" />
  <path d="M59.9998 118H56V122H59.9998V118Z" fill="#4B692F" />
  <path d="M63.9998 118H60V122H63.9998V118Z" fill="#222034" />
  <path d="M67.9998 118H64V122H67.9998V118Z" fill="#9BADB7" />
  <path d="M71.9998 118H68V122H71.9998V118Z" fill="#9BADB7" />
  <path d="M75.9998 118H72V122H75.9998V118Z" fill="#9BADB7" />
  <path d="M79.9998 118H76V122H79.9998V118Z" fill="#9BADB7" />
  <path d="M83.9998 118H80V122H83.9998V118Z" fill="white" />
  <path d="M87.9998 118H84V122H87.9998V118Z" fill="white" />
  <path d="M91.9998 118H88V122H91.9998V118Z" fill="white" />
  <path d="M95.9998 118H92V122H95.9998V118Z" fill="white" />
  <path d="M99.9998 118H96V122H99.9998V118Z" fill="#222034" />
  <path d="M104 118H100V122H104V118Z" fill="#222034" />
  <path d="M108 118H104V122H108V118Z" fill="#37946E" />
  <path d="M112 118H108V122H112V118Z" fill="#6ABE30" />
  <path d="M116 118H112V122H116V118Z" fill="#6ABE30" />
  <path d="M120 118H116V122H120V118Z" fill="#6ABE30" />
  <path d="M59.9998 122H56V126H59.9998V122Z" fill="black" />
  <path d="M63.9998 122H60V126H63.9998V122Z" fill="#4B692F" />
  <path d="M67.9998 122H64V126H67.9998V122Z" fill="#4B692F" />
  <path d="M71.9998 122H68V126H71.9998V122Z" fill="#222034" />
  <path d="M75.9998 122H72V126H75.9998V122Z" fill="#9BADB7" />
  <path d="M79.9998 122H76V126H79.9998V122Z" fill="white" />
  <path d="M83.9998 122H80V126H83.9998V122Z" fill="#222034" />
  <path d="M87.9998 122H84V126H87.9998V122Z" fill="#222034" />
  <path d="M91.9998 122H88V126H91.9998V122Z" fill="#37946E" />
  <path d="M95.9998 122H92V126H95.9998V122Z" fill="#6ABE30" />
  <path d="M99.9998 122H96V126H99.9998V122Z" fill="#6ABE30" />
  <path d="M104 122H100V126H104V122Z" fill="#6ABE30" />
  <path d="M108 122H104V126H108V122Z" fill="#6ABE30" />
  <path d="M112 122H108V126H112V122Z" fill="black" />
  <path d="M140 114H136V118H140V114Z" fill="black" />
  <path d="M63.9998 126H60V130H63.9998V126Z" fill="black" />
  <path d="M67.9998 126H64V130H67.9998V126Z" fill="#4B692F" />
  <path d="M71.9998 126H68V130H71.9998V126Z" fill="#4B692F" />
  <path d="M75.9998 126H72V130H75.9998V126Z" fill="#222034" />
  <path d="M79.9998 126H76V130H79.9998V126Z" fill="#222034" />
  <path d="M83.9998 126H80V130H83.9998V126Z" fill="#37946E" />
  <path d="M87.9998 126H84V130H87.9998V126Z" fill="#6ABE30" />
  <path d="M91.9998 126H88V130H91.9998V126Z" fill="#6ABE30" />
  <path d="M95.9998 126H92V130H95.9998V126Z" fill="black" />
  <path d="M124 118H120V122H124V118Z" fill="black" />
  <path d="M104 126H100V130H104V126Z" fill="black" />
  <path d="M132 118H128V122H132V118Z" fill="black" />
  <path d="M116 122H112V126H116V122Z" fill="black" />
  <path d="M144 114H140V118H144V114Z" fill="black" />
  <path d="M99.9998 126H96V130H99.9998V126Z" fill="black" />
  <path d="M128 118H124V122H128V118Z" fill="black" />
  <path d="M108 126H104V130H108V126Z" fill="black" />
  <path d="M136 118H132V122H136V118Z" fill="black" />
  <path d="M120 122H116V126H120V122Z" fill="black" />
  <path d="M148 114H144V118H148V114Z" fill="black" />
  <path d="M67.9998 130H64V134H67.9998V130Z" fill="black" />
  <path d="M71.9998 130H68V134H71.9998V130Z" fill="black" />
  <path d="M75.9998 130H72V134H75.9998V130Z" fill="#37946E" />
  <path d="M79.9998 130H76V134H79.9998V130Z" fill="#37946E" />
  <path d="M83.9998 130H80V134H83.9998V130Z" fill="black" />
  <path d="M87.9998 130H84V134H87.9998V130Z" fill="black" />
  <path d="M91.9998 130H88V134H91.9998V130Z" fill="black" />
  <path d="M75.9998 134H72V138H75.9998V134Z" fill="black" />
  <path d="M79.9998 134H76V138H79.9998V134Z" fill="black" />
</svg>
