<svg viewBox="0 0 168 168" fill="none" xmlns="http://www.w3.org/2000/svg">
  <path d="M101.999 6.00073H98V10.0002H101.999V6.00073Z" fill="black" />
  <path d="M105.999 6.00073H102V10.0002H105.999V6.00073Z" fill="black" />
  <path d="M109.999 6.00073H106V10.0002H109.999V6.00073Z" fill="black" />
  <path d="M114 6.00073H110V10.0002H114V6.00073Z" fill="black" />
  <path d="M97.9995 10.0007H94V14.0002H97.9995V10.0007Z" fill="black" />
  <path d="M101.999 10.0007H98V14.0002H101.999V10.0007Z" fill="#688FA7" />
  <path d="M105.999 10.0007H102V14.0002H105.999V10.0007Z" fill="#688FA7" />
  <path d="M109.999 10.0007H106V14.0002H109.999V10.0007Z" fill="#688FA7" />
  <path d="M114 10.0007H110V14.0002H114V10.0007Z" fill="#688FA7" />
  <path d="M117.999 10.0007H114V14.0002H117.999V10.0007Z" fill="black" />
  <path d="M121.999 10.0007H118V14.0002H121.999V10.0007Z" fill="black" />
  <path d="M97.9995 14.0007H94V18.0002H97.9995V14.0007Z" fill="black" />
  <path d="M101.999 14.0007H98V18.0002H101.999V14.0007Z" fill="#688FA7" />
  <path d="M105.999 14.0007H102V18.0002H105.999V14.0007Z" fill="#688FA7" />
  <path d="M109.999 14.0007H106V18.0002H109.999V14.0007Z" fill="#688FA7" />
  <path d="M114 14.0007H110V18.0002H114V14.0007Z" fill="#688FA7" />
  <path d="M117.999 14.0007H114V18.0002H117.999V14.0007Z" fill="#688FA7" />
  <path d="M121.999 14.0007H118V18.0002H121.999V14.0007Z" fill="#688FA7" />
  <path d="M125.999 14.0007H122V18.0002H125.999V14.0007Z" fill="black" />
  <path d="M130 14.0007H126V18.0002H130V14.0007Z" fill="black" />
  <path d="M133.999 14.0007H130V18.0002H133.999V14.0007Z" fill="black" />
  <path d="M93.9995 18.0007H90V22.0002H93.9995V18.0007Z" fill="black" />
  <path d="M97.9995 18.0007H94V22.0002H97.9995V18.0007Z" fill="#688FA7" />
  <path d="M101.999 18.0007H98V22.0002H101.999V18.0007Z" fill="#688FA7" />
  <path d="M105.999 18.0007H102V22.0002H105.999V18.0007Z" fill="#688FA7" />
  <path d="M109.999 18.0007H106V22.0002H109.999V18.0007Z" fill="#688FA7" />
  <path d="M114 18.0007H110V22.0002H114V18.0007Z" fill="#688FA7" />
  <path d="M117.999 18.0007H114V22.0002H117.999V18.0007Z" fill="#515254" />
  <path d="M121.999 18.0007H118V22.0002H121.999V18.0007Z" fill="#688FA7" />
  <path d="M125.999 18.0007H122V22.0002H125.999V18.0007Z" fill="#688FA7" />
  <path d="M130 18.0007H126V22.0002H130V18.0007Z" fill="#688FA7" />
  <path d="M133.999 18.0007H130V22.0002H133.999V18.0007Z" fill="#688FA7" />
  <path d="M137.999 18.0007H134V22.0002H137.999V18.0007Z" fill="black" />
  <path d="M141.999 18.0007H138V22.0002H141.999V18.0007Z" fill="black" />
  <path d="M93.9995 22.0007H90V26.0002H93.9995V22.0007Z" fill="black" />
  <path d="M97.9995 22.0007H94V26.0002H97.9995V22.0007Z" fill="#688FA7" />
  <path d="M101.999 22.0007H98V26.0002H101.999V22.0007Z" fill="#79CDD1" />
  <path d="M105.999 22.0007H102V26.0002H105.999V22.0007Z" fill="#79CDD1" />
  <path d="M109.999 22.0007H106V26.0002H109.999V22.0007Z" fill="#79CDD1" />
  <path d="M114 22.0007H110V26.0002H114V22.0007Z" fill="#688FA7" />
  <path d="M117.999 22.0007H114V26.0002H117.999V22.0007Z" fill="#688FA7" />
  <path d="M121.999 22.0007H118V26.0002H121.999V22.0007Z" fill="#688FA7" />
  <path d="M125.999 22.0007H122V26.0002H125.999V22.0007Z" fill="#515254" />
  <path d="M130 22.0007H126V26.0002H130V22.0007Z" fill="#688FA7" />
  <path d="M133.999 22.0007H130V26.0002H133.999V22.0007Z" fill="#688FA7" />
  <path d="M137.999 22.0007H134V26.0002H137.999V22.0007Z" fill="#688FA7" />
  <path d="M141.999 22.0007H138V26.0002H141.999V22.0007Z" fill="#688FA7" />
  <path d="M145.999 22.0007H142V26.0002H145.999V22.0007Z" fill="black" />
  <path d="M89.9995 26.0007H86V30.0002H89.9995V26.0007Z" fill="black" />
  <path d="M93.9995 26.0007H90V30.0002H93.9995V26.0007Z" fill="#688FA7" />
  <path d="M97.9995 26.0007H94V30.0002H97.9995V26.0007Z" fill="#688FA7" />
  <path d="M101.999 26.0007H98V30.0002H101.999V26.0007Z" fill="#79CDD1" />
  <path d="M105.999 26.0007H102V30.0002H105.999V26.0007Z" fill="#79CDD1" />
  <path d="M109.999 26.0007H106V30.0002H109.999V26.0007Z" fill="#79CDD1" />
  <path d="M114 26.0007H110V30.0002H114V26.0007Z" fill="#79CDD1" />
  <path d="M117.999 26.0007H114V30.0002H117.999V26.0007Z" fill="#79CDD1" />
  <path d="M121.999 26.0007H118V30.0002H121.999V26.0007Z" fill="#688FA7" />
  <path d="M125.999 26.0007H122V30.0002H125.999V26.0007Z" fill="#688FA7" />
  <path d="M130 26.0007H126V30.0002H130V26.0007Z" fill="#688FA7" />
  <path d="M133.999 26.0007H130V30.0002H133.999V26.0007Z" fill="#688FA7" />
  <path d="M137.999 26.0007H134V30.0002H137.999V26.0007Z" fill="#688FA7" />
  <path d="M141.999 26.0007H138V30.0002H141.999V26.0007Z" fill="#688FA7" />
  <path d="M145.999 26.0007H142V30.0002H145.999V26.0007Z" fill="black" />
  <path d="M150 26.0007H146V30.0002H150V26.0007Z" fill="black" />
  <path d="M89.9995 30.0007H86V34.0002H89.9995V30.0007Z" fill="black" />
  <path d="M93.9995 30.0007H90V34.0002H93.9995V30.0007Z" fill="#688FA7" />
  <path d="M97.9995 30.0007H94V34.0002H97.9995V30.0007Z" fill="#79CDD1" />
  <path d="M101.999 30.0007H98V34.0002H101.999V30.0007Z" fill="#79CDD1" />
  <path d="M105.999 30.0007H102V34.0002H105.999V30.0007Z" fill="#79CDD1" />
  <path d="M109.999 30.0007H106V34.0002H109.999V30.0007Z" fill="#79CDD1" />
  <path d="M114 30.0007H110V34.0002H114V30.0007Z" fill="#79CDD1" />
  <path d="M117.999 30.0007H114V34.0002H117.999V30.0007Z" fill="#79CDD1" />
  <path d="M121.999 30.0007H118V34.0002H121.999V30.0007Z" fill="#79CDD1" />
  <path d="M125.999 30.0007H122V34.0002H125.999V30.0007Z" fill="#79CDD1" />
  <path d="M130 30.0007H126V34.0002H130V30.0007Z" fill="#688FA7" />
  <path d="M133.999 30.0007H130V34.0002H133.999V30.0007Z" fill="#688FA7" />
  <path d="M137.999 30.0007H134V34.0002H137.999V30.0007Z" fill="#688FA7" />
  <path d="M141.999 30.0007H138V34.0002H141.999V30.0007Z" fill="#688FA7" />
  <path d="M145.999 30.0007H142V34.0002H145.999V30.0007Z" fill="black" />
  <path d="M150 30.0007H146V34.0002H150V30.0007Z" fill="#3A6076" />
  <path d="M153.999 30.0007H150V34.0002H153.999V30.0007Z" fill="black" />
  <path d="M85.9995 34.0007H82V38.0002H85.9995V34.0007Z" fill="black" />
  <path d="M89.9995 34.0007H86V38.0002H89.9995V34.0007Z" fill="#688FA7" />
  <path d="M93.9995 34.0007H90V38.0002H93.9995V34.0007Z" fill="#688FA7" />
  <path d="M97.9995 34.0007H94V38.0002H97.9995V34.0007Z" fill="#79CDD1" />
  <path d="M101.999 34.0007H98V38.0002H101.999V34.0007Z" fill="#79CDD1" />
  <path d="M105.999 34.0007H102V38.0002H105.999V34.0007Z" fill="#79CDD1" />
  <path d="M109.999 34.0007H106V38.0002H109.999V34.0007Z" fill="#79CDD1" />
  <path d="M114 34.0007H110V38.0002H114V34.0007Z" fill="#79CDD1" />
  <path d="M117.999 34.0007H114V38.0002H117.999V34.0007Z" fill="#79CDD1" />
  <path d="M121.999 34.0007H118V38.0002H121.999V34.0007Z" fill="#79CDD1" />
  <path d="M125.999 34.0007H122V38.0002H125.999V34.0007Z" fill="#79CDD1" />
  <path d="M130 34.0007H126V38.0002H130V34.0007Z" fill="#79CDD1" />
  <path d="M133.999 34.0007H130V38.0002H133.999V34.0007Z" fill="#79CDD1" />
  <path d="M137.999 34.0007H134V38.0002H137.999V34.0007Z" fill="#688FA7" />
  <path d="M141.999 34.0007H138V38.0002H141.999V34.0007Z" fill="#688FA7" />
  <path d="M145.999 34.0007H142V38.0002H145.999V34.0007Z" fill="black" />
  <path d="M150 34.0007H146V38.0002H150V34.0007Z" fill="#3A6076" />
  <path d="M153.999 34.0007H150V38.0002H153.999V34.0007Z" fill="black" />
  <path d="M85.9995 38.0007H82V42.0002H85.9995V38.0007Z" fill="black" />
  <path d="M89.9995 38.0007H86V42.0002H89.9995V38.0007Z" fill="#688FA7" />
  <path d="M93.9995 38.0007H90V42.0002H93.9995V38.0007Z" fill="#79CDD1" />
  <path d="M97.9995 38.0007H94V42.0002H97.9995V38.0007Z" fill="#79CDD1" />
  <path d="M101.999 38.0007H98V42.0002H101.999V38.0007Z" fill="#79CDD1" />
  <path d="M105.999 38.0007H102V42.0002H105.999V38.0007Z" fill="#79CDD1" />
  <path d="M109.999 38.0007H106V42.0002H109.999V38.0007Z" fill="#79CDD1" />
  <path d="M114 38.0007H110V42.0002H114V38.0007Z" fill="#79CDD1" />
  <path d="M117.999 38.0007H114V42.0002H117.999V38.0007Z" fill="#79CDD1" />
  <path d="M121.999 38.0007H118V42.0002H121.999V38.0007Z" fill="#79CDD1" />
  <path d="M125.999 38.0007H122V42.0002H125.999V38.0007Z" fill="#79CDD1" />
  <path d="M130 38.0007H126V42.0002H130V38.0007Z" fill="#79CDD1" />
  <path d="M133.999 38.0007H130V42.0002H133.999V38.0007Z" fill="#79CDD1" />
  <path d="M137.999 38.0007H134V42.0002H137.999V38.0007Z" fill="#688FA7" />
  <path d="M141.999 38.0007H138V42.0002H141.999V38.0007Z" fill="black" />
  <path d="M145.999 38.0007H142V42.0002H145.999V38.0007Z" fill="#3A6076" />
  <path d="M150 38.0007H146V42.0002H150V38.0007Z" fill="black" />
  <path d="M81.9995 42.0007H78V46.0002H81.9995V42.0007Z" fill="black" />
  <path d="M85.9995 42.0007H82V46.0002H85.9995V42.0007Z" fill="#688FA7" />
  <path d="M89.9995 42.0007H86V46.0002H89.9995V42.0007Z" fill="#688FA7" />
  <path d="M93.9995 42.0007H90V46.0002H93.9995V42.0007Z" fill="#79CDD1" />
  <path d="M97.9995 42.0007H94V46.0002H97.9995V42.0007Z" fill="#79CDD1" />
  <path d="M101.999 42.0007H98V46.0002H101.999V42.0007Z" fill="#79CDD1" />
  <path d="M105.999 42.0007H102V46.0002H105.999V42.0007Z" fill="#79CDD1" />
  <path d="M109.999 42.0007H106V46.0002H109.999V42.0007Z" fill="#79CDD1" />
  <path d="M114 42.0007H110V46.0002H114V42.0007Z" fill="#79CDD1" />
  <path d="M117.999 42.0007H114V46.0002H117.999V42.0007Z" fill="#79CDD1" />
  <path d="M121.999 42.0007H118V46.0002H121.999V42.0007Z" fill="#79CDD1" />
  <path d="M125.999 42.0007H122V46.0002H125.999V42.0007Z" fill="#79CDD1" />
  <path d="M130 42.0007H126V46.0002H130V42.0007Z" fill="#79CDD1" />
  <path d="M133.999 42.0007H130V46.0002H133.999V42.0007Z" fill="#688FA7" />
  <path d="M137.999 42.0007H134V46.0002H137.999V42.0007Z" fill="#688FA7" />
  <path d="M141.999 42.0007H138V46.0002H141.999V42.0007Z" fill="black" />
  <path d="M145.999 42.0007H142V46.0002H145.999V42.0007Z" fill="#3A6076" />
  <path d="M150 42.0007H146V46.0002H150V42.0007Z" fill="black" />
  <path d="M81.9995 46.0007H78V50.0002H81.9995V46.0007Z" fill="black" />
  <path d="M85.9995 46.0007H82V50.0002H85.9995V46.0007Z" fill="#688FA7" />
  <path d="M89.9995 46.0007H86V50.0002H89.9995V46.0007Z" fill="#79CDD1" />
  <path d="M93.9995 46.0007H90V50.0002H93.9995V46.0007Z" fill="#79CDD1" />
  <path d="M97.9995 46.0007H94V50.0002H97.9995V46.0007Z" fill="#79CDD1" />
  <path d="M101.999 46.0007H98V50.0002H101.999V46.0007Z" fill="#79CDD1" />
  <path d="M105.999 46.0007H102V50.0002H105.999V46.0007Z" fill="#79CDD1" />
  <path d="M109.999 46.0007H106V50.0002H109.999V46.0007Z" fill="#79CDD1" />
  <path d="M114 46.0007H110V50.0002H114V46.0007Z" fill="#79CDD1" />
  <path d="M117.999 46.0007H114V50.0002H117.999V46.0007Z" fill="#79CDD1" />
  <path d="M121.999 46.0007H118V50.0002H121.999V46.0007Z" fill="#79CDD1" />
  <path d="M125.999 46.0007H122V50.0002H125.999V46.0007Z" fill="#79CDD1" />
  <path d="M130 46.0007H126V50.0002H130V46.0007Z" fill="#688FA7" />
  <path d="M133.999 46.0007H130V50.0002H133.999V46.0007Z" fill="#688FA7" />
  <path d="M137.999 46.0007H134V50.0002H137.999V46.0007Z" fill="black" />
  <path d="M141.999 46.0007H138V50.0002H141.999V46.0007Z" fill="#3A6076" />
  <path d="M145.999 46.0007H142V50.0002H145.999V46.0007Z" fill="black" />
  <path d="M77.9995 50.0007H74V54.0002H77.9995V50.0007Z" fill="black" />
  <path d="M81.9995 50.0007H78V54.0002H81.9995V50.0007Z" fill="#688FA7" />
  <path d="M85.9995 50.0007H82V54.0002H85.9995V50.0007Z" fill="#688FA7" />
  <path d="M89.9995 50.0007H86V54.0002H89.9995V50.0007Z" fill="#79CDD1" />
  <path d="M93.9995 50.0007H90V54.0002H93.9995V50.0007Z" fill="#79CDD1" />
  <path d="M97.9995 50.0007H94V54.0002H97.9995V50.0007Z" fill="#79CDD1" />
  <path d="M101.999 50.0007H98V54.0002H101.999V50.0007Z" fill="#79CDD1" />
  <path d="M105.999 50.0007H102V54.0002H105.999V50.0007Z" fill="#79CDD1" />
  <path d="M109.999 50.0007H106V54.0002H109.999V50.0007Z" fill="#79CDD1" />
  <path d="M114 50.0007H110V54.0002H114V50.0007Z" fill="#79CDD1" />
  <path d="M117.999 50.0007H114V54.0002H117.999V50.0007Z" fill="#79CDD1" />
  <path d="M121.999 50.0007H118V54.0002H121.999V50.0007Z" fill="#79CDD1" />
  <path d="M125.999 50.0007H122V54.0002H125.999V50.0007Z" fill="#79CDD1" />
  <path d="M130 50.0007H126V54.0002H130V50.0007Z" fill="#688FA7" />
  <path d="M133.999 50.0007H130V54.0002H133.999V50.0007Z" fill="#688FA7" />
  <path d="M137.999 50.0007H134V54.0002H137.999V50.0007Z" fill="black" />
  <path d="M141.999 50.0007H138V54.0002H141.999V50.0007Z" fill="#3A6076" />
  <path d="M145.999 50.0007H142V54.0002H145.999V50.0007Z" fill="black" />
  <path d="M77.9995 54.0007H74V58.0002H77.9995V54.0007Z" fill="black" />
  <path d="M81.9995 54.0007H78V58.0002H81.9995V54.0007Z" fill="#688FA7" />
  <path d="M85.9995 54.0007H82V58.0002H85.9995V54.0007Z" fill="#79CDD1" />
  <path d="M89.9995 54.0007H86V58.0002H89.9995V54.0007Z" fill="#79CDD1" />
  <path d="M93.9995 54.0007H90V58.0002H93.9995V54.0007Z" fill="#79CDD1" />
  <path d="M97.9995 54.0007H94V58.0002H97.9995V54.0007Z" fill="#79CDD1" />
  <path d="M101.999 54.0007H98V58.0002H101.999V54.0007Z" fill="#79CDD1" />
  <path d="M105.999 54.0007H102V58.0002H105.999V54.0007Z" fill="#79CDD1" />
  <path d="M109.999 54.0007H106V58.0002H109.999V54.0007Z" fill="#79CDD1" />
  <path d="M114 54.0007H110V58.0002H114V54.0007Z" fill="#79CDD1" />
  <path d="M117.999 54.0007H114V58.0002H117.999V54.0007Z" fill="#79CDD1" />
  <path d="M121.999 54.0007H118V58.0002H121.999V54.0007Z" fill="#79CDD1" />
  <path d="M125.999 54.0007H122V58.0002H125.999V54.0007Z" fill="#688FA7" />
  <path d="M130 54.0007H126V58.0002H130V54.0007Z" fill="#688FA7" />
  <path d="M133.999 54.0007H130V58.0002H133.999V54.0007Z" fill="black" />
  <path d="M137.999 54.0007H134V58.0002H137.999V54.0007Z" fill="#3A6076" />
  <path d="M141.999 54.0007H138V58.0002H141.999V54.0007Z" fill="black" />
  <path d="M73.9995 58.0007H70V62.0002H73.9995V58.0007Z" fill="black" />
  <path d="M77.9995 58.0007H74V62.0002H77.9995V58.0007Z" fill="#688FA7" />
  <path d="M81.9995 58.0007H78V62.0002H81.9995V58.0007Z" fill="#688FA7" />
  <path d="M85.9995 58.0007H82V62.0002H85.9995V58.0007Z" fill="#79CDD1" />
  <path d="M89.9995 58.0007H86V62.0002H89.9995V58.0007Z" fill="#79CDD1" />
  <path d="M93.9995 58.0007H90V62.0002H93.9995V58.0007Z" fill="#79CDD1" />
  <path d="M97.9995 58.0007H94V62.0002H97.9995V58.0007Z" fill="#79CDD1" />
  <path d="M101.999 58.0007H98V62.0002H101.999V58.0007Z" fill="#79CDD1" />
  <path d="M105.999 58.0007H102V62.0002H105.999V58.0007Z" fill="#79CDD1" />
  <path d="M109.999 58.0007H106V62.0002H109.999V58.0007Z" fill="#79CDD1" />
  <path d="M114 58.0007H110V62.0002H114V58.0007Z" fill="#79CDD1" />
  <path d="M117.999 58.0007H114V62.0002H117.999V58.0007Z" fill="#79CDD1" />
  <path d="M121.999 58.0007H118V62.0002H121.999V58.0007Z" fill="#79CDD1" />
  <path d="M125.999 58.0007H122V62.0002H125.999V58.0007Z" fill="#688FA7" />
  <path d="M130 58.0007H126V62.0002H130V58.0007Z" fill="#688FA7" />
  <path d="M133.999 58.0007H130V62.0002H133.999V58.0007Z" fill="black" />
  <path d="M137.999 58.0007H134V62.0002H137.999V58.0007Z" fill="#3A6076" />
  <path d="M141.999 58.0007H138V62.0002H141.999V58.0007Z" fill="black" />
  <path d="M73.9995 62.0007H70V66.0002H73.9995V62.0007Z" fill="black" />
  <path d="M77.9995 62.0007H74V66.0002H77.9995V62.0007Z" fill="#688FA7" />
  <path d="M81.9995 62.0007H78V66.0002H81.9995V62.0007Z" fill="#79CDD1" />
  <path d="M85.9995 62.0007H82V66.0002H85.9995V62.0007Z" fill="#79CDD1" />
  <path d="M89.9995 62.0007H86V66.0002H89.9995V62.0007Z" fill="#79CDD1" />
  <path d="M93.9995 62.0007H90V66.0002H93.9995V62.0007Z" fill="#79CDD1" />
  <path d="M97.9995 62.0007H94V66.0002H97.9995V62.0007Z" fill="#79CDD1" />
  <path d="M101.999 62.0007H98V66.0002H101.999V62.0007Z" fill="#79CDD1" />
  <path d="M105.999 62.0007H102V66.0002H105.999V62.0007Z" fill="#79CDD1" />
  <path d="M109.999 62.0007H106V66.0002H109.999V62.0007Z" fill="#79CDD1" />
  <path d="M114 62.0007H110V66.0002H114V62.0007Z" fill="#79CDD1" />
  <path d="M117.999 62.0007H114V66.0002H117.999V62.0007Z" fill="#79CDD1" />
  <path d="M121.999 62.0007H118V66.0002H121.999V62.0007Z" fill="#688FA7" />
  <path d="M125.999 62.0007H122V66.0002H125.999V62.0007Z" fill="#688FA7" />
  <path d="M130 62.0007H126V66.0002H130V62.0007Z" fill="black" />
  <path d="M133.999 62.0007H130V66.0002H133.999V62.0007Z" fill="#3A6076" />
  <path d="M137.999 62.0007H134V66.0002H137.999V62.0007Z" fill="black" />
  <path d="M69.9995 66.0007H66V70.0002H69.9995V66.0007Z" fill="black" />
  <path d="M73.9995 66.0007H70V70.0002H73.9995V66.0007Z" fill="#688FA7" />
  <path d="M77.9995 66.0007H74V70.0002H77.9995V66.0007Z" fill="#79CDD1" />
  <path d="M81.9995 66.0007H78V70.0002H81.9995V66.0007Z" fill="#79CDD1" />
  <path d="M85.9995 66.0007H82V70.0002H85.9995V66.0007Z" fill="#79CDD1" />
  <path d="M89.9995 66.0007H86V70.0002H89.9995V66.0007Z" fill="#79CDD1" />
  <path d="M93.9995 66.0007H90V70.0002H93.9995V66.0007Z" fill="#79CDD1" />
  <path d="M97.9995 66.0007H94V70.0002H97.9995V66.0007Z" fill="#79CDD1" />
  <path d="M101.999 66.0007H98V70.0002H101.999V66.0007Z" fill="#79CDD1" />
  <path d="M105.999 66.0007H102V70.0002H105.999V66.0007Z" fill="#79CDD1" />
  <path d="M109.999 66.0007H106V70.0002H109.999V66.0007Z" fill="#79CDD1" />
  <path d="M114 66.0007H110V70.0002H114V66.0007Z" fill="#79CDD1" />
  <path d="M117.999 66.0007H114V70.0002H117.999V66.0007Z" fill="#79CDD1" />
  <path d="M121.999 66.0007H118V70.0002H121.999V66.0007Z" fill="#688FA7" />
  <path d="M125.999 66.0007H122V70.0002H125.999V66.0007Z" fill="#688FA7" />
  <path d="M130 66.0007H126V70.0002H130V66.0007Z" fill="black" />
  <path d="M133.999 66.0007H130V70.0002H133.999V66.0007Z" fill="#3A6076" />
  <path d="M137.999 66.0007H134V70.0002H137.999V66.0007Z" fill="black" />
  <path d="M69.9995 70.0007H66V74.0002H69.9995V70.0007Z" fill="black" />
  <path d="M73.9995 70.0007H70V74.0002H73.9995V70.0007Z" fill="#688FA7" />
  <path d="M77.9995 70.0007H74V74.0002H77.9995V70.0007Z" fill="#688FA7" />
  <path d="M81.9995 70.0007H78V74.0002H81.9995V70.0007Z" fill="#79CDD1" />
  <path d="M85.9995 70.0007H82V74.0002H85.9995V70.0007Z" fill="#79CDD1" />
  <path d="M89.9995 70.0007H86V74.0002H89.9995V70.0007Z" fill="#79CDD1" />
  <path d="M93.9995 70.0007H90V74.0002H93.9995V70.0007Z" fill="#79CDD1" />
  <path d="M97.9995 70.0007H94V74.0002H97.9995V70.0007Z" fill="#79CDD1" />
  <path d="M101.999 70.0007H98V74.0002H101.999V70.0007Z" fill="#79CDD1" />
  <path d="M105.999 70.0007H102V74.0002H105.999V70.0007Z" fill="#79CDD1" />
  <path d="M109.999 70.0007H106V74.0002H109.999V70.0007Z" fill="#79CDD1" />
  <path d="M114 70.0007H110V74.0002H114V70.0007Z" fill="#79CDD1" />
  <path d="M117.999 70.0007H114V74.0002H117.999V70.0007Z" fill="#688FA7" />
  <path d="M121.999 70.0007H118V74.0002H121.999V70.0007Z" fill="#688FA7" />
  <path d="M125.999 70.0007H122V74.0002H125.999V70.0007Z" fill="black" />
  <path d="M130 70.0007H126V74.0002H130V70.0007Z" fill="#3A6076" />
  <path d="M133.999 70.0007H130V74.0002H133.999V70.0007Z" fill="black" />
  <path d="M69.9995 74.0007H66V78.0002H69.9995V74.0007Z" fill="black" />
  <path d="M73.9995 74.0007H70V78.0002H73.9995V74.0007Z" fill="black" />
  <path d="M77.9995 74.0007H74V78.0002H77.9995V74.0007Z" fill="#688FA7" />
  <path d="M81.9995 74.0007H78V78.0002H81.9995V74.0007Z" fill="#688FA7" />
  <path d="M85.9995 74.0007H82V78.0002H85.9995V74.0007Z" fill="#688FA7" />
  <path d="M89.9995 74.0007H86V78.0002H89.9995V74.0007Z" fill="#79CDD1" />
  <path d="M93.9995 74.0007H90V78.0002H93.9995V74.0007Z" fill="#79CDD1" />
  <path d="M97.9995 74.0007H94V78.0002H97.9995V74.0007Z" fill="#79CDD1" />
  <path d="M101.999 74.0007H98V78.0002H101.999V74.0007Z" fill="#79CDD1" />
  <path d="M105.999 74.0007H102V78.0002H105.999V74.0007Z" fill="#79CDD1" />
  <path d="M109.999 74.0007H106V78.0002H109.999V74.0007Z" fill="#79CDD1" />
  <path d="M114 74.0007H110V78.0002H114V74.0007Z" fill="#79CDD1" />
  <path d="M117.999 74.0007H114V78.0002H117.999V74.0007Z" fill="#688FA7" />
  <path d="M121.999 74.0007H118V78.0002H121.999V74.0007Z" fill="#688FA7" />
  <path d="M125.999 74.0007H122V78.0002H125.999V74.0007Z" fill="black" />
  <path d="M130 74.0007H126V78.0002H130V74.0007Z" fill="#3A6076" />
  <path d="M133.999 74.0007H130V78.0002H133.999V74.0007Z" fill="black" />
  <path d="M65.9995 78.0007H62V82.0002H65.9995V78.0007Z" fill="black" />
  <path d="M69.9995 78.0007H66V82.0002H69.9995V78.0007Z" fill="#688FA7" />
  <path d="M73.9995 78.0007H70V82.0002H73.9995V78.0007Z" fill="#688FA7" />
  <path d="M77.9995 78.0007H74V82.0002H77.9995V78.0007Z" fill="black" />
  <path d="M81.9995 78.0007H78V82.0002H81.9995V78.0007Z" fill="#688FA7" />
  <path d="M85.9995 78.0007H82V82.0002H85.9995V78.0007Z" fill="#688FA7" />
  <path d="M89.9995 78.0007H86V82.0002H89.9995V78.0007Z" fill="#688FA7" />
  <path d="M93.9995 78.0007H90V82.0002H93.9995V78.0007Z" fill="#688FA7" />
  <path d="M97.9995 78.0007H94V82.0002H97.9995V78.0007Z" fill="#79CDD1" />
  <path d="M101.999 78.0007H98V82.0002H101.999V78.0007Z" fill="#79CDD1" />
  <path d="M105.999 78.0007H102V82.0002H105.999V78.0007Z" fill="#79CDD1" />
  <path d="M109.999 78.0007H106V82.0002H109.999V78.0007Z" fill="#79CDD1" />
  <path d="M114 78.0007H110V82.0002H114V78.0007Z" fill="#688FA7" />
  <path d="M117.999 78.0007H114V82.0002H117.999V78.0007Z" fill="#688FA7" />
  <path d="M121.999 78.0007H118V82.0002H121.999V78.0007Z" fill="black" />
  <path d="M125.999 78.0007H122V82.0002H125.999V78.0007Z" fill="#3A6076" />
  <path d="M130 78.0007H126V82.0002H130V78.0007Z" fill="black" />
  <path d="M61.9995 82.0007H58V86.0002H61.9995V82.0007Z" fill="black" />
  <path d="M65.9995 82.0007H62V86.0002H65.9995V82.0007Z" fill="#688FA7" />
  <path d="M69.9995 82.0007H66V86.0002H69.9995V82.0007Z" fill="#688FA7" />
  <path d="M73.9995 82.0007H70V86.0002H73.9995V82.0007Z" fill="black" />
  <path d="M77.9995 82.0007H74V86.0002H77.9995V82.0007Z" fill="#688FA7" />
  <path d="M81.9995 82.0007H78V86.0002H81.9995V82.0007Z" fill="#688FA7" />
  <path d="M85.9995 82.0007H82V86.0002H85.9995V82.0007Z" fill="#688FA7" />
  <path d="M89.9995 82.0007H86V86.0002H89.9995V82.0007Z" fill="#688FA7" />
  <path d="M93.9995 82.0007H90V86.0002H93.9995V82.0007Z" fill="#688FA7" />
  <path d="M97.9995 82.0007H94V86.0002H97.9995V82.0007Z" fill="#688FA7" />
  <path d="M101.999 82.0007H98V86.0002H101.999V82.0007Z" fill="#688FA7" />
  <path d="M105.999 82.0007H102V86.0002H105.999V82.0007Z" fill="#79CDD1" />
  <path d="M109.999 82.0007H106V86.0002H109.999V82.0007Z" fill="#79CDD1" />
  <path d="M114 82.0007H110V86.0002H114V82.0007Z" fill="#688FA7" />
  <path d="M117.999 82.0007H114V86.0002H117.999V82.0007Z" fill="#688FA7" />
  <path d="M121.999 82.0007H118V86.0002H121.999V82.0007Z" fill="black" />
  <path d="M125.999 82.0007H122V86.0002H125.999V82.0007Z" fill="#3A6076" />
  <path d="M130 82.0007H126V86.0002H130V82.0007Z" fill="black" />
  <path d="M57.9995 86.0007H54V90.0002H57.9995V86.0007Z" fill="black" />
  <path d="M61.9995 86.0007H58V90.0002H61.9995V86.0007Z" fill="#688FA7" />
  <path d="M65.9995 86.0007H62V90.0002H65.9995V86.0007Z" fill="#515254" />
  <path d="M69.9995 86.0007H66V90.0002H69.9995V86.0007Z" fill="#515254" />
  <path d="M73.9995 86.0007H70V90.0002H73.9995V86.0007Z" fill="#688FA7" />
  <path d="M77.9995 86.0007H74V90.0002H77.9995V86.0007Z" fill="black" />
  <path d="M81.9995 86.0007H78V90.0002H81.9995V86.0007Z" fill="black" />
  <path d="M85.9995 86.0007H82V90.0002H85.9995V86.0007Z" fill="#688FA7" />
  <path d="M89.9995 86.0007H86V90.0002H89.9995V86.0007Z" fill="#688FA7" />
  <path d="M93.9995 86.0007H90V90.0002H93.9995V86.0007Z" fill="#688FA7" />
  <path d="M97.9995 86.0007H94V90.0002H97.9995V86.0007Z" fill="#688FA7" />
  <path d="M101.999 86.0007H98V90.0002H101.999V86.0007Z" fill="#688FA7" />
  <path d="M105.999 86.0007H102V90.0002H105.999V86.0007Z" fill="#688FA7" />
  <path d="M109.999 86.0007H106V90.0002H109.999V86.0007Z" fill="#688FA7" />
  <path d="M114 86.0007H110V90.0002H114V86.0007Z" fill="#688FA7" />
  <path d="M117.999 86.0007H114V90.0002H117.999V86.0007Z" fill="black" />
  <path d="M121.999 86.0007H118V90.0002H121.999V86.0007Z" fill="#3A6076" />
  <path d="M125.999 86.0007H122V90.0002H125.999V86.0007Z" fill="black" />
  <path d="M53.9995 90.0007H50V94.0002H53.9995V90.0007Z" fill="black" />
  <path d="M57.9995 90.0007H54V94.0002H57.9995V90.0007Z" fill="#688FA7" />
  <path d="M61.9995 90.0007H58V94.0002H61.9995V90.0007Z" fill="#515254" />
  <path d="M65.9995 90.0007H62V94.0002H65.9995V90.0007Z" fill="#C0BCB8" />
  <path d="M69.9995 90.0007H66V94.0002H69.9995V90.0007Z" fill="#C0BCB8" />
  <path d="M73.9995 90.0007H70V94.0002H73.9995V90.0007Z" fill="#515254" />
  <path d="M77.9995 90.0007H74V94.0002H77.9995V90.0007Z" fill="#688FA7" />
  <path d="M81.9995 90.0007H78V94.0002H81.9995V90.0007Z" fill="#688FA7" />
  <path d="M85.9995 90.0007H82V94.0002H85.9995V90.0007Z" fill="black" />
  <path d="M89.9995 90.0007H86V94.0002H89.9995V90.0007Z" fill="black" />
  <path d="M93.9995 90.0007H90V94.0002H93.9995V90.0007Z" fill="#688FA7" />
  <path d="M97.9995 90.0007H94V94.0002H97.9995V90.0007Z" fill="#688FA7" />
  <path d="M101.999 90.0007H98V94.0002H101.999V90.0007Z" fill="black" />
  <path d="M105.999 90.0007H102V94.0002H105.999V90.0007Z" fill="black" />
  <path d="M109.999 90.0007H106V94.0002H109.999V90.0007Z" fill="black" />
  <path d="M114 90.0007H110V94.0002H114V90.0007Z" fill="#688FA7" />
  <path d="M117.999 90.0007H114V94.0002H117.999V90.0007Z" fill="black" />
  <path d="M121.999 90.0007H118V94.0002H121.999V90.0007Z" fill="#3A6076" />
  <path d="M125.999 90.0007H122V94.0002H125.999V90.0007Z" fill="black" />
  <path d="M49.9995 93.9851H46V97.9846H49.9995V93.9851Z" fill="black" />
  <path d="M53.9995 93.9851H50V97.9846H53.9995V93.9851Z" fill="#688FA7" />
  <path d="M57.9995 93.9851H54V97.9846H57.9995V93.9851Z" fill="#515254" />
  <path d="M61.9995 93.9851H58V97.9846H61.9995V93.9851Z" fill="#C0BCB8" />
  <path d="M65.9995 93.9851H62V97.9846H65.9995V93.9851Z" fill="#C0BCB8" />
  <path d="M69.9995 93.9851H66V97.9846H69.9995V93.9851Z" fill="#515254" />
  <path d="M73.9995 93.9851H70V97.9846H73.9995V93.9851Z" fill="#C0BCB8" />
  <path d="M77.9995 93.9851H74V97.9846H77.9995V93.9851Z" fill="#515254" />
  <path d="M81.9995 93.9851H78V97.9846H81.9995V93.9851Z" fill="#515254" />
  <path d="M85.9995 93.9851H82V97.9846H85.9995V93.9851Z" fill="#688FA7" />
  <path d="M89.9995 93.9851H86V97.9846H89.9995V93.9851Z" fill="#688FA7" />
  <path d="M93.9995 93.9851H90V97.9846H93.9995V93.9851Z" fill="black" />
  <path d="M97.9995 93.9851H94V97.9846H97.9995V93.9851Z" fill="black" />
  <path d="M101.999 93.9851H98V97.9846H101.999V93.9851Z" fill="#688FA7" />
  <path d="M105.999 93.9851H102V97.9846H105.999V93.9851Z" fill="#688FA7" />
  <path d="M109.999 93.9851H106V97.9846H109.999V93.9851Z" fill="#688FA7" />
  <path d="M114 93.9851H110V97.9846H114V93.9851Z" fill="black" />
  <path d="M117.999 93.9851H114V97.9846H117.999V93.9851Z" fill="black" />
  <path d="M121.999 93.9851H118V97.9846H121.999V93.9851Z" fill="black" />
  <path d="M45.9995 98.0007H42V102H45.9995V98.0007Z" fill="black" />
  <path d="M49.9995 98.0007H46V102H49.9995V98.0007Z" fill="#688FA7" />
  <path d="M53.9995 98.0007H50V102H53.9995V98.0007Z" fill="#515254" />
  <path d="M57.9995 98.0007H54V102H57.9995V98.0007Z" fill="#C0BCB8" />
  <path d="M61.9995 98.0007H58V102H61.9995V98.0007Z" fill="#C0BCB8" />
  <path d="M65.9995 98.0007H62V102H65.9995V98.0007Z" fill="#515254" />
  <path d="M69.9995 98.0007H66V102H69.9995V98.0007Z" fill="#C0BCB8" />
  <path d="M73.9995 98.0007H70V102H73.9995V98.0007Z" fill="#C0BCB8" />
  <path d="M77.9995 98.0007H74V102H77.9995V98.0007Z" fill="#C0BCB8" />
  <path d="M81.9995 98.0007H78V102H81.9995V98.0007Z" fill="#C0BCB8" />
  <path d="M85.9995 98.0007H82V102H85.9995V98.0007Z" fill="#515254" />
  <path d="M89.9995 98.0007H86V102H89.9995V98.0007Z" fill="#515254" />
  <path d="M93.9995 98.0007H90V102H93.9995V98.0007Z" fill="#515254" />
  <path d="M97.9995 98.0007H94V102H97.9995V98.0007Z" fill="#688FA7" />
  <path d="M101.999 98.0007H98V102H101.999V98.0007Z" fill="#688FA7" />
  <path d="M105.999 98.0007H102V102H105.999V98.0007Z" fill="#688FA7" />
  <path d="M109.999 98.0007H106V102H109.999V98.0007Z" fill="#688FA7" />
  <path d="M114 98.0007H110V102H114V98.0007Z" fill="black" />
  <path d="M41.9995 102.001H38V106H41.9995V102.001Z" fill="black" />
  <path d="M45.9995 102.001H42V106H45.9995V102.001Z" fill="#688FA7" />
  <path d="M49.9995 102.001H46V106H49.9995V102.001Z" fill="#688FA7" />
  <path d="M53.9995 102.001H50V106H53.9995V102.001Z" fill="#688FA7" />
  <path d="M57.9995 102.001H54V106H57.9995V102.001Z" fill="#515254" />
  <path d="M61.9995 102.001H58V106H61.9995V102.001Z" fill="#C0BCB8" />
  <path d="M65.9995 102.001H62V106H65.9995V102.001Z" fill="#C0BCB8" />
  <path d="M69.9995 102.001H66V106H69.9995V102.001Z" fill="#515254" />
  <path d="M73.9995 102.001H70V106H73.9995V102.001Z" fill="#C0BCB8" />
  <path d="M77.9995 102.001H74V106H77.9995V102.001Z" fill="#C0BCB8" />
  <path d="M81.9995 102.001H78V106H81.9995V102.001Z" fill="#515254" />
  <path d="M85.9995 102.001H82V106H85.9995V102.001Z" fill="#C0BCB8" />
  <path d="M89.9995 102.001H86V106H89.9995V102.001Z" fill="#C0BCB8" />
  <path d="M93.9995 102.001H90V106H93.9995V102.001Z" fill="#C0BCB8" />
  <path d="M97.9995 102.001H94V106H97.9995V102.001Z" fill="#515254" />
  <path d="M101.999 102.001H98V106H101.999V102.001Z" fill="#688FA7" />
  <path d="M105.999 102.001H102V106H105.999V102.001Z" fill="#688FA7" />
  <path d="M109.999 102.001H106V106H109.999V102.001Z" fill="black" />
  <path d="M114 102.001H110V106H114V102.001Z" fill="#3A6076" />
  <path d="M117.999 102.001H114V106H117.999V102.001Z" fill="black" />
  <path d="M37.9995 106.001H34V110H37.9995V106.001Z" fill="black" />
  <path d="M41.9995 106.001H38V110H41.9995V106.001Z" fill="#688FA7" />
  <path d="M45.9995 106.001H42V110H45.9995V106.001Z" fill="#515254" />
  <path d="M49.9995 106.001H46V110H49.9995V106.001Z" fill="#515254" />
  <path d="M53.9995 106.001H50V110H53.9995V106.001Z" fill="#688FA7" />
  <path d="M57.9995 106.001H54V110H57.9995V106.001Z" fill="#688FA7" />
  <path d="M61.9995 106.001H58V110H61.9995V106.001Z" fill="#515254" />
  <path d="M65.9995 106.001H62V110H65.9995V106.001Z" fill="#515254" />
  <path d="M69.9995 106.001H66V110H69.9995V106.001Z" fill="#C0BCB8" />
  <path d="M73.9995 106.001H70V110H73.9995V106.001Z" fill="#C0BCB8" />
  <path d="M77.9995 106.001H74V110H77.9995V106.001Z" fill="#515254" />
  <path d="M81.9995 106.001H78V110H81.9995V106.001Z" fill="#C0BCB8" />
  <path d="M85.9995 106.001H82V110H85.9995V106.001Z" fill="#C0BCB8" />
  <path d="M89.9995 106.001H86V110H89.9995V106.001Z" fill="#C0BCB8" />
  <path d="M93.9995 106.001H90V110H93.9995V106.001Z" fill="#515254" />
  <path d="M97.9995 106.001H94V110H97.9995V106.001Z" fill="#688FA7" />
  <path d="M101.999 106.001H98V110H101.999V106.001Z" fill="#688FA7" />
  <path d="M105.999 106.001H102V110H105.999V106.001Z" fill="black" />
  <path d="M109.999 106.001H106V110H109.999V106.001Z" fill="#3A6076" />
  <path d="M114 106.001H110V110H114V106.001Z" fill="#3A6076" />
  <path d="M117.999 106.001H114V110H117.999V106.001Z" fill="black" />
  <path d="M33.9995 110.001H30V114H33.9995V110.001Z" fill="black" />
  <path d="M37.9995 110.001H34V114H37.9995V110.001Z" fill="#688FA7" />
  <path d="M41.9995 110.001H38V114H41.9995V110.001Z" fill="#515254" />
  <path d="M45.9995 110.001H42V114H45.9995V110.001Z" fill="#C0BCB8" />
  <path d="M49.9995 110.001H46V114H49.9995V110.001Z" fill="#C0BCB8" />
  <path d="M53.9995 110.001H50V114H53.9995V110.001Z" fill="#515254" />
  <path d="M57.9995 110.001H54V114H57.9995V110.001Z" fill="#515254" />
  <path d="M61.9995 110.001H58V114H61.9995V110.001Z" fill="#688FA7" />
  <path d="M65.9995 110.001H62V114H65.9995V110.001Z" fill="#688FA7" />
  <path d="M69.9995 110.001H66V114H69.9995V110.001Z" fill="#515254" />
  <path d="M73.9995 110.001H70V114H73.9995V110.001Z" fill="#515254" />
  <path d="M77.9995 110.001H74V114H77.9995V110.001Z" fill="#C0BCB8" />
  <path d="M81.9995 110.001H78V114H81.9995V110.001Z" fill="#515254" />
  <path d="M85.9995 110.001H82V114H85.9995V110.001Z" fill="#C0BCB8" />
  <path d="M89.9995 110.001H86V114H89.9995V110.001Z" fill="#515254" />
  <path d="M93.9995 110.001H90V114H93.9995V110.001Z" fill="#688FA7" />
  <path d="M97.9995 110.001H94V114H97.9995V110.001Z" fill="#688FA7" />
  <path d="M101.999 110.001H98V114H101.999V110.001Z" fill="black" />
  <path d="M105.999 110.001H102V114H105.999V110.001Z" fill="#3A6076" />
  <path d="M109.999 110.001H106V114H109.999V110.001Z" fill="#3A6076" />
  <path d="M114 110.001H110V114H114V110.001Z" fill="black" />
  <path d="M29.9995 114.001H26V118H29.9995V114.001Z" fill="black" />
  <path d="M33.9995 114.001H30V118H33.9995V114.001Z" fill="#688FA7" />
  <path d="M37.9995 114.001H34V118H37.9995V114.001Z" fill="#515254" />
  <path d="M41.9995 114.001H38V118H41.9995V114.001Z" fill="#C0BCB8" />
  <path d="M45.9995 114.001H42V118H45.9995V114.001Z" fill="#C0BCB8" />
  <path d="M49.9995 114.001H46V118H49.9995V114.001Z" fill="#515254" />
  <path d="M53.9995 114.001H50V118H53.9995V114.001Z" fill="#C0BCB8" />
  <path d="M57.9995 114.001H54V118H57.9995V114.001Z" fill="#515254" />
  <path d="M61.9995 114.001H58V118H61.9995V114.001Z" fill="#515254" />
  <path d="M65.9995 114.001H62V118H65.9995V114.001Z" fill="#515254" />
  <path d="M69.9995 114.001H66V118H69.9995V114.001Z" fill="#688FA7" />
  <path d="M73.9995 114.001H70V118H73.9995V114.001Z" fill="#688FA7" />
  <path d="M77.9995 114.001H74V118H77.9995V114.001Z" fill="#515254" />
  <path d="M81.9995 114.001H78V118H81.9995V114.001Z" fill="#515254" />
  <path d="M85.9995 114.001H82V118H85.9995V114.001Z" fill="#515254" />
  <path d="M89.9995 114.001H86V118H89.9995V114.001Z" fill="#688FA7" />
  <path d="M93.9995 114.001H90V118H93.9995V114.001Z" fill="#688FA7" />
  <path d="M97.9995 114.001H94V118H97.9995V114.001Z" fill="black" />
  <path d="M101.999 114.001H98V118H101.999V114.001Z" fill="#3A6076" />
  <path d="M105.999 114.001H102V118H105.999V114.001Z" fill="#3A6076" />
  <path d="M109.999 114.001H106V118H109.999V114.001Z" fill="black" />
  <path d="M25.9995 118.001H22V122H25.9995V118.001Z" fill="black" />
  <path d="M29.9995 118.001H26V122H29.9995V118.001Z" fill="#688FA7" />
  <path d="M33.9995 118.001H30V122H33.9995V118.001Z" fill="#515254" />
  <path d="M37.9995 118.001H34V122H37.9995V118.001Z" fill="#C0BCB8" />
  <path d="M41.9995 118.001H38V122H41.9995V118.001Z" fill="#C0BCB8" />
  <path d="M45.9995 118.001H42V122H45.9995V118.001Z" fill="#515254" />
  <path d="M49.9995 118.001H46V122H49.9995V118.001Z" fill="#C0BCB8" />
  <path d="M53.9995 118.001H50V122H53.9995V118.001Z" fill="#C0BCB8" />
  <path d="M57.9995 118.001H54V122H57.9995V118.001Z" fill="#C0BCB8" />
  <path d="M61.9995 118.001H58V122H61.9995V118.001Z" fill="#C0BCB8" />
  <path d="M65.9995 118.001H62V122H65.9995V118.001Z" fill="#515254" />
  <path d="M69.9995 118.001H66V122H69.9995V118.001Z" fill="#515254" />
  <path d="M73.9995 118.001H70V122H73.9995V118.001Z" fill="#515254" />
  <path d="M77.9995 118.001H74V122H77.9995V118.001Z" fill="#688FA7" />
  <path d="M81.9995 118.001H78V122H81.9995V118.001Z" fill="#688FA7" />
  <path d="M85.9995 118.001H82V122H85.9995V118.001Z" fill="#688FA7" />
  <path d="M89.9995 118.001H86V122H89.9995V118.001Z" fill="#688FA7" />
  <path d="M93.9995 118.001H90V122H93.9995V118.001Z" fill="black" />
  <path d="M97.9995 118.001H94V122H97.9995V118.001Z" fill="#3A6076" />
  <path d="M101.999 118.001H98V122H101.999V118.001Z" fill="#3A6076" />
  <path d="M105.999 118.001H102V122H105.999V118.001Z" fill="black" />
  <path d="M21.9995 122.001H18V126H21.9995V122.001Z" fill="black" />
  <path d="M25.9995 122.001H22V126H25.9995V122.001Z" fill="#688FA7" />
  <path d="M29.9995 122.001H26V126H29.9995V122.001Z" fill="#515254" />
  <path d="M33.9995 122.001H30V126H33.9995V122.001Z" fill="#C0BCB8" />
  <path d="M37.9995 122.001H34V126H37.9995V122.001Z" fill="#C0BCB8" />
  <path d="M41.9995 122.001H38V126H41.9995V122.001Z" fill="#515254" />
  <path d="M45.9995 122.001H42V126H45.9995V122.001Z" fill="#C0BCB8" />
  <path d="M49.9995 122.001H46V126H49.9995V122.001Z" fill="#C0BCB8" />
  <path d="M53.9995 122.001H50V126H53.9995V122.001Z" fill="#515254" />
  <path d="M57.9995 122.001H54V126H57.9995V122.001Z" fill="#C0BCB8" />
  <path d="M61.9995 122.001H58V126H61.9995V122.001Z" fill="#515254" />
  <path d="M65.9995 122.001H62V126H65.9995V122.001Z" fill="#C0BCB8" />
  <path d="M69.9995 122.001H66V126H69.9995V122.001Z" fill="#C0BCB8" />
  <path d="M73.9995 122.001H70V126H73.9995V122.001Z" fill="#C0BCB8" />
  <path d="M77.9995 122.001H74V126H77.9995V122.001Z" fill="#515254" />
  <path d="M81.9995 122.001H78V126H81.9995V122.001Z" fill="#688FA7" />
  <path d="M85.9995 122.001H82V126H85.9995V122.001Z" fill="#688FA7" />
  <path d="M89.9995 122.001H86V126H89.9995V122.001Z" fill="black" />
  <path d="M93.9995 122.001H90V126H93.9995V122.001Z" fill="#3A6076" />
  <path d="M97.9995 122.001H94V126H97.9995V122.001Z" fill="#3A6076" />
  <path d="M101.999 122.001H98V126H101.999V122.001Z" fill="black" />
  <path d="M17.9995 126.001H14V130H17.9995V126.001Z" fill="black" />
  <path d="M21.9995 126.001H18V130H21.9995V126.001Z" fill="#688FA7" />
  <path d="M25.9995 126.001H22V130H25.9995V126.001Z" fill="#688FA7" />
  <path d="M29.9995 126.001H26V130H29.9995V126.001Z" fill="#515254" />
  <path d="M33.9995 126.001H30V130H33.9995V126.001Z" fill="#C0BCB8" />
  <path d="M37.9995 126.001H34V130H37.9995V126.001Z" fill="#515254" />
  <path d="M41.9995 126.001H38V130H41.9995V126.001Z" fill="#C0BCB8" />
  <path d="M45.9995 126.001H42V130H45.9995V126.001Z" fill="#C0BCB8" />
  <path d="M49.9995 126.001H46V130H49.9995V126.001Z" fill="#C0BCB8" />
  <path d="M53.9995 126.001H50V130H53.9995V126.001Z" fill="#C0BCB8" />
  <path d="M57.9995 126.001H54V130H57.9995V126.001Z" fill="#515254" />
  <path d="M61.9995 126.001H58V130H61.9995V126.001Z" fill="#C0BCB8" />
  <path d="M65.9995 126.001H62V130H65.9995V126.001Z" fill="#C0BCB8" />
  <path d="M69.9995 126.001H66V130H69.9995V126.001Z" fill="#C0BCB8" />
  <path d="M73.9995 126.001H70V130H73.9995V126.001Z" fill="#515254" />
  <path d="M77.9995 126.001H74V130H77.9995V126.001Z" fill="#688FA7" />
  <path d="M81.9995 126.001H78V130H81.9995V126.001Z" fill="#688FA7" />
  <path d="M85.9995 126.001H82V130H85.9995V126.001Z" fill="black" />
  <path d="M89.9995 126.001H86V130H89.9995V126.001Z" fill="#3A6076" />
  <path d="M93.9995 126.001H90V130H93.9995V126.001Z" fill="#3A6076" />
  <path d="M97.9995 126.001H94V130H97.9995V126.001Z" fill="black" />
  <path d="M17.9995 130.001H14V134H17.9995V130.001Z" fill="black" />
  <path d="M21.9995 130.001H18V134H21.9995V130.001Z" fill="#688FA7" />
  <path d="M25.9995 130.001H22V134H25.9995V130.001Z" fill="#688FA7" />
  <path d="M29.9995 130.001H26V134H29.9995V130.001Z" fill="#688FA7" />
  <path d="M33.9995 130.001H30V134H33.9995V130.001Z" fill="#515254" />
  <path d="M37.9995 130.001H34V134H37.9995V130.001Z" fill="#515254" />
  <path d="M41.9995 130.001H38V134H41.9995V130.001Z" fill="#C0BCB8" />
  <path d="M45.9995 130.001H42V134H45.9995V130.001Z" fill="#C0BCB8" />
  <path d="M49.9995 130.001H46V134H49.9995V130.001Z" fill="#C0BCB8" />
  <path d="M53.9995 130.001H50V134H53.9995V130.001Z" fill="#515254" />
  <path d="M57.9995 130.001H54V134H57.9995V130.001Z" fill="#C0BCB8" />
  <path d="M61.9995 130.001H58V134H61.9995V130.001Z" fill="#C0BCB8" />
  <path d="M65.9995 130.001H62V134H65.9995V130.001Z" fill="#C0BCB8" />
  <path d="M69.9995 130.001H66V134H69.9995V130.001Z" fill="#515254" />
  <path d="M73.9995 130.001H70V134H73.9995V130.001Z" fill="#688FA7" />
  <path d="M77.9995 130.001H74V134H77.9995V130.001Z" fill="#688FA7" />
  <path d="M81.9995 130.001H78V134H81.9995V130.001Z" fill="black" />
  <path d="M85.9995 130.001H82V134H85.9995V130.001Z" fill="#3A6076" />
  <path d="M89.9995 130.001H86V134H89.9995V130.001Z" fill="#3A6076" />
  <path d="M93.9995 130.001H90V134H93.9995V130.001Z" fill="black" />
  <path d="M17.9995 134.001H14V138H17.9995V134.001Z" fill="black" />
  <path d="M21.9995 134.001H18V138H21.9995V134.001Z" fill="black" />
  <path d="M25.9995 134.001H22V138H25.9995V134.001Z" fill="#688FA7" />
  <path d="M29.9995 134.001H26V138H29.9995V134.001Z" fill="#688FA7" />
  <path d="M33.9995 134.001H30V138H33.9995V134.001Z" fill="#688FA7" />
  <path d="M37.9995 134.001H34V138H37.9995V134.001Z" fill="#688FA7" />
  <path d="M41.9995 134.001H38V138H41.9995V134.001Z" fill="#515254" />
  <path d="M45.9995 134.001H42V138H45.9995V134.001Z" fill="#515254" />
  <path d="M49.9995 134.001H46V138H49.9995V134.001Z" fill="#515254" />
  <path d="M53.9995 134.001H50V138H53.9995V134.001Z" fill="#C0BCB8" />
  <path d="M57.9995 134.001H54V138H57.9995V134.001Z" fill="#C0BCB8" />
  <path d="M61.9995 134.001H58V138H61.9995V134.001Z" fill="#C0BCB8" />
  <path d="M65.9995 134.001H62V138H65.9995V134.001Z" fill="#515254" />
  <path d="M69.9995 134.001H66V138H69.9995V134.001Z" fill="#688FA7" />
  <path d="M73.9995 134.001H70V138H73.9995V134.001Z" fill="#688FA7" />
  <path d="M77.9995 134.001H74V138H77.9995V134.001Z" fill="black" />
  <path d="M81.9995 134.001H78V138H81.9995V134.001Z" fill="#3A6076" />
  <path d="M85.9995 134.001H82V138H85.9995V134.001Z" fill="#3A6076" />
  <path d="M89.9995 134.001H86V138H89.9995V134.001Z" fill="black" />
  <path d="M17.9995 138.001H14V142H17.9995V138.001Z" fill="black" />
  <path d="M21.9995 138.001H18V142H21.9995V138.001Z" fill="black" />
  <path d="M25.9995 138.001H22V142H25.9995V138.001Z" fill="#688FA7" />
  <path d="M29.9995 138.001H26V142H29.9995V138.001Z" fill="#688FA7" />
  <path d="M33.9995 138.001H30V142H33.9995V138.001Z" fill="#688FA7" />
  <path d="M37.9995 138.001H34V142H37.9995V138.001Z" fill="#688FA7" />
  <path d="M41.9995 138.001H38V142H41.9995V138.001Z" fill="#688FA7" />
  <path d="M45.9995 138.001H42V142H45.9995V138.001Z" fill="#688FA7" />
  <path d="M49.9995 138.001H46V142H49.9995V138.001Z" fill="#515254" />
  <path d="M53.9995 138.001H50V142H53.9995V138.001Z" fill="#515254" />
  <path d="M57.9995 138.001H54V142H57.9995V138.001Z" fill="#515254" />
  <path d="M61.9995 138.001H58V142H61.9995V138.001Z" fill="#515254" />
  <path d="M65.9995 138.001H62V142H65.9995V138.001Z" fill="#688FA7" />
  <path d="M69.9995 138.001H66V142H69.9995V138.001Z" fill="#688FA7" />
  <path d="M73.9995 138.001H70V142H73.9995V138.001Z" fill="black" />
  <path d="M77.9995 138.001H74V142H77.9995V138.001Z" fill="#3A6076" />
  <path d="M81.9995 138.001H78V142H81.9995V138.001Z" fill="#3A6076" />
  <path d="M85.9995 138.001H82V142H85.9995V138.001Z" fill="black" />
  <path d="M17.9995 142.001H14V146H17.9995V142.001Z" fill="black" />
  <path d="M21.9995 142.001H18V146H21.9995V142.001Z" fill="#3A6076" />
  <path d="M25.9995 142.001H22V146H25.9995V142.001Z" fill="black" />
  <path d="M29.9995 142.001H26V146H29.9995V142.001Z" fill="black" />
  <path d="M33.9995 142.001H30V146H33.9995V142.001Z" fill="#688FA7" />
  <path d="M37.9995 142.001H34V146H37.9995V142.001Z" fill="#688FA7" />
  <path d="M41.9995 142.001H38V146H41.9995V142.001Z" fill="#688FA7" />
  <path d="M45.9995 142.001H42V146H45.9995V142.001Z" fill="#688FA7" />
  <path d="M49.9995 142.001H46V146H49.9995V142.001Z" fill="#688FA7" />
  <path d="M53.9995 142.001H50V146H53.9995V142.001Z" fill="#688FA7" />
  <path d="M57.9995 142.001H54V146H57.9995V142.001Z" fill="#688FA7" />
  <path d="M61.9995 142.001H58V146H61.9995V142.001Z" fill="#688FA7" />
  <path d="M65.9995 142.001H62V146H65.9995V142.001Z" fill="#688FA7" />
  <path d="M69.9995 142.001H66V146H69.9995V142.001Z" fill="black" />
  <path d="M73.9995 142.001H70V146H73.9995V142.001Z" fill="#3A6076" />
  <path d="M77.9995 142.001H74V146H77.9995V142.001Z" fill="#3A6076" />
  <path d="M81.9995 142.001H78V146H81.9995V142.001Z" fill="black" />
  <path d="M21.9995 146.001H18V150H21.9995V146.001Z" fill="black" />
  <path d="M25.9995 146.001H22V150H25.9995V146.001Z" fill="black" />
  <path d="M29.9995 146.001H26V150H29.9995V146.001Z" fill="#3A6076" />
  <path d="M33.9995 146.001H30V150H33.9995V146.001Z" fill="black" />
  <path d="M37.9995 146.001H34V150H37.9995V146.001Z" fill="black" />
  <path d="M41.9995 146.001H38V150H41.9995V146.001Z" fill="#688FA7" />
  <path d="M45.9995 146.001H42V150H45.9995V146.001Z" fill="#688FA7" />
  <path d="M49.9995 146.001H46V150H49.9995V146.001Z" fill="#688FA7" />
  <path d="M53.9995 146.001H50V150H53.9995V146.001Z" fill="#688FA7" />
  <path d="M57.9995 146.001H54V150H57.9995V146.001Z" fill="black" />
  <path d="M61.9995 146.001H58V150H61.9995V146.001Z" fill="black" />
  <path d="M65.9995 146.001H62V150H65.9995V146.001Z" fill="black" />
  <path d="M69.9995 146.001H66V150H69.9995V146.001Z" fill="#3A6076" />
  <path d="M73.9995 146.001H70V150H73.9995V146.001Z" fill="#3A6076" />
  <path d="M77.9995 146.001H74V150H77.9995V146.001Z" fill="black" />
  <path d="M29.9995 150.001H26V154H29.9995V150.001Z" fill="black" />
  <path d="M33.9995 150.001H30V154H33.9995V150.001Z" fill="black" />
  <path d="M37.9995 150.001H34V154H37.9995V150.001Z" fill="#3A6076" />
  <path d="M41.9995 150.001H38V154H41.9995V150.001Z" fill="black" />
  <path d="M45.9995 150.001H42V154H45.9995V150.001Z" fill="black" />
  <path d="M49.9995 150.001H46V154H49.9995V150.001Z" fill="black" />
  <path d="M53.9995 150.001H50V154H53.9995V150.001Z" fill="black" />
  <path d="M57.9995 150.001H54V154H57.9995V150.001Z" fill="#3A6076" />
  <path d="M61.9995 150.001H58V154H61.9995V150.001Z" fill="#3A6076" />
  <path d="M65.9995 150.001H62V154H65.9995V150.001Z" fill="#3A6076" />
  <path d="M69.9995 150.001H66V154H69.9995V150.001Z" fill="black" />
  <path d="M73.9995 150.001H70V154H73.9995V150.001Z" fill="black" />
  <path d="M37.9995 154.001H34V158H37.9995V154.001Z" fill="black" />
  <path d="M41.9995 154.001H38V158H41.9995V154.001Z" fill="black" />
  <path d="M45.9995 154.001H42V158H45.9995V154.001Z" fill="#3A6076" />
  <path d="M49.9995 154.001H46V158H49.9995V154.001Z" fill="#3A6076" />
  <path d="M53.9995 154.001H50V158H53.9995V154.001Z" fill="#3A6076" />
  <path d="M57.9995 154.001H54V158H57.9995V154.001Z" fill="#3A6076" />
  <path d="M61.9995 154.001H58V158H61.9995V154.001Z" fill="black" />
  <path d="M65.9995 154.001H62V158H65.9995V154.001Z" fill="black" />
  <path d="M45.9995 158.001H42V162H45.9995V158.001Z" fill="black" />
  <path d="M49.9995 158.001H46V162H49.9995V158.001Z" fill="black" />
  <path d="M53.9995 158.001H50V162H53.9995V158.001Z" fill="black" />
  <path d="M57.9995 158.001H54V162H57.9995V158.001Z" fill="black" />
</svg>
