<svg viewBox="0 0 168 168" fill="none" xmlns="http://www.w3.org/2000/svg">
  <path d="M41.9922 29.9995H45.9927V34H41.9922V29.9995Z" fill="black" />
  <path d="M38 29.9995H42.0005V34H38V29.9995Z" fill="black" />
  <path d="M33.9922 29.9995H37.9927V34H33.9922V29.9995Z" fill="black" />
  <path d="M29.9922 29.9995H33.9927V34H29.9922V29.9995Z" fill="black" />
  <path d="M26 29.9995H30.0005V34H26V29.9995Z" fill="black" />
  <path d="M50 33.9995H54.0005V38H50V33.9995Z" fill="black" />
  <path d="M45.9922 33.9995H49.9927V38H45.9922V33.9995Z" fill="black" />
  <path d="M41.9922 33.9995H45.9927V38H41.9922V33.9995Z" fill="#E05429" />
  <path d="M38 33.9995H42.0005V38H38V33.9995Z" fill="#E05429" />
  <path d="M33.9922 33.9995H37.9927V38H33.9922V33.9995Z" fill="#E05429" />
  <path d="M29.9922 33.9995H33.9927V38H29.9922V33.9995Z" fill="#E05429" />
  <path d="M26 33.9995H30.0005V38H26V33.9995Z" fill="#E05429" />
  <path d="M21.9922 33.9995H25.9927V38H21.9922V33.9995Z" fill="black" />
  <path d="M62 37.9995H66.0005V42H62V37.9995Z" fill="black" />
  <path d="M57.9922 37.9995H61.9927V42H57.9922V37.9995Z" fill="black" />
  <path d="M53.9922 37.9995H57.9927V42H53.9922V37.9995Z" fill="black" />
  <path d="M50 37.9995H54.0005V42H50V37.9995Z" fill="#E05429" />
  <path d="M45.9922 37.9995H49.9927V42H45.9922V37.9995Z" fill="#E05429" />
  <path d="M41.9922 37.9995H45.9927V42H41.9922V37.9995Z" fill="#E05429" />
  <path d="M38 37.9995H42.0005V42H38V37.9995Z" fill="#E05429" />
  <path d="M33.9922 37.9995H37.9927V42H33.9922V37.9995Z" fill="#E05429" />
  <path d="M29.9922 37.9995H33.9927V42H29.9922V37.9995Z" fill="#E05429" />
  <path d="M26 37.9995H30.0005V42H26V37.9995Z" fill="#E05429" />
  <path d="M21.9922 37.9995H25.9927V42H21.9922V37.9995Z" fill="#E05429" />
  <path d="M17.9922 37.9995H21.9927V42H17.9922V37.9995Z" fill="black" />
  <path d="M69.9922 41.9995H73.9927V46H69.9922V41.9995Z" fill="black" />
  <path d="M66 41.9995H70.0005V46H66V41.9995Z" fill="black" />
  <path d="M62 41.9995H66.0005V46H62V41.9995Z" fill="#E05429" />
  <path d="M57.9922 41.9995H61.9927V46H57.9922V41.9995Z" fill="#E05429" />
  <path d="M53.9922 41.9995H57.9927V46H53.9922V41.9995Z" fill="#E05429" />
  <path d="M50 41.9995H54.0005V46H50V41.9995Z" fill="#E05429" />
  <path d="M45.9922 41.9995H49.9927V46H45.9922V41.9995Z" fill="#E05429" />
  <path d="M41.9922 41.9995H45.9927V46H41.9922V41.9995Z" fill="#E05429" />
  <path d="M38 41.9995H42.0005V46H38V41.9995Z" fill="#E05429" />
  <path d="M33.9922 41.9995H37.9927V46H33.9922V41.9995Z" fill="#E05429" />
  <path d="M29.9922 41.9995H33.9927V46H29.9922V41.9995Z" fill="#E05429" />
  <path d="M26 41.9995H30.0005V46H26V41.9995Z" fill="#E05429" />
  <path d="M21.9922 41.9995H25.9927V46H21.9922V41.9995Z" fill="#E05429" />
  <path d="M17.9922 41.9995H21.9927V46H17.9922V41.9995Z" fill="#E05429" />
  <path d="M14 41.9995H18.0005V46H14V41.9995Z" fill="black" />
  <path d="M81.9922 45.9995H85.9927V50H81.9922V45.9995Z" fill="black" />
  <path d="M78 45.9995H82.0005V50H78V45.9995Z" fill="black" />
  <path d="M74 45.9995H78.0005V50H74V45.9995Z" fill="black" />
  <path d="M69.9922 45.9995H73.9927V50H69.9922V45.9995Z" fill="#E05429" />
  <path d="M66 45.9995H70.0005V50H66V45.9995Z" fill="#E05429" />
  <path d="M62 45.9995H66.0005V50H62V45.9995Z" fill="#E05429" />
  <path d="M57.9922 45.9995H61.9927V50H57.9922V45.9995Z" fill="#E05429" />
  <path d="M53.9922 45.9995H57.9927V50H53.9922V45.9995Z" fill="#E05429" />
  <path d="M50 45.9995H54.0005V50H50V45.9995Z" fill="#E05429" />
  <path d="M45.9922 45.9995H49.9927V50H45.9922V45.9995Z" fill="#E05429" />
  <path d="M41.9922 45.9995H45.9927V50H41.9922V45.9995Z" fill="#E05429" />
  <path d="M38 45.9995H42.0005V50H38V45.9995Z" fill="#E05429" />
  <path d="M33.9922 45.9995H37.9927V50H33.9922V45.9995Z" fill="#E05429" />
  <path d="M29.9922 45.9995H33.9927V50H29.9922V45.9995Z" fill="#E05429" />
  <path d="M26 45.9995H30.0005V50H26V45.9995Z" fill="#E05429" />
  <path d="M21.9922 45.9995H25.9927V50H21.9922V45.9995Z" fill="#E05429" />
  <path d="M17.9922 45.9995H21.9927V50H17.9922V45.9995Z" fill="#E05429" />
  <path d="M14 45.9995H18.0005V50H14V45.9995Z" fill="#E05429" />
  <path d="M9.99221 45.9995H13.9927V50H9.99221V45.9995Z" fill="black" />
  <path d="M90 49.9995H94.0005V54H90V49.9995Z" fill="black" />
  <path d="M85.9922 49.9995H89.9927V54H85.9922V49.9995Z" fill="black" />
  <path d="M81.9922 49.9995H85.9927V54H81.9922V49.9995Z" fill="#E05429" />
  <path d="M78 49.9995H82.0005V54H78V49.9995Z" fill="#E05429" />
  <path d="M74 49.9995H78.0005V54H74V49.9995Z" fill="#E05429" />
  <path d="M69.9922 49.9995H73.9927V54H69.9922V49.9995Z" fill="#E05429" />
  <path d="M66 49.9995H70.0005V54H66V49.9995Z" fill="#E05429" />
  <path d="M62 49.9995H66.0005V54H62V49.9995Z" fill="#E05429" />
  <path d="M57.9922 49.9995H61.9927V54H57.9922V49.9995Z" fill="#E05429" />
  <path d="M53.9922 49.9995H57.9927V54H53.9922V49.9995Z" fill="#E05429" />
  <path d="M50 49.9995H54.0005V54H50V49.9995Z" fill="#E05429" />
  <path d="M45.9922 49.9995H49.9927V54H45.9922V49.9995Z" fill="#E05429" />
  <path d="M41.9922 49.9995H45.9927V54H41.9922V49.9995Z" fill="#E05429" />
  <path d="M38 49.9995H42.0005V54H38V49.9995Z" fill="#E05429" />
  <path d="M33.9922 49.9995H37.9927V54H33.9922V49.9995Z" fill="#E05429" />
  <path d="M29.9922 49.9995H33.9927V54H29.9922V49.9995Z" fill="#E3C69D" />
  <path d="M26 49.9995H30.0005V54H26V49.9995Z" fill="#E3C69D" />
  <path d="M21.9922 49.9995H25.9927V54H21.9922V49.9995Z" fill="#E3C69D" />
  <path d="M17.9922 49.9995H21.9927V54H17.9922V49.9995Z" fill="#E3C69D" />
  <path d="M14 49.9995H18.0005V54H14V49.9995Z" fill="#E3C69D" />
  <path d="M9.99221 49.9995H13.9927V54H9.99221V49.9995Z" fill="#FC750C" />
  <path d="M5.99221 49.9995H9.99268V54H5.99221V49.9995Z" fill="black" />
  <path d="M97.9922 53.9995H101.993V58H97.9922V53.9995Z" fill="black" />
  <path d="M93.9922 53.9995H97.9927V58H93.9922V53.9995Z" fill="black" />
  <path d="M90 53.9995H94.0005V58H90V53.9995Z" fill="#E05429" />
  <path d="M85.9922 53.9995H89.9927V58H85.9922V53.9995Z" fill="#E05429" />
  <path d="M81.9922 53.9995H85.9927V58H81.9922V53.9995Z" fill="#E05429" />
  <path d="M78 53.9995H82.0005V58H78V53.9995Z" fill="#E05429" />
  <path d="M74 53.9995H78.0005V58H74V53.9995Z" fill="#E05429" />
  <path d="M69.9922 53.9995H73.9927V58H69.9922V53.9995Z" fill="#E05429" />
  <path d="M66 53.9995H70.0005V58H66V53.9995Z" fill="#E05429" />
  <path d="M62 53.9995H66.0005V58H62V53.9995Z" fill="#E3C69D" />
  <path d="M57.9922 53.9995H61.9927V58H57.9922V53.9995Z" fill="#E3C69D" />
  <path d="M53.9922 53.9995H57.9927V58H53.9922V53.9995Z" fill="#E3C69D" />
  <path d="M50 53.9995H54.0005V58H50V53.9995Z" fill="#E3C69D" />
  <path d="M45.9922 53.9995H49.9927V58H45.9922V53.9995Z" fill="#E3C69D" />
  <path d="M41.9922 53.9995H45.9927V58H41.9922V53.9995Z" fill="#E3C69D" />
  <path d="M38 53.9995H42.0005V58H38V53.9995Z" fill="#E3C69D" />
  <path d="M33.9922 53.9995H37.9927V58H33.9922V53.9995Z" fill="#E3C69D" />
  <path d="M29.9922 53.9995H33.9927V58H29.9922V53.9995Z" fill="#E3C69D" />
  <path d="M26 53.9995H30.0005V58H26V53.9995Z" fill="#E3C69D" />
  <path d="M21.9922 53.9995H25.9927V58H21.9922V53.9995Z" fill="#E3C69D" />
  <path d="M17.9922 53.9995H21.9927V58H17.9922V53.9995Z" fill="#E3C69D" />
  <path d="M14 53.9995H18.0005V58H14V53.9995Z" fill="#E3C69D" />
  <path d="M9.99221 53.9995H13.9927V58H9.99221V53.9995Z" fill="#E3C69D" />
  <path d="M5.99221 53.9995H9.99268V58H5.99221V53.9995Z" fill="#E05429" />
  <path d="M2.00002 53.9995H6.00049V58H2.00002V53.9995Z" fill="black" />
  <path d="M105.992 57.9995H109.993V62H105.992V57.9995Z" fill="black" />
  <path d="M102 57.9995H106V62H102V57.9995Z" fill="black" />
  <path d="M97.9922 57.9995H101.993V62H97.9922V57.9995Z" fill="#E05429" />
  <path d="M93.9922 57.9995H97.9927V62H93.9922V57.9995Z" fill="#E3C69D" />
  <path d="M90 57.9995H94.0005V62H90V57.9995Z" fill="#E3C69D" />
  <path d="M85.9922 57.9995H89.9927V62H85.9922V57.9995Z" fill="#E3C69D" />
  <path d="M81.9922 57.9995H85.9927V62H81.9922V57.9995Z" fill="#E3C69D" />
  <path d="M78 57.9995H82.0005V62H78V57.9995Z" fill="#E3C69D" />
  <path d="M74 57.9995H78.0005V62H74V57.9995Z" fill="#E3C69D" />
  <path d="M69.9922 57.9995H73.9927V62H69.9922V57.9995Z" fill="#E3C69D" />
  <path d="M66 57.9995H70.0005V62H66V57.9995Z" fill="#E3C69D" />
  <path d="M62 57.9995H66.0005V62H62V57.9995Z" fill="#E3C69D" />
  <path d="M57.9922 57.9995H61.9927V62H57.9922V57.9995Z" fill="#E3C69D" />
  <path d="M53.9922 57.9995H57.9927V62H53.9922V57.9995Z" fill="#E3C69D" />
  <path d="M50 57.9995H54.0005V62H50V57.9995Z" fill="#E3C69D" />
  <path d="M45.9922 57.9995H49.9927V62H45.9922V57.9995Z" fill="#E3C69D" />
  <path d="M41.9922 57.9995H45.9927V62H41.9922V57.9995Z" fill="#E3C69D" />
  <path d="M38 57.9995H42.0005V62H38V57.9995Z" fill="#E3C69D" />
  <path d="M33.9922 66H37.9927V61.9995H33.9922V66Z" fill="#E3C69D" />
  <path d="M29.9922 57.9995H33.9927V62H29.9922V57.9995Z" fill="#E3C69D" />
  <path d="M26 57.9995H30.0005V62H26V57.9995Z" fill="#E3C69D" />
  <path d="M21.9922 57.9995H25.9927V62H21.9922V57.9995Z" fill="#E3C69D" />
  <path d="M17.9922 57.9995H21.9927V62H17.9922V57.9995Z" fill="#E3C69D" />
  <path d="M14 57.9995H18.0005V62H14V57.9995Z" fill="#E3C69D" />
  <path d="M9.99221 57.9995H13.9927V62H9.99221V57.9995Z" fill="#E3C69D" />
  <path d="M5.99221 57.9995H9.99268V62H5.99221V57.9995Z" fill="#E05429" />
  <path d="M2.00002 57.9995H6.00049V62H2.00002V57.9995Z" fill="black" />
  <path d="M117.992 61.9995H121.993V66H117.992V61.9995Z" fill="black" />
  <path d="M114 61.9995H118V66H114V61.9995Z" fill="black" />
  <path d="M109.992 61.9995H113.993V66H109.992V61.9995Z" fill="black" />
  <path d="M105.992 61.9995H109.993V66H105.992V61.9995Z" fill="#E3C69D" />
  <path d="M102 61.9995H106V66H102V61.9995Z" fill="#E3C69D" />
  <path d="M97.9922 61.9995H101.993V66H97.9922V61.9995Z" fill="#E3C69D" />
  <path d="M93.9922 61.9995H97.9927V66H93.9922V61.9995Z" fill="#E3C69D" />
  <path d="M90 61.9995H94.0005V66H90V61.9995Z" fill="#E3C69D" />
  <path d="M85.9922 61.9995H89.9927V66H85.9922V61.9995Z" fill="#E3C69D" />
  <path d="M81.9922 61.9995H85.9927V66H81.9922V61.9995Z" fill="#E3C69D" />
  <path d="M78 61.9995H82.0005V66H78V61.9995Z" fill="#E3C69D" />
  <path d="M74 61.9995H78.0005V66H74V61.9995Z" fill="#E3C69D" />
  <path d="M69.9922 61.9995H73.9927V66H69.9922V61.9995Z" fill="#E3C69D" />
  <path d="M66 61.9995H70.0005V66H66V61.9995Z" fill="#E3C69D" />
  <path d="M62 61.9995H66.0005V66H62V61.9995Z" fill="#E3C69D" />
  <path d="M57.9922 61.9995H61.9927V66H57.9922V61.9995Z" fill="#E3C69D" />
  <path d="M53.9922 61.9995H57.9927V66H53.9922V61.9995Z" fill="#E3C69D" />
  <path d="M50 61.9995H54.0005V66H50V61.9995Z" fill="#E3C69D" />
  <path d="M45.9922 61.9995H49.9927V66H45.9922V61.9995Z" fill="#E3C69D" />
  <path d="M41.9922 61.9995H45.9927V66H41.9922V61.9995Z" fill="#E3C69D" />
  <path d="M38 61.9995H42.0005V66H38V61.9995Z" fill="#E3C69D" />
  <path d="M33.9922 62H37.9927V57.9995H33.9922V62Z" fill="#E3C69D" />
  <path d="M29.9922 61.9995H33.9927V66H29.9922V61.9995Z" fill="#E3C69D" />
  <path d="M26 61.9995H30.0005V66H26V61.9995Z" fill="#E3C69D" />
  <path d="M21.9922 61.9995H25.9927V66H21.9922V61.9995Z" fill="#E3C69D" />
  <path d="M17.9922 61.9995H21.9927V66H17.9922V61.9995Z" fill="#E3C69D" />
  <path d="M14 61.9995H18.0005V66H14V61.9995Z" fill="#E3C69D" />
  <path d="M9.99221 61.9995H13.9927V66H9.99221V61.9995Z" fill="#E3C69D" />
  <path d="M5.99221 61.9995H9.99268V66H5.99221V61.9995Z" fill="#FC750C" />
  <path d="M2.00002 61.9995H6.00049V66H2.00002V61.9995Z" fill="black" />
  <path d="M126 65.9995H130V70H126V65.9995Z" fill="black" />
  <path d="M121.992 65.9995H125.993V70H121.992V65.9995Z" fill="black" />
  <path d="M117.992 65.9995H121.993V70H117.992V65.9995Z" fill="#E05429" />
  <path d="M114 65.9995H118V70H114V65.9995Z" fill="#E3C69D" />
  <path d="M109.992 65.9995H113.993V70H109.992V65.9995Z" fill="#E3C69D" />
  <path d="M105.992 65.9995H109.993V70H105.992V65.9995Z" fill="#E3C69D" />
  <path d="M102 65.9995H106V70H102V65.9995Z" fill="#E3C69D" />
  <path d="M97.9922 65.9995H101.993V70H97.9922V65.9995Z" fill="#E3C69D" />
  <path d="M93.9922 65.9995H97.9927V70H93.9922V65.9995Z" fill="#E3C69D" />
  <path d="M90 65.9995H94.0005V70H90V65.9995Z" fill="#E3C69D" />
  <path d="M85.9922 65.9995H89.9927V70H85.9922V65.9995Z" fill="#E3C69D" />
  <path d="M81.9922 65.9995H85.9927V70H81.9922V65.9995Z" fill="#E3C69D" />
  <path d="M78 65.9995H82.0005V70H78V65.9995Z" fill="#E3C69D" />
  <path d="M74 65.9995H78.0005V70H74V65.9995Z" fill="#E3C69D" />
  <path d="M69.9922 65.9995H73.9927V70H69.9922V65.9995Z" fill="#E3C69D" />
  <path d="M66 65.9995H70.0005V70H66V65.9995Z" fill="#E3C69D" />
  <path d="M62 65.9995H66.0005V70H62V65.9995Z" fill="#E3C69D" />
  <path d="M57.9922 65.9995H61.9927V70H57.9922V65.9995Z" fill="#E3C69D" />
  <path d="M53.9922 65.9995H57.9927V70H53.9922V65.9995Z" fill="#E3C69D" />
  <path d="M50 65.9995H54.0005V70H50V65.9995Z" fill="#E3C69D" />
  <path d="M45.9922 65.9995H49.9927V70H45.9922V65.9995Z" fill="#E3C69D" />
  <path d="M41.9922 65.9995H45.9927V70H41.9922V65.9995Z" fill="#E3C69D" />
  <path d="M38 65.9995H42.0005V70H38V65.9995Z" fill="#E3C69D" />
  <path d="M33.9922 65.9995H37.9927V70H33.9922V65.9995Z" fill="#E3C69D" />
  <path d="M29.9922 65.9995H33.9927V70H29.9922V65.9995Z" fill="#E3C69D" />
  <path d="M26 65.9995H30.0005V70H26V65.9995Z" fill="#E3C69D" />
  <path d="M21.9922 65.9995H25.9927V70H21.9922V65.9995Z" fill="#E3C69D" />
  <path d="M17.9922 65.9995H21.9927V70H17.9922V65.9995Z" fill="#E3C69D" />
  <path d="M14 65.9995H18.0005V70H14V65.9995Z" fill="#FFE5C0" />
  <path d="M9.99221 65.9995H13.9927V70H9.99221V65.9995Z" fill="#FFE5C0" />
  <path d="M5.99221 65.9995H9.99268V70H5.99221V65.9995Z" fill="#E05429" />
  <path d="M2.00002 65.9995H6.00049V70H2.00002V65.9995Z" fill="black" />
  <path d="M133.992 69.9995H137.993V74H133.992V69.9995Z" fill="black" />
  <path d="M130 69.9995H134V74H130V69.9995Z" fill="black" />
  <path d="M126 69.9995H130V74H126V69.9995Z" fill="#FC750C" />
  <path d="M121.992 69.9995H125.993V74H121.992V69.9995Z" fill="#E05429" />
  <path d="M117.992 69.9995H121.993V74H117.992V69.9995Z" fill="#E05429" />
  <path d="M114 69.9995H118V74H114V69.9995Z" fill="#E3C69D" />
  <path d="M109.992 69.9995H113.993V74H109.992V69.9995Z" fill="#E3C69D" />
  <path d="M105.992 69.9995H109.993V74H105.992V69.9995Z" fill="#E3C69D" />
  <path d="M102 69.9995H106V74H102V69.9995Z" fill="#E3C69D" />
  <path d="M97.9922 69.9995H101.993V74H97.9922V69.9995Z" fill="#E3C69D" />
  <path d="M93.9922 69.9995H97.9927V74H93.9922V69.9995Z" fill="#E3C69D" />
  <path d="M90 69.9995H94.0005V74H90V69.9995Z" fill="#E3C69D" />
  <path d="M85.9922 69.9995H89.9927V74H85.9922V69.9995Z" fill="#E3C69D" />
  <path d="M81.9922 69.9995H85.9927V74H81.9922V69.9995Z" fill="#E3C69D" />
  <path d="M78 69.9995H82.0005V74H78V69.9995Z" fill="#E3C69D" />
  <path d="M74 69.9995H78.0005V74H74V69.9995Z" fill="#E3C69D" />
  <path d="M69.9922 69.9995H73.9927V74H69.9922V69.9995Z" fill="#E3C69D" />
  <path d="M66 69.9995H70.0005V74H66V69.9995Z" fill="#E3C69D" />
  <path d="M62 69.9995H66.0005V74H62V69.9995Z" fill="#E3C69D" />
  <path d="M57.9922 69.9995H61.9927V74H57.9922V69.9995Z" fill="#E3C69D" />
  <path d="M53.9922 69.9995H57.9927V74H53.9922V69.9995Z" fill="#E3C69D" />
  <path d="M50 69.9995H54.0005V74H50V69.9995Z" fill="#E3C69D" />
  <path d="M45.9922 69.9995H49.9927V74H45.9922V69.9995Z" fill="#E3C69D" />
  <path d="M41.9922 69.9995H45.9927V74H41.9922V69.9995Z" fill="#E3C69D" />
  <path d="M38 69.9995H42.0005V74H38V69.9995Z" fill="#E3C69D" />
  <path d="M33.9922 69.9995H37.9927V74H33.9922V69.9995Z" fill="#E3C69D" />
  <path d="M29.9922 69.9995H33.9927V74H29.9922V69.9995Z" fill="#E3C69D" />
  <path d="M26 69.9995H30.0005V74H26V69.9995Z" fill="#E3C69D" />
  <path d="M21.9922 69.9995H25.9927V74H21.9922V69.9995Z" fill="#FFE5C0" />
  <path d="M17.9922 69.9995H21.9927V74H17.9922V69.9995Z" fill="#FFE5C0" />
  <path d="M14 69.9995H18.0005V74H14V69.9995Z" fill="#E3C69D" />
  <path d="M9.99221 69.9995H13.9927V74H9.99221V69.9995Z" fill="#E3C69D" />
  <path d="M5.99221 69.9995H9.99268V74H5.99221V69.9995Z" fill="#E05429" />
  <path d="M2.00002 69.9995H6.00049V74H2.00002V69.9995Z" fill="black" />
  <path d="M133.992 73.9995H137.993V78H133.992V73.9995Z" fill="black" />
  <path d="M130 73.9995H134V78H130V73.9995Z" fill="#962A0F" />
  <path d="M126 73.9995H130V78H126V73.9995Z" fill="#962A0F" />
  <path d="M121.992 73.9995H125.993V78H121.992V73.9995Z" fill="#FC750C" />
  <path d="M117.992 73.9995H121.993V78H117.992V73.9995Z" fill="#E05429" />
  <path d="M114 73.9995H118V78H114V73.9995Z" fill="#E3C69D" />
  <path d="M109.992 73.9995H113.993V78H109.992V73.9995Z" fill="#E3C69D" />
  <path d="M105.992 73.9995H109.993V78H105.992V73.9995Z" fill="#E3C69D" />
  <path d="M102 73.9995H106V78H102V73.9995Z" fill="#E3C69D" />
  <path d="M97.9922 73.9995H101.993V78H97.9922V73.9995Z" fill="#E3C69D" />
  <path d="M93.9922 73.9995H97.9927V78H93.9922V73.9995Z" fill="#E3C69D" />
  <path d="M90 73.9995H94.0005V78H90V73.9995Z" fill="#E3C69D" />
  <path d="M85.9922 73.9995H89.9927V78H85.9922V73.9995Z" fill="#E3C69D" />
  <path d="M81.9922 73.9995H85.9927V78H81.9922V73.9995Z" fill="#E3C69D" />
  <path d="M78 73.9995H82.0005V78H78V73.9995Z" fill="#E3C69D" />
  <path d="M74 73.9995H78.0005V78H74V73.9995Z" fill="#E3C69D" />
  <path d="M69.9922 73.9995H73.9927V78H69.9922V73.9995Z" fill="#E3C69D" />
  <path d="M66 73.9995H70.0005V78H66V73.9995Z" fill="#E3C69D" />
  <path d="M62 73.9995H66.0005V78H62V73.9995Z" fill="#E3C69D" />
  <path d="M57.9922 73.9995H61.9927V78H57.9922V73.9995Z" fill="#E3C69D" />
  <path d="M53.9922 73.9995H57.9927V78H53.9922V73.9995Z" fill="#E3C69D" />
  <path d="M50 73.9995H54.0005V78H50V73.9995Z" fill="#E3C69D" />
  <path d="M45.9922 73.9995H49.9927V78H45.9922V73.9995Z" fill="#E3C69D" />
  <path d="M41.9922 73.9995H45.9927V78H41.9922V73.9995Z" fill="#E3C69D" />
  <path d="M38 73.9995H42.0005V78H38V73.9995Z" fill="#E3C69D" />
  <path d="M33.9922 73.9995H37.9927V78H33.9922V73.9995Z" fill="#E3C69D" />
  <path d="M29.9922 73.9995H33.9927V78H29.9922V73.9995Z" fill="#FFE5C0" />
  <path d="M26 73.9995H30.0005V78H26V73.9995Z" fill="#FFE5C0" />
  <path d="M21.9922 73.9995H25.9927V78H21.9922V73.9995Z" fill="#E3C69D" />
  <path d="M17.9922 73.9995H21.9927V78H17.9922V73.9995Z" fill="#E3C69D" />
  <path d="M14 73.9995H18.0005V78H14V73.9995Z" fill="#E3C69D" />
  <path d="M9.99221 73.9995H13.9927V78H9.99221V73.9995Z" fill="#E3C69D" />
  <path d="M5.99221 73.9995H9.99268V78H5.99221V73.9995Z" fill="#E05429" />
  <path d="M2.00002 73.9995H6.00049V78H2.00002V73.9995Z" fill="black" />
  <path d="M138 77.9995H142V82H138V77.9995Z" fill="black" />
  <path d="M133.992 77.9995H137.993V82H133.992V77.9995Z" fill="black" />
  <path d="M130 77.9995H134V82H130V77.9995Z" fill="black" />
  <path d="M126 77.9995H130V82H126V77.9995Z" fill="black" />
  <path d="M121.992 77.9995H125.993V82H121.992V77.9995Z" fill="#962A0F" />
  <path d="M117.992 77.9995H121.993V82H117.992V77.9995Z" fill="#FC750C" />
  <path d="M114 77.9995H118V82H114V77.9995Z" fill="#D5AA71" />
  <path d="M109.992 77.9995H113.993V82H109.992V77.9995Z" fill="#E3C69D" />
  <path d="M105.992 77.9995H109.993V82H105.992V77.9995Z" fill="#E3C69D" />
  <path d="M102 77.9995H106V82H102V77.9995Z" fill="#E3C69D" />
  <path d="M97.9922 77.9995H101.993V82H97.9922V77.9995Z" fill="#E3C69D" />
  <path d="M93.9922 77.9995H97.9927V82H93.9922V77.9995Z" fill="#E3C69D" />
  <path d="M90 77.9995H94.0005V82H90V77.9995Z" fill="#E3C69D" />
  <path d="M85.9922 77.9995H89.9927V82H85.9922V77.9995Z" fill="#E3C69D" />
  <path d="M81.9922 77.9995H85.9927V82H81.9922V77.9995Z" fill="#E3C69D" />
  <path d="M78 77.9995H82.0005V82H78V77.9995Z" fill="#E3C69D" />
  <path d="M74 77.9995H78.0005V82H74V77.9995Z" fill="#E3C69D" />
  <path d="M69.9922 77.9995H73.9927V82H69.9922V77.9995Z" fill="#E3C69D" />
  <path d="M66 77.9995H70.0005V82H66V77.9995Z" fill="#E3C69D" />
  <path d="M62 77.9995H66.0005V82H62V77.9995Z" fill="#D5AA71" />
  <path d="M57.9922 77.9995H61.9927V82H57.9922V77.9995Z" fill="#D5AA71" />
  <path d="M53.9922 77.9995H57.9927V82H53.9922V77.9995Z" fill="#D5AA71" />
  <path d="M50 77.9995H54.0005V82H50V77.9995Z" fill="#D5AA71" />
  <path d="M45.9922 77.9995H49.9927V82H45.9922V77.9995Z" fill="#D5AA71" />
  <path d="M41.9922 77.9995H45.9927V82H41.9922V77.9995Z" fill="#D5AA71" />
  <path d="M38 77.9995H42.0005V82H38V77.9995Z" fill="#D5AA71" />
  <path d="M33.9922 77.9995H37.9927V82H33.9922V77.9995Z" fill="#D5AA71" />
  <path d="M29.9922 77.9995H33.9927V82H29.9922V77.9995Z" fill="#D5AA71" />
  <path d="M26 77.9995H30.0005V82H26V77.9995Z" fill="#D5AA71" />
  <path d="M21.9922 77.9995H25.9927V82H21.9922V77.9995Z" fill="#D5AA71" />
  <path d="M17.9922 77.9995H21.9927V82H17.9922V77.9995Z" fill="#E3C69D" />
  <path d="M14 77.9995H18.0005V82H14V77.9995Z" fill="#E3C69D" />
  <path d="M9.99221 77.9995H13.9927V82H9.99221V77.9995Z" fill="#E3C69D" />
  <path d="M5.99221 77.9995H9.99268V82H5.99221V77.9995Z" fill="#E05429" />
  <path d="M2.00002 77.9995H6.00049V82H2.00002V77.9995Z" fill="black" />
  <path d="M145.992 81.9995H149.993V86H145.992V81.9995Z" fill="black" />
  <path d="M142 81.9995H146V86H142V81.9995Z" fill="black" />
  <path d="M138 81.9995H142V86H138V81.9995Z" fill="#CBC6C1" />
  <path d="M133.992 81.9995H137.993V86H133.992V81.9995Z" fill="#CBC6C1" />
  <path d="M130 81.9995H134V86H130V81.9995Z" fill="#CBC6C1" />
  <path d="M126 81.9995H130V86H126V81.9995Z" fill="#CBC6C1" />
  <path d="M121.992 81.9995H125.993V86H121.992V81.9995Z" fill="black" />
  <path d="M117.992 81.9995H121.993V86H117.992V81.9995Z" fill="#962A0F" />
  <path d="M114 81.9995H118V86H114V81.9995Z" fill="#FC750C" />
  <path d="M109.992 81.9995H113.993V86H109.992V81.9995Z" fill="#D5AA71" />
  <path d="M105.992 81.9995H109.993V86H105.992V81.9995Z" fill="#D5AA71" />
  <path d="M102 81.9995H106V86H102V81.9995Z" fill="#D5AA71" />
  <path d="M97.9922 81.9995H101.993V86H97.9922V81.9995Z" fill="#D5AA71" />
  <path d="M93.9922 81.9995H97.9927V86H93.9922V81.9995Z" fill="#D5AA71" />
  <path d="M90 81.9995H94.0005V86H90V81.9995Z" fill="#D5AA71" />
  <path d="M85.9922 81.9995H89.9927V86H85.9922V81.9995Z" fill="#D5AA71" />
  <path d="M81.9922 81.9995H85.9927V86H81.9922V81.9995Z" fill="#D5AA71" />
  <path d="M78 81.9995H82.0005V86H78V81.9995Z" fill="#D5AA71" />
  <path d="M74 81.9995H78.0005V86H74V81.9995Z" fill="#D5AA71" />
  <path d="M69.9922 81.9995H73.9927V86H69.9922V81.9995Z" fill="#D5AA71" />
  <path d="M66 81.9995H70.0005V86H66V81.9995Z" fill="#D5AA71" />
  <path d="M62 81.9995H66.0005V86H62V81.9995Z" fill="#E05429" />
  <path d="M57.9922 81.9995H61.9927V86H57.9922V81.9995Z" fill="#E05429" />
  <path d="M53.9922 81.9995H57.9927V86H53.9922V81.9995Z" fill="#E05429" />
  <path d="M50 81.9995H54.0005V86H50V81.9995Z" fill="#FC750C" />
  <path d="M45.9922 81.9995H49.9927V86H45.9922V81.9995Z" fill="#FC750C" />
  <path d="M41.9922 81.9995H45.9927V86H41.9922V81.9995Z" fill="#FC750C" />
  <path d="M38 81.9995H42.0005V86H38V81.9995Z" fill="#E05429" />
  <path d="M33.9922 81.9995H37.9927V86H33.9922V81.9995Z" fill="#E05429" />
  <path d="M29.9922 81.9995H33.9927V86H29.9922V81.9995Z" fill="#E05429" />
  <path d="M26 81.9995H30.0005V86H26V81.9995Z" fill="#E05429" />
  <path d="M21.9922 81.9995H25.9927V86H21.9922V81.9995Z" fill="#E05429" />
  <path d="M17.9922 81.9995H21.9927V86H17.9922V81.9995Z" fill="#D5AA71" />
  <path d="M14 81.9995H18.0005V86H14V81.9995Z" fill="#D5AA71" />
  <path d="M9.99221 81.9995H13.9927V86H9.99221V81.9995Z" fill="#D5AA71" />
  <path d="M5.99221 81.9995H9.99268V86H5.99221V81.9995Z" fill="black" />
  <path d="M154 85.9995H158V90H154V85.9995Z" fill="black" />
  <path d="M150 85.9995H154V90H150V85.9995Z" fill="black" />
  <path d="M145.992 85.9995H149.993V90H145.992V85.9995Z" fill="#CBC6C1" />
  <path d="M142 85.9995H146V90H142V85.9995Z" fill="#CBC6C1" />
  <path d="M138 85.9995H142V90H138V85.9995Z" fill="#CBC6C1" />
  <path d="M133.992 85.9995H137.993V90H133.992V85.9995Z" fill="#CBC6C1" />
  <path d="M130 85.9995H134V90H130V85.9995Z" fill="#CBC6C1" />
  <path d="M126 85.9995H130V90H126V85.9995Z" fill="#CBC6C1" />
  <path d="M121.992 85.9995H125.993V90H121.992V85.9995Z" fill="#CBC6C1" />
  <path d="M117.992 85.9995H121.993V90H117.992V85.9995Z" fill="black" />
  <path d="M114 85.9995H118V90H114V85.9995Z" fill="#962A0F" />
  <path d="M109.992 85.9995H113.993V90H109.992V85.9995Z" fill="#FC750C" />
  <path d="M105.992 85.9995H109.993V90H105.992V85.9995Z" fill="#E05429" />
  <path d="M102 85.9995H106V90H102V85.9995Z" fill="#E05429" />
  <path d="M97.9922 85.9995H101.993V90H97.9922V85.9995Z" fill="#E05429" />
  <path d="M93.9922 85.9995H97.9927V90H93.9922V85.9995Z" fill="#E05429" />
  <path d="M90 85.9995H94.0005V90H90V85.9995Z" fill="#E05429" />
  <path d="M85.9922 85.9995H89.9927V90H85.9922V85.9995Z" fill="#E05429" />
  <path d="M81.9922 85.9995H85.9927V90H81.9922V85.9995Z" fill="#E05429" />
  <path d="M78 85.9995H82.0005V90H78V85.9995Z" fill="#E05429" />
  <path d="M74 85.9995H78.0005V90H74V85.9995Z" fill="#E05429" />
  <path d="M69.9922 85.9995H73.9927V90H69.9922V85.9995Z" fill="#E05429" />
  <path d="M66 85.9995H70.0005V90H66V85.9995Z" fill="#E05429" />
  <path d="M62 85.9995H66.0005V90H62V85.9995Z" fill="#E05429" />
  <path d="M57.9922 85.9995H61.9927V90H57.9922V85.9995Z" fill="#FC750C" />
  <path d="M53.9922 85.9995H57.9927V90H53.9922V85.9995Z" fill="#FC750C" />
  <path d="M50 85.9995H54.0005V90H50V85.9995Z" fill="#E05429" />
  <path d="M45.9922 85.9995H49.9927V90H45.9922V85.9995Z" fill="#E05429" />
  <path d="M41.9922 85.9995H45.9927V90H41.9922V85.9995Z" fill="#E05429" />
  <path d="M38 85.9995H42.0005V90H38V85.9995Z" fill="#E05429" />
  <path d="M33.9922 85.9995H37.9927V90H33.9922V85.9995Z" fill="#E05429" />
  <path d="M29.9922 85.9995H33.9927V90H29.9922V85.9995Z" fill="#E05429" />
  <path d="M26 85.9995H30.0005V90H26V85.9995Z" fill="#E05429" />
  <path d="M21.9922 85.9995H25.9927V90H21.9922V85.9995Z" fill="#E05429" />
  <path d="M17.9922 85.9995H21.9927V90H17.9922V85.9995Z" fill="#E05429" />
  <path d="M14 85.9995H18.0005V90H14V85.9995Z" fill="black" />
  <path d="M9.99221 85.9995H13.9927V90H9.99221V85.9995Z" fill="black" />
  <path d="M162 89.9995H166V94H162V89.9995Z" fill="black" />
  <path d="M157.992 89.9995H161.993V94H157.992V89.9995Z" fill="black" />
  <path d="M154 89.9995H158V94H154V89.9995Z" fill="#CBC6C1" />
  <path d="M150 89.9995H154V94H150V89.9995Z" fill="#CBC6C1" />
  <path d="M145.992 89.9995H149.993V94H145.992V89.9995Z" fill="#CBC6C1" />
  <path d="M142 89.9995H146V94H142V89.9995Z" fill="#CBC6C1" />
  <path d="M138 89.9995H142V94H138V89.9995Z" fill="#CBC6C1" />
  <path d="M133.992 89.9995H137.993V94H133.992V89.9995Z" fill="#CBC6C1" />
  <path d="M130 89.9995H134V94H130V89.9995Z" fill="#807B7A" />
  <path d="M126 89.9995H130V94H126V89.9995Z" fill="#807B7A" />
  <path d="M121.992 89.9995H125.993V94H121.992V89.9995Z" fill="#CBC6C1" />
  <path d="M117.992 89.9995H121.993V94H117.992V89.9995Z" fill="#CBC6C1" />
  <path d="M114 89.9995H118V94H114V89.9995Z" fill="black" />
  <path d="M109.992 89.9995H113.993V94H109.992V89.9995Z" fill="#962A0F" />
  <path d="M105.992 89.9995H109.993V94H105.992V89.9995Z" fill="#FC750C" />
  <path d="M102 89.9995H106V94H102V89.9995Z" fill="#E05429" />
  <path d="M97.9922 89.9995H101.993V94H97.9922V89.9995Z" fill="#E05429" />
  <path d="M93.9922 89.9995H97.9927V94H93.9922V89.9995Z" fill="#E05429" />
  <path d="M90 89.9995H94.0005V94H90V89.9995Z" fill="#E05429" />
  <path d="M85.9922 89.9995H89.9927V94H85.9922V89.9995Z" fill="#E05429" />
  <path d="M81.9922 89.9995H85.9927V94H81.9922V89.9995Z" fill="#E05429" />
  <path d="M78 89.9995H82.0005V94H78V89.9995Z" fill="#E05429" />
  <path d="M74 89.9995H78.0005V94H74V89.9995Z" fill="#E05429" />
  <path d="M69.9922 89.9995H73.9927V94H69.9922V89.9995Z" fill="#E05429" />
  <path d="M66 89.9995H70.0005V94H66V89.9995Z" fill="#FC750C" />
  <path d="M62 89.9995H66.0005V94H62V89.9995Z" fill="#FC750C" />
  <path d="M57.9922 89.9995H61.9927V94H57.9922V89.9995Z" fill="#E05429" />
  <path d="M53.9922 89.9995H57.9927V94H53.9922V89.9995Z" fill="#E05429" />
  <path d="M50 89.9995H54.0005V94H50V89.9995Z" fill="#E05429" />
  <path d="M45.9922 89.9995H49.9927V94H45.9922V89.9995Z" fill="#E05429" />
  <path d="M41.9922 89.9995H45.9927V94H41.9922V89.9995Z" fill="#E05429" />
  <path d="M38 89.9995H42.0005V94H38V89.9995Z" fill="#E05429" />
  <path d="M33.9922 89.9995H37.9927V94H33.9922V89.9995Z" fill="#E05429" />
  <path d="M29.9922 89.9995H33.9927V94H29.9922V89.9995Z" fill="#E05429" />
  <path d="M26 89.9995H30.0005V94H26V89.9995Z" fill="#E05429" />
  <path d="M21.9922 89.9995H25.9927V94H21.9922V89.9995Z" fill="black" />
  <path d="M17.9922 89.9995H21.9927V94H17.9922V89.9995Z" fill="black" />
  <path d="M162 93.9995H166V98H162V93.9995Z" fill="black" />
  <path d="M157.992 93.9995H161.993V98H157.992V93.9995Z" fill="#807B7A" />
  <path d="M154 93.9995H158V98H154V93.9995Z" fill="black" />
  <path d="M150 93.9995H154V98H150V93.9995Z" fill="#CBC6C1" />
  <path d="M145.992 93.9995H149.993V98H145.992V93.9995Z" fill="#CBC6C1" />
  <path d="M142 93.9995H146V98H142V93.9995Z" fill="#CBC6C1" />
  <path d="M138 93.9995H142V98H138V93.9995Z" fill="#807B7A" />
  <path d="M133.992 93.9995H137.993V98H133.992V93.9995Z" fill="#807B7A" />
  <path d="M130 93.9995H134V98H130V93.9995Z" fill="#CBC6C1" />
  <path d="M126 93.9995H130V98H126V93.9995Z" fill="#CBC6C1" />
  <path d="M121.992 93.9995H125.993V98H121.992V93.9995Z" fill="#CBC6C1" />
  <path d="M117.992 93.9995H121.993V98H117.992V93.9995Z" fill="#CBC6C1" />
  <path d="M114 93.9995H118V98H114V93.9995Z" fill="#CBC6C1" />
  <path d="M109.992 93.9995H113.993V98H109.992V93.9995Z" fill="black" />
  <path d="M105.992 93.9995H109.993V98H105.992V93.9995Z" fill="#962A0F" />
  <path d="M102 93.9995H106V98H102V93.9995Z" fill="#FC750C" />
  <path d="M97.9922 93.9995H101.993V98H97.9922V93.9995Z" fill="#E05429" />
  <path d="M93.9922 93.9995H97.9927V98H93.9922V93.9995Z" fill="#E05429" />
  <path d="M90 93.9995H94.0005V98H90V93.9995Z" fill="#E05429" />
  <path d="M85.9922 93.9995H89.9927V98H85.9922V93.9995Z" fill="#E05429" />
  <path d="M81.9922 93.9995H85.9927V98H81.9922V93.9995Z" fill="#E05429" />
  <path d="M78 93.9995H82.0005V98H78V93.9995Z" fill="#E05429" />
  <path d="M74 93.9995H78.0005V98H74V93.9995Z" fill="#FC750C" />
  <path d="M69.9922 93.9995H73.9927V98H69.9922V93.9995Z" fill="#FC750C" />
  <path d="M66 93.9995H70.0005V98H66V93.9995Z" fill="#E05429" />
  <path d="M62 93.9995H66.0005V98H62V93.9995Z" fill="#E05429" />
  <path d="M57.9922 93.9995H61.9927V98H57.9922V93.9995Z" fill="#E05429" />
  <path d="M53.9922 93.9995H57.9927V98H53.9922V93.9995Z" fill="#E05429" />
  <path d="M50 93.9995H54.0005V98H50V93.9995Z" fill="#E05429" />
  <path d="M45.9922 93.9995H49.9927V98H45.9922V93.9995Z" fill="#E05429" />
  <path d="M41.9922 93.9995H45.9927V98H41.9922V93.9995Z" fill="#E05429" />
  <path d="M38 93.9995H42.0005V98H38V93.9995Z" fill="#E05429" />
  <path d="M33.9922 93.9995H37.9927V98H33.9922V93.9995Z" fill="#E05429" />
  <path d="M29.9922 93.9995H33.9927V98H29.9922V93.9995Z" fill="black" />
  <path d="M26 93.9995H30.0005V98H26V93.9995Z" fill="black" />
  <path d="M162 97.9995H166V102H162V97.9995Z" fill="black" />
  <path d="M157.992 97.9995H161.993V102H157.992V97.9995Z" fill="#807B7A" />
  <path d="M154 97.9995H158V102H154V97.9995Z" fill="#595757" />
  <path d="M150 97.9995H154V102H150V97.9995Z" fill="black" />
  <path d="M145.992 97.9995H149.993V102H145.992V97.9995Z" fill="#CBC6C1" />
  <path d="M142 97.9995H146V102H142V97.9995Z" fill="#CBC6C1" />
  <path d="M138 97.9995H142V102H138V97.9995Z" fill="#CBC6C1" />
  <path d="M133.992 97.9995H137.993V102H133.992V97.9995Z" fill="#CBC6C1" />
  <path d="M130 97.9995H134V102H130V97.9995Z" fill="#CBC6C1" />
  <path d="M126 97.9995H130V102H126V97.9995Z" fill="#CBC6C1" />
  <path d="M121.992 97.9995H125.993V102H121.992V97.9995Z" fill="#807B7A" />
  <path d="M117.992 97.9995H121.993V102H117.992V97.9995Z" fill="#807B7A" />
  <path d="M114 97.9995H118V102H114V97.9995Z" fill="#CBC6C1" />
  <path d="M109.992 97.9995H113.993V102H109.992V97.9995Z" fill="#CBC6C1" />
  <path d="M105.992 97.9995H109.993V102H105.992V97.9995Z" fill="black" />
  <path d="M102 97.9995H106V102H102V97.9995Z" fill="#962A0F" />
  <path d="M97.9922 97.9995H101.993V102H97.9922V97.9995Z" fill="#FC750C" />
  <path d="M93.9922 97.9995H97.9927V102H93.9922V97.9995Z" fill="#E05429" />
  <path d="M90 97.9995H94.0005V102H90V97.9995Z" fill="#E05429" />
  <path d="M85.9922 97.9995H89.9927V102H85.9922V97.9995Z" fill="#E05429" />
  <path d="M81.9922 97.9995H85.9927V102H81.9922V97.9995Z" fill="#FC750C" />
  <path d="M78 97.9995H82.0005V102H78V97.9995Z" fill="#FC750C" />
  <path d="M74 97.9995H78.0005V102H74V97.9995Z" fill="#E05429" />
  <path d="M69.9922 97.9995H73.9927V102H69.9922V97.9995Z" fill="#E05429" />
  <path d="M66 97.9995H70.0005V102H66V97.9995Z" fill="#E05429" />
  <path d="M62 97.9995H66.0005V102H62V97.9995Z" fill="#E05429" />
  <path d="M57.9922 97.9995H61.9927V102H57.9922V97.9995Z" fill="#E05429" />
  <path d="M53.9922 97.9995H57.9927V102H53.9922V97.9995Z" fill="#E05429" />
  <path d="M50 97.9995H54.0005V102H50V97.9995Z" fill="#E05429" />
  <path d="M45.9922 97.9995H49.9927V102H45.9922V97.9995Z" fill="#E05429" />
  <path d="M41.9922 97.9995H45.9927V102H41.9922V97.9995Z" fill="#E05429" />
  <path d="M38 97.9995H42.0005V102H38V97.9995Z" fill="black" />
  <path d="M33.9922 97.9995H37.9927V102H33.9922V97.9995Z" fill="black" />
  <path d="M162 102H166V106H162V102Z" fill="black" />
  <path d="M157.992 102H161.993V106H157.992V102Z" fill="#807B7A" />
  <path d="M154 102H158V106H154V102Z" fill="#595757" />
  <path d="M150 102H154V106H150V102Z" fill="#CBC6C1" />
  <path d="M145.992 102H149.993V106H145.992V102Z" fill="black" />
  <path d="M142 102H146V106H142V102Z" fill="#CBC6C1" />
  <path d="M138 102H142V106H138V102Z" fill="#CBC6C1" />
  <path d="M133.992 102H137.993V106H133.992V102Z" fill="#CBC6C1" />
  <path d="M130 102H134V106H130V102Z" fill="#807B7A" />
  <path d="M126 102H130V106H126V102Z" fill="#807B7A" />
  <path d="M121.992 102H125.993V106H121.992V102Z" fill="#CBC6C1" />
  <path d="M117.992 102H121.993V106H117.992V102Z" fill="#CBC6C1" />
  <path d="M114 102H118V106H114V102Z" fill="#CBC6C1" />
  <path d="M109.992 102H113.993V106H109.992V102Z" fill="#CBC6C1" />
  <path d="M105.992 102H109.993V106H105.992V102Z" fill="#CBC6C1" />
  <path d="M102 102H106V106H102V102Z" fill="black" />
  <path d="M97.9922 102H101.993V106H97.9922V102Z" fill="#962A0F" />
  <path d="M93.9922 102H97.9927V106H93.9922V102Z" fill="#FC750C" />
  <path d="M90 102H94.0005V106H90V102Z" fill="#FC750C" />
  <path d="M85.9922 102H89.9927V106H85.9922V102Z" fill="#FC750C" />
  <path d="M81.9922 102H85.9927V106H81.9922V102Z" fill="#E05429" />
  <path d="M78 102H82.0005V106H78V102Z" fill="#E05429" />
  <path d="M74 102H78.0005V106H74V102Z" fill="#E05429" />
  <path d="M69.9922 102H73.9927V106H69.9922V102Z" fill="#E05429" />
  <path d="M66 102H70.0005V106H66V102Z" fill="#E05429" />
  <path d="M62 102H66.0005V106H62V102Z" fill="#E05429" />
  <path d="M57.9922 102H61.9927V106H57.9922V102Z" fill="#E05429" />
  <path d="M53.9922 102H57.9927V106H53.9922V102Z" fill="#E05429" />
  <path d="M50 102H54.0005V106H50V102Z" fill="#E05429" />
  <path d="M45.9922 102H49.9927V106H45.9922V102Z" fill="black" />
  <path d="M41.9922 102H45.9927V106H41.9922V102Z" fill="black" />
  <path d="M162 106H166V110H162V106Z" fill="black" />
  <path d="M157.992 106H161.993V110H157.992V106Z" fill="#807B7A" />
  <path d="M154 106H158V110H154V106Z" fill="#CBC6C1" />
  <path d="M150 106H154V110H150V106Z" fill="#A69E9A" />
  <path d="M145.992 106H149.993V110H145.992V106Z" fill="#CBC6C1" />
  <path d="M142 106H146V110H142V106Z" fill="black" />
  <path d="M138 106H142V110H138V106Z" fill="#CBC6C1" />
  <path d="M133.992 106H137.993V110H133.992V106Z" fill="#CBC6C1" />
  <path d="M130 106H134V110H130V106Z" fill="#CBC6C1" />
  <path d="M126 106H130V110H126V106Z" fill="#CBC6C1" />
  <path d="M121.992 106H125.993V110H121.992V106Z" fill="#CBC6C1" />
  <path d="M117.992 106H121.993V110H117.992V106Z" fill="#CBC6C1" />
  <path d="M114 106H118V110H114V106Z" fill="#CBC6C1" />
  <path d="M109.992 106H113.993V110H109.992V106Z" fill="black" />
  <path d="M105.992 106H109.993V110H105.992V106Z" fill="black" />
  <path d="M102 106H106V110H102V106Z" fill="black" />
  <path d="M97.9922 106H101.993V110H97.9922V106Z" fill="#962A0F" />
  <path d="M93.9922 106H97.9927V110H93.9922V106Z" fill="#962A0F" />
  <path d="M90 106H94.0005V110H90V106Z" fill="#E05429" />
  <path d="M85.9922 106H89.9927V110H85.9922V106Z" fill="#E05429" />
  <path d="M81.9922 106H85.9927V110H81.9922V106Z" fill="#E05429" />
  <path d="M78 106H82.0005V110H78V106Z" fill="#E05429" />
  <path d="M74 106H78.0005V110H74V106Z" fill="#E05429" />
  <path d="M69.9922 106H73.9927V110H69.9922V106Z" fill="#E05429" />
  <path d="M66 106H70.0005V110H66V106Z" fill="#E05429" />
  <path d="M62 106H66.0005V110H62V106Z" fill="#E05429" />
  <path d="M57.9922 106H61.9927V110H57.9922V106Z" fill="#E05429" />
  <path d="M53.9922 106H57.9927V110H53.9922V106Z" fill="black" />
  <path d="M50 106H54.0005V110H50V106Z" fill="black" />
  <path d="M157.992 110H161.993V114H157.992V110Z" fill="black" />
  <path d="M154 110H158V114H154V110Z" fill="#ECEBE7" />
  <path d="M150 110H154V114H150V110Z" fill="#CBC6C1" />
  <path d="M145.992 110H149.993V114H145.992V110Z" fill="#A69E9A" />
  <path d="M142 110H146V114H142V110Z" fill="#CBC6C1" />
  <path d="M138 110H142V114H138V110Z" fill="black" />
  <path d="M133.992 110H137.993V114H133.992V110Z" fill="#CBC6C1" />
  <path d="M130 110H134V114H130V110Z" fill="#CBC6C1" />
  <path d="M126 110H130V114H126V110Z" fill="#CBC6C1" />
  <path d="M121.992 110H125.993V114H121.992V110Z" fill="#CBC6C1" />
  <path d="M117.992 110H121.993V114H117.992V110Z" fill="black" />
  <path d="M114 110H118V114H114V110Z" fill="black" />
  <path d="M109.992 110H113.993V114H109.992V110Z" fill="#A69E9A" />
  <path d="M105.992 110H109.993V114H105.992V110Z" fill="#A69E9A" />
  <path d="M102 110H106V114H102V110Z" fill="black" />
  <path d="M97.9922 110H101.993V114H97.9922V110Z" fill="#962A0F" />
  <path d="M93.9922 110H97.9927V114H93.9922V110Z" fill="#962A0F" />
  <path d="M90 110H94.0005V114H90V110Z" fill="#E05429" />
  <path d="M85.9922 110H89.9927V114H85.9922V110Z" fill="#E05429" />
  <path d="M81.9922 110H85.9927V114H81.9922V110Z" fill="#E05429" />
  <path d="M78 110H82.0005V114H78V110Z" fill="#E05429" />
  <path d="M74 110H78.0005V114H74V110Z" fill="#E05429" />
  <path d="M69.9922 110H73.9927V114H69.9922V110Z" fill="#E05429" />
  <path d="M66 110H70.0005V114H66V110Z" fill="#E05429" />
  <path d="M62 110H66.0005V114H62V110Z" fill="black" />
  <path d="M57.9922 110H61.9927V114H57.9922V110Z" fill="black" />
  <path d="M154 114H158V118H154V114Z" fill="black" />
  <path d="M150 114H154V118H150V114Z" fill="#ECEBE7" />
  <path d="M145.992 114H149.993V118H145.992V114Z" fill="#CBC6C1" />
  <path d="M142 114H146V118H142V114Z" fill="#A69E9A" />
  <path d="M138 114H142V118H138V114Z" fill="#CBC6C1" />
  <path d="M133.992 114H137.993V118H133.992V114Z" fill="black" />
  <path d="M130 114H134V118H130V114Z" fill="#CBC6C1" />
  <path d="M126 114H130V118H126V114Z" fill="black" />
  <path d="M121.992 114H125.993V118H121.992V114Z" fill="black" />
  <path d="M117.992 114H121.993V118H117.992V114Z" fill="#A69E9A" />
  <path d="M114 114H118V118H114V114Z" fill="#A69E9A" />
  <path d="M109.992 114H113.993V118H109.992V114Z" fill="#A69E9A" />
  <path d="M105.992 114H109.993V118H105.992V114Z" fill="#A69E9A" />
  <path d="M102 114H106V118H102V114Z" fill="black" />
  <path d="M97.9922 114H101.993V118H97.9922V114Z" fill="#962A0F" />
  <path d="M93.9922 114H97.9927V118H93.9922V114Z" fill="#962A0F" />
  <path d="M90 114H94.0005V118H90V114Z" fill="#E05429" />
  <path d="M85.9922 114H89.9927V118H85.9922V114Z" fill="#E05429" />
  <path d="M81.9922 114H85.9927V118H81.9922V114Z" fill="#E05429" />
  <path d="M78 114H82.0005V118H78V114Z" fill="#E05429" />
  <path d="M74 114H78.0005V118H74V114Z" fill="#E05429" />
  <path d="M69.9922 114H73.9927V118H69.9922V114Z" fill="black" />
  <path d="M66 114H70.0005V118H66V114Z" fill="black" />
  <path d="M150 118H154V122H150V118Z" fill="black" />
  <path d="M145.992 118H149.993V122H145.992V118Z" fill="#ECEBE7" />
  <path d="M142 118H146V122H142V118Z" fill="#CBC6C1" />
  <path d="M138 118H142V122H138V118Z" fill="#A69E9A" />
  <path d="M133.992 118H137.993V122H133.992V118Z" fill="#807B7A" />
  <path d="M130 118H134V122H130V118Z" fill="black" />
  <path d="M126 118H130V122H126V118Z" fill="#A69E9A" />
  <path d="M121.992 118H125.993V122H121.992V118Z" fill="#A69E9A" />
  <path d="M117.992 118H121.993V122H117.992V118Z" fill="#A69E9A" />
  <path d="M114 118H118V122H114V118Z" fill="#A69E9A" />
  <path d="M109.992 118H113.993V122H109.992V118Z" fill="#A69E9A" />
  <path d="M105.992 118H109.993V122H105.992V118Z" fill="#A69E9A" />
  <path d="M102 118H106V122H102V118Z" fill="black" />
  <path d="M97.9922 118H101.993V122H97.9922V118Z" fill="#962A0F" />
  <path d="M93.9922 118H97.9927V122H93.9922V118Z" fill="#962A0F" />
  <path d="M90 118H94.0005V122H90V118Z" fill="#E05429" />
  <path d="M85.9922 118H89.9927V122H85.9922V118Z" fill="#E05429" />
  <path d="M81.9922 118H85.9927V122H81.9922V118Z" fill="#E05429" />
  <path d="M78 118H82.0005V122H78V118Z" fill="black" />
  <path d="M74 118H78.0005V122H74V118Z" fill="black" />
  <path d="M145.992 122H149.993V126H145.992V122Z" fill="black" />
  <path d="M142 122H146V126H142V122Z" fill="#ECEBE7" />
  <path d="M138 122H142V126H138V122Z" fill="#CBC6C1" />
  <path d="M133.992 122H137.993V126H133.992V122Z" fill="#807B7A" />
  <path d="M130 122H134V126H130V122Z" fill="black" />
  <path d="M126 122H130V126H126V122Z" fill="#A69E9A" />
  <path d="M121.992 122H125.993V126H121.992V122Z" fill="#A69E9A" />
  <path d="M117.992 122H121.993V126H117.992V122Z" fill="#A69E9A" />
  <path d="M114 122H118V126H114V122Z" fill="#A69E9A" />
  <path d="M109.992 122H113.993V126H109.992V122Z" fill="#A69E9A" />
  <path d="M105.992 122H109.993V126H105.992V122Z" fill="black" />
  <path d="M102 122H106V126H102V122Z" fill="black" />
  <path d="M97.9922 122H101.993V126H97.9922V122Z" fill="#962A0F" />
  <path d="M93.9922 122H97.9927V126H93.9922V122Z" fill="#962A0F" />
  <path d="M90 122H94.0005V126H90V122Z" fill="#E05429" />
  <path d="M85.9922 122H89.9927V126H85.9922V122Z" fill="black" />
  <path d="M81.9922 122H85.9927V126H81.9922V122Z" fill="black" />
  <path d="M142 126H146V130H142V126Z" fill="black" />
  <path d="M138 126H142V130H138V126Z" fill="#ECEBE7" />
  <path d="M133.992 126H137.993V130H133.992V126Z" fill="#807B7A" />
  <path d="M130 126H134V130H130V126Z" fill="black" />
  <path d="M126 126H130V130H126V126Z" fill="#A69E9A" />
  <path d="M121.992 126H125.993V130H121.992V126Z" fill="#A69E9A" />
  <path d="M117.992 126H121.993V130H117.992V126Z" fill="#A69E9A" />
  <path d="M114 126H118V130H114V126Z" fill="black" />
  <path d="M109.992 126H113.993V130H109.992V126Z" fill="black" />
  <path d="M105.992 126H109.993V130H105.992V126Z" fill="black" />
  <path d="M102 126H106V130H102V126Z" fill="#962A0F" />
  <path d="M97.9922 126H101.993V130H97.9922V126Z" fill="#962A0F" />
  <path d="M93.9922 126H97.9927V130H93.9922V126Z" fill="black" />
  <path d="M90 126H94.0005V130H90V126Z" fill="black" />
  <path d="M138 130H142V134H138V130Z" fill="black" />
  <path d="M133.992 130H137.993V134H133.992V130Z" fill="#807B7A" />
  <path d="M130 130H134V134H130V130Z" fill="black" />
  <path d="M126 130H130V134H126V130Z" fill="#A69E9A" />
  <path d="M121.992 130H125.993V134H121.992V130Z" fill="black" />
  <path d="M117.992 130H121.993V134H117.992V130Z" fill="black" />
  <path d="M102 130H106V134H102V130Z" fill="black" />
  <path d="M97.9922 130H101.993V134H97.9922V130Z" fill="black" />
  <path d="M133.992 134H137.993V138H133.992V134Z" fill="black" />
  <path d="M130 134H134V138H130V134Z" fill="black" />
  <path d="M126 134H130V138H126V134Z" fill="black" />
  <rect x="14" y="54" width="2" height="2" fill="#4C4D7C" />
  <rect x="16" y="54" width="2" height="2" fill="#4C4D7C" />
  <rect x="18" y="54" width="2" height="2" fill="#4C4D7C" />
  <rect x="20" y="54" width="2" height="2" fill="#4C4D7C" />
  <rect x="22" y="54" width="2" height="2" fill="#4C4D7C" />
  <rect x="24" y="54" width="2" height="2" fill="#4C4D7C" />
  <rect x="14" y="56" width="2" height="2" fill="#4C4D7C" />
  <rect x="16" y="56" width="2" height="2" fill="#4C4D7C" />
  <rect x="18" y="56" width="2" height="2" fill="#4C4D7C" />
  <rect x="20" y="56" width="2" height="2" fill="#4C4D7C" />
  <rect x="22" y="56" width="2" height="2" fill="#4C4D7C" />
  <rect x="24" y="56" width="2" height="2" fill="#4C4D7C" />
  <rect x="26" y="58" width="2" height="2" fill="#4C4D7C" />
  <rect x="28" y="58" width="2" height="2" fill="#4C4D7C" />
  <rect x="32" y="58" width="2" height="2" fill="#4C4D7C" />
  <rect x="30" y="58" width="2" height="2" fill="#4C4D7C" />
  <rect x="34" y="58" width="2" height="2" fill="#4C4D7C" />
  <rect x="36" y="58" width="2" height="2" fill="#4C4D7C" />
  <rect x="18" y="58" width="2" height="2" fill="#4C4D7C" />
  <rect x="20" y="58" width="2" height="2" fill="#4C4D7C" />
  <rect x="26" y="60" width="2" height="2" fill="#4C4D7C" />
  <rect x="28" y="60" width="2" height="2" fill="#4C4D7C" />
  <rect x="32" y="60" width="2" height="2" fill="#4C4D7C" />
  <rect x="30" y="60" width="2" height="2" fill="#4C4D7C" />
  <rect x="34" y="60" width="2" height="2" fill="#4C4D7C" />
  <rect x="36" y="60" width="2" height="2" fill="#4C4D7C" />
  <rect x="36" y="64" width="2" height="2" fill="#4C4D7C" />
  <rect x="34" y="64" width="2" height="2" fill="#4C4D7C" />
  <rect x="42" y="58" width="2" height="2" fill="#4C4D7C" />
  <rect x="44" y="58" width="2" height="2" fill="#4C4D7C" />
  <rect x="18" y="60" width="2" height="2" fill="#4C4D7C" />
  <rect x="20" y="60" width="2" height="2" fill="#4C4D7C" />
  <rect x="26" y="62" width="2" height="2" fill="#4C4D7C" />
  <rect x="28" y="62" width="2" height="2" fill="#4C4D7C" />
  <rect x="34" y="62" width="2" height="2" fill="#4C4D7C" />
  <rect x="36" y="62" width="2" height="2" fill="#4C4D7C" />
  <rect x="42" y="60" width="2" height="2" fill="#4C4D7C" />
  <rect x="44" y="60" width="2" height="2" fill="#4C4D7C" />
  <rect x="18" y="62" width="2" height="2" fill="#4C4D7C" />
  <rect x="20" y="62" width="2" height="2" fill="#4C4D7C" />
  <rect x="26" y="64" width="2" height="2" fill="#4C4D7C" />
  <rect x="28" y="64" width="2" height="2" fill="#4C4D7C" />
  <rect x="42" y="62" width="2" height="2" fill="#4C4D7C" />
  <rect x="44" y="62" width="2" height="2" fill="#4C4D7C" />
  <rect x="54" y="62" width="2" height="2" fill="#4C4D7C" />
  <rect x="56" y="62" width="2" height="2" fill="#4C4D7C" />
  <rect x="66" y="62" width="2" height="2" fill="#4C4D7C" />
  <rect x="68" y="62" width="2" height="2" fill="#4C4D7C" />
  <rect x="70" y="62" width="2" height="2" fill="#4C4D7C" />
  <rect x="72" y="62" width="2" height="2" fill="#4C4D7C" />
  <rect x="74" y="62" width="2" height="2" fill="#4C4D7C" />
  <rect x="76" y="62" width="2" height="2" fill="#4C4D7C" />
  <rect x="18" y="66" width="4" height="4" fill="#4C4D7C" />
  <rect x="18" y="64" width="2" height="2" fill="#4C4D7C" />
  <rect x="26" y="66" width="2" height="2" fill="#4C4D7C" />
  <rect x="28" y="66" width="2" height="2" fill="#4C4D7C" />
  <rect x="42" y="64" width="2" height="2" fill="#4C4D7C" />
  <rect x="44" y="64" width="2" height="2" fill="#4C4D7C" />
  <rect x="54" y="64" width="2" height="2" fill="#4C4D7C" />
  <rect x="56" y="64" width="2" height="2" fill="#4C4D7C" />
  <rect x="66" y="64" width="2" height="2" fill="#4C4D7C" />
  <rect x="68" y="64" width="2" height="2" fill="#4C4D7C" />
  <rect x="70" y="64" width="2" height="2" fill="#4C4D7C" />
  <rect x="72" y="64" width="2" height="2" fill="#4C4D7C" />
  <rect x="74" y="64" width="2" height="2" fill="#4C4D7C" />
  <rect x="76" y="64" width="2" height="2" fill="#4C4D7C" />
  <rect x="20" y="64" width="2" height="2" fill="#4C4D7C" />
  <rect x="26" y="68" width="2" height="2" fill="#4C4D7C" />
  <rect x="28" y="68" width="2" height="2" fill="#4C4D7C" />
  <rect x="30" y="66" width="4" height="4" fill="#4C4D7C" />
  <rect x="34" y="70" width="4" height="4" fill="#4C4D7C" />
  <rect x="50" y="66" width="4" height="4" fill="#4C4D7C" />
  <rect x="50" y="62" width="4" height="4" fill="#4C4D7C" />
  <rect x="50" y="58" width="4" height="4" fill="#4C4D7C" />
  <rect x="58" y="70" width="4" height="4" fill="#4C4D7C" />
  <rect x="62" y="66" width="4" height="4" fill="#4C4D7C" />
  <rect x="58" y="62" width="4" height="4" fill="#4C4D7C" />
  <rect x="62" y="58" width="4" height="4" fill="#4C4D7C" />
  <rect x="58" y="58" width="4" height="4" fill="#4C4D7C" />
  <rect x="42" y="70" width="8" height="4" fill="#4C4D7C" />
  <rect x="42" y="66" width="2" height="2" fill="#4C4D7C" />
  <rect x="44" y="66" width="2" height="2" fill="#4C4D7C" />
  <rect x="70" y="66" width="2" height="2" fill="#4C4D7C" />
  <rect x="72" y="66" width="2" height="2" fill="#4C4D7C" />
  <rect x="86" y="66" width="2" height="2" fill="#4C4D7C" />
  <rect x="88" y="66" width="2" height="2" fill="#4C4D7C" />
  <rect x="104" y="66" width="2" height="2" fill="#4C4D7C" />
  <rect x="106" y="66" width="2" height="2" fill="#4C4D7C" />
  <rect x="108" y="66" width="2" height="2" fill="#4C4D7C" />
  <rect x="112" y="66" width="2" height="2" fill="#4C4D7C" />
  <rect x="42" y="68" width="2" height="2" fill="#4C4D7C" />
  <rect x="44" y="68" width="2" height="2" fill="#4C4D7C" />
  <rect x="70" y="68" width="2" height="2" fill="#4C4D7C" />
  <rect x="72" y="68" width="2" height="2" fill="#4C4D7C" />
  <rect x="86" y="68" width="2" height="2" fill="#4C4D7C" />
  <rect x="88" y="68" width="2" height="2" fill="#4C4D7C" />
  <rect x="102" y="68" width="2" height="2" fill="#4C4D7C" />
  <rect x="104" y="68" width="2" height="2" fill="#4C4D7C" />
  <rect x="106" y="68" width="2" height="2" fill="#4C4D7C" />
  <rect x="108" y="68" width="2" height="2" fill="#4C4D7C" />
  <rect x="110" y="68" width="2" height="2" fill="#4C4D7C" />
  <rect x="112" y="68" width="2" height="2" fill="#4C4D7C" />
  <rect x="110" y="66" width="2" height="2" fill="#4C4D7C" />
  <rect x="102" y="66" width="2" height="2" fill="#4C4D7C" />
  <rect x="54" y="70" width="2" height="2" fill="#4C4D7C" />
  <rect x="56" y="70" width="2" height="2" fill="#4C4D7C" />
  <rect x="70" y="70" width="2" height="2" fill="#4C4D7C" />
  <rect x="72" y="70" width="2" height="2" fill="#4C4D7C" />
  <rect x="84" y="70" width="2" height="2" fill="#4C4D7C" />
  <rect x="82" y="70" width="2" height="2" fill="#4C4D7C" />
  <rect x="86" y="70" width="2" height="2" fill="#4C4D7C" />
  <rect x="88" y="70" width="2" height="2" fill="#4C4D7C" />
  <rect x="90" y="66" width="2" height="2" fill="#4C4D7C" />
  <rect x="92" y="66" width="2" height="2" fill="#4C4D7C" />
  <rect x="102" y="70" width="2" height="2" fill="#4C4D7C" />
  <rect x="106" y="70" width="2" height="2" fill="#4C4D7C" />
  <rect x="104" y="70" width="2" height="2" fill="#4C4D7C" />
  <rect x="108" y="70" width="2" height="2" fill="#4C4D7C" />
  <rect x="54" y="72" width="2" height="2" fill="#4C4D7C" />
  <rect x="56" y="72" width="2" height="2" fill="#4C4D7C" />
  <rect x="70" y="72" width="2" height="2" fill="#4C4D7C" />
  <rect x="72" y="72" width="2" height="2" fill="#4C4D7C" />
  <rect x="82" y="72" width="2" height="2" fill="#4C4D7C" />
  <rect x="84" y="72" width="2" height="2" fill="#4C4D7C" />
  <rect x="86" y="72" width="2" height="2" fill="#4C4D7C" />
  <rect x="88" y="72" width="2" height="2" fill="#4C4D7C" />
  <rect x="90" y="68" width="2" height="2" fill="#4C4D7C" />
  <rect x="92" y="68" width="2" height="2" fill="#4C4D7C" />
  <rect x="102" y="72" width="2" height="2" fill="#4C4D7C" />
  <rect x="106" y="72" width="2" height="2" fill="#4C4D7C" />
  <rect x="104" y="72" width="2" height="2" fill="#4C4D7C" />
  <rect x="108" y="72" width="2" height="2" fill="#4C4D7C" />
  <rect x="82" y="74" width="2" height="2" fill="#4C4D7C" />
  <rect x="82" y="76" width="2" height="2" fill="#4C4D7C" />
  <rect x="84" y="74" width="2" height="2" fill="#4C4D7C" />
  <rect x="84" y="76" width="2" height="2" fill="#4C4D7C" />
  <rect x="94" y="74" width="2" height="2" fill="#4C4D7C" />
  <rect x="94" y="70" width="2" height="2" fill="#4C4D7C" />
  <rect x="94" y="66" width="2" height="2" fill="#4C4D7C" />
  <rect x="90" y="70" width="2" height="2" fill="#4C4D7C" />
  <rect x="96" y="74" width="2" height="2" fill="#4C4D7C" />
  <rect x="96" y="70" width="2" height="2" fill="#4C4D7C" />
  <rect x="96" y="66" width="2" height="2" fill="#4C4D7C" />
  <rect x="92" y="70" width="2" height="2" fill="#4C4D7C" />
  <rect x="112" y="74" width="2" height="2" fill="#4C4D7C" />
  <rect x="102" y="74" width="2" height="2" fill="#4C4D7C" />
  <rect x="104" y="74" width="2" height="2" fill="#4C4D7C" />
  <rect x="106" y="74" width="2" height="2" fill="#4C4D7C" />
  <rect x="108" y="74" width="2" height="2" fill="#4C4D7C" />
  <rect x="110" y="74" width="2" height="2" fill="#4C4D7C" />
  <rect x="94" y="76" width="2" height="2" fill="#4C4D7C" />
  <rect x="94" y="72" width="2" height="2" fill="#4C4D7C" />
  <rect x="94" y="68" width="2" height="2" fill="#4C4D7C" />
  <rect x="90" y="72" width="2" height="2" fill="#4C4D7C" />
  <rect x="96" y="76" width="2" height="2" fill="#4C4D7C" />
  <rect x="96" y="72" width="2" height="2" fill="#4C4D7C" />
  <rect x="96" y="68" width="2" height="2" fill="#4C4D7C" />
  <rect x="92" y="72" width="2" height="2" fill="#4C4D7C" />
  <rect x="112" y="76" width="2" height="2" fill="#4C4D7C" />
  <rect x="102" y="76" width="2" height="2" fill="#4C4D7C" />
  <rect x="104" y="76" width="2" height="2" fill="#4C4D7C" />
  <rect x="106" y="76" width="2" height="2" fill="#4C4D7C" />
  <rect x="108" y="76" width="2" height="2" fill="#4C4D7C" />
  <rect x="110" y="76" width="2" height="2" fill="#4C4D7C" />
</svg>
