<svg viewBox="0 0 168 168" fill="none" xmlns="http://www.w3.org/2000/svg">
  <path d="M126.008 29.9995H122.008V34H126.008V29.9995Z" fill="black" />
  <path d="M130 29.9995H126V34H130V29.9995Z" fill="black" />
  <path d="M134.008 29.9995H130.008V34H134.008V29.9995Z" fill="black" />
  <path d="M138.008 29.9995H134.008V34H138.008V29.9995Z" fill="black" />
  <path d="M142 29.9995H138V34H142V29.9995Z" fill="black" />
  <path d="M118 33.9995H114V38H118V33.9995Z" fill="black" />
  <path d="M122.008 33.9995H118.008V38H122.008V33.9995Z" fill="black" />
  <path d="M126.008 33.9995H122.008V38H126.008V33.9995Z" fill="#595757" />
  <path d="M130 33.9995H126V38H130V33.9995Z" fill="#595757" />
  <path d="M134.008 33.9995H130.008V38H134.008V33.9995Z" fill="#595757" />
  <path d="M138.008 33.9995H134.008V38H138.008V33.9995Z" fill="#595757" />
  <path d="M142 33.9995H138V38H142V33.9995Z" fill="#595757" />
  <path d="M146.008 33.9995H142.008V38H146.008V33.9995Z" fill="black" />
  <path d="M106 37.9995H102V42H106V37.9995Z" fill="black" />
  <path d="M110.008 37.9995H106.008V42H110.008V37.9995Z" fill="black" />
  <path d="M114.008 37.9995H110.008V42H114.008V37.9995Z" fill="black" />
  <path d="M118 37.9995H114V42H118V37.9995Z" fill="#595757" />
  <path d="M122.008 37.9995H118.008V42H122.008V37.9995Z" fill="#595757" />
  <path d="M126.008 37.9995H122.008V42H126.008V37.9995Z" fill="#595757" />
  <path d="M130 37.9995H126V42H130V37.9995Z" fill="#595757" />
  <path d="M134.008 37.9995H130.008V42H134.008V37.9995Z" fill="#595757" />
  <path d="M138.008 37.9995H134.008V42H138.008V37.9995Z" fill="#595757" />
  <path d="M142 37.9995H138V42H142V37.9995Z" fill="#595757" />
  <path d="M146.008 37.9995H142.008V42H146.008V37.9995Z" fill="#595757" />
  <path d="M150.008 37.9995H146.008V42H150.008V37.9995Z" fill="black" />
  <path d="M98.0083 41.9995H94.0078V46H98.0083V41.9995Z" fill="black" />
  <path d="M102 41.9995H98V46H102V41.9995Z" fill="black" />
  <path d="M106 41.9995H102V46H106V41.9995Z" fill="#595757" />
  <path d="M110.008 41.9995H106.008V46H110.008V41.9995Z" fill="#595757" />
  <path d="M114.008 41.9995H110.008V46H114.008V41.9995Z" fill="#595757" />
  <path d="M118 41.9995H114V46H118V41.9995Z" fill="#595757" />
  <path d="M122.008 41.9995H118.008V46H122.008V41.9995Z" fill="#595757" />
  <path d="M126.008 41.9995H122.008V46H126.008V41.9995Z" fill="#595757" />
  <path d="M130 41.9995H126V46H130V41.9995Z" fill="#595757" />
  <path d="M134.008 41.9995H130.008V46H134.008V41.9995Z" fill="#595757" />
  <path d="M138.008 41.9995H134.008V46H138.008V41.9995Z" fill="#595757" />
  <path d="M142 41.9995H138V46H142V41.9995Z" fill="#595757" />
  <path d="M146.008 41.9995H142.008V46H146.008V41.9995Z" fill="#595757" />
  <path d="M150.008 41.9995H146.008V46H150.008V41.9995Z" fill="#595757" />
  <path d="M154 41.9995H150V46H154V41.9995Z" fill="black" />
  <path d="M86.0083 45.9995H82.0078V50H86.0083V45.9995Z" fill="black" />
  <path d="M90.0005 45.9995H86V50H90.0005V45.9995Z" fill="black" />
  <path d="M94.0005 45.9995H90V50H94.0005V45.9995Z" fill="black" />
  <path d="M98.0083 45.9995H94.0078V50H98.0083V45.9995Z" fill="#595757" />
  <path d="M102 45.9995H98V50H102V45.9995Z" fill="#595757" />
  <path d="M106 45.9995H102V50H106V45.9995Z" fill="#595757" />
  <path d="M110.008 45.9995H106.008V50H110.008V45.9995Z" fill="#595757" />
  <path d="M114.008 45.9995H110.008V50H114.008V45.9995Z" fill="#595757" />
  <path d="M118 45.9995H114V50H118V45.9995Z" fill="#595757" />
  <path d="M122.008 45.9995H118.008V50H122.008V45.9995Z" fill="#595757" />
  <path d="M126.008 45.9995H122.008V50H126.008V45.9995Z" fill="#595757" />
  <path d="M130 45.9995H126V50H130V45.9995Z" fill="#595757" />
  <path d="M134.008 45.9995H130.008V50H134.008V45.9995Z" fill="#595757" />
  <path d="M138.008 45.9995H134.008V50H138.008V45.9995Z" fill="#595757" />
  <path d="M142 45.9995H138V50H142V45.9995Z" fill="#595757" />
  <path d="M146.008 45.9995H142.008V50H146.008V45.9995Z" fill="#595757" />
  <path d="M150.008 45.9995H146.008V50H150.008V45.9995Z" fill="#595757" />
  <path d="M154 45.9995H150V50H154V45.9995Z" fill="#595757" />
  <path d="M158.008 45.9995H154.008V50H158.008V45.9995Z" fill="black" />
  <path d="M78.0005 49.9995H74V54H78.0005V49.9995Z" fill="black" />
  <path d="M82.0083 49.9995H78.0078V54H82.0083V49.9995Z" fill="black" />
  <path d="M86.0083 49.9995H82.0078V54H86.0083V49.9995Z" fill="#595757" />
  <path d="M90.0005 49.9995H86V54H90.0005V49.9995Z" fill="#595757" />
  <path d="M94.0005 49.9995H90V54H94.0005V49.9995Z" fill="#595757" />
  <path d="M98.0083 49.9995H94.0078V54H98.0083V49.9995Z" fill="#595757" />
  <path d="M102 49.9995H98V54H102V49.9995Z" fill="#595757" />
  <path d="M106 49.9995H102V54H106V49.9995Z" fill="#595757" />
  <path d="M110.008 49.9995H106.008V54H110.008V49.9995Z" fill="#595757" />
  <path d="M114.008 49.9995H110.008V54H114.008V49.9995Z" fill="#595757" />
  <path d="M118 49.9995H114V54H118V49.9995Z" fill="#595757" />
  <path d="M122.008 49.9995H118.008V54H122.008V49.9995Z" fill="#595757" />
  <path d="M126.008 49.9995H122.008V54H126.008V49.9995Z" fill="#595757" />
  <path d="M130 49.9995H126V54H130V49.9995Z" fill="#595757" />
  <path d="M134.008 49.9995H130.008V54H134.008V49.9995Z" fill="#595757" />
  <path d="M138.008 49.9995H134.008V54H138.008V49.9995Z" fill="#595757" />
  <path d="M142 49.9995H138V54H142V49.9995Z" fill="#595757" />
  <path d="M146.008 49.9995H142.008V54H146.008V49.9995Z" fill="#595757" />
  <path d="M150.008 49.9995H146.008V54H150.008V49.9995Z" fill="#595757" />
  <path d="M154 49.9995H150V54H154V49.9995Z" fill="#595757" />
  <path d="M158.008 49.9995H154.008V54H158.008V49.9995Z" fill="#595757" />
  <path d="M162.008 49.9995H158.008V54H162.008V49.9995Z" fill="black" />
  <path d="M70.0083 53.9995H66.0078V58H70.0083V53.9995Z" fill="black" />
  <path d="M74.0083 53.9995H70.0078V58H74.0083V53.9995Z" fill="black" />
  <path d="M78.0005 53.9995H74V58H78.0005V53.9995Z" fill="#595757" />
  <path d="M82.0083 53.9995H78.0078V58H82.0083V53.9995Z" fill="#595757" />
  <path d="M86.0083 53.9995H82.0078V58H86.0083V53.9995Z" fill="#595757" />
  <path d="M90.0005 53.9995H86V58H90.0005V53.9995Z" fill="#595757" />
  <path d="M94.0005 53.9995H90V58H94.0005V53.9995Z" fill="#474646" />
  <path d="M98.0083 53.9995H94.0078V58H98.0083V53.9995Z" fill="#474646" />
  <path d="M102 53.9995H98V58H102V53.9995Z" fill="#595757" />
  <path d="M106 53.9995H102V58H106V53.9995Z" fill="#595757" />
  <path d="M110.008 53.9995H106.008V58H110.008V53.9995Z" fill="#595757" />
  <path d="M114.008 53.9995H110.008V58H114.008V53.9995Z" fill="#474646" />
  <path d="M118 53.9995H114V58H118V53.9995Z" fill="#474646" />
  <path d="M122.008 53.9995H118.008V58H122.008V53.9995Z" fill="#474646" />
  <path d="M126.008 53.9995H122.008V58H126.008V53.9995Z" fill="#595757" />
  <path d="M130 53.9995H126V58H130V53.9995Z" fill="#595757" />
  <path d="M134.008 53.9995H130.008V58H134.008V53.9995Z" fill="#595757" />
  <path d="M138.008 53.9995H134.008V58H138.008V53.9995Z" fill="#595757" />
  <path d="M142 53.9995H138V58H142V53.9995Z" fill="#595757" />
  <path d="M146.008 53.9995H142.008V58H146.008V53.9995Z" fill="#595757" />
  <path d="M150.008 53.9995H146.008V58H150.008V53.9995Z" fill="#595757" />
  <path d="M154 53.9995H150V58H154V53.9995Z" fill="#595757" />
  <path d="M158.008 53.9995H154.008V58H158.008V53.9995Z" fill="#595757" />
  <path d="M162.008 53.9995H158.008V58H162.008V53.9995Z" fill="#595757" />
  <path d="M166 53.9995H162V58H166V53.9995Z" fill="black" />
  <path d="M62.0083 57.9995H58.0078V62H62.0083V57.9995Z" fill="black" />
  <path d="M66.0005 57.9995H62V62H66.0005V57.9995Z" fill="black" />
  <path d="M70.0083 57.9995H66.0078V62H70.0083V57.9995Z" fill="#595757" />
  <path d="M74.0083 57.9995H70.0078V62H74.0083V57.9995Z" fill="#595757" />
  <path d="M78.0005 57.9995H74V62H78.0005V57.9995Z" fill="#595757" />
  <path d="M82.0083 57.9995H78.0078V62H82.0083V57.9995Z" fill="#595757" />
  <path d="M86.0083 57.9995H82.0078V62H86.0083V57.9995Z" fill="#474646" />
  <path d="M90.0005 57.9995H86V62H90.0005V57.9995Z" fill="#474646" />
  <path d="M94.0005 57.9995H90V62H94.0005V57.9995Z" fill="#474646" />
  <path d="M98.0083 57.9995H94.0078V62H98.0083V57.9995Z" fill="#595757" />
  <path d="M102 57.9995H98V62H102V57.9995Z" fill="#595757" />
  <path d="M106 57.9995H102V62H106V57.9995Z" fill="#595757" />
  <path d="M110.008 57.9995H106.008V62H110.008V57.9995Z" fill="#474646" />
  <path d="M114.008 57.9995H110.008V62H114.008V57.9995Z" fill="#474646" />
  <path d="M118 57.9995H114V62H118V57.9995Z" fill="#474646" />
  <path d="M122.008 57.9995H118.008V62H122.008V57.9995Z" fill="#595757" />
  <path d="M126.008 57.9995H122.008V62H126.008V57.9995Z" fill="#595757" />
  <path d="M130 57.9995H126V62H130V57.9995Z" fill="#595757" />
  <path d="M134.008 57.9995H130.008V62H134.008V57.9995Z" fill="#595757" />
  <path d="M138.008 57.9995H134.008V62H138.008V57.9995Z" fill="#595757" />
  <path d="M142 57.9995H138V62H142V57.9995Z" fill="#595757" />
  <path d="M146.008 57.9995H142.008V62H146.008V57.9995Z" fill="#595757" />
  <path d="M150.008 57.9995H146.008V62H150.008V57.9995Z" fill="#595757" />
  <path d="M154 57.9995H150V62H154V57.9995Z" fill="#595757" />
  <path d="M158.008 57.9995H154.008V62H158.008V57.9995Z" fill="#595757" />
  <path d="M162.008 57.9995H158.008V62H162.008V57.9995Z" fill="#595757" />
  <path d="M166 57.9995H162V62H166V57.9995Z" fill="black" />
  <path d="M50.0083 61.9995H46.0078V66H50.0083V61.9995Z" fill="black" />
  <path d="M54.0005 61.9995H50V66H54.0005V61.9995Z" fill="black" />
  <path d="M58.0083 61.9995H54.0078V66H58.0083V61.9995Z" fill="black" />
  <path d="M62.0083 61.9995H58.0078V66H62.0083V61.9995Z" fill="#595757" />
  <path d="M66.0005 61.9995H62V66H66.0005V61.9995Z" fill="#595757" />
  <path d="M70.0083 61.9995H66.0078V66H70.0083V61.9995Z" fill="#595757" />
  <path d="M74.0083 61.9995H70.0078V66H74.0083V61.9995Z" fill="#595757" />
  <path d="M78.0005 61.9995H74V66H78.0005V61.9995Z" fill="#595757" />
  <path d="M82.0083 61.9995H78.0078V66H82.0083V61.9995Z" fill="#474646" />
  <path d="M86.0083 61.9995H82.0078V66H86.0083V61.9995Z" fill="#595757" />
  <path d="M90.0005 61.9995H86V66H90.0005V61.9995Z" fill="#595757" />
  <path d="M94.0005 61.9995H90V66H94.0005V61.9995Z" fill="#595757" />
  <path d="M98.0083 61.9995H94.0078V66H98.0083V61.9995Z" fill="#595757" />
  <path d="M102 61.9995H98V66H102V61.9995Z" fill="#474646" />
  <path d="M106 61.9995H102V66H106V61.9995Z" fill="#474646" />
  <path d="M110.008 61.9995H106.008V66H110.008V61.9995Z" fill="#595757" />
  <path d="M114.008 61.9995H110.008V66H114.008V61.9995Z" fill="#595757" />
  <path d="M118 61.9995H114V66H118V61.9995Z" fill="#595757" />
  <path d="M122.008 61.9995H118.008V66H122.008V61.9995Z" fill="#595757" />
  <path d="M126.008 61.9995H122.008V66H126.008V61.9995Z" fill="#595757" />
  <path d="M130 61.9995H126V66H130V61.9995Z" fill="#595757" />
  <path d="M134.008 61.9995H130.008V66H134.008V61.9995Z" fill="#595757" />
  <path d="M138.008 61.9995H134.008V66H138.008V61.9995Z" fill="#595757" />
  <path d="M142 61.9995H138V66H142V61.9995Z" fill="#595757" />
  <path d="M146.008 61.9995H142.008V66H146.008V61.9995Z" fill="#595757" />
  <path d="M150.008 61.9995H146.008V66H150.008V61.9995Z" fill="#595757" />
  <path d="M154 61.9995H150V66H154V61.9995Z" fill="#595757" />
  <path d="M158.008 61.9995H154.008V66H158.008V61.9995Z" fill="#595757" />
  <path d="M162.008 61.9995H158.008V66H162.008V61.9995Z" fill="#6D6D6D" />
  <path d="M166 61.9995H162V66H166V61.9995Z" fill="black" />
  <path d="M42.0005 65.9995H38V70H42.0005V65.9995Z" fill="black" />
  <path d="M46.0083 65.9995H42.0078V70H46.0083V65.9995Z" fill="black" />
  <path d="M50.0083 65.9995H46.0078V70H50.0083V65.9995Z" fill="#595757" />
  <path d="M54.0005 65.9995H50V70H54.0005V65.9995Z" fill="#595757" />
  <path d="M58.0083 65.9995H54.0078V70H58.0083V65.9995Z" fill="#595757" />
  <path d="M62.0083 65.9995H58.0078V70H62.0083V65.9995Z" fill="#595757" />
  <path d="M66.0005 65.9995H62V70H66.0005V65.9995Z" fill="#595757" />
  <path d="M70.0083 65.9995H66.0078V70H70.0083V65.9995Z" fill="#595757" />
  <path d="M74.0083 65.9995H70.0078V70H74.0083V65.9995Z" fill="#595757" />
  <path d="M78.0005 65.9995H74V70H78.0005V65.9995Z" fill="#595757" />
  <path d="M82.0083 65.9995H78.0078V70H82.0083V65.9995Z" fill="#474646" />
  <path d="M86.0083 65.9995H82.0078V70H86.0083V65.9995Z" fill="#595757" />
  <path d="M90.0005 65.9995H86V70H90.0005V65.9995Z" fill="#474646" />
  <path d="M94.0005 65.9995H90V70H94.0005V65.9995Z" fill="#474646" />
  <path d="M98.0083 65.9995H94.0078V70H98.0083V65.9995Z" fill="#474646" />
  <path d="M102 65.9995H98V70H102V65.9995Z" fill="#595757" />
  <path d="M106 65.9995H102V70H106V65.9995Z" fill="#595757" />
  <path d="M110.008 65.9995H106.008V70H110.008V65.9995Z" fill="#595757" />
  <path d="M114.008 65.9995H110.008V70H114.008V65.9995Z" fill="#595757" />
  <path d="M118 65.9995H114V70H118V65.9995Z" fill="#474646" />
  <path d="M122.008 65.9995H118.008V70H122.008V65.9995Z" fill="#474646" />
  <path d="M126.008 65.9995H122.008V70H126.008V65.9995Z" fill="#595757" />
  <path d="M130 65.9995H126V70H130V65.9995Z" fill="#595757" />
  <path d="M134.008 65.9995H130.008V70H134.008V65.9995Z" fill="#595757" />
  <path d="M138.008 65.9995H134.008V70H138.008V65.9995Z" fill="#595757" />
  <path d="M142 65.9995H138V70H142V65.9995Z" fill="#595757" />
  <path d="M146.008 65.9995H142.008V70H146.008V65.9995Z" fill="#595757" />
  <path d="M150.008 65.9995H146.008V70H150.008V65.9995Z" fill="#595757" />
  <path d="M154 65.9995H150V70H154V65.9995Z" fill="#6D6D6D" />
  <path d="M158.008 65.9995H154.008V70H158.008V65.9995Z" fill="#6D6D6D" />
  <path d="M162.008 65.9995H158.008V70H162.008V65.9995Z" fill="#595757" />
  <path d="M166 65.9995H162V70H166V65.9995Z" fill="black" />
  <path d="M34.0083 69.9995H30.0078V74H34.0083V69.9995Z" fill="black" />
  <path d="M38.0005 69.9995H34V74H38.0005V69.9995Z" fill="black" />
  <path d="M42.0005 69.9995H38V74H42.0005V69.9995Z" fill="#6D6D6D" />
  <path d="M46.0083 69.9995H42.0078V74H46.0083V69.9995Z" fill="#595757" />
  <path d="M50.0083 69.9995H46.0078V74H50.0083V69.9995Z" fill="#595757" />
  <path d="M54.0005 69.9995H50V74H54.0005V69.9995Z" fill="#595757" />
  <path d="M58.0083 69.9995H54.0078V74H58.0083V69.9995Z" fill="#595757" />
  <path d="M62.0083 69.9995H58.0078V74H62.0083V69.9995Z" fill="#595757" />
  <path d="M66.0005 69.9995H62V74H66.0005V69.9995Z" fill="#595757" />
  <path d="M70.0083 69.9995H66.0078V74H70.0083V69.9995Z" fill="#595757" />
  <path d="M74.0083 69.9995H70.0078V74H74.0083V69.9995Z" fill="#595757" />
  <path d="M78.0005 69.9995H74V74H78.0005V69.9995Z" fill="#595757" />
  <path d="M82.0083 69.9995H78.0078V74H82.0083V69.9995Z" fill="#474646" />
  <path d="M86.0083 69.9995H82.0078V74H86.0083V69.9995Z" fill="#474646" />
  <path d="M90.0005 69.9995H86V74H90.0005V69.9995Z" fill="#595757" />
  <path d="M94.0005 69.9995H90V74H94.0005V69.9995Z" fill="#595757" />
  <path d="M98.0083 69.9995H94.0078V74H98.0083V69.9995Z" fill="#474646" />
  <path d="M102 69.9995H98V74H102V69.9995Z" fill="#474646" />
  <path d="M106 69.9995H102V74H106V69.9995Z" fill="#595757" />
  <path d="M110.008 69.9995H106.008V74H110.008V69.9995Z" fill="#474646" />
  <path d="M114.008 69.9995H110.008V74H114.008V69.9995Z" fill="#474646" />
  <path d="M118 69.9995H114V74H118V69.9995Z" fill="#474646" />
  <path d="M122.008 69.9995H118.008V74H122.008V69.9995Z" fill="#474646" />
  <path d="M126.008 69.9995H122.008V74H126.008V69.9995Z" fill="#595757" />
  <path d="M130 69.9995H126V74H130V69.9995Z" fill="#595757" />
  <path d="M134.008 69.9995H130.008V74H134.008V69.9995Z" fill="#595757" />
  <path d="M138.008 69.9995H134.008V74H138.008V69.9995Z" fill="#595757" />
  <path d="M142 69.9995H138V74H142V69.9995Z" fill="#595757" />
  <path d="M146.008 69.9995H142.008V74H146.008V69.9995Z" fill="#6D6D6D" />
  <path d="M150.008 69.9995H146.008V74H150.008V69.9995Z" fill="#6D6D6D" />
  <path d="M154 69.9995H150V74H154V69.9995Z" fill="#595757" />
  <path d="M158.008 69.9995H154.008V74H158.008V69.9995Z" fill="#595757" />
  <path d="M162.008 69.9995H158.008V74H162.008V69.9995Z" fill="#595757" />
  <path d="M166 69.9995H162V74H166V69.9995Z" fill="black" />
  <path d="M34.0083 73.9995H30.0078V78H34.0083V73.9995Z" fill="black" />
  <path d="M38.0005 73.9995H34V78H38.0005V73.9995Z" fill="#474646" />
  <path d="M42.0005 73.9995H38V78H42.0005V73.9995Z" fill="#474646" />
  <path d="M46.0083 73.9995H42.0078V78H46.0083V73.9995Z" fill="#6D6D6D" />
  <path d="M50.0083 73.9995H46.0078V78H50.0083V73.9995Z" fill="#595757" />
  <path d="M54.0005 73.9995H50V78H54.0005V73.9995Z" fill="#595757" />
  <path d="M58.0083 73.9995H54.0078V78H58.0083V73.9995Z" fill="#595757" />
  <path d="M62.0083 73.9995H58.0078V78H62.0083V73.9995Z" fill="#595757" />
  <path d="M66.0005 73.9995H62V78H66.0005V73.9995Z" fill="#595757" />
  <path d="M70.0083 73.9995H66.0078V78H70.0083V73.9995Z" fill="#595757" />
  <path d="M74.0083 73.9995H70.0078V78H74.0083V73.9995Z" fill="#474646" />
  <path d="M78.0005 73.9995H74V78H78.0005V73.9995Z" fill="#474646" />
  <path d="M82.0083 73.9995H78.0078V78H82.0083V73.9995Z" fill="#595757" />
  <path d="M86.0083 73.9995H82.0078V78H86.0083V73.9995Z" fill="#595757" />
  <path d="M90.0005 73.9995H86V78H90.0005V73.9995Z" fill="#595757" />
  <path d="M94.0005 73.9995H90V78H94.0005V73.9995Z" fill="#595757" />
  <path d="M98.0083 73.9995H94.0078V78H98.0083V73.9995Z" fill="#595757" />
  <path d="M102 73.9995H98V78H102V73.9995Z" fill="#595757" />
  <path d="M106 73.9995H102V78H106V73.9995Z" fill="#474646" />
  <path d="M110.008 73.9995H106.008V78H110.008V73.9995Z" fill="#595757" />
  <path d="M114.008 73.9995H110.008V78H114.008V73.9995Z" fill="#595757" />
  <path d="M118 73.9995H114V78H118V73.9995Z" fill="#595757" />
  <path d="M122.008 73.9995H118.008V78H122.008V73.9995Z" fill="#595757" />
  <path d="M126.008 73.9995H122.008V78H126.008V73.9995Z" fill="#595757" />
  <path d="M130 73.9995H126V78H130V73.9995Z" fill="#595757" />
  <path d="M134.008 73.9995H130.008V78H134.008V73.9995Z" fill="#595757" />
  <path d="M138.008 73.9995H134.008V78H138.008V73.9995Z" fill="#6D6D6D" />
  <path d="M142 73.9995H138V78H142V73.9995Z" fill="#6D6D6D" />
  <path d="M146.008 73.9995H142.008V78H146.008V73.9995Z" fill="#595757" />
  <path d="M150.008 73.9995H146.008V78H150.008V73.9995Z" fill="#595757" />
  <path d="M154 73.9995H150V78H154V73.9995Z" fill="#595757" />
  <path d="M158.008 73.9995H154.008V78H158.008V73.9995Z" fill="#595757" />
  <path d="M162.008 73.9995H158.008V78H162.008V73.9995Z" fill="#595757" />
  <path d="M166 73.9995H162V78H166V73.9995Z" fill="black" />
  <path d="M30.0005 77.9995H26V82H30.0005V77.9995Z" fill="black" />
  <path d="M34.0083 77.9995H30.0078V82H34.0083V77.9995Z" fill="black" />
  <path d="M38.0005 77.9995H34V82H38.0005V77.9995Z" fill="black" />
  <path d="M42.0005 77.9995H38V82H42.0005V77.9995Z" fill="black" />
  <path d="M46.0083 77.9995H42.0078V82H46.0083V77.9995Z" fill="#474646" />
  <path d="M50.0083 77.9995H46.0078V82H50.0083V77.9995Z" fill="#6D6D6D" />
  <path d="M54.0005 77.9995H50V82H54.0005V77.9995Z" fill="#595757" />
  <path d="M58.0083 77.9995H54.0078V82H58.0083V77.9995Z" fill="#595757" />
  <path d="M62.0083 77.9995H58.0078V82H62.0083V77.9995Z" fill="#595757" />
  <path d="M66.0005 77.9995H62V82H66.0005V77.9995Z" fill="#595757" />
  <path d="M70.0083 77.9995H66.0078V82H70.0083V77.9995Z" fill="#595757" />
  <path d="M74.0083 77.9995H70.0078V82H74.0083V77.9995Z" fill="#474646" />
  <path d="M78.0005 77.9995H74V82H78.0005V77.9995Z" fill="#474646" />
  <path d="M82.0083 77.9995H78.0078V82H82.0083V77.9995Z" fill="#595757" />
  <path d="M86.0083 77.9995H82.0078V82H86.0083V77.9995Z" fill="#595757" />
  <path d="M90.0005 77.9995H86V82H90.0005V77.9995Z" fill="#595757" />
  <path d="M94.0005 77.9995H90V82H94.0005V77.9995Z" fill="#595757" />
  <path d="M98.0083 77.9995H94.0078V82H98.0083V77.9995Z" fill="#595757" />
  <path d="M102 77.9995H98V82H102V77.9995Z" fill="#595757" />
  <path d="M106 77.9995H102V82H106V77.9995Z" fill="#595757" />
  <path d="M110.008 77.9995H106.008V82H110.008V77.9995Z" fill="#595757" />
  <path d="M114.008 77.9995H110.008V82H114.008V77.9995Z" fill="#595757" />
  <path d="M118 77.9995H114V82H118V77.9995Z" fill="#595757" />
  <path d="M122.008 77.9995H118.008V82H122.008V77.9995Z" fill="#595757" />
  <path d="M126.008 77.9995H122.008V82H126.008V77.9995Z" fill="#595757" />
  <path d="M130 77.9995H126V82H130V77.9995Z" fill="#6D6D6D" />
  <path d="M134.008 77.9995H130.008V82H134.008V77.9995Z" fill="#6D6D6D" />
  <path d="M138.008 77.9995H134.008V82H138.008V77.9995Z" fill="#595757" />
  <path d="M142 77.9995H138V82H142V77.9995Z" fill="#595757" />
  <path d="M146.008 77.9995H142.008V82H146.008V77.9995Z" fill="#595757" />
  <path d="M150.008 77.9995H146.008V82H150.008V77.9995Z" fill="#595757" />
  <path d="M154 77.9995H150V82H154V77.9995Z" fill="#595757" />
  <path d="M158.008 77.9995H154.008V82H158.008V77.9995Z" fill="#595757" />
  <path d="M162.008 77.9995H158.008V82H162.008V77.9995Z" fill="#595757" />
  <path d="M166 77.9995H162V82H166V77.9995Z" fill="black" />
  <path d="M22.0083 81.9995H18.0078V86H22.0083V81.9995Z" fill="black" />
  <path d="M26.0005 81.9995H22V86H26.0005V81.9995Z" fill="black" />
  <path d="M30.0005 81.9995H26V86H30.0005V81.9995Z" fill="#CBC6C1" />
  <path d="M34.0083 81.9995H30.0078V86H34.0083V81.9995Z" fill="#CBC6C1" />
  <path d="M38.0005 81.9995H34V86H38.0005V81.9995Z" fill="#CBC6C1" />
  <path d="M42.0005 81.9995H38V86H42.0005V81.9995Z" fill="#CBC6C1" />
  <path d="M46.0083 81.9995H42.0078V86H46.0083V81.9995Z" fill="black" />
  <path d="M50.0083 81.9995H46.0078V86H50.0083V81.9995Z" fill="#474646" />
  <path d="M54.0005 81.9995H50V86H54.0005V81.9995Z" fill="#6D6D6D" />
  <path d="M58.0083 81.9995H54.0078V86H58.0083V81.9995Z" fill="#595757" />
  <path d="M62.0083 81.9995H58.0078V86H62.0083V81.9995Z" fill="#595757" />
  <path d="M66.0005 81.9995H62V86H66.0005V81.9995Z" fill="#595757" />
  <path d="M70.0083 81.9995H66.0078V86H70.0083V81.9995Z" fill="#595757" />
  <path d="M74.0083 81.9995H70.0078V86H74.0083V81.9995Z" fill="#595757" />
  <path d="M78.0005 81.9995H74V86H78.0005V81.9995Z" fill="#595757" />
  <path d="M82.0083 81.9995H78.0078V86H82.0083V81.9995Z" fill="#595757" />
  <path d="M86.0083 81.9995H82.0078V86H86.0083V81.9995Z" fill="#595757" />
  <path d="M90.0005 81.9995H86V86H90.0005V81.9995Z" fill="#595757" />
  <path d="M94.0005 81.9995H90V86H94.0005V81.9995Z" fill="#595757" />
  <path d="M98.0083 81.9995H94.0078V86H98.0083V81.9995Z" fill="#595757" />
  <path d="M102 81.9995H98V86H102V81.9995Z" fill="#595757" />
  <path d="M106 81.9995H102V86H106V81.9995Z" fill="#595757" />
  <path d="M110.008 81.9995H106.008V86H110.008V81.9995Z" fill="#595757" />
  <path d="M114.008 81.9995H110.008V86H114.008V81.9995Z" fill="#595757" />
  <path d="M118 81.9995H114V86H118V81.9995Z" fill="#6D6D6D" />
  <path d="M122.008 81.9995H118.008V86H122.008V81.9995Z" fill="#6D6D6D" />
  <path d="M126.008 81.9995H122.008V86H126.008V81.9995Z" fill="#6D6D6D" />
  <path d="M130 81.9995H126V86H130V81.9995Z" fill="#595757" />
  <path d="M134.008 81.9995H130.008V86H134.008V81.9995Z" fill="#595757" />
  <path d="M138.008 81.9995H134.008V86H138.008V81.9995Z" fill="#595757" />
  <path d="M142 81.9995H138V86H142V81.9995Z" fill="#595757" />
  <path d="M146.008 81.9995H142.008V86H146.008V81.9995Z" fill="#595757" />
  <path d="M150.008 81.9995H146.008V86H150.008V81.9995Z" fill="#595757" />
  <path d="M154 81.9995H150V86H154V81.9995Z" fill="#595757" />
  <path d="M158.008 81.9995H154.008V86H158.008V81.9995Z" fill="#595757" />
  <path d="M162.008 81.9995H158.008V86H162.008V81.9995Z" fill="black" />
  <path d="M14.0005 85.9995H10V90H14.0005V85.9995Z" fill="black" />
  <path d="M18.0005 85.9995H14V90H18.0005V85.9995Z" fill="black" />
  <path d="M22.0083 85.9995H18.0078V90H22.0083V85.9995Z" fill="#CBC6C1" />
  <path d="M26.0005 85.9995H22V90H26.0005V85.9995Z" fill="#CBC6C1" />
  <path d="M30.0005 85.9995H26V90H30.0005V85.9995Z" fill="#CBC6C1" />
  <path d="M34.0083 85.9995H30.0078V90H34.0083V85.9995Z" fill="#CBC6C1" />
  <path d="M38.0005 85.9995H34V90H38.0005V85.9995Z" fill="#CBC6C1" />
  <path d="M42.0005 85.9995H38V90H42.0005V85.9995Z" fill="#CBC6C1" />
  <path d="M46.0083 85.9995H42.0078V90H46.0083V85.9995Z" fill="#CBC6C1" />
  <path d="M50.0083 85.9995H46.0078V90H50.0083V85.9995Z" fill="black" />
  <path d="M54.0005 85.9995H50V90H54.0005V85.9995Z" fill="#474646" />
  <path d="M58.0083 85.9995H54.0078V90H58.0083V85.9995Z" fill="#6D6D6D" />
  <path d="M62.0083 85.9995H58.0078V90H62.0083V85.9995Z" fill="#595757" />
  <path d="M66.0005 85.9995H62V90H66.0005V85.9995Z" fill="#595757" />
  <path d="M70.0083 85.9995H66.0078V90H70.0083V85.9995Z" fill="#595757" />
  <path d="M74.0083 85.9995H70.0078V90H74.0083V85.9995Z" fill="#595757" />
  <path d="M78.0005 85.9995H74V90H78.0005V85.9995Z" fill="#595757" />
  <path d="M82.0083 85.9995H78.0078V90H82.0083V85.9995Z" fill="#595757" />
  <path d="M86.0083 85.9995H82.0078V90H86.0083V85.9995Z" fill="#595757" />
  <path d="M90.0005 85.9995H86V90H90.0005V85.9995Z" fill="#595757" />
  <path d="M94.0005 85.9995H90V90H94.0005V85.9995Z" fill="#595757" />
  <path d="M98.0083 85.9995H94.0078V90H98.0083V85.9995Z" fill="#595757" />
  <path d="M102 85.9995H98V90H102V85.9995Z" fill="#595757" />
  <path d="M106 85.9995H102V90H106V85.9995Z" fill="#595757" />
  <path d="M110.008 85.9995H106.008V90H110.008V85.9995Z" fill="#6D6D6D" />
  <path d="M114.008 85.9995H110.008V90H114.008V85.9995Z" fill="#6D6D6D" />
  <path d="M118 85.9995H114V90H118V85.9995Z" fill="#595757" />
  <path d="M122.008 85.9995H118.008V90H122.008V85.9995Z" fill="#595757" />
  <path d="M126.008 85.9995H122.008V90H126.008V85.9995Z" fill="#595757" />
  <path d="M130 85.9995H126V90H130V85.9995Z" fill="#595757" />
  <path d="M134.008 85.9995H130.008V90H134.008V85.9995Z" fill="#595757" />
  <path d="M138.008 85.9995H134.008V90H138.008V85.9995Z" fill="#595757" />
  <path d="M142 85.9995H138V90H142V85.9995Z" fill="#595757" />
  <path d="M146.008 85.9995H142.008V90H146.008V85.9995Z" fill="#595757" />
  <path d="M150.008 85.9995H146.008V90H150.008V85.9995Z" fill="#595757" />
  <path d="M154 85.9995H150V90H154V85.9995Z" fill="black" />
  <path d="M158.008 85.9995H154.008V90H158.008V85.9995Z" fill="black" />
  <path d="M6.00046 89.9995H2V94H6.00046V89.9995Z" fill="black" />
  <path d="M10.0083 89.9995H6.00781V94H10.0083V89.9995Z" fill="black" />
  <path d="M14.0005 89.9995H10V94H14.0005V89.9995Z" fill="#CBC6C1" />
  <path d="M18.0005 89.9995H14V94H18.0005V89.9995Z" fill="#CBC6C1" />
  <path d="M22.0083 89.9995H18.0078V94H22.0083V89.9995Z" fill="#CBC6C1" />
  <path d="M26.0005 89.9995H22V94H26.0005V89.9995Z" fill="#CBC6C1" />
  <path d="M30.0005 89.9995H26V94H30.0005V89.9995Z" fill="#CBC6C1" />
  <path d="M34.0083 89.9995H30.0078V94H34.0083V89.9995Z" fill="#CBC6C1" />
  <path d="M38.0005 89.9995H34V94H38.0005V89.9995Z" fill="#807B7A" />
  <path d="M42.0005 89.9995H38V94H42.0005V89.9995Z" fill="#807B7A" />
  <path d="M46.0083 89.9995H42.0078V94H46.0083V89.9995Z" fill="#CBC6C1" />
  <path d="M50.0083 89.9995H46.0078V94H50.0083V89.9995Z" fill="#CBC6C1" />
  <path d="M54.0005 89.9995H50V94H54.0005V89.9995Z" fill="black" />
  <path d="M58.0083 89.9995H54.0078V94H58.0083V89.9995Z" fill="#474646" />
  <path d="M62.0083 89.9995H58.0078V94H62.0083V89.9995Z" fill="#6D6D6D" />
  <path d="M66.0005 89.9995H62V94H66.0005V89.9995Z" fill="#595757" />
  <path d="M70.0083 89.9995H66.0078V94H70.0083V89.9995Z" fill="#595757" />
  <path d="M74.0083 89.9995H70.0078V94H74.0083V89.9995Z" fill="#595757" />
  <path d="M78.0005 89.9995H74V94H78.0005V89.9995Z" fill="#595757" />
  <path d="M82.0083 89.9995H78.0078V94H82.0083V89.9995Z" fill="#595757" />
  <path d="M86.0083 89.9995H82.0078V94H86.0083V89.9995Z" fill="#595757" />
  <path d="M90.0005 89.9995H86V94H90.0005V89.9995Z" fill="#595757" />
  <path d="M94.0005 89.9995H90V94H94.0005V89.9995Z" fill="#595757" />
  <path d="M98.0083 89.9995H94.0078V94H98.0083V89.9995Z" fill="#595757" />
  <path d="M102 89.9995H98V94H102V89.9995Z" fill="#6D6D6D" />
  <path d="M106 89.9995H102V94H106V89.9995Z" fill="#6D6D6D" />
  <path d="M110.008 89.9995H106.008V94H110.008V89.9995Z" fill="#595757" />
  <path d="M114.008 89.9995H110.008V94H114.008V89.9995Z" fill="#595757" />
  <path d="M118 89.9995H114V94H118V89.9995Z" fill="#595757" />
  <path d="M122.008 89.9995H118.008V94H122.008V89.9995Z" fill="#595757" />
  <path d="M126.008 89.9995H122.008V94H126.008V89.9995Z" fill="#595757" />
  <path d="M130 89.9995H126V94H130V89.9995Z" fill="#595757" />
  <path d="M134.008 89.9995H130.008V94H134.008V89.9995Z" fill="#595757" />
  <path d="M138.008 89.9995H134.008V94H138.008V89.9995Z" fill="#595757" />
  <path d="M142 89.9995H138V94H142V89.9995Z" fill="#595757" />
  <path d="M146.008 89.9995H142.008V94H146.008V89.9995Z" fill="black" />
  <path d="M150.008 89.9995H146.008V94H150.008V89.9995Z" fill="black" />
  <path d="M6.00046 93.9995H2V98H6.00046V93.9995Z" fill="black" />
  <path d="M10.0083 93.9995H6.00781V98H10.0083V93.9995Z" fill="#807B7A" />
  <path d="M14.0005 93.9995H10V98H14.0005V93.9995Z" fill="black" />
  <path d="M18.0005 93.9995H14V98H18.0005V93.9995Z" fill="#CBC6C1" />
  <path d="M22.0083 93.9995H18.0078V98H22.0083V93.9995Z" fill="#CBC6C1" />
  <path d="M26.0005 93.9995H22V98H26.0005V93.9995Z" fill="#CBC6C1" />
  <path d="M30.0005 93.9995H26V98H30.0005V93.9995Z" fill="#807B7A" />
  <path d="M34.0083 93.9995H30.0078V98H34.0083V93.9995Z" fill="#807B7A" />
  <path d="M38.0005 93.9995H34V98H38.0005V93.9995Z" fill="#CBC6C1" />
  <path d="M42.0005 93.9995H38V98H42.0005V93.9995Z" fill="#CBC6C1" />
  <path d="M46.0083 93.9995H42.0078V98H46.0083V93.9995Z" fill="#CBC6C1" />
  <path d="M50.0083 93.9995H46.0078V98H50.0083V93.9995Z" fill="#CBC6C1" />
  <path d="M54.0005 93.9995H50V98H54.0005V93.9995Z" fill="#CBC6C1" />
  <path d="M58.0083 93.9995H54.0078V98H58.0083V93.9995Z" fill="black" />
  <path d="M62.0083 93.9995H58.0078V98H62.0083V93.9995Z" fill="#474646" />
  <path d="M66.0005 93.9995H62V98H66.0005V93.9995Z" fill="#6D6D6D" />
  <path d="M70.0083 93.9995H66.0078V98H70.0083V93.9995Z" fill="#595757" />
  <path d="M74.0083 93.9995H70.0078V98H74.0083V93.9995Z" fill="#595757" />
  <path d="M78.0005 93.9995H74V98H78.0005V93.9995Z" fill="#595757" />
  <path d="M82.0083 93.9995H78.0078V98H82.0083V93.9995Z" fill="#595757" />
  <path d="M86.0083 93.9995H82.0078V98H86.0083V93.9995Z" fill="#595757" />
  <path d="M90.0005 93.9995H86V98H90.0005V93.9995Z" fill="#595757" />
  <path d="M94.0005 93.9995H90V98H94.0005V93.9995Z" fill="#6D6D6D" />
  <path d="M98.0083 93.9995H94.0078V98H98.0083V93.9995Z" fill="#6D6D6D" />
  <path d="M102 93.9995H98V98H102V93.9995Z" fill="#595757" />
  <path d="M106 93.9995H102V98H106V93.9995Z" fill="#595757" />
  <path d="M110.008 93.9995H106.008V98H110.008V93.9995Z" fill="#595757" />
  <path d="M114.008 93.9995H110.008V98H114.008V93.9995Z" fill="#595757" />
  <path d="M118 93.9995H114V98H118V93.9995Z" fill="#595757" />
  <path d="M122.008 93.9995H118.008V98H122.008V93.9995Z" fill="#595757" />
  <path d="M126.008 93.9995H122.008V98H126.008V93.9995Z" fill="#595757" />
  <path d="M130 93.9995H126V98H130V93.9995Z" fill="#595757" />
  <path d="M134.008 93.9995H130.008V98H134.008V93.9995Z" fill="#595757" />
  <path d="M138.008 93.9995H134.008V98H138.008V93.9995Z" fill="black" />
  <path d="M142 93.9995H138V98H142V93.9995Z" fill="black" />
  <path d="M6.00046 97.9995H2V102H6.00046V97.9995Z" fill="black" />
  <path d="M10.0083 97.9995H6.00781V102H10.0083V97.9995Z" fill="#807B7A" />
  <path d="M14.0005 97.9995H10V102H14.0005V97.9995Z" fill="#595757" />
  <path d="M18.0005 97.9995H14V102H18.0005V97.9995Z" fill="black" />
  <path d="M22.0083 97.9995H18.0078V102H22.0083V97.9995Z" fill="#CBC6C1" />
  <path d="M26.0005 97.9995H22V102H26.0005V97.9995Z" fill="#CBC6C1" />
  <path d="M30.0005 97.9995H26V102H30.0005V97.9995Z" fill="#CBC6C1" />
  <path d="M34.0083 97.9995H30.0078V102H34.0083V97.9995Z" fill="#CBC6C1" />
  <path d="M38.0005 97.9995H34V102H38.0005V97.9995Z" fill="#CBC6C1" />
  <path d="M42.0005 97.9995H38V102H42.0005V97.9995Z" fill="#CBC6C1" />
  <path d="M46.0083 97.9995H42.0078V102H46.0083V97.9995Z" fill="#807B7A" />
  <path d="M50.0083 97.9995H46.0078V102H50.0083V97.9995Z" fill="#807B7A" />
  <path d="M54.0005 97.9995H50V102H54.0005V97.9995Z" fill="#CBC6C1" />
  <path d="M58.0083 97.9995H54.0078V102H58.0083V97.9995Z" fill="#CBC6C1" />
  <path d="M62.0083 97.9995H58.0078V102H62.0083V97.9995Z" fill="black" />
  <path d="M66.0005 97.9995H62V102H66.0005V97.9995Z" fill="#474646" />
  <path d="M70.0083 97.9995H66.0078V102H70.0083V97.9995Z" fill="#6D6D6D" />
  <path d="M74.0083 97.9995H70.0078V102H74.0083V97.9995Z" fill="#595757" />
  <path d="M78.0005 97.9995H74V102H78.0005V97.9995Z" fill="#595757" />
  <path d="M82.0083 97.9995H78.0078V102H82.0083V97.9995Z" fill="#595757" />
  <path d="M86.0083 97.9995H82.0078V102H86.0083V97.9995Z" fill="#6D6D6D" />
  <path d="M90.0005 97.9995H86V102H90.0005V97.9995Z" fill="#6D6D6D" />
  <path d="M94.0005 97.9995H90V102H94.0005V97.9995Z" fill="#595757" />
  <path d="M98.0083 97.9995H94.0078V102H98.0083V97.9995Z" fill="#595757" />
  <path d="M102 97.9995H98V102H102V97.9995Z" fill="#595757" />
  <path d="M106 97.9995H102V102H106V97.9995Z" fill="#595757" />
  <path d="M110.008 97.9995H106.008V102H110.008V97.9995Z" fill="#595757" />
  <path d="M114.008 97.9995H110.008V102H114.008V97.9995Z" fill="#595757" />
  <path d="M118 97.9995H114V102H118V97.9995Z" fill="#595757" />
  <path d="M122.008 97.9995H118.008V102H122.008V97.9995Z" fill="#595757" />
  <path d="M126.008 97.9995H122.008V102H126.008V97.9995Z" fill="#595757" />
  <path d="M130 97.9995H126V102H130V97.9995Z" fill="black" />
  <path d="M134.008 97.9995H130.008V102H134.008V97.9995Z" fill="black" />
  <path d="M6.00046 102H2V106H6.00046V102Z" fill="black" />
  <path d="M10.0083 102H6.00781V106H10.0083V102Z" fill="#807B7A" />
  <path d="M14.0005 102H10V106H14.0005V102Z" fill="#595757" />
  <path d="M18.0005 102H14V106H18.0005V102Z" fill="#CBC6C1" />
  <path d="M22.0083 102H18.0078V106H22.0083V102Z" fill="black" />
  <path d="M26.0005 102H22V106H26.0005V102Z" fill="#CBC6C1" />
  <path d="M30.0005 102H26V106H30.0005V102Z" fill="#CBC6C1" />
  <path d="M34.0083 102H30.0078V106H34.0083V102Z" fill="#CBC6C1" />
  <path d="M38.0005 102H34V106H38.0005V102Z" fill="#807B7A" />
  <path d="M42.0005 102H38V106H42.0005V102Z" fill="#807B7A" />
  <path d="M46.0083 102H42.0078V106H46.0083V102Z" fill="#CBC6C1" />
  <path d="M50.0083 102H46.0078V106H50.0083V102Z" fill="#CBC6C1" />
  <path d="M54.0005 102H50V106H54.0005V102Z" fill="#CBC6C1" />
  <path d="M58.0083 102H54.0078V106H58.0083V102Z" fill="#CBC6C1" />
  <path d="M62.0083 102H58.0078V106H62.0083V102Z" fill="#CBC6C1" />
  <path d="M66.0005 102H62V106H66.0005V102Z" fill="black" />
  <path d="M70.0083 102H66.0078V106H70.0083V102Z" fill="#474646" />
  <path d="M74.0083 102H70.0078V106H74.0083V102Z" fill="#6D6D6D" />
  <path d="M78.0005 102H74V106H78.0005V102Z" fill="#6D6D6D" />
  <path d="M82.0083 102H78.0078V106H82.0083V102Z" fill="#6D6D6D" />
  <path d="M86.0083 102H82.0078V106H86.0083V102Z" fill="#595757" />
  <path d="M90.0005 102H86V106H90.0005V102Z" fill="#595757" />
  <path d="M94.0005 102H90V106H94.0005V102Z" fill="#595757" />
  <path d="M98.0083 102H94.0078V106H98.0083V102Z" fill="#595757" />
  <path d="M102 102H98V106H102V102Z" fill="#595757" />
  <path d="M106 102H102V106H106V102Z" fill="#595757" />
  <path d="M110.008 102H106.008V106H110.008V102Z" fill="#595757" />
  <path d="M114.008 102H110.008V106H114.008V102Z" fill="#595757" />
  <path d="M118 102H114V106H118V102Z" fill="#595757" />
  <path d="M122.008 102H118.008V106H122.008V102Z" fill="black" />
  <path d="M126.008 102H122.008V106H126.008V102Z" fill="black" />
  <path d="M6.00046 106H2V110H6.00046V106Z" fill="black" />
  <path d="M10.0083 106H6.00781V110H10.0083V106Z" fill="#807B7A" />
  <path d="M14.0005 106H10V110H14.0005V106Z" fill="#CBC6C1" />
  <path d="M18.0005 106H14V110H18.0005V106Z" fill="#A69E9A" />
  <path d="M22.0083 106H18.0078V110H22.0083V106Z" fill="#CBC6C1" />
  <path d="M26.0005 106H22V110H26.0005V106Z" fill="black" />
  <path d="M30.0005 106H26V110H30.0005V106Z" fill="#CBC6C1" />
  <path d="M34.0083 106H30.0078V110H34.0083V106Z" fill="#CBC6C1" />
  <path d="M38.0005 106H34V110H38.0005V106Z" fill="#CBC6C1" />
  <path d="M42.0005 106H38V110H42.0005V106Z" fill="#CBC6C1" />
  <path d="M46.0083 106H42.0078V110H46.0083V106Z" fill="#CBC6C1" />
  <path d="M50.0083 106H46.0078V110H50.0083V106Z" fill="#CBC6C1" />
  <path d="M54.0005 106H50V110H54.0005V106Z" fill="#CBC6C1" />
  <path d="M58.0083 106H54.0078V110H58.0083V106Z" fill="black" />
  <path d="M62.0083 106H58.0078V110H62.0083V106Z" fill="black" />
  <path d="M66.0005 106H62V110H66.0005V106Z" fill="black" />
  <path d="M70.0083 106H66.0078V110H70.0083V106Z" fill="#474646" />
  <path d="M74.0083 106H70.0078V110H74.0083V106Z" fill="#474646" />
  <path d="M78.0005 106H74V110H78.0005V106Z" fill="#595757" />
  <path d="M82.0083 106H78.0078V110H82.0083V106Z" fill="#595757" />
  <path d="M86.0083 106H82.0078V110H86.0083V106Z" fill="#595757" />
  <path d="M90.0005 106H86V110H90.0005V106Z" fill="#595757" />
  <path d="M94.0005 106H90V110H94.0005V106Z" fill="#595757" />
  <path d="M98.0083 106H94.0078V110H98.0083V106Z" fill="#595757" />
  <path d="M102 106H98V110H102V106Z" fill="#595757" />
  <path d="M106 106H102V110H106V106Z" fill="#595757" />
  <path d="M110.008 106H106.008V110H110.008V106Z" fill="#595757" />
  <path d="M114.008 106H110.008V110H114.008V106Z" fill="black" />
  <path d="M118 106H114V110H118V106Z" fill="black" />
  <path d="M10.0083 110H6.00781V114H10.0083V110Z" fill="black" />
  <path d="M14.0005 110H10V114H14.0005V110Z" fill="#ECEBE7" />
  <path d="M18.0005 110H14V114H18.0005V110Z" fill="#CBC6C1" />
  <path d="M22.0083 110H18.0078V114H22.0083V110Z" fill="#A69E9A" />
  <path d="M26.0005 110H22V114H26.0005V110Z" fill="#CBC6C1" />
  <path d="M30.0005 110H26V114H30.0005V110Z" fill="black" />
  <path d="M34.0083 110H30.0078V114H34.0083V110Z" fill="#CBC6C1" />
  <path d="M38.0005 110H34V114H38.0005V110Z" fill="#CBC6C1" />
  <path d="M42.0005 110H38V114H42.0005V110Z" fill="#CBC6C1" />
  <path d="M46.0083 110H42.0078V114H46.0083V110Z" fill="#CBC6C1" />
  <path d="M50.0083 110H46.0078V114H50.0083V110Z" fill="black" />
  <path d="M54.0005 110H50V114H54.0005V110Z" fill="black" />
  <path d="M58.0083 110H54.0078V114H58.0083V110Z" fill="#A69E9A" />
  <path d="M62.0083 110H58.0078V114H62.0083V110Z" fill="#A69E9A" />
  <path d="M66.0005 110H62V114H66.0005V110Z" fill="black" />
  <path d="M70.0083 110H66.0078V114H70.0083V110Z" fill="#474646" />
  <path d="M74.0083 110H70.0078V114H74.0083V110Z" fill="#474646" />
  <path d="M78.0005 110H74V114H78.0005V110Z" fill="#595757" />
  <path d="M82.0083 110H78.0078V114H82.0083V110Z" fill="#595757" />
  <path d="M86.0083 110H82.0078V114H86.0083V110Z" fill="#595757" />
  <path d="M90.0005 110H86V114H90.0005V110Z" fill="#595757" />
  <path d="M94.0005 110H90V114H94.0005V110Z" fill="#595757" />
  <path d="M98.0083 110H94.0078V114H98.0083V110Z" fill="#595757" />
  <path d="M102 110H98V114H102V110Z" fill="#595757" />
  <path d="M106 110H102V114H106V110Z" fill="black" />
  <path d="M110.008 110H106.008V114H110.008V110Z" fill="black" />
  <path d="M14.0005 114H10V118H14.0005V114Z" fill="black" />
  <path d="M18.0005 114H14V118H18.0005V114Z" fill="#ECEBE7" />
  <path d="M22.0083 114H18.0078V118H22.0083V114Z" fill="#CBC6C1" />
  <path d="M26.0005 114H22V118H26.0005V114Z" fill="#A69E9A" />
  <path d="M30.0005 114H26V118H30.0005V114Z" fill="#CBC6C1" />
  <path d="M34.0083 114H30.0078V118H34.0083V114Z" fill="black" />
  <path d="M38.0005 114H34V118H38.0005V114Z" fill="#CBC6C1" />
  <path d="M42.0005 114H38V118H42.0005V114Z" fill="black" />
  <path d="M46.0083 114H42.0078V118H46.0083V114Z" fill="black" />
  <path d="M50.0083 114H46.0078V118H50.0083V114Z" fill="#A69E9A" />
  <path d="M54.0005 114H50V118H54.0005V114Z" fill="#A69E9A" />
  <path d="M58.0083 114H54.0078V118H58.0083V114Z" fill="#A69E9A" />
  <path d="M62.0083 114H58.0078V118H62.0083V114Z" fill="#A69E9A" />
  <path d="M66.0005 114H62V118H66.0005V114Z" fill="black" />
  <path d="M70.0083 114H66.0078V118H70.0083V114Z" fill="#474646" />
  <path d="M74.0083 114H70.0078V118H74.0083V114Z" fill="#474646" />
  <path d="M78.0005 114H74V118H78.0005V114Z" fill="#595757" />
  <path d="M82.0083 114H78.0078V118H82.0083V114Z" fill="#595757" />
  <path d="M86.0083 114H82.0078V118H86.0083V114Z" fill="#595757" />
  <path d="M90.0005 114H86V118H90.0005V114Z" fill="#595757" />
  <path d="M94.0005 114H90V118H94.0005V114Z" fill="#595757" />
  <path d="M98.0083 114H94.0078V118H98.0083V114Z" fill="black" />
  <path d="M102 114H98V118H102V114Z" fill="black" />
  <path d="M18.0005 118H14V122H18.0005V118Z" fill="black" />
  <path d="M22.0083 118H18.0078V122H22.0083V118Z" fill="#ECEBE7" />
  <path d="M26.0005 118H22V122H26.0005V118Z" fill="#CBC6C1" />
  <path d="M30.0005 118H26V122H30.0005V118Z" fill="#A69E9A" />
  <path d="M34.0083 118H30.0078V122H34.0083V118Z" fill="#807B7A" />
  <path d="M38.0005 118H34V122H38.0005V118Z" fill="black" />
  <path d="M42.0005 118H38V122H42.0005V118Z" fill="#A69E9A" />
  <path d="M46.0083 118H42.0078V122H46.0083V118Z" fill="#A69E9A" />
  <path d="M50.0083 118H46.0078V122H50.0083V118Z" fill="#A69E9A" />
  <path d="M54.0005 118H50V122H54.0005V118Z" fill="#A69E9A" />
  <path d="M58.0083 118H54.0078V122H58.0083V118Z" fill="#A69E9A" />
  <path d="M62.0083 118H58.0078V122H62.0083V118Z" fill="#A69E9A" />
  <path d="M66.0005 118H62V122H66.0005V118Z" fill="black" />
  <path d="M70.0083 118H66.0078V122H70.0083V118Z" fill="#474646" />
  <path d="M74.0083 118H70.0078V122H74.0083V118Z" fill="#474646" />
  <path d="M78.0005 118H74V122H78.0005V118Z" fill="#595757" />
  <path d="M82.0083 118H78.0078V122H82.0083V118Z" fill="#595757" />
  <path d="M86.0083 118H82.0078V122H86.0083V118Z" fill="#595757" />
  <path d="M90.0005 118H86V122H90.0005V118Z" fill="black" />
  <path d="M94.0005 118H90V122H94.0005V118Z" fill="black" />
  <path d="M22.0083 122H18.0078V126H22.0083V122Z" fill="black" />
  <path d="M26.0005 122H22V126H26.0005V122Z" fill="#ECEBE7" />
  <path d="M30.0005 122H26V126H30.0005V122Z" fill="#CBC6C1" />
  <path d="M34.0083 122H30.0078V126H34.0083V122Z" fill="#807B7A" />
  <path d="M38.0005 122H34V126H38.0005V122Z" fill="black" />
  <path d="M42.0005 122H38V126H42.0005V122Z" fill="#A69E9A" />
  <path d="M46.0083 122H42.0078V126H46.0083V122Z" fill="#A69E9A" />
  <path d="M50.0083 122H46.0078V126H50.0083V122Z" fill="#A69E9A" />
  <path d="M54.0005 122H50V126H54.0005V122Z" fill="#A69E9A" />
  <path d="M58.0083 122H54.0078V126H58.0083V122Z" fill="#A69E9A" />
  <path d="M62.0083 122H58.0078V126H62.0083V122Z" fill="black" />
  <path d="M66.0005 122H62V126H66.0005V122Z" fill="black" />
  <path d="M70.0083 122H66.0078V126H70.0083V122Z" fill="#474646" />
  <path d="M74.0083 122H70.0078V126H74.0083V122Z" fill="#474646" />
  <path d="M78.0005 122H74V126H78.0005V122Z" fill="#595757" />
  <path d="M82.0083 122H78.0078V126H82.0083V122Z" fill="black" />
  <path d="M86.0083 122H82.0078V126H86.0083V122Z" fill="black" />
  <path d="M26.0005 126H22V130H26.0005V126Z" fill="black" />
  <path d="M30.0005 126H26V130H30.0005V126Z" fill="#ECEBE7" />
  <path d="M34.0083 126H30.0078V130H34.0083V126Z" fill="#807B7A" />
  <path d="M38.0005 126H34V130H38.0005V126Z" fill="black" />
  <path d="M42.0005 126H38V130H42.0005V126Z" fill="#A69E9A" />
  <path d="M46.0083 126H42.0078V130H46.0083V126Z" fill="#A69E9A" />
  <path d="M50.0083 126H46.0078V130H50.0083V126Z" fill="#A69E9A" />
  <path d="M54.0005 126H50V130H54.0005V126Z" fill="black" />
  <path d="M58.0083 126H54.0078V130H58.0083V126Z" fill="black" />
  <path d="M62.0083 126H58.0078V130H62.0083V126Z" fill="black" />
  <path d="M66.0005 126H62V130H66.0005V126Z" fill="#474646" />
  <path d="M70.0083 126H66.0078V130H70.0083V126Z" fill="#474646" />
  <path d="M74.0083 126H70.0078V130H74.0083V126Z" fill="black" />
  <path d="M78.0005 126H74V130H78.0005V126Z" fill="black" />
  <path d="M30.0005 130H26V134H30.0005V130Z" fill="black" />
  <path d="M34.0083 130H30.0078V134H34.0083V130Z" fill="#807B7A" />
  <path d="M38.0005 130H34V134H38.0005V130Z" fill="black" />
  <path d="M42.0005 130H38V134H42.0005V130Z" fill="#A69E9A" />
  <path d="M46.0083 130H42.0078V134H46.0083V130Z" fill="black" />
  <path d="M50.0083 130H46.0078V134H50.0083V130Z" fill="black" />
  <path d="M66.0005 130H62V134H66.0005V130Z" fill="black" />
  <path d="M70.0083 130H66.0078V134H70.0083V130Z" fill="black" />
  <path d="M34.0083 134H30.0078V138H34.0083V134Z" fill="black" />
  <path d="M38.0005 134H34V138H38.0005V134Z" fill="black" />
  <path d="M42.0005 134H38V138H42.0005V134Z" fill="black" />
</svg>
